<svg width="456" height="456" viewBox="0 0 456 456" fill="none" xmlns="http://www.w3.org/2000/svg">
<path d="M79.8839 235.804L67.9139 236.058L61.8391 236.16C59.8089 236.203 57.7688 236.194 55.7332 236.211L55.3283 236.214L55.3265 235.805L55.2772 225.599L55.2754 225.142L55.7332 225.143L67.8081 225.201C71.8327 225.205 75.8583 225.304 79.883 225.35L80.1347 225.353L80.132 225.599C80.1146 227.331 80.0535 229.053 80.0125 230.756L79.8839 235.804ZM79.8839 235.804L79.7544 230.647C79.7133 228.948 79.6522 227.268 79.6349 225.599L79.8839 225.847C75.8592 225.894 71.8337 225.992 67.809 225.997L55.7341 226.055L56.1892 225.599L56.14 235.805L55.7341 235.398C57.7241 235.414 59.7086 235.405 61.7041 235.448L67.7041 235.55L79.8839 235.804Z" fill="#EBEBEB"/>
<path d="M66.4132 248.671L54.4432 248.925L48.3684 249.028C46.3382 249.07 44.2981 249.061 42.2625 249.078L41.8576 249.081L41.8558 248.672L41.8065 238.467L41.8047 238.009L42.2625 238.011L54.3374 238.068C58.362 238.073 62.3876 238.17 66.4123 238.218L66.664 238.22L66.6612 238.467C66.6439 240.199 66.5828 241.92 66.5418 243.623L66.4132 248.671ZM66.4132 248.671L66.2837 243.515C66.2426 241.815 66.1815 240.136 66.1642 238.466L66.4132 238.715C62.3885 238.761 58.363 238.86 54.3383 238.864L42.2634 238.922L42.7185 238.467L42.6693 248.672L42.2625 248.265C44.2525 248.282 46.237 248.272 48.2325 248.315L54.2325 248.417L66.4132 248.671Z" fill="#EBEBEB"/>
<path d="M207.081 189.205L195.111 189.46L189.036 189.562C187.006 189.605 184.966 189.595 182.93 189.612L182.526 189.616L182.524 189.206L182.474 179.001L182.473 178.543L182.93 178.545L195.005 178.602C199.03 178.607 203.056 178.705 207.08 178.752L207.332 178.755L207.329 179.001C207.312 180.733 207.251 182.455 207.21 184.157L207.081 189.205ZM207.081 189.205L206.952 184.049C206.911 182.35 206.85 180.67 206.832 179L207.081 179.249C203.056 179.295 199.031 179.394 195.006 179.398L182.931 179.456L183.386 179.001L183.337 189.206L182.931 188.799C184.921 188.816 186.906 188.807 188.901 188.849L194.901 188.952L207.081 189.205Z" fill="#EBEBEB"/>
<path d="M193.61 202.073L181.64 202.328L175.566 202.43C173.536 202.473 171.495 202.464 169.46 202.48L169.055 202.484L169.053 202.074L169.004 191.869L169.002 191.411L169.46 191.413L181.535 191.47C185.559 191.475 189.585 191.573 193.61 191.62L193.861 191.623L193.859 191.869C193.841 193.601 193.78 195.323 193.739 197.025L193.61 202.073ZM193.61 202.073L193.481 196.917C193.44 195.218 193.379 193.538 193.361 191.868L193.61 192.117C189.586 192.164 185.56 192.262 181.536 192.267L169.461 192.324L169.916 191.869L169.867 202.074L169.46 201.667C171.45 201.684 173.434 201.675 175.43 201.718L181.43 201.82L193.61 202.073Z" fill="#EBEBEB"/>
<path d="M220.759 202.073L208.789 202.328L202.714 202.43C200.684 202.473 198.644 202.464 196.608 202.48L196.203 202.484L196.201 202.074L196.152 191.869L196.15 191.411L196.608 191.413L208.683 191.47C212.708 191.475 216.733 191.573 220.758 191.62L221.01 191.623L221.007 191.869C220.99 193.601 220.929 195.323 220.887 197.025L220.759 202.073ZM220.759 202.073L220.629 196.917C220.588 195.218 220.527 193.538 220.51 191.868L220.759 192.117C216.734 192.164 212.709 192.262 208.684 192.267L196.609 192.324L197.064 191.869L197.015 202.074L196.608 201.667C198.598 201.684 200.583 201.675 202.578 201.718L208.578 201.82L220.759 202.073Z" fill="#EBEBEB"/>
<path d="M413.737 248.671L401.767 248.925L395.693 249.028C393.662 249.07 391.622 249.061 389.587 249.078L389.182 249.081L389.18 248.672L389.131 238.467L389.129 238.009L389.587 238.011L401.662 238.068C405.686 238.073 409.712 238.17 413.736 238.218L413.988 238.22L413.985 238.467C413.968 240.199 413.907 241.92 413.866 243.623L413.737 248.671ZM413.737 248.671L413.608 243.515C413.567 241.815 413.506 240.136 413.488 238.466L413.737 238.715C409.713 238.761 405.687 238.86 401.663 238.864L389.588 238.922L390.043 238.467L389.993 248.672L389.588 248.265C391.578 248.282 393.562 248.272 395.558 248.315L401.558 248.417L413.737 248.671Z" fill="#EBEBEB"/>
<path d="M400.265 49.4307L388.295 49.6851L382.22 49.7873C380.19 49.8301 378.15 49.821 376.114 49.8374L375.709 49.8402L375.707 49.4307L375.658 39.2254L375.656 38.7676L376.114 38.7694L388.189 38.8269C392.214 38.8314 396.239 38.929 400.264 38.9764L400.516 38.9792L400.513 39.2254C400.495 40.9573 400.434 42.6791 400.393 44.3819L400.265 49.4307ZM400.265 49.4307L400.135 44.2742C400.094 42.5752 400.033 40.8953 400.016 39.2254L400.265 39.4744C396.24 39.5209 392.215 39.6194 388.19 39.6239L376.115 39.6814L376.57 39.2263L376.521 49.4316L376.114 49.0248C378.104 49.0413 380.089 49.0321 382.084 49.075L388.084 49.1771L400.265 49.4307Z" fill="#EBEBEB"/>
<path d="M413.737 62.2988L401.767 62.5533L395.693 62.6554C393.662 62.6983 391.622 62.6892 389.587 62.7056L389.182 62.7083L389.18 62.2988L389.131 52.0936L389.129 51.6357L389.587 51.6376L401.662 51.695C405.686 51.6996 409.712 51.7972 413.736 51.8446L413.988 51.8473L413.985 52.0936C413.968 53.8255 413.907 55.5473 413.866 57.25L413.737 62.2988ZM413.737 62.2988L413.608 57.1424C413.567 55.4433 413.506 53.7634 413.488 52.0936L413.737 52.3425C409.713 52.3891 405.687 52.4875 401.663 52.4921L389.588 52.5496L390.043 52.0945L389.993 62.2998L389.588 61.893C391.578 61.9094 393.562 61.9003 395.558 61.9432L401.558 62.0453L413.737 62.2988Z" fill="#EBEBEB"/>
<path d="M79.8849 49.4307L67.9149 49.6851L61.8401 49.7873C59.81 49.8301 57.7698 49.821 55.7343 49.8374L55.3293 49.8402L55.3284 49.4307L55.2792 39.2254L55.2773 38.7676L55.7352 38.7694L67.81 38.8269C71.8347 38.8314 75.8603 38.929 79.8849 38.9764L80.1366 38.9792L80.1339 39.2254C80.1166 40.9573 80.0555 42.6791 80.0144 44.3819L79.8849 49.4307ZM79.8849 49.4307L79.7554 44.2742C79.7144 42.5752 79.6533 40.8953 79.636 39.2254L79.8849 39.4744C75.8603 39.5209 71.8347 39.6194 67.81 39.6239L55.7352 39.6814L56.1903 39.2263L56.141 49.4307L55.7352 49.0239C57.7252 49.0403 59.7097 49.0312 61.7051 49.0741L67.7052 49.1762L79.8849 49.4307Z" fill="#EBEBEB"/>
<path d="M71.7793 86.1749V0" stroke="#C7C7C7" stroke-miterlimit="10"/>
<path d="M109.535 122.572L106.498 129.248H37.0493L34.0215 122.572L63.5885 102.106H79.968L109.535 122.572Z" fill="#EBEBEB"/>
<path d="M82.0206 82.3887L79.9686 102.106H63.5891L61.5371 82.3887H82.0206Z" fill="#DBDBDB"/>
<path d="M109.533 122.574L106.496 129.25H37.0474L34.0195 122.574H109.533Z" fill="#DBDBDB"/>
<path d="M152.85 64.638V0" stroke="#C7C7C7" stroke-miterlimit="10"/>
<path d="M190.606 101.034L187.569 107.709H118.122L115.094 101.034L144.66 80.5684H161.04L190.606 101.034Z" fill="#EBEBEB"/>
<path d="M163.092 60.8506L161.04 80.568H144.659L142.607 60.8506H163.092Z" fill="#DBDBDB"/>
<path d="M190.603 101.037L187.566 107.713H118.118L115.09 101.037H190.603Z" fill="#DBDBDB"/>
<path d="M37.8047 350.324L85.3536 350.103L132.903 350.021L228 349.869L323.098 350.021L370.647 350.101L418.196 350.324L370.647 350.547L323.098 350.627L228 350.778L132.903 350.626L85.3536 350.546L37.8047 350.324Z" fill="#263238"/>
<path d="M228 418.968C326.557 418.968 406.454 407.733 406.454 393.874C406.454 380.015 326.557 368.78 228 368.78C129.442 368.78 49.5449 380.015 49.5449 393.874C49.5449 407.733 129.442 418.968 228 418.968Z" fill="#EBEBEB"/>
<path d="M389.586 49.3232V310.888H191.633V49.3232H194.972L196.235 54.787L201.639 58.3219V62.4442H208.022V56.0511H203.098L203.587 49.3251H217.735L218.157 56.0511H217.236V62.4442H223.62V56.0511H220.889L221.731 49.3251H231.336L232.824 56.0511V62.4442H239.217V56.0511H236.799L238.209 49.3251H248.999L249.557 56.0511H248.421V62.4442H254.814V56.0511H252.151V49.3251H262.501L262.775 51.3324L264.185 56.052H264.019V62.4451H270.412V56.052H267.975L267.495 51.7145L267.172 49.326H281.065C281.065 49.326 281.065 51.6561 281.065 51.823C281.065 51.9799 282.26 56.0529 282.26 56.0529H279.616V62.446H286.009V56.0529H284.316V49.3269H296.888L296.203 56.0529H295.214V62.446H301.607V56.0529H300.09L299.728 49.3269H310.527L310.967 56.0529H310.81V62.446H317.203V56.0529H314.54L312.641 49.3269H326.104L326.407 56.0529V62.446H332.8V56.0529H330.118L329.355 49.3269H340.154L342.004 58.2754V62.446H348.397V56.0529H344.873L346.067 49.3269H357.601V62.4469H363.994V56.0538H360.019L359.099 49.3278H369.272L373.198 57.8751V62.4478H379.591V56.0547H375.225L374.882 49.3287H389.586V49.3232Z" fill="#EBEBEB"/>
<path d="M374.76 84.207H206.461V84.891H374.76V84.207Z" fill="#DBDBDB"/>
<path d="M374.76 93.2549H206.461V93.9389H374.76V93.2549Z" fill="#DBDBDB"/>
<path d="M374.76 102.304H206.461V102.988H374.76V102.304Z" fill="#DBDBDB"/>
<path d="M374.76 111.352H206.461V112.036H374.76V111.352Z" fill="#DBDBDB"/>
<path d="M374.76 120.4H206.461V121.084H374.76V120.4Z" fill="#DBDBDB"/>
<path d="M374.76 129.448H206.461V130.132H374.76V129.448Z" fill="#DBDBDB"/>
<path d="M374.76 138.497H206.461V139.181H374.76V138.497Z" fill="#DBDBDB"/>
<path d="M374.76 147.546H206.461V148.23H374.76V147.546Z" fill="#DBDBDB"/>
<path d="M374.76 156.595H206.461V157.279H374.76V156.595Z" fill="#DBDBDB"/>
<path d="M374.76 165.643H206.461V166.327H374.76V165.643Z" fill="#DBDBDB"/>
<path d="M374.76 174.691H206.461V175.375H374.76V174.691Z" fill="#DBDBDB"/>
<path d="M374.76 183.739H206.461V184.423H374.76V183.739Z" fill="#DBDBDB"/>
<path d="M374.76 192.787H206.461V193.471H374.76V192.787Z" fill="#DBDBDB"/>
<path d="M374.76 201.836H206.461V202.52H374.76V201.836Z" fill="#DBDBDB"/>
<path d="M374.76 210.885H206.461V211.569H374.76V210.885Z" fill="#DBDBDB"/>
<path d="M374.76 219.933H206.461V220.617H374.76V219.933Z" fill="#DBDBDB"/>
<path d="M374.76 228.981H206.461V229.665H374.76V228.981Z" fill="#DBDBDB"/>
<path d="M374.76 238.029H206.461V238.713H374.76V238.029Z" fill="#DBDBDB"/>
<path d="M374.76 247.078H206.461V247.762H374.76V247.078Z" fill="#DBDBDB"/>
<path d="M374.76 256.126H206.461V256.81H374.76V256.126Z" fill="#DBDBDB"/>
<path d="M374.76 265.175H206.461V265.859H374.76V265.175Z" fill="#DBDBDB"/>
<path d="M374.76 274.224H206.461V274.908H374.76V274.224Z" fill="#DBDBDB"/>
<path d="M374.76 283.271H206.461V283.955H374.76V283.271Z" fill="#DBDBDB"/>
<path d="M374.76 292.32H206.461V293.004H374.76V292.32Z" fill="#DBDBDB"/>
<path d="M212.086 90.9335L231.717 90.7119L251.348 90.5842L290.61 90.4775L329.873 90.5824L349.503 90.7101L369.135 90.9335L349.503 91.157L329.873 91.2837L290.61 91.3886L251.348 91.2828L231.717 91.1552L212.086 90.9335Z" fill="#263238"/>
<path d="M212.086 99.9814C221.753 99.7935 231.42 99.7051 241.088 99.6321L270.089 99.5254L299.091 99.6303L313.592 99.758L328.092 99.9814L313.592 100.205L299.091 100.333L270.089 100.437L241.088 100.331C231.42 100.258 221.753 100.17 212.086 99.9814Z" fill="#263238"/>
<path d="M212.086 109.03L231.717 108.809L251.348 108.681L290.61 108.574L329.873 108.679L349.503 108.807L369.135 109.03L349.503 109.253L329.873 109.38L290.61 109.485L251.348 109.38L231.717 109.252L212.086 109.03Z" fill="#263238"/>
<path d="M212.086 118.078C218.412 117.89 224.737 117.802 231.062 117.729L250.039 117.622L269.015 117.727L278.503 117.854C281.666 117.929 284.829 117.974 287.992 118.077C284.829 118.18 281.666 118.225 278.503 118.301L269.015 118.427L250.039 118.532L231.062 118.426C224.737 118.354 218.412 118.266 212.086 118.078Z" fill="#263238"/>
<path d="M212.086 136.175L231.717 135.953L251.348 135.825L290.61 135.719L329.873 135.824L349.503 135.951L369.135 136.175L349.503 136.398L329.873 136.525L290.61 136.63L251.348 136.524L231.717 136.396L212.086 136.175Z" fill="#263238"/>
<path d="M212.086 145.223C221.738 145.035 231.388 144.946 241.04 144.873L269.994 144.767L298.948 144.871L313.426 144.998L327.903 145.222L313.426 145.445L298.948 145.572L269.994 145.677L241.04 145.57C231.388 145.499 221.738 145.41 212.086 145.223Z" fill="#263238"/>
<path d="M212.086 154.272C222.816 154.085 233.545 153.996 244.275 153.923L276.464 153.816L308.653 153.921L324.747 154.048L340.842 154.272L324.747 154.495L308.653 154.622L276.464 154.727L244.275 154.62C233.545 154.549 222.816 154.46 212.086 154.272Z" fill="#263238"/>
<path d="M212.086 172.368C220.082 172.18 228.078 172.092 236.074 172.019L260.062 171.912L284.049 172.017L296.043 172.144L308.037 172.367L296.043 172.591L284.049 172.717L260.062 172.822L236.074 172.716C228.078 172.644 220.082 172.557 212.086 172.368Z" fill="#263238"/>
<path d="M212.086 181.417L231.717 181.195L251.348 181.068L290.61 180.961L329.873 181.066L349.503 181.193L369.135 181.417L349.503 181.639L329.873 181.767L290.61 181.872L251.348 181.766L231.717 181.639L212.086 181.417Z" fill="#263238"/>
<path d="M212.086 190.465C222.816 190.277 233.545 190.188 244.275 190.115L276.464 190.009L308.653 190.114L324.747 190.241L340.842 190.465L324.747 190.688L308.653 190.816L276.464 190.921L244.275 190.814C233.545 190.741 222.816 190.653 212.086 190.465Z" fill="#263238"/>
<path d="M212.086 199.514L231.717 199.291L251.348 199.164L290.61 199.058L329.873 199.162L349.503 199.29L369.135 199.514L349.503 199.736L329.873 199.864L290.61 199.969L251.348 199.862L231.717 199.735L212.086 199.514Z" fill="#263238"/>
<path d="M212.086 208.561C219.905 208.374 227.724 208.285 235.543 208.212L259.001 208.105L282.459 208.21L294.188 208.338L305.916 208.561L294.188 208.785L282.459 208.913L259.001 209.017L235.543 208.911C227.724 208.838 219.905 208.749 212.086 208.561Z" fill="#263238"/>
<path d="M209.119 168.216H145.333C145.333 168.216 143.961 160.022 143.961 152.25C143.961 136.187 143.961 87.9961 143.961 87.9961H224.18C224.18 87.9961 224.18 136.81 224.18 153.082C224.18 159.589 209.119 168.216 209.119 168.216Z" fill="#532D97"/>
<path opacity="0.2" d="M224.173 153.07C224.173 159.391 210.021 167.66 209.146 168.176C211.492 166.587 211.095 154.024 211.095 154.024C211.095 154.024 223.935 152.354 224.173 153.07Z" fill="black"/>
<path d="M155.77 106.954C165.203 106.181 174.637 106.001 184.07 105.961C193.504 105.997 202.937 106.175 212.37 106.954C202.936 107.733 193.503 107.912 184.07 107.947C174.637 107.908 165.203 107.728 155.77 106.954Z" fill="white"/>
<path d="M155.77 117.53C163.191 116.756 170.612 116.577 178.034 116.537C185.456 116.573 192.878 116.751 200.299 117.53C192.878 118.309 185.456 118.488 178.034 118.523C170.612 118.484 163.191 118.305 155.77 117.53Z" fill="white"/>
<path d="M155.77 128.107C163.191 127.333 170.612 127.154 178.034 127.114C185.456 127.15 192.878 127.329 200.299 128.107C192.878 128.886 185.456 129.065 178.034 129.101C170.612 129.06 163.191 128.881 155.77 128.107Z" fill="white"/>
<path d="M360.973 347.081H284.893C284.893 347.081 281.123 339.31 281.123 331.939C281.123 316.704 281.123 271 281.123 271H357.204C357.204 271 357.204 317.296 357.204 332.728C357.203 338.899 360.973 347.081 360.973 347.081Z" fill="#E1D255"/>
<path opacity="0.8" d="M360.973 347.081H284.893C284.893 347.081 281.123 339.31 281.123 331.939C281.123 316.704 281.123 271 281.123 271H357.204C357.204 271 357.204 317.296 357.204 332.728C357.203 338.899 360.973 347.081 360.973 347.081Z" fill="white"/>
<path d="M357.202 276.187H281.123V276.415H357.202V276.187Z" fill="#E1D255"/>
<path d="M357.202 281.649H281.123V281.877H357.202V281.649Z" fill="#E1D255"/>
<path d="M357.202 287.121H281.123V287.349H357.202V287.121Z" fill="#E1D255"/>
<path d="M357.202 292.584H281.123V292.812H357.202V292.584Z" fill="#E1D255"/>
<path d="M357.202 298.057H281.123V298.285H357.202V298.057Z" fill="#E1D255"/>
<path d="M357.202 303.52H281.123V303.748H357.202V303.52Z" fill="#E1D255"/>
<path d="M357.202 308.982H281.123V309.21H357.202V308.982Z" fill="#E1D255"/>
<path d="M357.202 314.454H281.123V314.682H357.202V314.454Z" fill="#E1D255"/>
<path d="M357.202 319.917H281.123V320.145H357.202V319.917Z" fill="#E1D255"/>
<path d="M357.202 325.389H281.123V325.617H357.202V325.389Z" fill="#E1D255"/>
<path d="M357.202 330.852H281.123V331.08H357.202V330.852Z" fill="#E1D255"/>
<path d="M357.586 336.552H281.552C281.534 336.479 281.525 336.406 281.516 336.324H357.549C357.558 336.397 357.576 336.479 357.586 336.552Z" fill="#E1D255"/>
<path d="M359.026 342.015H282.928C282.901 341.942 282.874 341.869 282.855 341.787H358.953C358.971 341.869 358.998 341.942 359.026 342.015Z" fill="#E1D255"/>
<path d="M289.814 347.076H289.577C288.975 345.435 288.373 343.702 287.844 342.015C287.826 341.932 287.798 341.859 287.78 341.786C287.206 339.926 286.722 338.12 286.449 336.552C286.43 336.479 286.412 336.397 286.403 336.324C286.248 335.439 286.166 334.636 286.166 333.943V270.997H286.394V333.943C286.394 334.636 286.476 335.439 286.631 336.324C286.64 336.397 286.658 336.47 286.668 336.552C286.95 338.12 287.434 339.926 288.008 341.786C288.036 341.859 288.054 341.942 288.081 342.015C288.61 343.711 289.212 345.444 289.814 347.076Z" fill="#E1D255"/>
<path d="M295.287 347.076H295.05C294.448 345.435 293.846 343.702 293.317 342.015C293.299 341.932 293.271 341.859 293.253 341.786C292.678 339.926 292.195 338.12 291.921 336.552C291.903 336.479 291.885 336.397 291.876 336.324C291.721 335.439 291.639 334.636 291.639 333.943V270.997H291.867V333.943C291.867 334.636 291.949 335.439 292.104 336.324C292.113 336.397 292.131 336.47 292.14 336.552C292.423 338.12 292.906 339.926 293.481 341.786C293.508 341.859 293.527 341.942 293.554 342.015C294.083 343.711 294.685 345.444 295.287 347.076Z" fill="#E1D255"/>
<path d="M300.75 347.076H300.512C299.911 345.435 299.309 343.702 298.78 342.015C298.761 341.932 298.734 341.859 298.716 341.786C298.141 339.926 297.658 338.12 297.384 336.552C297.366 336.479 297.348 336.397 297.339 336.324C297.184 335.439 297.102 334.636 297.102 333.943V270.997H297.33V333.943C297.33 334.636 297.412 335.439 297.567 336.324C297.576 336.397 297.594 336.47 297.603 336.552C297.886 338.12 298.369 339.926 298.944 341.786C298.971 341.859 298.989 341.942 299.017 342.015C299.546 343.711 300.148 345.444 300.75 347.076Z" fill="#E1D255"/>
<path d="M306.22 347.076H305.983C305.381 345.435 304.779 343.702 304.25 342.015C304.223 341.932 304.205 341.859 304.177 341.786C303.603 339.926 303.129 338.12 302.846 336.552C302.837 336.479 302.819 336.397 302.809 336.324C302.654 335.439 302.572 334.636 302.572 333.943V270.997H302.8V333.943C302.8 334.636 302.882 335.439 303.037 336.324C303.047 336.397 303.065 336.47 303.074 336.552C303.357 338.12 303.84 339.926 304.415 341.786C304.442 341.859 304.46 341.942 304.487 342.015C305.016 343.711 305.618 345.444 306.22 347.076Z" fill="#E1D255"/>
<path d="M311.683 347.076H311.446C310.844 345.435 310.242 343.702 309.713 342.015C309.695 341.932 309.668 341.859 309.649 341.786C309.075 339.926 308.591 338.12 308.318 336.552C308.3 336.479 308.281 336.397 308.272 336.324C308.117 335.439 308.035 334.636 308.035 333.943V270.997H308.263V333.943C308.263 334.636 308.345 335.439 308.5 336.324C308.509 336.397 308.528 336.47 308.537 336.552C308.819 338.12 309.303 339.926 309.877 341.786C309.905 341.859 309.923 341.942 309.95 342.015C310.479 343.711 311.081 345.444 311.683 347.076Z" fill="#E1D255"/>
<path d="M317.156 347.076H316.919C316.317 345.435 315.715 343.702 315.186 342.015C315.168 341.932 315.14 341.859 315.122 341.786C314.547 339.926 314.064 338.12 313.791 336.552C313.772 336.479 313.754 336.397 313.745 336.324C313.59 335.439 313.508 334.636 313.508 333.943V270.997H313.736V333.943C313.736 334.636 313.818 335.439 313.973 336.324C313.982 336.397 314 336.47 314.009 336.552C314.292 338.12 314.775 339.926 315.35 341.786C315.377 341.859 315.396 341.942 315.423 342.015C315.952 343.711 316.554 345.444 317.156 347.076Z" fill="#E1D255"/>
<path d="M322.619 347.076H322.382C321.78 345.435 321.178 343.702 320.649 342.015C320.621 341.932 320.603 341.859 320.576 341.786C320.001 339.926 319.527 338.12 319.244 336.552C319.235 336.479 319.217 336.397 319.208 336.324C319.053 335.439 318.971 334.636 318.971 333.943V270.997H319.199V333.943C319.199 334.636 319.281 335.439 319.436 336.324C319.445 336.397 319.463 336.47 319.472 336.552C319.755 338.12 320.238 339.926 320.813 341.786C320.84 341.859 320.859 341.942 320.886 342.015C321.415 343.711 322.017 345.444 322.619 347.076Z" fill="#E1D255"/>
<path d="M328.091 347.076H327.854C327.252 345.435 326.65 343.702 326.121 342.015C326.094 341.932 326.076 341.859 326.048 341.786C325.474 339.926 325 338.12 324.717 336.552C324.708 336.479 324.69 336.397 324.68 336.324C324.525 335.439 324.443 334.636 324.443 333.943V270.997H324.671V333.943C324.671 334.636 324.753 335.439 324.908 336.324C324.918 336.397 324.936 336.47 324.945 336.552C325.228 338.12 325.711 339.926 326.286 341.786C326.313 341.859 326.331 341.942 326.359 342.015C326.888 343.711 327.489 345.444 328.091 347.076Z" fill="#E1D255"/>
<path d="M333.554 347.076H333.317C332.715 345.435 332.113 343.702 331.584 342.015C331.566 341.932 331.539 341.859 331.521 341.786C330.946 339.926 330.463 338.12 330.189 336.552C330.171 336.479 330.152 336.397 330.143 336.324C329.988 335.439 329.906 334.636 329.906 333.943V270.997H330.134V333.943C330.134 334.636 330.216 335.439 330.371 336.324C330.38 336.397 330.399 336.47 330.408 336.552C330.691 338.12 331.174 339.926 331.749 341.786C331.776 341.859 331.794 341.942 331.821 342.015C332.35 343.711 332.952 345.444 333.554 347.076Z" fill="#E1D255"/>
<path d="M339.025 347.076H338.788C338.186 345.435 337.584 343.702 337.055 342.015C337.037 341.932 337.009 341.859 336.991 341.786C336.417 339.926 335.933 338.12 335.66 336.552C335.641 336.479 335.623 336.397 335.614 336.324C335.459 335.439 335.377 334.636 335.377 333.943V270.997H335.605V333.943C335.605 334.636 335.687 335.439 335.842 336.324C335.851 336.397 335.869 336.47 335.879 336.552C336.161 338.12 336.645 339.926 337.219 341.786C337.247 341.859 337.265 341.942 337.292 342.015C337.821 343.711 338.423 345.444 339.025 347.076Z" fill="#E1D255"/>
<path d="M344.488 347.076H344.251C343.649 345.435 343.047 343.702 342.518 342.015C342.491 341.932 342.472 341.859 342.445 341.786C341.87 339.926 341.396 338.12 341.113 336.552C341.104 336.479 341.086 336.397 341.077 336.324C340.922 335.439 340.84 334.636 340.84 333.943V270.997H341.068V333.943C341.068 334.636 341.15 335.439 341.305 336.324C341.314 336.397 341.332 336.47 341.341 336.552C341.624 338.12 342.108 339.926 342.682 341.786C342.709 341.859 342.728 341.942 342.755 342.015C343.284 343.711 343.886 345.444 344.488 347.076Z" fill="#E1D255"/>
<path d="M349.961 347.076H349.723C349.121 345.435 348.52 343.702 347.991 342.015C347.963 341.932 347.945 341.859 347.918 341.786C347.343 339.926 346.869 338.12 346.586 336.552C346.577 336.479 346.559 336.397 346.55 336.324C346.395 335.439 346.312 334.636 346.312 333.943V270.997H346.541V333.943C346.541 334.636 346.623 335.439 346.778 336.324C346.787 336.397 346.805 336.47 346.814 336.552C347.097 338.12 347.58 339.926 348.155 341.786C348.182 341.859 348.2 341.942 348.228 342.015C348.757 343.711 349.359 345.444 349.961 347.076Z" fill="#E1D255"/>
<path d="M355.423 347.076H355.186C354.584 345.435 353.982 343.702 353.453 342.015C353.435 341.932 353.408 341.859 353.39 341.786C352.815 339.926 352.332 338.12 352.058 336.552C352.04 336.479 352.022 336.397 352.013 336.324C351.857 335.439 351.775 334.636 351.775 333.943V270.997H352.003V333.943C352.003 334.636 352.085 335.439 352.241 336.324C352.25 336.397 352.268 336.47 352.277 336.552C352.56 338.12 353.043 339.926 353.618 341.786C353.645 341.859 353.663 341.942 353.691 342.015C354.22 343.711 354.821 345.444 355.423 347.076Z" fill="#E1D255"/>
<path d="M292.561 285.986C297.059 285.798 301.557 285.71 306.055 285.637C310.553 285.562 315.052 285.569 319.551 285.53C324.049 285.566 328.548 285.562 333.046 285.635L339.794 285.762C342.043 285.838 344.293 285.882 346.542 285.985C344.293 286.088 342.043 286.133 339.794 286.209L333.046 286.336C328.548 286.409 324.049 286.405 319.551 286.44C315.052 286.402 310.554 286.409 306.055 286.334C301.557 286.262 297.059 286.174 292.561 285.986Z" fill="#263238"/>
<path d="M292.561 291.35C297.059 291.162 301.557 291.073 306.055 291C310.553 290.926 315.052 290.932 319.551 290.895C324.049 290.93 328.548 290.926 333.046 290.999L339.794 291.126C342.043 291.202 344.293 291.247 346.542 291.35C344.293 291.453 342.043 291.497 339.794 291.573L333.046 291.7C328.548 291.773 324.049 291.769 319.551 291.805C315.052 291.766 310.554 291.774 306.055 291.698C301.557 291.626 297.059 291.538 292.561 291.35Z" fill="#263238"/>
<path d="M292.561 296.714C295.776 296.526 298.992 296.437 302.208 296.365C305.423 296.282 308.639 296.27 311.855 296.258C315.071 296.268 318.286 296.28 321.502 296.363L326.326 296.489C327.933 296.565 329.541 296.61 331.149 296.713C329.541 296.816 327.933 296.861 326.326 296.936L321.502 297.063C318.286 297.146 315.071 297.158 311.855 297.168C308.639 297.156 305.423 297.145 302.208 297.061C298.992 296.99 295.776 296.902 292.561 296.714Z" fill="#263238"/>
<path d="M292.561 307.443C294.513 307.255 296.465 307.167 298.417 307.094C300.37 307.011 302.322 306.999 304.274 306.987C306.227 306.997 308.179 307.01 310.131 307.092L313.06 307.219C314.035 307.295 315.012 307.339 315.988 307.442C315.012 307.545 314.035 307.59 313.06 307.666L310.131 307.793C308.179 307.876 306.227 307.887 304.274 307.897C302.322 307.886 300.37 307.875 298.417 307.791C296.465 307.72 294.513 307.631 292.561 307.443Z" fill="#263238"/>
<path d="M292.561 312.808C297.059 312.62 301.557 312.531 306.055 312.458C310.553 312.383 315.052 312.39 319.551 312.352C324.049 312.387 328.548 312.384 333.046 312.456L339.794 312.583C342.043 312.659 344.293 312.704 346.542 312.807C344.293 312.91 342.043 312.954 339.794 313.03L333.046 313.157C328.548 313.23 324.049 313.226 319.551 313.262C315.052 313.223 310.554 313.231 306.055 313.155C301.557 313.084 297.059 312.995 292.561 312.808Z" fill="#263238"/>
<path d="M292.561 318.171C296.379 317.983 300.197 317.895 304.015 317.822C307.834 317.747 311.651 317.753 315.47 317.715C319.289 317.75 323.106 317.747 326.925 317.82L332.652 317.947C334.561 318.023 336.471 318.068 338.379 318.171C336.471 318.274 334.561 318.319 332.652 318.394L326.925 318.521C323.106 318.594 319.289 318.59 315.47 318.626C311.651 318.588 307.834 318.595 304.015 318.519C300.197 318.447 296.379 318.36 292.561 318.171Z" fill="#263238"/>
<path d="M292.561 323.535C295.713 323.347 298.866 323.259 302.019 323.186C305.172 323.103 308.324 323.091 311.477 323.079C314.63 323.089 317.783 323.101 320.936 323.184L325.664 323.311C327.24 323.386 328.817 323.431 330.393 323.534C328.817 323.637 327.24 323.682 325.664 323.758L320.936 323.884C317.783 323.967 314.63 323.979 311.477 323.989C308.324 323.977 305.172 323.966 302.019 323.883C298.866 323.811 295.713 323.724 292.561 323.535Z" fill="#263238"/>
<g opacity="0.5">
<path d="M302.283 263.254L298.963 265.418L302.713 263.975L304.126 266.339L302.609 267.66L304.543 267.035L305.085 267.944L303.025 269.44L305.376 268.429L305.782 269.11L277.978 285.725L276.757 283.682L278.931 282.245L276.434 283.141L275.915 282.272L277.549 281.105L275.639 281.811L275.387 281.388L277.989 279.281L274.731 280.292L273.848 278.812L301.652 262.197L302.283 263.254Z" fill="white"/>
<path d="M365.326 284.087L362.256 281.685L364.782 284.727L363.006 286.82L361.285 285.837L362.48 287.438L361.79 288.251L359.749 286.818L361.423 288.683L360.91 289.287L336.627 268.669L338.168 266.854L340.196 268.421L338.575 266.374L339.236 265.595L340.838 266.752L339.579 265.192L339.897 264.818L342.698 266.573L340.724 263.844L341.84 262.53L366.122 283.149L365.326 284.087Z" fill="white"/>
</g>
<path d="M407.227 238.536H356.078L344.635 230.684L356.078 222.834H407.227V238.536Z" fill="#543882"/>
<path d="M418.196 218.767H367.046L355.604 210.917L367.046 203.066H418.196V218.767Z" fill="#AAE0A2"/>
<path d="M75.7102 391.327L221.406 391.954C256.819 364.147 260.475 322.949 235.213 297.977C219.922 282.873 200.507 285.92 182.019 283.517C182.002 283.517 181.984 283.508 181.966 283.508C175.527 282.669 169.211 281.167 163.213 278.005C144.178 267.961 133.445 244.271 117.431 224.343C115.434 221.843 113.349 219.414 111.159 217.074C97.9886 203.011 71.7759 202.553 58.0658 222.323C23.2274 272.557 39.1856 347.325 75.7102 391.327Z" fill="#DBDBDB"/>
<path d="M72.4782 276.389C76.294 336.163 145.326 358.476 188.441 340.571C225.929 324.997 213.659 289.461 182.019 283.517C182.002 283.517 181.984 283.508 181.967 283.508C175.527 282.669 169.211 281.167 163.213 278.005C144.178 267.961 133.445 244.271 117.431 224.343C93.5718 211.949 69.6783 232.62 72.4782 276.389Z" fill="#C7C7C7"/>
<path d="M123.021 194.805C133.41 204.652 140.55 230.27 135.286 246.441C129.016 265.704 111.832 275.536 97.7373 270.975C84.9392 266.835 79.3094 253.9 84.0071 244.284C88.5443 234.996 97.2074 231.593 98.8144 223.33C99.5832 219.376 98.259 212.809 98.5836 206.844C99.1746 195.993 114.93 187.138 123.021 194.805Z" fill="#263238"/>
<path d="M82.2891 246.507C82.8208 244.444 83.7337 242.548 84.8117 240.812C85.9006 239.08 87.1701 237.498 88.5983 236.112C90.0465 234.715 91.4574 233.272 92.8281 231.763C94.187 230.248 95.4857 228.611 96.4953 226.748C96.9887 225.811 97.4675 224.876 97.8104 223.813C98.1515 222.763 98.3038 221.654 98.3804 220.557C98.5181 218.354 98.3257 216.179 98.2281 214.028C98.1296 211.879 98.1606 209.726 98.5455 207.641C98.903 205.548 100.013 203.613 101.032 201.807C99.8742 203.506 98.6768 205.436 98.1925 207.539C97.7137 209.65 97.6271 211.856 97.6554 214.027C97.669 216.201 97.8469 218.367 97.6918 220.473C97.607 221.522 97.452 222.559 97.1273 223.521C96.8118 224.473 96.3284 225.397 95.8423 226.29C93.8924 229.89 90.9476 232.684 88.1943 235.624C86.7861 237.099 85.5376 238.765 84.497 240.577C83.5093 242.417 82.6539 244.385 82.2891 246.507Z" fill="#263238"/>
<path d="M198.168 418.274C196.027 417.489 147.655 378.83 146.741 376.191C146.39 375.191 151.61 367.819 158.169 359.088C159.585 357.202 161.059 355.264 162.567 353.304C172.343 340.567 183.012 327.281 183.012 327.281L215.445 353.047L194.107 378.361L189.427 383.921C189.427 383.921 201.327 407.006 202.018 410.009C202.699 413.004 200.309 419.059 198.168 418.274Z" fill="#D3766A"/>
<path d="M198.168 418.275C196.026 417.489 147.655 378.831 146.741 376.191C146.319 374.972 154.11 364.341 162.567 353.305L194.107 378.362L189.427 383.922C189.427 383.922 201.327 407.007 202.017 410.01C202.699 413.004 200.309 419.06 198.168 418.275Z" fill="white"/>
<path d="M198.168 418.274C196.027 417.489 147.655 378.83 146.741 376.191C146.39 375.191 151.61 367.818 158.169 359.088L189.427 383.922C189.427 383.922 201.327 407.006 202.018 410.009C202.699 413.003 200.309 419.059 198.168 418.274Z" fill="#543882"/>
<path d="M199.021 415.784C191.072 409.105 158.379 382.915 150.013 376.917C149.945 376.867 149.909 376.912 149.972 376.968C157.707 383.76 190.611 409.685 198.915 415.917C199.091 416.049 199.189 415.926 199.021 415.784Z" fill="#263238"/>
<path d="M200.298 405.782C198.438 404.167 195.829 403.578 193.865 403.885C191.978 404.181 189.88 405.039 188.593 406.766C188.556 406.815 188.644 406.888 188.691 406.844C191.69 404.042 196.804 403.561 200.217 405.884C200.287 405.931 200.362 405.837 200.298 405.782Z" fill="#263238"/>
<path d="M191.929 387.241C188.719 384.602 184.041 382.74 179.903 383.783C179.743 383.823 179.802 384.051 179.939 384.078C184.081 384.911 187.771 386.012 191.665 387.685C191.941 387.803 192.159 387.43 191.929 387.241Z" fill="#263238"/>
<path d="M193.653 390.219C190.444 387.58 185.765 385.719 181.627 386.761C181.467 386.801 181.527 387.029 181.663 387.056C185.805 387.888 189.495 388.99 193.39 390.663C193.665 390.782 193.883 390.409 193.653 390.219Z" fill="#263238"/>
<path d="M195.38 393.199C192.17 390.56 187.492 388.698 183.354 389.741C183.193 389.781 183.254 390.009 183.39 390.036C187.532 390.868 191.222 391.97 195.117 393.643C195.391 393.761 195.609 393.388 195.38 393.199Z" fill="#263238"/>
<path d="M197.104 396.177C193.895 393.538 189.216 391.677 185.079 392.719C184.918 392.759 184.978 392.986 185.114 393.014C189.256 393.846 192.946 394.948 196.841 396.621C197.115 396.74 197.334 396.367 197.104 396.177Z" fill="#263238"/>
<path d="M158.235 370.865C154.585 367.966 150.073 373.633 153.729 376.537C157.378 379.437 161.89 373.77 158.235 370.865Z" fill="white"/>
<path d="M202.357 381.384C201.804 378.709 198.67 378.387 196.526 378.991C193.055 379.971 189.361 382.281 186.944 384.934C186.885 385 186.915 385.069 186.972 385.108C186.855 385.396 186.974 385.811 187.346 385.837C190.934 386.085 194.738 386.795 198.296 385.935C200.374 385.432 202.882 383.914 202.357 381.384ZM192.862 385.1C191.095 385.021 189.342 384.855 187.572 384.841C189.444 383.687 191.256 382.458 193.244 381.493C194.192 381.033 195.175 380.578 196.178 380.252C197.741 379.743 203.094 379.577 200.594 383.365C199.218 385.455 194.97 385.194 192.862 385.1Z" fill="#263238"/>
<path d="M177.919 379.692C180.398 382.384 183.955 383.909 187.076 385.697C187.4 385.882 187.729 385.604 187.792 385.3C187.861 385.299 187.924 385.258 187.912 385.17C187.377 381.622 185.592 377.648 183.25 374.904C181.805 373.209 179.021 371.735 177.073 373.652C175.231 375.465 176.472 378.12 177.919 379.692ZM177.436 376.279C177.466 371.74 181.823 374.855 182.838 376.146C183.491 376.976 184.056 377.9 184.587 378.81C185.703 380.717 186.527 382.746 187.442 384.746C185.963 383.774 184.414 382.937 182.9 382.02C181.096 380.927 177.42 378.782 177.436 376.279Z" fill="#263238"/>
<path d="M248.204 303.501C245.981 320.352 204.455 368.993 199.657 374.572C198.949 375.395 198.564 375.841 198.564 375.841L164.215 349.445L164.611 348.935L194.859 309.329L104.635 308.799L138.89 282.163C138.89 282.163 141.669 283.766 147.447 282.922C167.358 280.008 212.253 273.554 222.838 273.981C236.494 274.543 250.243 288.041 248.204 303.501Z" fill="#B68CFB"/>
<path d="M205.722 294.607C204.549 295.795 203.613 297.281 202.602 298.606C201.533 300.008 200.446 301.397 199.379 302.8C199.368 302.813 199.358 302.827 199.348 302.842C199.538 302.43 199.723 302.018 199.92 301.61C200.594 300.215 201.133 298.772 201.93 297.438C201.978 297.357 201.854 297.28 201.804 297.361C200.985 298.687 200.035 299.945 199.334 301.341C199.003 301.997 198.692 302.66 198.4 303.335C198.24 303.704 198.077 304.075 197.934 304.45C197.868 304.622 197.786 304.805 197.738 304.99C197.26 305.641 196.786 306.295 196.328 306.96C195.309 308.436 194.411 309.994 193.379 311.458C193.324 311.537 193.448 311.61 193.505 311.535C194.548 310.159 195.719 308.875 196.78 307.51C197.859 306.119 198.883 304.69 199.895 303.25C200.881 301.845 201.848 300.426 202.833 299.019C203.825 297.603 205.003 296.207 205.808 294.675C205.835 294.623 205.768 294.561 205.722 294.607Z" fill="#263238"/>
<path d="M122.902 250.611C127.785 259.974 146.48 289.94 156.945 291.155C163.811 291.952 190.719 286.652 194.765 279.765C196.528 276.764 191.162 257.575 187.617 258.707C184.072 259.839 162.573 264.859 159.822 264.344C157.087 263.833 134.752 242.718 126.7 237.723C112.814 229.109 120.271 245.57 122.902 250.611Z" fill="#D3766A"/>
<path d="M179.259 258.111L182.72 287.393C182.72 287.393 161.576 293.436 152.02 290.786C140.416 287.566 121.609 253.419 118.974 247.778C114.648 238.517 115.327 232.705 120.708 233.781C122.799 234.182 125.605 235.635 129.102 238.35C132.762 241.176 153.916 259.685 160.437 263.025C164.083 264.893 179.259 258.111 179.259 258.111Z" fill="#455A64"/>
<path d="M179.252 258.109L182.719 287.396C182.719 287.396 179.213 288.4 174.408 289.409C167.413 290.872 157.682 292.354 152.02 290.781C140.419 287.564 121.603 253.417 118.973 247.777C115.842 241.077 115.335 236.178 117.338 234.392C118.092 233.706 119.224 233.485 120.709 233.777C122.796 234.187 125.606 235.634 129.106 238.347C132.763 241.173 153.909 259.683 160.434 263.023C164.082 264.898 179.252 258.109 179.252 258.109Z" fill="#E1D255"/>
<path d="M177.328 287.277C176.687 282.965 174.707 265.223 174.54 261.361C174.528 261.093 174.695 261.021 174.743 261.298C176.976 274.174 177.085 282.984 177.497 287.246C177.507 287.352 177.344 287.386 177.328 287.277Z" fill="#263238"/>
<path d="M118.971 247.774C121.602 253.417 140.419 287.569 152.016 290.784C154.874 291.577 158.786 291.589 162.855 291.228L119.993 233.678C118.857 233.575 117.962 233.822 117.339 234.39C115.332 236.177 115.841 241.081 118.971 247.774Z" fill="#263238"/>
<path d="M86.7637 305.227L141.625 291.211L136.214 271.403C136.214 271.403 140.556 265.188 138.709 259.267C137.062 253.987 124.553 238.279 122.026 236.186C117.691 232.595 109.943 231.397 105.7 236.399C88.2101 257.022 86.7637 305.227 86.7637 305.227Z" fill="#E1D255"/>
<path opacity="0.1" d="M119.013 234.321L104.439 237.969C104.85 237.431 105.269 236.911 105.698 236.4C105.798 236.282 105.899 236.172 105.999 236.063L116.451 233.445C117.335 233.655 118.192 233.947 119.013 234.321ZM122.451 236.573L101.859 241.745C101.767 241.9 101.667 242.055 101.585 242.21L122.771 236.893C122.661 236.774 122.552 236.665 122.451 236.573ZM125.105 239.51L99.5329 245.921C99.2502 246.487 98.9675 247.071 98.6939 247.654L126.163 240.769C125.799 240.322 125.443 239.902 125.105 239.51ZM128.252 243.359L97.1435 251.165C97.0797 251.311 97.0249 251.457 96.9611 251.603L128.516 243.696C128.425 243.578 128.334 243.468 128.252 243.359ZM130.577 246.377L95.6113 255.151C95.4107 255.707 95.2192 256.264 95.0368 256.82L131.535 247.663C131.225 247.226 130.897 246.797 130.577 246.377ZM133.45 250.299L93.9515 260.213C93.8968 260.349 93.8603 260.495 93.8238 260.632L133.678 250.637C133.605 250.527 133.523 250.418 133.45 250.299ZM135.53 253.373L92.8297 264.089C92.6929 264.627 92.547 265.174 92.4011 265.712L136.369 254.686C136.104 254.266 135.831 253.829 135.53 253.373ZM137.919 257.422L91.5985 269.041C91.5621 269.177 91.5347 269.323 91.4982 269.46L138.092 257.768C138.047 257.659 137.992 257.54 137.919 257.422ZM139.041 260.732L90.7595 272.844C90.6501 273.382 90.5406 273.92 90.4312 274.449L139.159 262.228C139.159 261.736 139.123 261.234 139.041 260.732ZM89.8201 277.723C89.7928 277.86 89.7654 278.006 89.7472 278.142L138.694 265.867C138.731 265.721 138.767 265.584 138.795 265.438L89.8201 277.723ZM89.1817 281.48C89.0997 282.018 89.0176 282.547 88.9446 283.067L136.369 271.166C136.569 270.856 136.943 270.235 137.363 269.396L89.1817 281.48ZM136.961 274.139L88.4795 286.305C88.4613 286.442 88.443 286.578 88.4248 286.715L137.062 274.513L136.961 274.139ZM137.883 277.504L88.0144 290.017C87.9505 290.555 87.8867 291.075 87.832 291.585L138.266 278.927L137.883 277.504ZM139.068 281.854L87.4945 294.786C87.4854 294.923 87.4763 295.06 87.4581 295.197L139.168 282.228L139.068 281.854ZM139.989 285.22L87.1753 298.462C87.1297 299.009 87.0933 299.529 87.0568 300.012L140.372 286.642L139.989 285.22ZM141.175 289.561L86.8653 303.186C86.847 303.323 86.847 303.46 86.8379 303.587L141.275 289.935L141.175 289.561Z" fill="black"/>
<path d="M129.345 244.307C130.72 246.023 132.213 247.662 133.64 249.346C133.005 248.113 132.378 246.876 131.696 245.667C131.682 245.642 131.718 245.617 131.734 245.641C132.749 247.097 133.668 248.595 134.359 250.206C135.414 251.489 136.415 252.808 137.28 254.217C138.319 255.909 139.161 257.705 139.535 259.644C139.909 261.579 139.763 263.59 139.291 265.507C138.744 267.731 137.824 269.851 136.862 271.945C136.736 272.223 136.323 272.023 136.425 271.75C137.78 268.1 139.296 264.25 138.7 260.341C138.111 256.481 135.802 253.104 133.553 249.94C132.198 248.033 130.821 246.119 129.214 244.392C129.15 244.323 129.283 244.231 129.345 244.307Z" fill="#263238"/>
<path d="M128.121 268.801C125.638 269.747 123.169 270.785 120.85 272.091C119.696 272.74 118.58 273.439 117.473 274.165C116.921 274.527 116.36 274.868 115.796 275.208C115.216 275.557 114.586 275.906 113.935 276.103C113.877 276.121 113.902 276.209 113.962 276.194C114.606 276.04 115.221 275.891 115.84 275.653C116.428 275.427 116.996 275.135 117.548 274.832C118.724 274.184 119.871 273.482 121.04 272.822C123.4 271.491 125.759 270.161 128.21 269.004C128.323 268.95 128.239 268.756 128.121 268.801Z" fill="#263238"/>
<path d="M135.062 269.374C132.904 269.723 130.73 270.18 128.625 270.772C127.566 271.069 126.533 271.426 125.503 271.811C125.011 271.996 124.523 272.189 124.037 272.388C123.503 272.607 122.996 272.897 122.459 273.108C122.404 273.13 122.427 273.22 122.486 273.199C122.998 273.016 123.544 272.917 124.067 272.763C124.592 272.608 125.116 272.45 125.641 272.296C126.693 271.986 127.747 271.688 128.796 271.369C130.895 270.73 132.992 270.114 135.111 269.547C135.227 269.516 135.174 269.355 135.062 269.374Z" fill="#263238"/>
<path d="M111.274 236.251C111.603 237.237 117.024 243.332 121.611 242.686C123.105 242.474 122.308 234.269 122.308 234.269L122.387 233.65L123.494 224.983L112.926 219.514L111.406 218.802C111.406 218.802 111.259 221.193 111.107 224.172C111.098 224.309 111.091 224.448 111.085 224.596C111.072 224.764 111.057 224.923 111.053 225.08C111.024 225.525 110.997 225.979 110.979 226.432C110.964 226.777 110.948 227.113 110.945 227.475C110.933 227.839 110.93 228.192 110.918 228.556C110.88 232.144 111.139 235.832 111.274 236.251Z" fill="#D3766A"/>
<path d="M111.107 224.173C114.169 230.703 119.823 232.954 122.388 233.651L123.495 224.984L112.927 219.515L111.407 218.803C111.407 218.803 111.26 221.193 111.107 224.173Z" fill="#263238"/>
<path d="M134.335 209.5C138.25 224.325 129.812 228.345 126.614 229.185C123.712 229.949 113.731 232.179 108.304 217.837C102.878 203.495 108.534 196.989 115.08 194.892C121.627 192.794 130.419 194.674 134.335 209.5Z" fill="#D3766A"/>
<path d="M131.693 208.821C131.332 208.848 130.994 208.811 130.634 208.8C130.228 208.788 129.903 208.82 129.558 208.573C129.373 208.441 129.322 208.111 129.434 207.92C129.694 207.473 130.195 207.364 130.684 207.36C131.216 207.354 131.626 207.486 132.041 207.816C132.444 208.137 132.17 208.786 131.693 208.821Z" fill="#263238"/>
<path d="M121.196 210.318C121.542 210.209 121.842 210.052 122.173 209.909C122.546 209.748 122.859 209.659 123.09 209.303C123.213 209.112 123.138 208.786 122.964 208.649C122.558 208.329 122.052 208.413 121.595 208.588C121.099 208.778 120.765 209.052 120.502 209.512C120.246 209.958 120.74 210.461 121.196 210.318Z" fill="#263238"/>
<path d="M123.967 212.793C123.95 212.756 123.898 212.859 123.908 212.9C124.159 213.914 124.277 215.117 123.426 215.654C123.4 215.671 123.413 215.722 123.447 215.71C124.54 215.309 124.368 213.713 123.967 212.793Z" fill="#263238"/>
<path d="M122.827 211.922C121.158 212.15 121.737 215.471 123.283 215.259C124.804 215.052 124.225 211.731 122.827 211.922Z" fill="#263238"/>
<path d="M122.205 212.212C121.948 212.45 121.722 212.831 121.378 212.927C120.98 213.037 120.614 212.742 120.292 212.454C120.258 212.424 120.234 212.459 120.242 212.503C120.343 213.141 120.701 213.75 121.4 213.727C122.037 213.705 122.386 213.063 122.433 212.396C122.442 212.272 122.309 212.115 122.205 212.212Z" fill="#263238"/>
<path d="M129.957 211.358C129.959 211.317 130.045 211.393 130.052 211.436C130.19 212.471 130.523 213.634 131.512 213.821C131.543 213.826 131.548 213.878 131.513 213.879C130.349 213.909 129.922 212.362 129.957 211.358Z" fill="#263238"/>
<path d="M130.697 210.13C132.332 209.729 133.015 213.03 131.499 213.402C130.008 213.767 129.326 210.467 130.697 210.13Z" fill="#263238"/>
<path d="M131.431 210.206C131.728 210.327 132.051 210.591 132.368 210.548C132.733 210.497 132.927 210.084 133.087 209.695C133.104 209.655 133.136 209.677 133.146 209.72C133.293 210.348 133.22 211.048 132.639 211.295C132.11 211.52 131.591 211.062 131.312 210.465C131.259 210.353 131.312 210.157 131.431 210.206Z" fill="#263238"/>
<path d="M125.808 221.539C126.087 221.75 126.378 222.053 126.758 222.035C127.122 222.02 127.524 221.803 127.838 221.632C127.869 221.616 127.906 221.646 127.89 221.68C127.672 222.111 127.138 222.433 126.647 222.41C126.168 222.388 125.883 222.013 125.715 221.599C125.692 221.541 125.768 221.508 125.808 221.539Z" fill="#263238"/>
<path d="M129.407 217.028C129.407 217.028 129.905 218.522 130.04 219.244C130.052 219.312 129.883 219.376 129.641 219.437C129.63 219.443 129.624 219.449 129.613 219.443C128.373 219.881 127.005 219.679 126.035 218.782C125.972 218.721 126.049 218.629 126.123 218.661C127.207 219.184 128.294 219.168 129.43 218.975C129.444 218.765 128.493 216.446 128.606 216.416C128.995 216.309 129.823 216.433 130.317 216.482C129.37 213.341 127.928 210.377 127.033 207.236C127.002 207.123 127.16 207.058 127.212 207.154C128.944 210.153 130.112 213.744 131.173 216.962C131.31 217.363 129.719 217.097 129.407 217.028Z" fill="#263238"/>
<path d="M108.452 218.659C111.654 216.693 111.411 213.139 111.411 213.139C115.408 210.88 117.317 207.364 117.515 207.007C117.447 207.334 116.959 209.69 116.672 210.883C126.17 208 128.351 200.248 128.351 200.248C131.843 203.04 132.693 204.978 133.258 205.929C133.258 205.929 132.672 199.972 129.173 196.326C124.891 191.862 119.885 193.351 119.885 193.351C119.885 193.351 112.104 191.939 106.955 198.948C101.414 206.506 108.452 218.659 108.452 218.659Z" fill="#263238"/>
<path d="M123.867 208.464C122.418 209.504 120.765 210.281 119.094 210.84C119.08 210.844 119.074 210.823 119.088 210.818C121.734 209.743 124.029 208.04 125.731 205.728C126.45 204.751 127.045 203.697 127.501 202.572C127.977 201.397 128.416 200.012 128.381 198.733C128.378 198.636 128.53 198.632 128.532 198.729C128.568 200.081 128.587 201.328 128.185 202.635C127.803 203.877 127.188 205.061 126.385 206.084C125.667 206.997 124.81 207.786 123.867 208.464Z" fill="#263238"/>
<path d="M110.961 218.352C110.961 218.352 106.846 214.208 104.909 215.755C102.974 217.302 106.638 223.708 109.313 224.207C111.987 224.707 112.498 222.24 112.498 222.24L110.961 218.352Z" fill="#D3766A"/>
<path d="M106.005 217.565C105.964 217.569 105.966 217.626 106.003 217.634C107.888 218.043 109.098 219.515 110.041 221.096C109.405 220.535 108.63 220.302 107.865 221.076C107.824 221.116 107.881 221.181 107.928 221.162C108.623 220.882 109.165 220.917 109.753 221.41C110.169 221.759 110.495 222.236 110.824 222.666C110.933 222.809 111.203 222.675 111.112 222.504C111.106 222.492 111.098 222.479 111.091 222.466C110.746 220.213 108.455 217.373 106.005 217.565Z" fill="#263238"/>
<path d="M99.348 244.005C91.1592 256.868 81.7473 277.398 81.4892 291.911C81.3634 299 93.6207 305.442 98.0831 303.292C108.578 298.236 123.184 286.612 128.931 278.951C130.961 276.246 109.246 258.056 107.655 261.304C106.104 264.471 105.074 266.453 103.475 267.704C102.697 268.313 107.312 258.76 109.632 245.394C112.801 227.138 102.316 239.344 99.348 244.005Z" fill="#D3766A"/>
<path d="M124.829 230.117C124.829 230.117 121.426 225.907 124.485 223.819C127.543 221.732 130.223 226.435 130.223 226.435L124.829 230.117Z" fill="#FFC4C0"/>
<path d="M130.102 226.275L124.707 229.956L146.165 261.399L151.56 257.718L130.102 226.275Z" fill="#E1D255"/>
<path opacity="0.2" d="M130.102 226.275L124.707 229.956L146.165 261.399L151.56 257.718L130.102 226.275Z" fill="black"/>
<path d="M130.439 225.793L124.141 230.092L124.994 231.342L131.292 227.043L130.439 225.793Z" fill="#37474F"/>
<path d="M131.38 227.176L125.082 231.475L125.935 232.724L132.233 228.426L131.38 227.176Z" fill="#37474F"/>
<path d="M151.565 257.697L152.184 262.963L152.394 264.699L150.843 263.879L146.164 261.383L146.176 260.226C146.176 260.226 147.225 260.641 147.245 260.645L147.256 259.489C147.256 259.489 148.305 259.904 148.325 259.908L148.324 258.76C148.324 258.76 149.384 259.167 149.404 259.17L149.403 258.022C149.403 258.022 150.464 258.429 150.484 258.432L150.483 257.285C150.483 257.285 151.545 257.694 151.565 257.697Z" fill="white"/>
<path d="M152.183 262.963L152.393 264.698L150.842 263.879L152.183 262.963Z" fill="#37474F"/>
<path d="M140.367 235.181C142.306 237.859 135.295 242.079 135.295 242.079C135.295 242.079 137.574 241.92 139.25 243.338C141.169 244.961 139.464 248.681 139.464 248.681C139.464 248.681 141.804 248.998 143.423 250.673C145.103 252.411 143.919 256.41 143.919 256.41C143.919 256.41 145.937 257.902 146.298 260.354C146.914 264.545 141.659 268.403 138.879 271.434C135.899 274.68 130.057 277.779 127.789 280.137L106.967 262.98C106.967 262.98 113.631 246.054 119.481 241.494C122.725 238.965 137.404 231.087 140.367 235.181Z" fill="#D3766A"/>
<path d="M135.185 242.042C130.94 243.535 127.06 246.042 123.344 248.502C123.261 248.557 123.349 248.685 123.431 248.63C127.099 246.141 131.52 244.572 135.279 242.234C135.383 242.169 135.299 242.002 135.185 242.042Z" fill="#263238"/>
<path d="M139.171 248.477C138.221 248.844 137.395 249.523 136.582 250.122C135.707 250.767 134.843 251.426 133.989 252.099C132.28 253.446 130.601 254.832 128.964 256.267C128.891 256.331 128.971 256.457 129.051 256.394C130.756 255.055 132.483 253.741 134.244 252.474C135.125 251.84 136.012 251.213 136.902 250.593C137.73 250.016 138.653 249.476 139.338 248.725C139.439 248.614 139.316 248.423 139.171 248.477Z" fill="#263238"/>
<path d="M143.843 256.465C143.005 256.75 142.266 257.514 141.591 258.07C140.824 258.7 140.055 259.326 139.282 259.948C137.736 261.191 136.191 262.432 134.602 263.62C134.523 263.679 134.608 263.807 134.689 263.748C136.308 262.549 137.944 261.372 139.553 260.158C140.344 259.563 141.13 258.963 141.913 258.358C142.579 257.844 143.471 257.277 143.908 256.539C143.933 256.498 143.885 256.45 143.843 256.465Z" fill="#263238"/>
<path d="M118.332 242.52C119.257 241.403 120.803 239.662 124.55 238.403C124.654 238.368 124.654 238.427 124.556 238.479C124.007 238.771 121.139 240.117 118.37 242.557C118.344 242.579 118.309 242.546 118.332 242.52Z" fill="#263238"/>
<path d="M129.962 282.773L107.316 260.476L103.858 266.739C103.858 266.739 109.021 252.8 110.335 245.187C111.648 237.573 111.425 228.664 101.782 240.061C92.3335 251.228 79.6749 283.431 80.3206 291.773C80.9663 300.114 91.5866 305.172 96.93 304.214C102.272 303.256 129.962 282.773 129.962 282.773Z" fill="#E1D255"/>
<path d="M124.049 285.179C120.886 282.18 108.39 269.432 105.876 266.494C105.702 266.291 105.789 266.131 105.998 266.319C115.693 275.08 121.212 281.949 124.163 285.05C124.237 285.127 124.13 285.255 124.049 285.179Z" fill="#263238"/>
<path d="M87.6661 289.33C88.8882 287.213 90.31 285.183 91.667 283.135C93.0259 281.084 94.3848 279.031 95.8248 277.025C97.2685 275.013 98.8025 273.056 100.326 271.094C101.089 270.112 102.574 268.191 103.341 267.213C104.097 266.249 104.183 266.472 103.46 267.53C102.765 268.546 101.352 270.503 100.661 271.522C99.3014 273.528 97.9717 275.551 96.5626 277.53C95.1509 279.514 93.6898 281.467 92.2434 283.43C90.7751 285.423 89.3743 287.469 87.8166 289.406C87.7518 289.486 87.6132 289.422 87.6661 289.33Z" fill="#263238"/>
<path d="M105.734 259.816C106.524 257.513 107.469 255.226 108.081 252.87C108.106 252.776 108.254 252.814 108.227 252.908C107.772 254.464 107.412 256.043 107.01 257.613C107.049 257.549 107.088 257.485 107.125 257.422C107.484 256.816 107.826 256.203 108.163 255.583C108.209 255.497 108.337 255.57 108.294 255.658C107.981 256.291 107.676 256.925 107.386 257.57C107.159 258.075 106.939 258.614 106.613 259.069C106.516 259.41 106.424 259.752 106.317 260.089C105.59 262.373 104.755 264.702 103.711 266.861C103.645 266.996 103.427 266.906 103.468 266.763C104.133 264.429 104.947 262.111 105.734 259.816Z" fill="#263238"/>
<path d="M107.141 260.351C107.214 260.23 107.774 260.815 108.037 261.123C108.08 261.173 108.02 261.199 107.953 261.148C107.77 261.012 107.566 260.93 107.393 260.783C106.863 261.841 103.923 266.833 103.713 267.05C103.62 267.147 103.53 267.063 103.574 266.927C103.749 266.377 106.487 261.438 107.141 260.351Z" fill="#263238"/>
<path d="M104.357 300.332C110.892 295.561 117.551 290.942 124.361 286.574C126.225 285.379 127.992 284.091 129.822 282.843C129.621 282.708 127.778 280.757 127.723 280.687C127.693 280.648 127.737 280.599 127.776 280.632C127.983 280.805 130.335 282.711 130.498 282.929C130.596 283.06 123.671 287.793 120.39 290.108C117.088 292.44 113.682 294.626 110.282 296.81C108.348 298.052 106.4 299.27 104.431 300.455C104.352 300.503 104.284 300.386 104.357 300.332Z" fill="#263238"/>
<path d="M178.656 290.538L144.496 293.489L156.661 248.288L190.821 245.338L178.656 290.538Z" fill="#EBEBEB"/>
<path d="M180.995 290.335L146.834 293.286L158.999 248.085L193.159 245.135L180.995 290.335Z" fill="#E1D255"/>
<path d="M162.628 247.777C162.485 248.483 162.027 249.236 161.318 249.688C161.008 249.89 160.884 249.472 161.191 249.278C161.639 248.986 161.945 248.52 162.085 248.068C162.107 247.988 162.131 247.898 162.143 247.819C162.204 247.521 162.207 247.227 162.122 246.981C162.079 246.858 162.008 246.766 161.905 246.698C161.905 246.698 161.888 246.689 161.881 246.68C161.864 246.672 161.844 246.674 161.838 246.665C161.819 246.667 161.772 246.66 161.772 246.66C161.69 246.647 161.62 246.664 161.534 246.7C161.397 246.751 161.273 246.86 161.164 246.987C161.024 247.155 160.95 247.289 160.863 247.472C160.812 247.554 160.778 247.645 160.735 247.737L160.719 247.797C160.701 247.828 160.693 247.859 160.685 247.889C160.68 247.909 160.665 247.93 160.669 247.949L160.184 247.991C160.261 247.701 160.401 247.395 160.573 247.107C160.871 246.632 161.304 246.223 161.813 246.159C162.272 246.11 162.539 246.419 162.638 246.791C162.719 247.085 162.713 247.428 162.628 247.777Z" fill="#455A64"/>
<path d="M165.302 247.546C165.159 248.252 164.701 249.004 163.992 249.457C163.682 249.659 163.558 249.24 163.865 249.047C164.313 248.754 164.619 248.288 164.759 247.837C164.781 247.757 164.805 247.667 164.816 247.588C164.877 247.29 164.881 246.996 164.795 246.75C164.753 246.627 164.683 246.534 164.578 246.465C164.578 246.465 164.562 246.457 164.555 246.448C164.538 246.44 164.518 246.441 164.512 246.432C164.493 246.434 164.447 246.429 164.447 246.429C164.365 246.416 164.295 246.432 164.209 246.469C164.072 246.52 163.948 246.628 163.839 246.755C163.698 246.924 163.625 247.057 163.538 247.24C163.487 247.322 163.453 247.414 163.409 247.506L163.393 247.566C163.375 247.597 163.367 247.627 163.359 247.657C163.354 247.677 163.339 247.698 163.343 247.717L162.857 247.759C162.936 247.469 163.074 247.164 163.247 246.876C163.545 246.4 163.977 245.992 164.487 245.928C164.946 245.879 165.213 246.188 165.312 246.56C165.393 246.855 165.385 247.197 165.302 247.546Z" fill="#455A64"/>
<path d="M167.976 247.314C167.834 248.02 167.375 248.773 166.667 249.225C166.357 249.428 166.233 249.009 166.54 248.816C166.988 248.523 167.293 248.057 167.434 247.605C167.456 247.525 167.479 247.436 167.491 247.356C167.552 247.058 167.556 246.765 167.47 246.518C167.427 246.395 167.358 246.303 167.253 246.235C167.253 246.235 167.237 246.226 167.23 246.217C167.213 246.209 167.193 246.211 167.187 246.202C167.167 246.204 167.122 246.197 167.122 246.197C167.04 246.185 166.97 246.201 166.884 246.237C166.747 246.288 166.623 246.397 166.514 246.524C166.373 246.692 166.3 246.826 166.213 247.009C166.162 247.091 166.128 247.182 166.085 247.274L166.069 247.335C166.05 247.366 166.042 247.396 166.035 247.426C166.029 247.446 166.015 247.467 166.018 247.486L165.533 247.528C165.612 247.238 165.75 246.933 165.923 246.644C166.221 246.169 166.653 245.76 167.163 245.697C167.622 245.647 167.889 245.956 167.987 246.329C168.069 246.623 168.061 246.965 167.976 247.314Z" fill="#455A64"/>
<path d="M170.649 247.084C170.507 247.79 170.048 248.543 169.34 248.995C169.03 249.197 168.905 248.779 169.213 248.586C169.662 248.293 169.966 247.827 170.107 247.376C170.128 247.296 170.152 247.206 170.164 247.127C170.225 246.829 170.229 246.535 170.143 246.289C170.1 246.166 170.03 246.074 169.926 246.005C169.926 246.005 169.91 245.997 169.902 245.988C169.886 245.98 169.866 245.981 169.859 245.972C169.84 245.974 169.795 245.969 169.795 245.969C169.713 245.956 169.642 245.972 169.557 246.009C169.42 246.06 169.296 246.168 169.186 246.295C169.046 246.464 168.973 246.597 168.885 246.78C168.834 246.862 168.801 246.954 168.757 247.045L168.74 247.105C168.722 247.136 168.715 247.166 168.707 247.196C168.701 247.216 168.686 247.237 168.69 247.256L168.205 247.298C168.284 247.008 168.422 246.704 168.594 246.415C168.893 245.94 169.325 245.531 169.835 245.467C170.294 245.418 170.561 245.727 170.659 246.099C170.74 246.392 170.734 246.735 170.649 247.084Z" fill="#455A64"/>
<path d="M173.323 246.854C173.181 247.559 172.722 248.313 172.013 248.764C171.703 248.967 171.579 248.548 171.887 248.356C172.335 248.063 172.64 247.597 172.78 247.145C172.802 247.065 172.826 246.976 172.838 246.896C172.899 246.598 172.903 246.305 172.817 246.058C172.774 245.935 172.705 245.843 172.6 245.774C172.6 245.774 172.583 245.766 172.576 245.756C172.56 245.748 172.54 245.75 172.533 245.741C172.514 245.743 172.469 245.737 172.469 245.737C172.386 245.725 172.316 245.741 172.23 245.777C172.094 245.829 171.97 245.937 171.86 246.064C171.72 246.233 171.647 246.366 171.559 246.549C171.509 246.632 171.474 246.722 171.431 246.814L171.414 246.875C171.397 246.906 171.389 246.936 171.381 246.966C171.375 246.986 171.36 247.007 171.364 247.026L170.879 247.068C170.957 246.778 171.096 246.472 171.268 246.184C171.567 245.709 171.999 245.3 172.509 245.237C172.967 245.187 173.235 245.497 173.333 245.869C173.414 246.161 173.407 246.504 173.323 246.854Z" fill="#455A64"/>
<path d="M175.997 246.622C175.855 247.328 175.396 248.08 174.687 248.533C174.377 248.735 174.253 248.317 174.56 248.123C175.008 247.83 175.314 247.364 175.454 246.913C175.476 246.833 175.5 246.743 175.512 246.664C175.573 246.366 175.576 246.072 175.491 245.826C175.448 245.703 175.378 245.611 175.274 245.542C175.274 245.542 175.256 245.534 175.25 245.525C175.234 245.517 175.213 245.519 175.207 245.509C175.188 245.511 175.141 245.505 175.141 245.505C175.059 245.492 174.989 245.509 174.903 245.545C174.767 245.596 174.643 245.705 174.533 245.831C174.393 246 174.32 246.133 174.232 246.317C174.182 246.399 174.147 246.49 174.104 246.582L174.088 246.642C174.07 246.673 174.063 246.703 174.054 246.733C174.049 246.753 174.034 246.774 174.038 246.794L173.553 246.835C173.63 246.545 173.77 246.24 173.942 245.952C174.24 245.477 174.673 245.068 175.182 245.004C175.641 244.955 175.908 245.264 176.007 245.636C176.089 245.931 176.082 246.273 175.997 246.622Z" fill="#455A64"/>
<path d="M178.67 246.391C178.527 247.097 178.069 247.85 177.36 248.301C177.05 248.504 176.926 248.085 177.233 247.892C177.681 247.599 177.987 247.133 178.127 246.682C178.149 246.601 178.173 246.512 178.184 246.433C178.246 246.134 178.249 245.841 178.164 245.594C178.121 245.471 178.05 245.379 177.946 245.31C177.946 245.31 177.93 245.302 177.923 245.293C177.906 245.284 177.887 245.286 177.88 245.277C177.861 245.279 177.814 245.273 177.814 245.273C177.732 245.261 177.662 245.277 177.576 245.314C177.439 245.365 177.315 245.473 177.206 245.6C177.065 245.769 176.993 245.902 176.905 246.085C176.854 246.168 176.82 246.258 176.776 246.351L176.76 246.411C176.742 246.442 176.734 246.472 176.726 246.502C176.721 246.522 176.706 246.543 176.71 246.562L176.225 246.604C176.303 246.314 176.442 246.009 176.614 245.72C176.912 245.245 177.345 244.837 177.854 244.773C178.313 244.724 178.58 245.033 178.679 245.405C178.761 245.699 178.754 246.041 178.67 246.391Z" fill="#455A64"/>
<path d="M181.344 246.16C181.201 246.866 180.743 247.619 180.034 248.071C179.724 248.273 179.6 247.855 179.907 247.661C180.355 247.369 180.66 246.903 180.801 246.451C180.823 246.371 180.846 246.281 180.858 246.202C180.919 245.904 180.923 245.61 180.837 245.364C180.794 245.241 180.725 245.149 180.62 245.08C180.62 245.08 180.604 245.072 180.597 245.063C180.58 245.055 180.56 245.057 180.554 245.048C180.535 245.049 180.488 245.043 180.488 245.043C180.406 245.03 180.336 245.047 180.25 245.083C180.113 245.134 179.989 245.243 179.88 245.369C179.739 245.538 179.666 245.671 179.579 245.855C179.528 245.938 179.494 246.028 179.45 246.12L179.434 246.18C179.416 246.211 179.408 246.241 179.4 246.271C179.395 246.291 179.38 246.312 179.384 246.332L178.898 246.374C178.977 246.084 179.115 245.778 179.288 245.49C179.586 245.015 180.018 244.606 180.528 244.542C180.987 244.493 181.254 244.802 181.353 245.174C181.436 245.469 181.428 245.811 181.344 246.16Z" fill="#455A64"/>
<path d="M184.018 245.93C183.876 246.636 183.417 247.388 182.709 247.84C182.399 248.043 182.275 247.624 182.582 247.431C183.03 247.138 183.335 246.672 183.476 246.221C183.498 246.14 183.521 246.051 183.533 245.972C183.594 245.673 183.598 245.38 183.512 245.133C183.469 245.01 183.399 244.918 183.295 244.849C183.295 244.849 183.279 244.841 183.271 244.832C183.255 244.823 183.235 244.825 183.229 244.815C183.209 244.817 183.163 244.812 183.163 244.812C183.081 244.799 183.011 244.815 182.925 244.852C182.788 244.903 182.664 245.011 182.555 245.138C182.414 245.307 182.341 245.44 182.254 245.623C182.203 245.706 182.169 245.796 182.126 245.889L182.11 245.949C182.091 245.98 182.084 246.01 182.076 246.04C182.07 246.06 182.056 246.081 182.059 246.1L181.574 246.142C181.652 245.852 181.791 245.547 181.964 245.258C182.262 244.783 182.694 244.375 183.204 244.311C183.663 244.262 183.93 244.571 184.028 244.943C184.11 245.237 184.103 245.58 184.018 245.93Z" fill="#455A64"/>
<path d="M186.692 245.698C186.55 246.404 186.091 247.157 185.383 247.609C185.072 247.811 184.948 247.393 185.256 247.199C185.704 246.907 186.009 246.441 186.15 245.989C186.171 245.909 186.195 245.82 186.207 245.74C186.268 245.442 186.272 245.148 186.186 244.902C186.143 244.779 186.073 244.687 185.969 244.618C185.969 244.618 185.953 244.61 185.945 244.601C185.929 244.593 185.909 244.595 185.902 244.586C185.883 244.587 185.838 244.581 185.838 244.581C185.756 244.568 185.685 244.585 185.6 244.621C185.463 244.672 185.339 244.78 185.229 244.908C185.089 245.076 185.016 245.209 184.928 245.393C184.877 245.475 184.844 245.566 184.8 245.658L184.783 245.718C184.765 245.749 184.758 245.779 184.75 245.81C184.744 245.83 184.73 245.851 184.733 245.87L184.248 245.912C184.326 245.622 184.465 245.317 184.637 245.028C184.936 244.553 185.368 244.144 185.878 244.08C186.337 244.031 186.604 244.34 186.702 244.712C186.783 245.006 186.776 245.349 186.692 245.698Z" fill="#455A64"/>
<path d="M189.365 245.467C189.223 246.173 188.764 246.925 188.056 247.377C187.745 247.58 187.621 247.161 187.929 246.968C188.377 246.675 188.682 246.209 188.822 245.758C188.843 245.677 188.868 245.588 188.88 245.509C188.941 245.21 188.945 244.917 188.859 244.671C188.816 244.547 188.746 244.455 188.642 244.386C188.642 244.386 188.625 244.378 188.618 244.369C188.602 244.36 188.582 244.362 188.575 244.353C188.556 244.355 188.511 244.35 188.511 244.35C188.429 244.337 188.358 244.353 188.273 244.39C188.136 244.441 188.012 244.549 187.902 244.676C187.762 244.845 187.688 244.978 187.601 245.161C187.551 245.243 187.517 245.334 187.473 245.426L187.456 245.486C187.438 245.517 187.431 245.547 187.423 245.577C187.417 245.597 187.403 245.618 187.406 245.637L186.922 245.679C187 245.389 187.139 245.085 187.311 244.795C187.61 244.32 188.042 243.912 188.552 243.848C189.01 243.799 189.278 244.108 189.376 244.48C189.457 244.775 189.45 245.118 189.365 245.467Z" fill="#455A64"/>
<path d="M192.038 245.236C191.896 245.942 191.437 246.695 190.728 247.147C190.418 247.349 190.294 246.931 190.602 246.738C191.05 246.445 191.355 245.979 191.495 245.527C191.517 245.447 191.541 245.358 191.553 245.278C191.614 244.98 191.617 244.686 191.532 244.44C191.489 244.317 191.42 244.225 191.315 244.157C191.315 244.157 191.297 244.148 191.291 244.139C191.275 244.131 191.255 244.133 191.248 244.124C191.229 244.126 191.182 244.119 191.182 244.119C191.1 244.106 191.03 244.123 190.944 244.159C190.808 244.21 190.684 244.319 190.574 244.446C190.435 244.614 190.361 244.748 190.273 244.931C190.223 245.013 190.188 245.104 190.146 245.196L190.129 245.256C190.111 245.287 190.104 245.318 190.095 245.348C190.09 245.368 190.074 245.389 190.079 245.408L189.594 245.45C189.672 245.16 189.811 244.854 189.983 244.566C190.281 244.091 190.714 243.682 191.223 243.618C191.682 243.569 191.949 243.878 192.048 244.25C192.129 244.545 192.123 244.887 192.038 245.236Z" fill="#455A64"/>
<path d="M192.008 255.988C193.756 259.72 198.181 264.367 198.53 267.41C198.845 270.158 196.56 271.111 196.56 271.111C196.56 271.111 199.586 272.641 199.447 275.454C199.376 276.902 197 278.06 197 278.06C197 278.06 199.372 279.391 199.094 281.885C198.873 283.873 196.526 284.735 196.526 284.735C196.526 284.735 198.206 287.073 197.331 289.025C195.558 292.985 178.393 292.895 175.774 286.559C174.553 283.605 178.745 283.854 178.745 283.854C178.745 283.854 172.804 282.04 172.732 278.5C172.66 274.961 178.086 275.614 178.086 275.614C178.086 275.614 172.344 273.805 172.64 270.128C172.947 266.299 178.263 267.883 178.263 267.883C178.263 267.883 174.46 265.275 175.331 262.512C176.769 257.949 183.966 263.734 187.744 262.858L189.858 256.649L192.008 255.988Z" fill="#D3766A"/>
<path d="M195.42 261.413C194.074 257.735 198.644 253.226 197.862 249.524C196.804 244.516 191.148 249.39 189.859 256.648L189.848 262.459L195.42 261.413Z" fill="#D3766A"/>
<path d="M196.176 284.925C196.233 284.921 196.25 285 196.192 285.013C190.539 286.36 183.915 286.106 178.515 283.867C178.338 283.794 178.38 283.474 178.591 283.518C184.598 284.762 190.028 285.386 196.176 284.925Z" fill="#263238"/>
<path d="M197.084 278.094C197.151 278.089 197.161 278.199 197.09 278.216C191.257 279.571 183.804 279.08 177.885 275.766C177.681 275.653 177.613 275.347 177.857 275.461C181.96 277.366 191.553 278.538 197.084 278.094Z" fill="#263238"/>
<path d="M177.909 267.505C183.71 270.463 189.874 271.264 196.324 271.177C196.407 271.176 196.401 271.295 196.331 271.315C193.187 272.217 189.07 271.845 185.891 271.283C182.846 270.745 180.207 269.649 177.805 267.707C177.713 267.632 177.785 267.442 177.909 267.505Z" fill="#263238"/>
<path d="M323.569 363.64C322.777 365.78 283.962 414.026 281.319 414.931C280.319 415.279 272.963 410.036 264.254 403.449C262.373 402.026 260.44 400.546 258.485 399.032C245.78 389.215 232.527 378.503 232.527 378.503L258.398 346.153L283.643 367.573L289.189 372.27C289.189 372.27 312.312 360.445 315.317 359.764C318.313 359.093 324.36 361.5 323.569 363.64Z" fill="#D3766A"/>
<path d="M323.569 363.64C322.778 365.779 283.963 414.026 281.32 414.931C280.1 415.349 269.493 407.524 258.484 399.031L283.643 367.572L289.189 372.27C289.189 372.27 312.312 360.445 315.317 359.764C318.313 359.093 324.361 361.5 323.569 363.64Z" fill="white"/>
<path d="M323.569 363.64C322.777 365.779 283.962 414.026 281.319 414.931C280.319 415.279 272.963 410.036 264.254 403.449L289.188 372.27C289.188 372.27 312.311 360.445 315.316 359.764C318.313 359.093 324.36 361.5 323.569 363.64Z" fill="#543882"/>
<path d="M321.08 362.779C314.375 370.707 288.08 403.315 282.054 411.662C282.005 411.729 282.05 411.765 282.105 411.702C288.923 403.989 314.953 371.169 321.213 362.885C321.345 362.71 321.221 362.611 321.08 362.779Z" fill="#263238"/>
<path d="M311.082 361.47C309.46 363.325 308.864 365.933 309.165 367.897C309.454 369.785 310.306 371.886 312.029 373.179C312.078 373.216 312.151 373.127 312.107 373.08C309.314 370.072 308.849 364.957 311.183 361.551C311.231 361.483 311.138 361.406 311.082 361.47Z" fill="#263238"/>
<path d="M292.516 369.779C289.866 372.98 287.99 377.652 289.019 381.794C289.059 381.954 289.286 381.895 289.315 381.759C290.16 377.619 291.275 373.933 292.959 370.044C293.078 369.77 292.705 369.55 292.516 369.779Z" fill="#263238"/>
<path d="M295.5 368.064C292.851 371.265 290.974 375.938 292.004 380.079C292.044 380.24 292.271 380.18 292.298 380.044C293.144 375.905 294.258 372.218 295.943 368.329C296.062 368.055 295.69 367.835 295.5 368.064Z" fill="#263238"/>
<path d="M298.484 366.349C295.835 369.55 293.959 374.222 294.988 378.363C295.028 378.524 295.255 378.464 295.283 378.329C296.129 374.189 297.242 370.503 298.928 366.613C299.046 366.339 298.674 366.12 298.484 366.349Z" fill="#263238"/>
<path d="M301.469 364.634C298.82 367.835 296.943 372.508 297.972 376.649C298.012 376.809 298.24 376.75 298.268 376.614C299.113 372.475 300.228 368.788 301.913 364.899C302.031 364.624 301.659 364.404 301.469 364.634Z" fill="#263238"/>
<path d="M276.031 403.421C273.119 407.061 278.772 411.592 281.688 407.946C284.6 404.306 278.947 399.775 276.031 403.421Z" fill="white"/>
<path d="M286.692 359.333C284.015 359.878 283.682 363.011 284.281 365.156C285.249 368.631 287.547 372.332 290.192 374.757C290.258 374.816 290.327 374.786 290.366 374.73C290.654 374.848 291.069 374.73 291.096 374.358C291.356 370.771 292.078 366.968 291.23 363.408C290.734 361.329 289.224 358.817 286.692 359.333ZM290.377 368.839C290.292 370.606 290.121 372.358 290.102 374.128C288.954 372.252 287.731 370.436 286.773 368.446C286.316 367.496 285.865 366.511 285.541 365.506C285.038 363.942 284.888 358.589 288.669 361.1C290.753 362.485 290.478 366.732 290.377 368.839Z" fill="#263238"/>
<path d="M284.921 383.764C287.621 381.294 289.158 377.741 290.956 374.626C291.142 374.303 290.864 373.973 290.561 373.909C290.56 373.841 290.519 373.777 290.432 373.79C286.882 374.313 282.903 376.086 280.151 378.418C278.452 379.858 276.969 382.638 278.879 384.591C280.685 386.439 283.345 385.206 284.921 383.764ZM281.506 384.237C276.967 384.193 280.096 379.845 281.391 378.834C282.222 378.184 283.149 377.623 284.06 377.093C285.971 375.983 288.002 375.166 290.005 374.258C289.028 375.733 288.186 377.28 287.265 378.79C286.166 380.591 284.009 384.26 281.506 384.237Z" fill="#263238"/>
<path d="M282.291 362.69L255.368 399.014L164.52 335.975L155.76 329.893C155.76 329.893 153.28 331.562 149.545 333.627C144.359 336.493 136.758 340.124 130.035 341.114C118.757 342.783 101.749 342.604 92.2443 329.893C84.2379 319.19 86.7623 305.226 86.7623 305.226L99.1454 299.908C99.1454 299.908 128.451 275.492 147.433 274.756C155.495 274.435 167.236 280.547 178.108 286.931C188.972 293.305 282.291 362.69 282.291 362.69Z" fill="#B68CFB"/>
<path d="M155.76 329.893C155.76 329.893 153.28 331.562 149.546 333.627C142.944 325.724 128.97 311.372 128.545 310.862L155.76 329.893Z" fill="#263238"/>
<path d="M109.884 291.735C108.132 292.95 106.438 294.244 104.709 295.492C103.009 296.721 101.255 297.874 99.6386 299.215C97.9952 300.578 96.4375 302.035 94.8889 303.504C94.142 304.213 93.4005 304.928 92.6791 305.662C91.9632 306.39 91.1625 307.12 90.5697 307.952C90.514 308.029 90.6262 308.121 90.6982 308.075C91.5355 307.538 92.286 306.803 93.0457 306.164C93.8656 305.475 94.6764 304.774 95.4926 304.08C97.0677 302.742 98.6737 301.44 100.245 300.097C101.806 298.763 103.253 297.302 104.799 295.953C106.454 294.506 108.199 293.16 109.918 291.791C109.951 291.766 109.92 291.71 109.884 291.735Z" fill="#263238"/>
<path d="M275.969 361.387C274.22 363.273 272.603 365.302 270.975 367.293C269.339 369.291 267.714 371.297 266.101 373.313C262.872 377.347 259.616 381.361 256.443 385.439C254.699 387.679 252.979 389.936 251.358 392.267C251.285 392.371 251.451 392.488 251.534 392.396C255.008 388.577 258.183 384.502 261.405 380.472C264.633 376.435 267.849 372.386 271.017 368.301C272.749 366.064 274.536 363.84 276.128 361.502C276.192 361.409 276.044 361.305 275.969 361.387Z" fill="#263238"/>
<path d="M207.003 365.35C202.483 361.788 192.206 354.833 187.52 351.492C182.857 348.167 178.198 344.834 173.465 341.609C172.106 340.683 170.736 339.777 169.367 338.867C168.001 337.958 166.578 337.119 165.239 336.176C165.161 336.122 165.091 336.251 165.168 336.306C166.397 337.187 167.558 338.175 168.767 339.09C169.92 339.964 171.065 340.848 172.228 341.708C174.498 343.389 176.789 345.037 179.079 346.693C183.72 350.048 188.396 353.362 193.12 356.601C195.801 358.44 204.061 363.879 206.802 365.628C206.963 365.731 207.158 365.472 207.003 365.35Z" fill="#263238"/>
<path d="M235.509 327.82C231.332 324.358 221.81 317.704 217.432 314.504C213.004 311.267 208.599 307.999 204.153 304.786C199.742 301.598 195.332 298.409 190.921 295.221C186.646 292.13 182.391 288.989 177.875 286.253C175.405 284.756 172.869 283.368 170.265 282.117C167.735 280.903 165.105 279.667 162.399 278.904C162.317 278.881 162.273 279 162.345 279.04C164.571 280.283 166.908 281.329 169.161 282.529C171.387 283.714 173.582 284.963 175.738 286.27C180.221 288.987 184.453 292.074 188.707 295.132C197.539 301.484 206.352 307.861 215.246 314.125C220.223 317.629 230.144 324.871 235.312 328.091C235.473 328.192 235.659 327.943 235.509 327.82Z" fill="#263238"/>
<path d="M413.494 285.055C404.574 297.137 395.272 311.158 393.007 326.309C392.98 326.538 393.347 326.612 393.4 326.385C394.436 322.23 395.746 318.195 397.346 314.255C403.211 312.64 408.966 311.314 412.047 305.494C415.188 299.51 414.79 291.708 414.192 285.19C414.15 284.84 413.676 284.823 413.494 285.055Z" fill="#B68CFB"/>
<path d="M397.435 314.14C401.442 305.148 406.586 296.118 413.126 288.723C413.17 288.673 413.24 288.745 413.198 288.795C408.918 294.062 405.664 299.798 402.487 305.633C405.441 302.635 408.678 299.949 411.476 296.769C411.53 296.707 411.617 296.796 411.566 296.859C408.787 300.192 405.753 303.816 402.135 306.283C401.163 308.073 400.184 309.87 399.192 311.665C399.435 311.529 399.686 311.408 399.935 311.285C399.979 311.263 400.017 311.329 399.974 311.351C399.697 311.49 399.425 311.637 399.14 311.758C398.67 312.608 398.204 313.458 397.721 314.306C397.612 314.496 397.35 314.33 397.435 314.14Z" fill="#263238"/>
<path d="M400.415 311.003C402.806 309.633 405.112 308.16 407.263 306.432C407.322 306.385 407.407 306.466 407.347 306.516C405.234 308.305 402.982 309.906 400.515 311.172C400.402 311.229 400.306 311.066 400.415 311.003Z" fill="#263238"/>
<path d="M391.974 324.057C391.993 324.24 392.305 324.237 392.301 324.042C392.347 319.052 392.305 314.04 392.38 309.028C393.659 306.449 396.402 305.02 398.31 302.954C399.685 301.462 400.862 299.779 401.869 297.999C404.228 293.777 405.505 289.031 405.997 284.235C406.524 278.898 404.499 261.287 402.249 261.898C401.083 262.216 397.307 270.938 396.305 273.822C394.665 278.566 393.511 283.482 392.755 288.442C390.93 300.184 391.082 312.241 391.974 324.057Z" fill="#B68CFB"/>
<path d="M391.939 302.532C391.946 302.526 391.954 302.52 391.962 302.513C392.234 296.2 393.657 289.825 394.989 283.701C396.423 277.105 398.1 270.894 401.494 265.011C401.557 264.902 401.719 264.998 401.663 265.109C399.353 269.661 397.701 274.493 396.437 279.456C396.664 279.1 396.94 278.763 397.177 278.427C397.27 278.295 397.488 278.418 397.396 278.556C397.064 279.053 396.763 279.633 396.336 280.053C396.321 280.067 396.307 280.069 396.291 280.074C395.123 284.788 394.284 289.611 393.566 294.422C393.62 294.361 393.672 294.295 393.726 294.236C393.762 294.197 393.824 294.247 393.799 294.293C393.711 294.452 393.611 294.611 393.513 294.77C393.152 297.212 392.816 299.649 392.479 302.064C396.826 298.347 400.539 293.968 402.634 288.571C402.644 288.546 402.684 288.556 402.675 288.583C400.623 294.18 397.389 299.157 392.411 302.553C392.319 303.205 392.229 303.856 392.136 304.503C392.117 304.638 391.903 304.603 391.903 304.471C391.905 303.897 391.934 303.319 391.955 302.743C391.893 302.688 391.864 302.595 391.939 302.532Z" fill="#263238"/>
<path d="M393.987 293.385C397.31 288.426 400.413 283.61 402.845 278.13C402.871 278.069 402.977 278.113 402.953 278.176C400.905 283.621 398.035 289.14 394.154 293.514C394.075 293.603 393.92 293.485 393.987 293.385Z" fill="#263238"/>
<path d="M398.403 276.905C399.779 274.47 401.231 272.1 402.526 269.616C402.563 269.547 402.658 269.608 402.628 269.677C401.541 272.215 400.242 274.792 398.615 277.029C398.524 277.154 398.324 277.046 398.403 276.905Z" fill="#263238"/>
<path d="M397.864 277.964C397.891 277.964 397.891 278.007 397.864 278.007C397.837 278.007 397.837 277.964 397.864 277.964Z" fill="#263238"/>
<path d="M388.6 309.627C388.515 312.933 388.157 316.24 387.434 319.457C387.485 319.812 387.536 320.168 387.588 320.533C388.631 316.952 389.175 313.281 389.346 309.577C389.403 309.474 389.427 309.363 389.362 309.237C389.362 309.237 389.362 309.237 389.361 309.226C389.55 304.279 389.091 299.277 388.26 294.38C386.715 285.211 383.339 276.411 376.944 269.538C376.742 269.326 376.337 269.436 376.237 269.684C373.657 276.246 374.557 284.074 376.755 290.621C377.952 294.147 379.659 297.533 381.826 300.564C384.02 303.649 386.817 306.258 388.6 309.627Z" fill="#B68CFB"/>
<path d="M377.699 272.609C383.76 282.444 387.977 294.106 388.492 305.726C388.501 305.931 388.155 305.986 388.125 305.775C387.982 304.731 387.823 303.697 387.655 302.666C387.651 302.664 387.648 302.665 387.645 302.663C385.138 300.261 382.563 297.728 380.768 294.726C380.737 294.674 380.813 294.611 380.855 294.66C383.036 297.153 385.072 299.707 387.534 301.93C387.1 299.361 386.587 296.833 385.978 294.342C385.815 294.156 385.658 293.966 385.498 293.779C385.393 293.656 385.568 293.476 385.678 293.599C385.726 293.653 385.774 293.707 385.824 293.761C384.965 290.341 383.917 286.991 382.655 283.7C381.112 281.86 379.388 280.269 378.263 278.052C378.236 277.998 378.309 277.957 378.343 278.005C379.247 279.273 380.121 280.548 381.146 281.725C381.554 282.194 382.002 282.631 382.426 283.089C381.047 279.576 379.41 276.133 377.464 272.746C377.378 272.594 377.608 272.46 377.699 272.609Z" fill="#263238"/>
<path d="M378.924 284.742C380.883 287.379 383.116 289.894 384.936 292.619C384.989 292.697 384.874 292.778 384.809 292.717C382.469 290.521 380.489 287.524 378.792 284.82C378.739 284.735 378.867 284.665 378.924 284.742Z" fill="#263238"/>
<path d="M385.212 293.23L385.295 293.314C385.354 293.372 385.263 293.461 385.206 293.404L385.122 293.32C385.065 293.262 385.154 293.171 385.212 293.23Z" fill="#263238"/>
<path d="M368.204 291.518C368.691 296.578 371.353 302.623 374.599 306.523C376.037 308.247 377.783 309.567 379.785 310.57C382.032 311.682 384.384 312.962 386.707 313.874C387.794 316.647 388.624 319.552 389.158 322.579C389.233 322.325 389.308 322.061 389.382 321.808C387.891 308.995 379.6 298.045 368.995 291.014C368.614 290.76 368.162 291.085 368.204 291.518Z" fill="#B68CFB"/>
<path d="M371.868 295.303C371.793 295.238 371.894 295.103 371.976 295.164C377.595 299.327 382.66 305.397 385.489 311.817C385.566 311.992 385.325 312.146 385.225 311.971C384.733 311.107 384.229 310.268 383.718 309.442C383.716 309.441 383.715 309.444 383.711 309.443C381.291 308.987 378.998 307.283 377.201 305.667C377.153 305.623 377.224 305.552 377.273 305.594C378.212 306.422 379.219 307.178 380.336 307.746C381.323 308.247 382.385 308.563 383.412 308.964C382.515 307.541 381.58 306.175 380.604 304.85C377.999 303.963 375.519 302.363 373.329 300.761C373.261 300.711 373.321 300.598 373.397 300.644C375.629 301.988 377.829 303.169 380.159 304.258C378.692 302.314 377.103 300.474 375.386 298.692C374.563 298.258 373.728 297.821 372.931 297.357C372.867 297.319 372.909 297.209 372.983 297.233C373.618 297.445 374.266 297.778 374.867 298.159C373.909 297.191 372.924 296.236 371.868 295.303Z" fill="#263238"/>
<path d="M372.094 299.728C372.24 299.821 372.373 299.905 372.502 300.019C372.541 300.053 372.491 300.104 372.451 300.085C372.295 300.018 372.168 299.936 372.026 299.845C371.953 299.798 372.02 299.68 372.094 299.728Z" fill="#263238"/>
<path d="M405.933 350.324H376.873L379.22 323.859L379.735 318.023H403.073L403.587 323.859L405.933 350.324Z" fill="#455A64"/>
<path d="M403.586 323.859H379.219L379.734 318.023H403.072L403.586 323.859Z" fill="#263238"/>
<path d="M404.463 313.943H378.344V319.719H404.463V313.943Z" fill="#455A64"/>
</svg>
