<svg width="471" height="471" viewBox="0 0 471 471" fill="none" xmlns="http://www.w3.org/2000/svg">
<path d="M48.462 192.161C49.2156 191.694 50.1576 191.721 50.9169 192.178C51.1232 192.303 51.3332 192.422 51.5461 192.537C51.7618 192.653 51.9794 192.762 52.198 192.866C52.9968 193.244 53.5384 194.011 53.5658 194.894L53.66 197.913L63.4926 197.608L63.3993 194.591C63.372 193.705 63.8562 192.894 64.6343 192.469C65.0619 192.236 65.4783 191.979 65.8815 191.7C66.6059 191.197 67.545 191.126 68.3231 191.543L70.9777 192.967L75.6284 184.295L72.9738 182.871C72.1966 182.454 71.7351 181.634 71.753 180.751C71.7633 180.261 71.7473 179.772 71.7049 179.286C71.6286 178.403 72.0356 177.551 72.7882 177.084L75.3533 175.492L70.1676 167.132L67.5893 168.73C66.8395 169.194 65.9022 169.168 65.1467 168.712C64.9414 168.588 64.7313 168.468 64.5175 168.353C64.3036 168.239 64.0879 168.13 63.8703 168.027C63.0687 167.649 62.5261 166.878 62.4997 165.992L62.4083 162.971L52.5757 163.276L52.6709 166.287C52.6991 167.172 52.2149 167.983 51.4387 168.408C51.0092 168.642 50.5919 168.902 50.1878 169.183C49.4634 169.688 48.5232 169.758 47.7442 169.341L45.0906 167.917L40.4399 176.589L43.0936 178.013C43.8716 178.43 44.3332 179.252 44.3144 180.135C44.3031 180.627 44.3191 181.117 44.3605 181.605C44.4359 182.488 44.028 183.34 43.2754 183.806L40.715 185.392L45.9007 193.751L48.462 192.161ZM50.9263 176.634C53.0298 172.713 57.9197 171.237 61.8412 173.34C65.7628 175.444 67.2323 180.33 65.1288 184.251C63.0253 188.173 58.1458 189.646 54.2242 187.543C50.3027 185.439 48.8228 180.556 50.9263 176.634Z" fill="#DBDBDB"/>
<path d="M277.218 235.698C277.756 236.008 278.052 236.599 278.02 237.22C278.011 237.388 278.006 237.557 278.006 237.727C278.006 237.899 278.01 238.069 278.02 238.238C278.051 238.856 277.757 239.445 277.22 239.754L275.388 240.811L278.832 246.78L280.664 245.724C281.202 245.414 281.862 245.444 282.382 245.784C282.667 245.971 282.964 246.143 283.27 246.299C283.821 246.579 284.175 247.136 284.175 247.754V249.864H291.068V247.754C291.068 247.136 291.422 246.579 291.973 246.299C292.28 246.143 292.575 245.971 292.862 245.784C293.381 245.444 294.042 245.414 294.58 245.724L296.412 246.78L299.856 240.811L298.016 239.747C297.481 239.438 297.187 238.85 297.219 238.233C297.227 238.066 297.232 237.896 297.232 237.726C297.232 237.557 297.227 237.387 297.219 237.219C297.187 236.599 297.483 236.008 298.021 235.698L299.856 234.641L296.412 228.672L294.586 229.727C294.049 230.038 293.387 230.008 292.867 229.669C292.58 229.481 292.282 229.309 291.975 229.152C291.424 228.872 291.069 228.315 291.069 227.696V225.586H284.176V227.696C284.176 228.315 283.82 228.872 283.269 229.152C282.962 229.309 282.665 229.48 282.376 229.669C281.856 230.008 281.196 230.037 280.658 229.727L278.832 228.672L275.388 234.641L277.218 235.698ZM287.62 232.078C290.737 232.078 293.268 234.608 293.268 237.726C293.268 240.844 290.738 243.369 287.62 243.369C284.503 243.369 281.977 240.844 281.977 237.726C281.977 234.609 284.503 232.078 287.62 232.078Z" fill="#DBDBDB"/>
<path d="M370.497 316.539C370.497 331.358 382.517 343.378 397.337 343.378C412.163 343.378 424.176 331.358 424.176 316.539C424.176 301.713 412.163 289.699 397.337 289.699C382.517 289.699 370.497 301.713 370.497 316.539ZM384.799 316.539C384.799 309.615 390.413 304.002 397.337 304.002C404.26 304.002 409.874 309.615 409.874 316.539C409.874 323.462 404.26 329.07 397.337 329.07C390.413 329.07 384.799 323.463 384.799 316.539Z" fill="#EBEBEB"/>
<path d="M392.176 290.812H402.498L401.928 283.506H392.747L392.176 290.812Z" fill="#EBEBEB"/>
<path d="M411.822 294.29L419.12 301.589L423.883 296.019L417.392 289.527L411.822 294.29Z" fill="#EBEBEB"/>
<path d="M423.255 310.641V320.962L430.561 320.391V311.211L423.255 310.641Z" fill="#EBEBEB"/>
<path d="M419.777 330.285L412.479 337.584L418.049 342.347L424.54 335.855L419.777 330.285Z" fill="#EBEBEB"/>
<path d="M403.426 341.717H393.105L393.676 349.023H402.856L403.426 341.717Z" fill="#EBEBEB"/>
<path d="M383.781 338.24L376.482 330.941L371.72 336.511L378.211 343.003L383.781 338.24Z" fill="#EBEBEB"/>
<path d="M372.349 321.89V311.568L365.043 312.138V321.319L372.349 321.89Z" fill="#EBEBEB"/>
<path d="M375.826 302.245L383.125 294.946L377.555 290.184L371.063 296.675L375.826 302.245Z" fill="#EBEBEB"/>
<path d="M151.547 91.1891C151.547 106.01 163.567 118.029 178.386 118.029C193.212 118.029 205.226 106.009 205.226 91.1891C205.226 76.3629 193.212 64.3496 178.386 64.3496C163.567 64.3506 151.547 76.3629 151.547 91.1891ZM165.849 91.1891C165.849 84.2654 171.463 78.652 178.386 78.652C185.31 78.652 190.923 84.2654 190.923 91.1891C190.923 98.1137 185.31 103.721 178.386 103.721C171.463 103.721 165.849 98.1137 165.849 91.1891Z" fill="#EBEBEB"/>
<path d="M173.226 65.4633H183.548L182.978 58.1562H173.797L173.226 65.4633Z" fill="#EBEBEB"/>
<path d="M192.872 68.9405L200.17 76.2391L204.933 70.6691L198.442 64.1777L192.872 68.9405Z" fill="#EBEBEB"/>
<path d="M204.305 85.291V95.6125L211.611 95.0426V85.8619L204.305 85.291Z" fill="#EBEBEB"/>
<path d="M200.827 104.936L193.529 112.234L199.098 116.997L205.59 110.506L200.827 104.936Z" fill="#EBEBEB"/>
<path d="M184.476 116.369H174.155L174.726 123.675H183.905L184.476 116.369Z" fill="#EBEBEB"/>
<path d="M164.831 112.89L157.532 105.592L152.77 111.162L159.261 117.653L164.831 112.89Z" fill="#EBEBEB"/>
<path d="M153.399 96.5402V86.2188L146.093 86.7896V95.9694L153.399 96.5402Z" fill="#EBEBEB"/>
<path d="M156.876 76.8954L164.175 69.5967L158.605 64.834L152.113 71.3253L156.876 76.8954Z" fill="#EBEBEB"/>
<path d="M48.4508 402.047L83.0787 402.056V417.891L48.4414 417.872L48.4508 402.047Z" fill="#EBEBEB"/>
<path d="M83.0693 439.826H48.4414V442.841H83.0693V439.826Z" fill="#EBEBEB"/>
<path d="M98.6217 276.375L83.1258 276.365L83.0881 395.048H48.4508L48.4979 276.375L33.002 276.365L65.8401 219.562L98.6217 276.375Z" fill="#EBEBEB"/>
<path d="M48.4414 424.137L83.0693 424.146V434.395L48.4508 434.386L48.4414 424.137Z" fill="#EBEBEB"/>
<path d="M218.139 232.127L252.767 232.136V247.971L218.129 247.953L218.139 232.127Z" fill="#EBEBEB"/>
<path d="M252.757 269.906H218.129V272.921H252.757V269.906Z" fill="#EBEBEB"/>
<path d="M268.31 165.689L252.814 165.68L252.776 225.128H218.139L218.186 165.689L202.69 165.68L235.528 108.877L268.31 165.689Z" fill="#EBEBEB"/>
<path d="M218.129 254.217L252.757 254.226V264.475L218.139 264.466L218.129 254.217Z" fill="#EBEBEB"/>
<path d="M99.4856 107.379H74.2729V118.903H99.4856V107.379Z" fill="#EBEBEB"/>
<path d="M99.4779 134.877H74.269V137.072H99.4779V134.877Z" fill="#EBEBEB"/>
<path d="M110.801 72.7237L99.5196 72.7172L99.4923 102.28H74.2768L74.3107 72.7237L63.0303 72.7172L86.9363 31.3652L110.801 72.7237Z" fill="#EBEBEB"/>
<path d="M99.478 123.459H74.2729V130.921H99.478V123.459Z" fill="#EBEBEB"/>
<path d="M33.002 442.846C159.756 442.27 301.945 442.265 428.698 442.846C301.944 443.427 159.755 443.423 33.002 442.846Z" fill="#263238"/>
<path d="M184.52 39.5908C184.52 48.9976 176.89 56.6278 167.483 56.6278C163.681 56.6278 160.171 55.3815 157.334 53.2686L148.988 55.3994L152.462 47.6279C151.171 45.2324 150.446 42.4912 150.446 39.5917C150.446 30.1849 158.076 22.5547 167.482 22.5547C176.89 22.5537 184.52 30.1839 184.52 39.5908Z" fill="white"/>
<path d="M184.52 39.59C184.706 49.3755 175.726 57.6557 165.997 56.7853C162.827 56.5573 159.721 55.4184 157.133 53.5363L157.417 53.5919C154.643 54.337 151.871 55.0831 149.09 55.798L148.265 56.01L148.61 55.2281L152.048 47.4406L152.063 47.841C146.611 38.1318 152.423 25.2113 163.281 22.8309C173.872 20.1236 184.694 28.6807 184.52 39.59ZM184.52 39.59C184.592 28.7476 173.873 20.3986 163.406 23.332C153.006 25.9225 147.691 38.2881 152.968 47.6111L152.876 47.8118L149.365 55.5663L148.886 54.9964C151.722 54.2777 154.567 53.5909 157.411 52.9023C159.88 54.825 162.9 56.0392 166.036 56.3406C175.748 57.4202 184.589 49.3444 184.52 39.59Z" fill="#263238"/>
<path d="M164.723 49.7268L157.088 41.9987L159.653 39.4647L164.113 43.9788L173.379 29.4531L176.419 31.3918L164.723 49.7268Z" fill="#AAE0A2"/>
<path d="M185.573 360.041H102.771V442.843H185.573V360.041Z" fill="#AAE0A2"/>
<path d="M185.568 442.844H206.57V360.063H185.568V442.844Z" fill="#FFC727"/>
<path opacity="0.1" d="M185.568 442.844H206.57V360.063H185.568V442.844Z" fill="black"/>
<path d="M174.022 277.238H91.2202V360.04H174.022V277.238Z" fill="#B68CFB"/>
<path d="M174.019 360.043H195.021V277.262H174.019V360.043Z" fill="#532D97"/>
<path d="M150.023 385.955H93.1343V442.843H150.023V385.955Z" fill="#DBDBDB"/>
<path d="M150.02 442.844H164.449V385.97H150.02V442.844Z" fill="#C7C7C7"/>
<path d="M371.969 277.238H289.167V442.841H371.969V277.238Z" fill="#532D97"/>
<path d="M371.965 442.844H392.967V277.283H371.965V442.844Z" fill="#532D97"/>
<path opacity="0.1" d="M371.965 442.844H392.967V277.283H371.965V442.844Z" fill="black"/>
<path d="M136 35.758C136 35.758 129.724 32.3386 124.146 35.758C118.569 39.1775 115.914 47.6056 116.869 54.6781C117.824 61.7506 111.977 66.4211 111.343 71.6746C110.71 76.9282 114.211 79.3595 115.386 82.1157C116.731 85.2714 111.343 96.485 125.054 99.0859C142.2 102.338 148.76 91.9446 147.01 83.3507C146.153 79.1409 143.751 76.1501 143.795 72.7447C143.84 69.3394 146.282 66.6255 145.008 62.3064C143.733 57.9883 142.046 58.5752 141.35 51.7947C140.654 45.016 142.071 36.911 136 35.758Z" fill="#263238"/>
<path d="M125.33 35.5955C121.617 37.9816 118.845 41.3229 117.224 45.2096C116.402 47.1784 115.906 49.2564 115.771 51.3618C115.595 54.1247 116.024 56.7114 114.981 59.3933C113.31 63.6888 109.968 67.2722 110.127 72.0556C110.2 74.2627 110.906 76.4275 112.188 78.2973C113.67 80.4583 115.78 82.1642 117.02 84.4787C117.072 84.5748 117.223 84.491 117.175 84.3958C116.141 82.3385 114.464 80.7673 113.069 78.9257C111.4 76.7223 110.457 74.1026 110.535 71.4057C110.668 66.8586 113.963 63.3629 115.503 59.2181C116.2 57.3416 116.244 55.5245 116.183 53.5585C116.11 51.2346 116.361 48.9559 117.072 46.7177C118.474 42.3045 121.461 38.4922 125.378 35.653C125.414 35.6276 125.368 35.572 125.33 35.5955Z" fill="#263238"/>
<path d="M118.116 87.2441C118.095 87.2441 118.095 87.2743 118.116 87.2743C118.138 87.2743 118.138 87.2441 118.116 87.2441Z" fill="#263238"/>
<path d="M146.948 82.1337C146.517 80.1009 145.438 78.2574 145.008 76.2321C144.49 73.7923 145.115 71.3629 145.587 68.9683C146.261 65.5517 146.184 62.3244 144.653 59.1065C143.664 57.0266 142.458 55.0804 141.724 52.8912C140.929 50.5211 140.481 48.0333 140.415 45.5483C140.414 45.4937 140.326 45.4946 140.326 45.5493C140.3 49.2118 140.995 52.6811 142.62 56.0252C143.553 57.9469 144.718 59.7509 145.254 61.8242C145.901 64.3177 145.649 66.7245 145.207 69.2245C144.913 70.89 144.557 72.579 144.571 74.2756C144.585 76.0409 145.15 77.6046 145.783 79.2521C147.423 83.5213 147.398 87.894 145.708 92.1453C145.678 92.2188 145.811 92.2706 145.843 92.198C147.244 89.0131 147.67 85.5315 146.948 82.1337Z" fill="#263238"/>
<path d="M110.882 71.0671C111.035 67.3217 113.683 64.7783 115.29 61.5312C116.504 59.0783 117.329 56.4586 116.927 53.755C116.92 53.7108 116.84 53.7211 116.842 53.7654C117.048 57.6785 115.382 61.226 113.184 64.5023C111.723 66.6802 110.515 68.7743 110.502 71.3968C110.488 73.9647 111.529 76.1285 113.014 78.2536C114.072 79.7684 115.113 81.1804 115.56 82.9712C116.005 84.7515 115.906 86.6224 115.818 88.431C115.814 88.5252 115.969 88.5233 115.977 88.431C116.229 85.6257 116.271 82.9043 114.839 80.343C113.079 77.1958 110.728 74.8728 110.882 71.0671Z" fill="#263238"/>
<path d="M147.607 79.4759C147.034 78.1901 146.23 77.0183 145.422 75.8483C143.969 73.742 143.726 72.0332 144.21 69.5331C144.221 69.4766 144.134 69.4521 144.114 69.5086C143.417 71.5679 143.252 73.2795 144.491 75.1767C146.219 77.8237 147.914 80.2361 148.269 83.3965C148.9 89.0052 145.685 94.2371 140.475 97.0753C140.402 97.1158 140.467 97.2166 140.542 97.1808C144.915 95.0576 147.981 91.218 148.62 86.6888C148.963 84.2585 148.618 81.7471 147.607 79.4759Z" fill="#263238"/>
<path d="M139.08 69.0884C148.269 83.2674 162.594 116.141 165.117 120.819C166.831 123.995 150.254 133.417 149.413 131.087C148.338 128.104 134.588 89.6664 132.95 72.294C132.191 64.2427 136.141 64.5536 139.08 69.0884Z" fill="#D3766A"/>
<path d="M154.378 135.691C153.601 134.847 153.153 135.249 153.312 137.281C153.467 139.337 155.822 147.224 152.993 147.811C150.156 148.405 147.007 137.19 147.003 133.785C146.991 130.38 148.184 124.871 148.184 124.871C149.236 126.93 152.262 131.68 154.378 135.691Z" fill="#D3766A"/>
<path d="M164.097 118.836C167.658 124.907 170.63 131.926 169.925 139.242C169.786 140.677 168.988 141.434 168.988 141.434C168.73 144.718 167.101 145.583 167.101 145.583C165.924 148.569 164.136 149.224 164.136 149.224C164.136 149.224 163.605 151.833 161.753 151.595C159.957 151.364 159.348 146.926 158.066 143.591C155.129 135.948 149.249 126.993 148.183 124.872L164.097 118.836Z" fill="#D3766A"/>
<path d="M161.05 134.503C161.87 136.77 162.734 138.974 163.242 141.339C163.8 143.934 163.902 146.526 164.07 149.161C164.076 149.243 164.191 149.244 164.198 149.162C164.648 144.343 163.398 138.739 161.152 134.464C161.098 134.361 161.009 134.39 161.05 134.503Z" fill="#263238"/>
<path d="M165.405 132.06C166.081 134.31 167.241 138.271 167.024 145.581C167.023 145.604 167.063 145.614 167.068 145.587C167.841 140.86 167.254 136.447 165.513 132.028C165.458 131.891 165.36 131.91 165.405 132.06Z" fill="#263238"/>
<path d="M167.769 130.792C168.772 134.66 168.914 137.225 168.971 141.417C168.971 141.441 169.012 141.447 169.015 141.421C169.451 136.651 169.068 134.87 167.898 130.739C167.857 130.597 167.731 130.641 167.769 130.792Z" fill="#263238"/>
<path d="M165.055 117.53L146.867 127.57C146.867 127.57 134.952 88.6264 133.071 75.1417C131.189 61.657 136.554 64.5131 140.466 70.6954C145.812 79.1471 165.055 117.53 165.055 117.53Z" fill="#E1D255"/>
<path d="M146.67 121.969C149.143 120.782 159.085 115.554 161.157 114.278C161.301 114.19 161.28 114.078 161.119 114.15C153.622 117.53 148.993 120.581 146.628 121.87C146.568 121.902 146.607 121.999 146.67 121.969Z" fill="#263238"/>
<path opacity="0.1" d="M133.067 75.1448C134.95 88.6295 146.866 127.57 146.866 127.57L150.389 125.622L148.717 85.65C145.272 79.0974 142.162 73.3842 140.463 70.6948C136.551 64.5096 131.191 61.6601 133.067 75.1448Z" fill="black"/>
<path d="M181.128 277.249C179.588 277.785 135.346 278.226 133.652 277.171C133.001 276.782 132.562 270.339 132.254 262.539C132.251 262.458 131.645 233.714 131.645 233.714L160.489 233.35L160.779 262.177C160.779 262.177 177.789 269.583 179.531 270.938C181.259 272.288 182.669 276.719 181.128 277.249Z" fill="#D3766A"/>
<path d="M167.551 265.048C167.435 265.017 167.374 264.984 167.367 264.951C167.367 264.951 167.435 264.983 167.551 265.048Z" fill="#E1D255"/>
<path d="M132.434 266.608C132.727 272.473 133.117 276.855 133.653 277.174C135.343 278.23 179.588 277.787 181.126 277.247C182.669 276.72 181.257 272.289 179.53 270.939C178.697 270.288 174.371 268.26 170.084 266.316C176.466 269.755 181.317 274.593 132.434 266.608Z" fill="#263238"/>
<path d="M132.434 266.609C132.727 272.474 133.117 276.856 133.653 277.175C134.32 277.59 141.697 277.778 150.44 277.811L139.548 267.738C137.315 267.395 134.946 267.019 132.434 266.609Z" fill="#37474F"/>
<path d="M119.659 107.043C119.659 107.043 128.857 182.166 130.07 187.846C130.35 189.139 129.823 195.659 130.133 204.737C130.817 224.542 131.205 256.804 131.205 256.804L161.667 255.968C161.667 255.968 160.333 197.674 158.692 186.312C157.05 174.943 146.652 106.424 146.652 106.424L119.659 107.043Z" fill="#E1D255"/>
<path d="M119.659 107.043C119.659 107.043 128.857 182.166 130.07 187.846C130.35 189.139 129.823 195.659 130.133 204.737C130.817 224.542 131.205 256.804 131.205 256.804L161.667 255.968C161.667 255.968 160.333 197.674 158.692 186.312C157.05 174.943 146.652 106.424 146.652 106.424L119.659 107.043Z" fill="#B68CFB"/>
<path opacity="0.1" d="M130.133 204.739C130.296 209.414 130.497 214.974 130.703 220.736L142.75 106.516L119.662 107.045C119.662 107.045 128.861 182.168 130.072 187.846C130.354 189.136 129.827 195.659 130.133 204.739Z" fill="black"/>
<path d="M158.526 249.458C156.906 249.293 144.627 249.354 134.392 250.294C134.323 250.3 134.333 250.408 134.4 250.411C137.757 250.599 156.65 249.917 158.519 249.593C158.581 249.582 158.6 249.466 158.526 249.458Z" fill="#263238"/>
<path d="M123.714 110.172C127.369 132.773 132.202 164.157 135.411 186.94C136.147 205.638 136.216 228.591 136.514 247.353C135.768 228.611 135.511 205.703 134.741 187.027C131.475 164.229 126.839 132.885 123.714 110.172Z" fill="#263238"/>
<path d="M146.04 278.657C144.488 279.156 100.247 278.545 98.5791 277.45C97.9376 277.045 97.6513 270.594 97.5288 262.789C97.5288 262.707 99.9055 233.938 99.9055 233.938L127.971 234.289L126.056 263.105C126.056 263.105 142.885 270.913 144.594 272.309C146.289 273.7 147.593 278.164 146.04 278.657Z" fill="#D3766A"/>
<path d="M98.5799 277.448C100.246 278.544 144.487 279.156 146.042 278.653C147.591 278.163 146.286 273.7 144.592 272.31C143.611 271.51 137.632 268.583 132.724 266.242C139.195 269.873 151.599 277.875 97.5767 265.533C97.7208 272.055 98.0128 277.093 98.5799 277.448Z" fill="#263238"/>
<path d="M126.948 256.804L98.0244 255.949C98.0244 255.949 103.413 193.513 103.474 189.308C103.565 183.057 105.341 156.61 107.377 135.682C107.377 135.682 104.278 120.691 110.883 107.219L146.679 106.398C146.679 106.398 144.534 121.012 140.663 131.405C140.663 131.405 137.244 132.038 132.473 134.811C132.473 134.811 131.038 184.119 131.038 189.927C131.038 201.406 126.948 256.804 126.948 256.804Z" fill="#E1D255"/>
<path d="M126.948 256.804L98.0244 255.949C98.0244 255.949 103.413 193.513 103.474 189.308C103.565 183.057 105.341 156.61 107.377 135.682C107.377 135.682 104.278 120.691 110.883 107.219L146.679 106.398C146.679 106.398 144.534 121.012 140.663 131.405C140.663 131.405 137.244 132.038 132.473 134.811C132.473 134.811 131.038 184.119 131.038 189.927C131.038 201.406 126.948 256.804 126.948 256.804Z" fill="#B68CFB"/>
<path d="M124.876 250.983C123.274 250.693 111.028 249.796 100.751 249.934C100.682 249.935 100.683 250.044 100.749 250.052C104.082 250.501 122.97 251.293 124.858 251.116C124.921 251.11 124.949 250.996 124.876 250.983Z" fill="#263238"/>
<path d="M140.678 131.126C137.43 132.21 134.291 133.764 131.288 135.394C131.17 135.458 131.246 135.641 131.373 135.587C134.535 134.264 137.759 133 140.844 131.503C141.087 131.386 140.928 131.043 140.678 131.126Z" fill="#263238"/>
<path d="M141.825 109.561C141.817 109.452 141.626 109.426 141.626 109.544C141.617 113.284 141.348 116.572 141 120.063C140.839 121.684 139.452 130.637 136.645 129.958C136.175 129.844 135.938 129.379 135.871 128.668C135.79 127.813 136.121 126.769 136.27 125.922C136.599 124.048 136.868 122.167 137.046 120.273C137.379 116.736 137.426 113.197 137.029 109.665C137.016 109.549 136.849 109.556 136.847 109.673C136.807 114.573 136.633 119.462 135.856 124.307C135.482 126.636 134.275 130.136 136.711 130.517C139.193 130.905 140.853 125.039 141.172 123.433C142.06 118.952 142.138 114.106 141.825 109.561Z" fill="#263238"/>
<path d="M136.718 130.2C136.458 130.8 136.248 131.425 136.068 132.053C135.929 132.541 135.74 133.068 135.791 133.578C135.801 133.677 135.933 133.688 135.985 133.622C136.319 133.206 136.464 132.635 136.652 132.141C136.871 131.568 137.103 130.999 137.306 130.421C137.441 130.036 136.878 129.83 136.718 130.2Z" fill="#263238"/>
<path d="M112.809 109.463C110.398 117.493 108.482 126.283 110.463 134.579C108.894 172.257 105.845 209.835 102.015 247.354C104.04 219.28 106.861 190.921 108.326 162.778C108.336 162.785 110.016 134.318 110.032 134.627C108.093 126.228 110.244 117.492 112.809 109.463Z" fill="#263238"/>
<path d="M147.672 106.055C147.672 106.055 120.558 110.392 108.938 109.285C108.938 109.285 116.099 75.6445 124.334 66.4308C128.081 62.2379 131.851 62.7796 135.093 65.3465C135.902 65.988 146.032 78.2547 146.965 82.5898C147.79 86.4209 144.761 90.7636 144.761 90.7636L147.672 106.055Z" fill="#EBEBEB"/>
<path d="M132.32 73.6866L133.82 70.7871L136.128 73.2693L135.956 75.3153L133.587 75.629L132.32 73.6866Z" fill="#263238"/>
<path d="M133.587 75.6281L134.706 98.3595L140.055 108.304L143.172 98.174L135.956 75.3145L133.587 75.6281Z" fill="#263238"/>
<path d="M134.772 64.9532C134.772 64.9532 139.247 76.1959 139.569 79.102C139.891 82.0081 138.834 92.9711 138.834 92.9711C138.834 92.9711 132.157 81.5757 130.517 77.8784C127.97 72.1359 127.247 64.0762 127.247 64.0762C127.247 64.0762 124.868 65.2273 121.809 69.6274C117.716 75.5139 110.589 97.4512 108.37 109.63L137.3 113.111L140.056 108.305L142.131 113.001L148.882 109.033L144.761 90.764C144.761 90.764 148.488 86.9225 146.866 81.6916C145.102 76.0019 134.772 64.9532 134.772 64.9532Z" fill="#E1D255"/>
<path opacity="0.2" d="M138.84 92.9461L142.75 79.7487L139.782 76.3433L142.279 75.7941C142.279 75.7941 135.482 65.7628 134.782 64.9668C134.952 65.3935 139.252 76.251 139.569 79.1024C139.879 81.9237 138.895 92.3554 138.84 92.9461Z" fill="black"/>
<path opacity="0.2" d="M129.331 77.4487L128.19 81.8705L138.829 92.9635C138.63 92.6178 132.13 81.5153 130.515 77.8755C127.967 72.1358 127.247 64.0742 127.247 64.0742L126.412 76.697L129.331 77.4487Z" fill="black"/>
<path d="M138.833 92.9707C139.718 98.0302 140.131 103.168 140.055 108.303C139.165 103.244 138.76 98.1065 138.833 92.9707Z" fill="#263238"/>
<path d="M136.347 96.359C136.397 97.1955 137.563 97.0844 137.514 96.3327C137.525 95.58 136.358 95.5216 136.347 96.359ZM136.347 96.359C136.305 95.158 138.154 95.0214 138.22 96.3157C138.211 97.6091 136.359 97.5582 136.347 96.359Z" fill="#263238"/>
<path d="M136.695 101.099C136.744 101.936 137.911 101.826 137.862 101.073C137.873 100.321 136.706 100.263 136.695 101.099ZM136.695 101.099C136.652 99.8982 138.501 99.7616 138.567 101.056C138.559 102.35 136.707 102.299 136.695 101.099Z" fill="#263238"/>
<path d="M137.041 105.841C137.091 106.678 138.257 106.567 138.208 105.815C138.22 105.063 137.053 105.005 137.041 105.841ZM137.041 105.841C136.999 104.64 138.848 104.504 138.914 105.799C138.905 107.092 137.053 107.041 137.041 105.841Z" fill="#263238"/>
<path d="M127.148 97.5846L116.945 95.9785L116.653 97.2964L126.939 98.9185L127.148 97.5846Z" fill="#263238"/>
<path d="M126.103 71.3498C123.571 74.9991 109.937 89.6359 109.573 91.0545C109.369 91.8505 112.476 94.6332 112.438 95.2031C112.284 97.5233 105.6 115.713 103.561 114.192C100.876 112.189 91.1941 95.7843 92.6297 89.3486C94.0653 82.9138 120.826 66.4203 124.935 64.9922C129.044 63.5632 128.601 67.7485 126.103 71.3498Z" fill="#E1D255"/>
<path d="M115.635 83.6221C116.927 81.4659 118.582 79.6205 120.595 78.1133C119.307 80.2723 117.645 82.113 115.635 83.6221Z" fill="#263238"/>
<path d="M120.358 79.625C119.725 80.4003 118.839 81.0879 117.818 81.1981C118.738 80.7799 119.505 80.1676 120.358 79.625Z" fill="#263238"/>
<path d="M111.719 118.836C113.58 117.514 110.956 116.079 110.956 116.079C110.956 116.079 115.23 117.235 116.621 115.13C117.956 113.098 114.726 111.475 114.497 111.355C114.724 111.415 118.679 112.375 119.859 110.116C121.084 107.767 117.561 106.694 117.333 106.627C117.565 106.615 120.624 106.415 121.131 104.495C121.998 101.195 113.196 101.02 111.25 99.0577C111.25 99.0577 112.004 94.7122 112.067 94.5879C112.067 94.5879 111.138 96.2995 109.614 96.7686C107.724 97.3508 106.018 97.7003 105.267 98.6319C104.035 100.166 105.052 101.61 105.052 101.61C105.052 101.61 102.641 101.385 101.657 103.135C101.154 104.034 102.145 105.639 102.145 105.639C102.145 105.639 100.207 105.541 99.428 107.151C98.8015 108.434 99.8933 109.845 99.8933 109.845C99.8933 109.845 97.9895 110.613 97.7757 112.132C97.3367 115.195 107.733 121.664 111.719 118.836Z" fill="#D3766A"/>
<path d="M100.03 110.095C99.997 110.071 99.9565 110.112 99.9867 110.142C102.886 113.104 106.979 115.469 111.09 116.171C111.225 116.194 111.321 115.985 111.177 115.931C107.079 114.397 103.564 112.71 100.03 110.095Z" fill="#263238"/>
<path d="M102.079 105.628C102.041 105.6 101.993 105.663 102.029 105.699C105.033 108.734 109.717 111.272 114.55 111.522C114.716 111.531 114.873 111.372 114.683 111.348C111.482 110.938 105.248 107.998 102.079 105.628Z" fill="#263238"/>
<path d="M117.675 106.527C113.051 106.107 109.026 104.246 105.167 101.743C105.117 101.71 105.075 101.784 105.11 101.824C106.664 103.563 109.291 104.903 111.422 105.773C113.464 106.606 115.474 106.948 117.66 106.69C117.746 106.679 117.774 106.535 117.675 106.527Z" fill="#263238"/>
<path d="M99.7691 109.837C99.0683 108.997 98.5803 107.931 99.0174 106.846C99.2162 106.353 99.5977 105.961 100.071 105.718C100.657 105.418 101.473 105.503 101.867 105.511C101.252 104.529 101.009 103.238 101.743 102.25C102.083 101.792 102.562 101.597 103.123 101.471C103.426 101.403 104.66 101.404 105.005 101.504C104.468 100.918 104.244 100.063 104.407 99.2882C104.596 98.3848 105.254 97.7735 106.063 97.3891C106.992 96.9473 108.03 96.8409 109.025 96.6261C109.543 96.515 110.055 96.4038 110.535 96.174C110.971 95.9648 111.349 95.6643 111.774 95.0144C111.831 94.9267 111.828 95.0181 111.782 95.0925C111.547 95.4816 111.359 95.7275 111.057 96.0006C110.752 96.2766 110.411 96.5065 110.045 96.6939C109.16 97.1452 108.167 97.2733 107.233 97.5888C106.416 97.8648 105.625 98.3104 105.136 99.0442C104.632 99.8007 104.675 100.761 105.113 101.533C105.14 101.569 105.118 101.628 105.048 101.624C104.636 101.6 103.635 101.76 103.377 101.854C102.937 102.016 102.489 102.227 102.22 102.612C101.615 103.48 101.67 104.695 102.144 105.64C102.161 105.674 101.148 105.688 100.394 106.136C100.037 106.348 99.7616 106.706 99.5836 107.078C99.1625 107.955 99.3094 109.057 99.9208 109.807C99.9312 109.819 99.9302 109.831 99.9312 109.843L99.9321 109.845C99.9321 109.854 99.9331 109.86 99.9302 109.868C99.9283 109.881 99.9217 109.89 99.9095 109.901C99.9029 109.906 99.3029 110.17 99.2727 110.173C99.2548 110.175 99.2567 110.151 99.2689 110.139C99.2906 110.117 99.6844 109.865 99.7691 109.837Z" fill="#263238"/>
<path d="M127.613 66.1526C127.812 66.8667 130.761 70.5923 134.05 70.2937C135.121 70.1947 135.541 65.1287 135.541 65.1287L135.62 64.6906L136.712 58.5573L129.377 54.291L128.319 53.7305C128.319 53.7305 128.131 55.428 127.918 57.5446C127.907 57.6426 127.897 57.7406 127.888 57.8461C127.873 57.9657 127.857 58.0778 127.848 58.1899C127.812 58.5055 127.777 58.8286 127.748 59.1507C127.726 59.3957 127.702 59.634 127.688 59.8921C127.667 60.1511 127.652 60.4017 127.631 60.6608C127.476 63.2136 127.532 65.8493 127.613 66.1526Z" fill="#D3766A"/>
<path d="M127.917 57.5427C129.869 62.3007 133.817 64.1028 135.619 64.6887L136.712 58.5553L129.376 54.289L128.318 53.7285C128.318 53.7285 128.131 55.4269 127.917 57.5427Z" fill="#263238"/>
<path d="M144.081 47.8366C145.725 58.647 139.437 60.8522 137.105 61.2046C134.989 61.5239 127.742 62.3434 124.989 51.761C122.237 41.1786 126.742 36.997 131.545 36.0098C136.346 35.0235 142.436 37.0272 144.081 47.8366Z" fill="#D3766A"/>
<path d="M140.751 45.9903C140.493 45.9941 140.253 45.9536 139.998 45.931C139.709 45.9056 139.477 45.914 139.242 45.7237C139.115 45.622 139.094 45.3846 139.181 45.2527C139.386 44.9457 139.747 44.8901 140.095 44.907C140.474 44.9259 140.76 45.037 141.042 45.2895C141.314 45.5353 141.092 45.9856 140.751 45.9903Z" fill="#263238"/>
<path d="M133.577 48.1306C133.835 48.1175 134.071 48.0619 134.324 48.0214C134.61 47.9762 134.843 47.9705 135.065 47.7651C135.184 47.6549 135.191 47.4166 135.095 47.2913C134.871 46.9984 134.507 46.9663 134.16 47.0059C133.783 47.0492 133.505 47.1792 133.241 47.4496C132.985 47.7124 133.236 48.1485 133.577 48.1306Z" fill="#263238"/>
<path d="M135.321 49.4417C135.311 49.4144 135.269 49.485 135.275 49.5152C135.412 50.2471 135.445 51.109 134.816 51.4557C134.796 51.4661 134.805 51.5028 134.828 51.4962C135.623 51.2569 135.567 50.1143 135.321 49.4417Z" fill="#263238"/>
<path d="M134.546 48.7753C133.348 48.8666 133.62 51.2546 134.729 51.1698C135.821 51.086 135.549 48.698 134.546 48.7753Z" fill="#263238"/>
<path d="M134.092 48.9539C133.899 49.1131 133.721 49.3749 133.473 49.4277C133.184 49.4899 132.937 49.2647 132.719 49.0462C132.697 49.0236 132.679 49.0462 132.681 49.0782C132.727 49.537 132.956 49.9863 133.454 49.9985C133.909 50.0098 134.184 49.568 134.245 49.0952C134.257 49.0076 134.169 48.8898 134.092 48.9539Z" fill="#263238"/>
<path d="M139.623 48.7264C139.626 48.6981 139.684 48.7556 139.687 48.7857C139.742 49.528 139.93 50.3701 140.625 50.5444C140.647 50.5501 140.649 50.5877 140.623 50.5868C139.794 50.5585 139.556 49.4385 139.623 48.7264Z" fill="#263238"/>
<path d="M140.202 47.8831C141.383 47.6664 141.729 50.045 140.635 50.2456C139.559 50.4425 139.212 48.0639 140.202 47.8831Z" fill="#263238"/>
<path d="M140.722 47.9665C140.928 48.0654 141.147 48.267 141.373 48.2491C141.636 48.2283 141.791 47.9429 141.922 47.6726C141.935 47.6443 141.957 47.6613 141.962 47.6933C142.041 48.1464 141.959 48.6409 141.535 48.7916C141.148 48.9292 140.799 48.5816 140.625 48.1445C140.592 48.0644 140.639 47.9269 140.722 47.9665Z" fill="#263238"/>
<path d="M136.078 55.3529C136.252 55.5309 136.426 55.774 136.695 55.8022C136.954 55.8295 137.259 55.7184 137.5 55.6308C137.523 55.6223 137.547 55.6477 137.531 55.6694C137.332 55.9511 136.921 56.1216 136.577 56.0547C136.241 55.9887 136.081 55.6948 136.006 55.3849C135.995 55.3416 136.053 55.3265 136.078 55.3529Z" fill="#263238"/>
<path d="M139.089 52.5486C139.089 52.5486 139.283 53.6535 139.303 54.1782C139.304 54.2272 139.178 54.2555 139.001 54.2724C138.993 54.2753 138.988 54.279 138.98 54.2734C138.06 54.4524 137.116 54.1669 136.526 53.4322C136.488 53.3823 136.552 53.3257 136.601 53.3568C137.31 53.8382 138.079 53.9409 138.9 53.9248C138.932 53.7779 138.504 52.0427 138.587 52.0333C138.872 51.9985 139.444 52.1727 139.787 52.2594C139.448 49.9449 138.741 47.7029 138.438 45.3931C138.428 45.3103 138.546 45.2811 138.573 45.3545C139.481 47.6511 139.929 50.3066 140.341 52.688C140.395 52.9828 139.302 52.6296 139.089 52.5486Z" fill="#263238"/>
<path d="M125.544 52.2821C127.341 52.2453 127.384 48.467 127.384 48.467C127.384 48.467 131.009 48.1222 131.693 42.7952C131.693 42.7952 131.852 45.2284 130.511 47.2603C130.511 47.2603 136.833 45.9566 139 40.3469C139 40.3469 138.193 43.1758 137.282 44.2421C137.282 44.2421 139.889 43.2323 140.983 40.9282C140.983 40.9282 142.49 43.9878 143.435 44.7555C143.435 44.7555 143.435 32.387 131.75 35.7236C131.75 35.7236 125.308 36.79 123.482 42.1509C121.656 47.5118 125.544 52.2821 125.544 52.2821Z" fill="#263238"/>
<path d="M125.575 55.7482C125.761 55.8047 125.929 55.8349 126.088 55.8462C126.277 55.8678 126.448 55.8565 126.604 55.8264C126.848 55.7868 127.052 55.6964 127.22 55.5824C127.375 55.4835 127.507 55.3592 127.612 55.2376C127.882 54.9192 127.986 54.598 127.986 54.598L127.193 51.7221C127.193 51.7221 124.59 48.4703 123.102 49.4198C121.609 50.3703 123.717 55.1915 125.575 55.7482Z" fill="#D3766A"/>
<path d="M123.739 50.7852C123.71 50.7842 123.707 50.8257 123.733 50.8342C125.038 51.2675 125.783 52.4035 126.332 53.597C125.923 53.1505 125.391 52.9263 124.79 53.4171C124.758 53.4426 124.793 53.4925 124.828 53.4831C125.343 53.338 125.724 53.4039 126.103 53.7986C126.371 54.0784 126.565 54.4411 126.766 54.7708C126.833 54.881 127.034 54.8066 126.983 54.6785C126.979 54.669 126.974 54.6596 126.97 54.6493C126.899 53.0243 125.491 50.836 123.739 50.7852Z" fill="#263238"/>
<path d="M125.698 55.2789C125.77 55.5493 126.048 55.7085 126.318 55.6359C126.589 55.5634 126.749 55.2855 126.676 55.0152C126.603 54.7448 126.325 54.5856 126.055 54.6581C125.784 54.7316 125.625 55.0086 125.698 55.2789Z" fill="white"/>
<path d="M124.61 54.5824C124.662 54.7736 124.858 54.8867 125.049 54.8349C125.24 54.783 125.353 54.5871 125.301 54.3959C125.25 54.2047 125.053 54.0916 124.862 54.1434C124.671 54.1952 124.558 54.3921 124.61 54.5824Z" fill="white"/>
<path d="M135.631 64.8179L133.544 69.7295L127.517 63.3418L125.733 65.3172C125.733 65.3172 131.552 75.389 131.599 74.9406L133.725 70.7139L136.612 73.7415L136.521 66.2827L135.631 64.8179Z" fill="#EBEBEB"/>
<path d="M136.775 70.0534C136.719 68.8222 136.696 67.5816 136.583 66.3542C136.58 66.3109 136.512 66.2901 136.5 66.341C136.229 67.5232 136.469 72.2294 136.442 73.3561C136.438 73.3514 136.434 73.3476 136.429 73.3429C136.308 73.2119 133.751 70.6761 133.724 70.7147C133.268 71.3835 131.709 74.461 131.601 74.7418C130.682 73.1422 127.148 67.3226 126.052 65.805C126.021 65.7617 125.953 65.7956 125.977 65.8464C126.785 67.5326 131.457 75.3672 131.531 75.3475C131.581 75.388 133.518 71.5974 133.755 70.8786C134.186 71.4287 136.761 74.2839 136.774 74.1012C136.859 72.87 136.831 71.2865 136.775 70.0534Z" fill="#263238"/>
<path d="M166.071 443.141C164.418 442.566 165.949 437.796 167.814 436.34C168.407 435.878 170.598 434.796 173.343 433.513C179.389 430.695 188.076 426.938 188.076 426.938L181.091 395.662L211.09 396.19C211.09 396.19 218.843 421.87 218.843 427.738C218.843 436.009 217.994 442.764 217.308 443.18C215.477 444.311 167.733 443.721 166.071 443.141Z" fill="#F7A9A0"/>
<path d="M181.071 430.014C181.071 430.014 181.062 430.014 181.034 430.033C181.043 430.023 181.053 430.014 181.062 430.014H181.071Z" fill="#B68CFB"/>
<path d="M218.798 431.228C218.6 437.841 217.894 442.824 217.31 443.182C215.473 444.313 167.732 443.719 166.074 443.145C164.417 442.57 165.952 437.794 167.817 436.343C168.411 435.882 170.596 434.799 173.347 433.508C175.372 432.557 177.708 431.502 179.912 430.531C178.339 431.285 175.485 432.792 173.318 434.789C170.276 437.587 205.083 435.307 218.798 431.228Z" fill="#455A64"/>
<path d="M253.152 375.747C253.152 375.747 258.293 395.281 248.836 400.928C242.521 404.699 214.886 399.041 213.749 395.604C211.601 389.109 211.626 386.739 211.626 386.739L218.322 421.118L183.421 421.103C183.421 421.103 177.218 392.653 179.266 362.563C180.024 351.437 195.03 348.251 205.373 353.916C215.401 359.407 233.296 374.532 233.296 374.532L253.152 375.747Z" fill="#B68CFB"/>
<path d="M215.621 400.985C213.797 396.359 213.966 394.555 209.443 380.214C208.839 378.297 208.338 376.349 207.8 374.412C207.242 372.403 206.578 370.402 206.162 368.358C206.143 368.26 205.981 368.298 206.009 368.396C206.53 370.168 206.859 371.996 207.304 373.788C207.74 375.543 208.183 377.296 208.651 379.043C208.853 379.797 209.065 380.549 209.271 381.302C209.178 381.144 209.086 380.989 208.999 380.835C208.598 380.126 208.194 379.419 207.775 378.72C206.912 377.279 205.863 375.921 205.11 374.419C205.065 374.329 204.919 374.408 204.972 374.495C205.841 375.932 206.453 377.524 207.266 378.996C207.66 379.711 208.074 380.41 208.498 381.108C208.872 381.723 209.248 382.422 209.729 382.975C210.343 385.187 211.654 390.516 212.313 392.716C214.388 399.648 213.707 397.392 215.272 401.118C215.354 401.315 215.7 401.184 215.621 400.985Z" fill="#532D97"/>
<path d="M199.551 415.22C204.805 415.229 210.053 414.995 215.305 414.958C215.405 414.958 215.422 414.803 215.319 414.801C210.086 414.707 204.859 414.439 199.622 414.438C194.367 414.436 189.123 414.632 183.871 414.744C183.737 414.747 183.713 414.954 183.852 414.956C189.087 415.031 194.315 415.212 199.551 415.22Z" fill="#532D97"/>
<path d="M212.447 413.623C211.995 411.3 211.352 409.01 210.767 406.716C210.181 404.419 209.595 402.123 208.99 399.831C207.781 395.245 206.518 390.674 205.258 386.103C204.543 383.508 203.768 380.925 203.007 378.343C202.985 378.269 202.871 378.295 202.89 378.37C205.119 387.587 207.533 396.758 210.102 405.885C210.83 408.474 211.489 411.098 212.365 413.642C212.383 413.692 212.458 413.677 212.447 413.623Z" fill="#532D97"/>
<path d="M248.837 400.925C258.294 395.279 253.154 375.747 253.154 375.747L236.42 374.725L213.383 394.478C213.498 394.839 213.618 395.215 213.748 395.605C214.883 399.04 242.521 404.699 248.837 400.925Z" fill="#532D97"/>
<path d="M183.257 420.311C183.361 420.831 183.422 421.101 183.422 421.101L218.321 421.117L213.171 394.66L183.257 420.311Z" fill="#532D97"/>
<path d="M325.911 444.878C326.398 446.558 321.621 448.068 319.354 447.39C318.634 447.173 316.485 446.011 313.85 444.514C308.056 441.211 299.967 436.297 299.967 436.297L274.616 440.45L257.696 415.671C257.696 415.671 281.017 411.915 282.544 410.92C282.639 410.858 282.732 410.797 282.826 410.734C289.774 406.247 295.575 402.737 296.311 403.055C298.292 403.896 325.422 443.186 325.911 444.878Z" fill="#F7A9A0"/>
<path d="M319.357 447.392C318.631 447.175 316.484 446.007 313.846 444.509C311.566 443.21 308.919 441.655 306.555 440.252C307.761 440.92 311.83 443.125 315.363 443.925C319.554 444.886 296.344 416.598 285.718 408.883C291.332 405.322 295.675 402.788 296.306 403.052C298.293 403.9 325.423 443.191 325.913 444.877C326.403 446.554 321.617 448.07 319.357 447.392Z" fill="#455A64"/>
<path d="M231.134 370.713C231.134 370.713 230.147 378.798 230.152 384.995C230.152 384.995 196.794 401.963 195.081 418.456C194.474 424.299 195.121 435.265 206.528 440.398C219.274 446.134 290.134 443.154 290.134 443.154L281.684 410.443L250.451 410.075C250.451 410.075 272.448 413.849 275.021 399.191C277.412 385.568 269.202 371.175 269.202 371.175L231.134 370.713Z" fill="#B68CFB"/>
<path d="M282.84 441.468C282.105 437.703 281.396 433.919 280.57 430.173C279.742 426.416 278.859 422.676 277.918 418.949C277.653 417.897 277.379 416.847 277.107 415.797C276.978 415.296 276.849 414.796 276.709 414.298C276.568 413.796 276.46 413.275 276.271 412.794C276.249 412.74 276.19 412.77 276.194 412.821C276.271 413.778 276.528 414.769 276.72 415.71C276.906 416.619 277.083 417.529 277.271 418.438C277.657 420.306 278.05 422.173 278.454 424.037C279.265 427.774 280.17 431.479 281.093 435.185C281.618 437.291 282.145 439.396 282.678 441.498C282.71 441.617 282.865 441.594 282.84 441.468Z" fill="#532D97"/>
<path d="M261.236 410.203C258.707 409.991 256.172 409.878 253.637 409.797C251.103 409.714 248.565 409.711 246.027 409.725C243.49 409.776 240.952 409.845 238.42 410.041C235.891 410.241 233.355 410.491 230.874 411.037L232.762 410.815L234.654 410.658C235.917 410.566 237.178 410.477 238.444 410.436C240.971 410.322 243.502 410.249 246.035 410.238C248.566 410.182 251.099 410.193 253.632 410.191L261.236 410.203Z" fill="#532D97"/>
<path d="M262.231 373.768C263.33 376.687 264.274 379.662 265.068 382.672C265.854 385.685 266.474 388.745 266.762 391.833C266.899 393.376 266.942 394.93 266.804 396.463C266.661 397.99 266.339 399.519 265.625 400.849C265.276 401.515 264.806 402.107 264.253 402.598C263.681 403.09 263.045 403.512 262.379 403.88C261.037 404.606 259.581 405.128 258.098 405.542C255.119 406.357 252.027 406.761 248.938 407.09C245.843 407.41 242.733 407.625 239.621 407.904C236.511 408.184 233.389 408.519 230.314 409.235C228.788 409.597 227.241 410.066 225.831 410.827C224.422 411.579 223.126 412.479 221.915 413.53L221.206 414.146L222.154 414.145L247.412 414.112L260.042 414.163C264.252 414.198 268.461 414.242 272.668 414.406C268.467 414.111 264.256 413.994 260.048 413.868C255.838 413.746 251.627 413.682 247.417 413.618L234.786 413.474L222.154 413.439L222.391 414.054C223.538 413.065 224.822 412.178 226.169 411.468C227.513 410.75 228.98 410.311 230.486 409.961C233.495 409.277 236.596 408.961 239.691 408.655C242.791 408.363 245.903 408.133 249.013 407.796C252.119 407.451 255.236 407.031 258.277 406.184C259.792 405.756 261.291 405.21 262.681 404.425C263.374 404.028 264.038 403.575 264.641 403.041C265.246 402.49 265.75 401.832 266.116 401.112C266.862 399.672 267.167 398.077 267.293 396.508C267.415 394.932 267.347 393.356 267.188 391.796C266.866 388.673 266.154 385.615 265.303 382.611C264.44 379.607 263.427 376.649 262.231 373.768Z" fill="#532D97"/>
<path d="M234.749 370.415C234.749 370.345 234.634 370.337 234.626 370.407C234.482 371.535 234.008 377.979 233.783 380.407C233.703 381.273 233.731 382.816 232.469 382.8C231.469 382.786 230.986 381.691 230.885 380.843C230.763 379.81 231.407 372.329 231.565 369.839C231.57 369.768 231.455 369.764 231.442 369.831C230.952 372.322 229.966 380.252 230.216 381.369C230.413 382.245 230.852 383.078 231.737 383.383C231.755 383.389 231.579 384.548 231.743 386.325C231.751 386.407 232.003 386.432 232.023 386.367L232.029 386.369C231.992 385.785 232.329 383.527 232.322 383.514C232.976 383.52 233.491 383.38 233.937 382.8C234.827 381.643 234.737 373.288 234.749 370.415Z" fill="#532D97"/>
<path d="M238.097 389.586C237.201 388.952 236.274 388.373 235.34 387.805C234.408 387.233 233.455 386.698 232.498 386.171C231.534 385.655 230.569 385.142 229.578 384.678C228.59 384.209 227.593 383.754 226.562 383.377C227.029 383.668 227.507 383.93 227.974 384.216L229.394 385.029C230.339 385.575 231.296 386.098 232.252 386.624C233.214 387.139 234.172 387.66 235.148 388.151L236.611 388.889C237.107 389.117 237.595 389.365 238.097 389.586Z" fill="#532D97"/>
<path d="M261.686 384.687C259.927 384.659 254.441 384.913 251.854 382.673C249.762 380.862 248.906 374.752 248.562 373.074C248.545 372.992 248.424 373.018 248.42 373.095C248.341 374.971 248.586 376.886 249.062 378.7C249.468 380.25 250.019 381.981 251.254 383.078C252.553 384.233 254.331 384.655 256.009 384.883C257.904 385.14 259.796 385.108 261.688 384.874C261.805 384.86 261.809 384.689 261.686 384.687Z" fill="#532D97"/>
<path d="M255.311 344.387C255.294 345.264 254.941 345.844 254.333 346.264C253.828 346.613 253.294 346.92 252.746 347.197C252.898 345.086 252.814 342.899 252.772 340.812C252.72 338.358 252.518 335.958 252.271 333.531C252.268 333.495 252.217 333.501 252.218 333.537C252.311 335.995 252.326 338.466 252.36 340.923C252.39 343.075 252.27 345.253 252.313 347.405C251.75 347.666 251.176 347.896 250.598 348.101C250.635 347.351 250.667 346.6 250.691 345.847C250.763 343.584 250.656 341.348 250.621 339.089C250.621 339.035 250.553 339.032 250.554 339.087C250.56 341.285 250.396 343.509 250.304 345.706C250.269 346.554 250.227 347.401 250.179 348.247C249.783 348.378 249.388 348.501 248.998 348.613C248.737 348.688 248.477 348.761 248.216 348.822C248.249 347.338 248.208 345.841 248.207 344.387C248.202 342.035 248.067 339.694 248.032 337.343C248.03 337.262 247.927 337.258 247.927 337.339C247.95 339.679 247.836 342.033 247.811 344.373C247.796 345.878 247.721 347.419 247.713 348.945C244.219 349.749 240.626 349.74 237.124 349.185C235.093 348.862 233.085 348.359 231.102 347.737C230.624 347.587 229.407 347.161 228.206 346.719C228.217 346.01 228.212 345.3 228.231 344.614C228.273 343.049 228.234 341.471 228.314 339.91C228.316 339.865 228.264 339.864 228.26 339.908C228.134 341.475 227.925 343.027 227.843 344.601C227.811 345.231 227.763 345.884 227.735 346.543C227.307 346.385 226.894 346.227 226.531 346.081C226.77 343.129 226.701 340.122 226.787 337.176C226.789 337.105 226.706 337.103 226.701 337.173C226.498 340.06 226.139 342.985 226.074 345.895C225.649 345.718 225.353 345.58 225.281 345.512C224.698 344.955 225.495 333.284 225.625 330.558C225.866 325.48 227.175 315.187 228.431 310.289C229.508 306.095 231.724 300.11 242.156 300.291C249.809 300.424 253.378 308.426 254.003 313.071C254.327 315.467 255.336 343.052 255.311 344.387Z" fill="#263238"/>
<path d="M227.752 365.157L225.844 377.48C225.844 377.48 227.538 377.469 233.134 377.39L234.633 372.931L237.043 377.397L272.448 376.07L267.438 366.158C263.564 356.6 258.749 342.228 251.928 335.176C246.508 329.572 240.318 330.152 236.465 334.256C235.49 335.295 225.796 350.144 224.687 356.198C223.72 361.538 227.752 365.157 227.752 365.157Z" fill="#E1D255"/>
<path d="M242.315 362.369C240.107 362.548 237.889 362.81 235.723 363.346C234.647 363.613 233.587 363.932 232.529 364.277C232.001 364.449 231.472 364.601 230.939 364.751C230.391 364.904 229.806 365.045 229.239 365.047C229.189 365.047 229.188 365.13 229.238 365.133C229.788 365.167 230.313 365.198 230.864 365.151C231.388 365.107 231.911 365 232.424 364.879C233.519 364.62 234.602 364.306 235.695 364.035C237.899 363.488 240.102 362.942 242.335 362.57C242.44 362.552 242.42 362.361 242.315 362.369Z" fill="#263238"/>
<path d="M247.701 364.682C245.898 364.423 244.056 364.255 242.236 364.222C241.321 364.206 240.411 364.248 239.497 364.316C239.061 364.349 238.625 364.389 238.189 364.436C237.711 364.488 237.237 364.61 236.758 364.654C236.708 364.659 236.705 364.743 236.756 364.741C237.209 364.714 237.667 364.77 238.121 364.772C238.577 364.775 239.032 364.773 239.487 364.774C240.4 364.778 241.312 364.794 242.225 364.789C244.052 364.778 245.871 364.788 247.697 364.846C247.796 364.85 247.793 364.695 247.701 364.682Z" fill="#263238"/>
<path d="M238.771 337.951C236.804 342.294 234.895 346.671 233.202 351.127C231.308 356.042 229.921 360.083 235.07 363.534L235.181 363.607C235.118 365.182 235.048 366.757 234.949 368.331C234.873 369.865 234.746 371.397 234.633 372.93C234.63 371.393 234.611 369.856 234.643 368.32C234.655 366.784 234.694 365.248 234.741 363.713L234.846 363.907C229.432 360.297 230.767 356.138 232.817 350.981C234.553 346.526 236.609 342.21 238.771 337.951Z" fill="#263238"/>
<path d="M236.026 344.987C236.015 345.306 236.266 345.575 236.585 345.585C236.904 345.596 237.173 345.346 237.183 345.026C237.194 344.707 236.944 344.439 236.624 344.428C236.305 344.417 236.038 344.666 236.026 344.987Z" fill="#263238"/>
<path d="M234.251 351.455C234.24 351.775 234.49 352.043 234.809 352.054C235.129 352.065 235.397 351.814 235.408 351.495C235.419 351.176 235.168 350.907 234.849 350.897C234.529 350.886 234.261 351.136 234.251 351.455Z" fill="#263238"/>
<path d="M232.665 357.373C232.654 357.693 232.905 357.96 233.224 357.972C233.543 357.982 233.812 357.732 233.822 357.413C233.833 357.094 233.583 356.825 233.264 356.815C232.944 356.804 232.677 357.054 232.665 357.373Z" fill="#263238"/>
<path d="M236.122 362.873C236.112 363.193 236.362 363.46 236.681 363.472C237 363.483 237.269 363.232 237.279 362.913C237.29 362.594 237.04 362.326 236.721 362.315C236.401 362.304 236.133 362.553 236.122 362.873Z" fill="#263238"/>
<path d="M236.155 368.837C236.143 369.156 236.394 369.425 236.713 369.435C237.033 369.447 237.301 369.196 237.311 368.876C237.323 368.556 237.072 368.289 236.753 368.278C236.433 368.268 236.165 368.518 236.155 368.837Z" fill="#263238"/>
<path d="M245.345 332.85C245.225 333.645 241.911 339.011 238.332 339.132C237.166 339.17 236.677 332.815 236.677 332.815L236.533 332.354L234.532 325.902L241.85 320.324L242.913 319.578C242.913 319.578 243.344 321.379 243.858 323.628C243.883 323.731 243.907 323.836 243.932 323.948C243.965 324.074 243.997 324.194 244.021 324.313C244.102 324.647 244.184 324.99 244.258 325.333C244.315 325.594 244.373 325.846 244.423 326.122C244.48 326.398 244.53 326.666 244.589 326.942C245.096 329.67 245.39 332.513 245.345 332.85Z" fill="#F7A9A0"/>
<path d="M243.858 323.628C242.398 329.01 238.393 331.481 236.533 332.354L234.531 325.902L241.849 320.324L242.912 319.578C242.912 319.578 243.344 321.378 243.858 323.628Z" fill="#263238"/>
<path d="M225.95 313.21C222.819 324.645 229.315 327.812 231.782 328.485C234.021 329.095 241.724 330.89 246.02 319.838C250.317 308.787 245.989 303.716 240.942 302.049C235.893 300.381 229.082 301.773 225.95 313.21Z" fill="#F7A9A0"/>
<path d="M227.999 312.705C228.278 312.728 228.54 312.702 228.818 312.697C229.133 312.69 229.383 312.717 229.652 312.529C229.796 312.428 229.837 312.173 229.751 312.024C229.554 311.677 229.166 311.59 228.788 311.582C228.377 311.575 228.059 311.674 227.736 311.926C227.423 312.17 227.631 312.675 227.999 312.705Z" fill="#263238"/>
<path d="M235.826 313.974C235.56 313.887 235.328 313.764 235.073 313.651C234.786 313.524 234.544 313.452 234.369 313.175C234.275 313.026 234.335 312.775 234.471 312.67C234.786 312.426 235.177 312.494 235.529 312.633C235.912 312.783 236.167 312.997 236.369 313.354C236.563 313.702 236.178 314.087 235.826 313.974Z" fill="#263238"/>
<path d="M233.665 315.868C233.679 315.838 233.718 315.918 233.711 315.951C233.509 316.732 233.41 317.662 234.064 318.083C234.084 318.096 234.073 318.135 234.047 318.126C233.205 317.809 233.349 316.577 233.665 315.868Z" fill="#263238"/>
<path d="M234.554 315.202C235.842 315.391 235.371 317.954 234.178 317.78C233.003 317.608 233.473 315.045 234.554 315.202Z" fill="#263238"/>
<path d="M235.032 315.43C235.229 315.616 235.402 315.912 235.667 315.988C235.974 316.077 236.259 315.852 236.51 315.63C236.537 315.608 236.555 315.634 236.549 315.668C236.466 316.161 236.184 316.63 235.645 316.606C235.152 316.585 234.887 316.086 234.855 315.57C234.849 315.476 234.952 315.354 235.032 315.43Z" fill="#263238"/>
<path d="M229.324 314.679C229.323 314.648 229.255 314.705 229.25 314.738C229.135 315.538 228.869 316.435 228.105 316.572C228.081 316.576 228.076 316.617 228.104 316.617C229.002 316.649 229.343 315.455 229.324 314.679Z" fill="#263238"/>
<path d="M228.759 313.723C227.497 313.401 226.947 315.949 228.116 316.247C229.266 316.54 229.817 313.994 228.759 313.723Z" fill="#263238"/>
<path d="M228.191 313.777C227.961 313.868 227.709 314.071 227.465 314.035C227.182 313.993 227.035 313.673 226.915 313.37C226.903 313.339 226.878 313.356 226.87 313.389C226.751 313.873 226.803 314.415 227.25 314.61C227.658 314.788 228.062 314.437 228.283 313.977C228.324 313.892 228.285 313.74 228.191 313.777Z" fill="#263238"/>
<path d="M232.459 322.579C232.242 322.74 232.016 322.972 231.722 322.956C231.44 322.941 231.131 322.771 230.89 322.637C230.865 322.624 230.836 322.647 230.849 322.673C231.015 323.008 231.426 323.261 231.806 323.247C232.176 323.233 232.398 322.945 232.532 322.626C232.55 322.582 232.49 322.556 232.459 322.579Z" fill="#263238"/>
<path d="M229.708 319.067C229.708 319.067 229.312 320.218 229.203 320.777C229.194 320.83 229.324 320.88 229.511 320.928C229.52 320.933 229.524 320.938 229.533 320.933C230.488 321.28 231.548 321.134 232.304 320.447C232.353 320.4 232.294 320.328 232.236 320.354C231.395 320.75 230.554 320.73 229.677 320.573C229.668 320.411 230.42 318.624 230.333 318.6C230.032 318.514 229.391 318.604 229.009 318.638C229.763 316.217 230.899 313.935 231.613 311.512C231.636 311.426 231.515 311.374 231.474 311.447C230.114 313.754 229.186 316.523 228.343 319.004C228.235 319.312 229.466 319.118 229.708 319.067Z" fill="#263238"/>
<path d="M229.607 320.733C229.607 320.733 229.955 321.594 230.621 322.044C230.866 322.211 231.147 322.325 231.473 322.322C232.142 322.319 232.307 321.748 232.319 321.228C232.33 320.799 232.233 320.402 232.233 320.402C232.233 320.402 231.097 321.022 229.607 320.733Z" fill="#263238"/>
<path d="M230.622 322.045C230.867 322.212 231.147 322.326 231.473 322.323C232.142 322.32 232.307 321.749 232.319 321.228C231.63 321.124 230.848 321.407 230.622 322.045Z" fill="#FF9ABB"/>
<path d="M245.901 320.474C243.439 318.931 243.651 316.185 243.651 316.185C240.576 314.411 239.124 311.678 238.974 311.401C239.024 311.653 239.385 313.479 239.598 314.404C232.274 312.108 230.643 306.099 230.643 306.099C227.924 308.233 227.253 309.726 226.809 310.458C226.809 310.458 227.303 305.855 230.034 303.061C233.376 299.639 237.237 300.826 237.237 300.826C237.237 300.826 243.263 299.789 247.195 305.244C251.428 311.126 245.901 320.474 245.901 320.474Z" fill="#263238"/>
<path d="M234.052 312.481C235.165 313.295 236.438 313.908 237.726 314.352C237.737 314.356 237.741 314.34 237.732 314.335C235.692 313.486 233.93 312.153 232.631 310.353C232.082 309.593 231.629 308.774 231.285 307.9C230.925 306.988 230.596 305.914 230.631 304.926C230.634 304.85 230.517 304.846 230.514 304.922C230.477 305.967 230.454 306.931 230.756 307.945C231.043 308.907 231.51 309.828 232.124 310.624C232.67 311.335 233.328 311.951 234.052 312.481Z" fill="#263238"/>
<path d="M243.962 320.219C243.962 320.219 247.174 317.044 248.659 318.253C250.145 319.463 247.267 324.391 245.195 324.759C243.124 325.126 242.746 323.216 242.746 323.216L243.962 320.219Z" fill="#F7A9A0"/>
<path d="M247.799 319.644C247.831 319.647 247.829 319.692 247.8 319.697C246.339 320 245.393 321.13 244.653 322.345C245.149 321.916 245.75 321.741 246.336 322.345C246.367 322.377 246.323 322.426 246.286 322.411C245.751 322.19 245.331 322.213 244.873 322.59C244.549 322.858 244.294 323.223 244.036 323.554C243.951 323.664 243.743 323.559 243.815 323.427C243.821 323.417 243.826 323.407 243.832 323.398C244.115 321.659 245.905 319.478 247.799 319.644Z" fill="#263238"/>
<path d="M236.509 332.378L238.639 337.767L245.359 330.998L247.241 333.192C247.241 333.192 240.646 343.968 240.607 343.48L238.415 338.832L235.198 342.04L235.502 333.945L236.509 332.378Z" fill="#EBEBEB"/>
<path d="M235.123 338.03C235.218 336.695 235.275 335.348 235.433 334.019C235.438 333.972 235.513 333.951 235.523 334.007C235.784 335.299 235.394 340.401 235.394 341.625C235.399 341.62 235.403 341.616 235.408 341.611C235.543 341.472 238.389 338.789 238.417 338.832C238.893 339.57 240.502 342.955 240.612 343.262C241.654 341.551 246.078 334.804 247.31 333.187C247.346 333.14 247.418 333.179 247.39 333.234C246.468 335.042 240.751 343.945 240.671 343.922C240.615 343.964 238.617 339.795 238.379 339.008C237.897 339.593 235.022 342.623 235.013 342.425C234.954 341.085 235.028 339.367 235.123 338.03Z" fill="#263238"/>
<path d="M250.571 347.908C240.944 364.611 224.071 381.677 217.584 380.172C210.36 378.498 223.307 355.581 224.409 355.352C225.241 355.178 234.081 349.312 245.037 341.068C255.983 332.834 252.952 343.778 250.571 347.908Z" fill="#F7A9A0"/>
<path d="M224.355 355.235C226.009 354.181 240.498 343.563 246.86 339.13C253.223 334.697 255.599 338.826 251.104 347.711C246.609 356.596 236.144 370.807 225.679 377.519C215.596 383.985 213.062 378.957 216.078 370.063C218.547 362.783 224.355 355.235 224.355 355.235Z" fill="#E1D255"/>
<path d="M221.781 357.14C223.821 355.751 225.838 354.329 227.852 352.903C229.866 351.478 231.861 350.026 233.867 348.59L239.832 344.209L242.798 341.996C243.778 341.248 244.767 340.508 245.741 339.752C244.718 340.444 243.71 341.155 242.694 341.855L239.669 343.989L233.656 348.303C231.668 349.764 229.67 351.211 227.691 352.685C225.709 354.156 223.734 355.632 221.781 357.14Z" fill="#263238"/>
<path d="M241.044 343.037C241.548 342.616 241.993 342.147 242.426 341.667C242.64 341.425 242.851 341.181 243.054 340.929C243.26 340.68 243.451 340.42 243.649 340.16C243.108 340.539 242.66 341.014 242.224 341.491C241.795 341.977 241.386 342.48 241.044 343.037Z" fill="#263238"/>
<path d="M217.604 380.142C212.33 378.521 208.976 371.524 198.386 352.383C196.92 349.734 212.96 333.633 214.669 336.381C216.824 339.842 224.433 353.741 224.862 354.828C228.473 363.994 221.181 381.242 217.604 380.142Z" fill="#F7A9A0"/>
<path d="M217.304 343.238C217.304 343.238 215.214 335.237 213.601 330.069C212.702 327.186 210.718 322.381 209.087 320.565C206.649 317.849 194.718 308.047 192.279 310.888C190.071 313.461 201.391 320.581 201.391 320.581C201.391 320.581 190.604 312.387 188.515 315.972C186.427 319.558 200.285 325.901 200.285 325.901C200.285 325.901 189.013 317.731 187.444 321.769C186.258 324.821 198.487 331.274 198.487 331.274C198.487 331.274 188.75 324.318 187.395 327.405C185.898 330.815 196.812 337.48 196.812 337.48C194.69 345.904 197.125 350.784 199.271 354.049C199.792 354.839 217.304 343.238 217.304 343.238Z" fill="#F7A9A0"/>
<path d="M205.304 323.177C204.072 322.169 202.832 321.139 201.514 320.244C200.196 319.348 198.846 318.499 197.451 317.73C194.029 315.845 191.592 315.2 191.738 315.255C195.196 316.586 199.962 319.718 201.281 320.614C202.596 321.507 203.956 322.335 205.272 323.228C205.305 323.25 205.334 323.2 205.304 323.177Z" fill="#263238"/>
<path d="M202.158 327.993C200.528 326.773 198.956 325.503 197.272 324.355C195.597 323.213 193.907 322.276 192.158 321.252C192.023 321.173 192.025 321.271 192.157 321.355C193.864 322.448 195.358 323.591 197.052 324.703C198.74 325.812 200.485 326.864 202.131 328.033C202.158 328.052 202.182 328.011 202.158 327.993Z" fill="#263238"/>
<path d="M200.201 332.612C197.806 330.62 195.047 329.074 192.305 327.621C192.168 327.549 192.185 327.676 192.32 327.758C194.977 329.368 197.072 330.611 200.132 332.696C200.179 332.729 200.252 332.654 200.201 332.612Z" fill="#263238"/>
<path d="M216.337 338.359L202.175 362.687C202.175 362.687 212.157 379.204 217.659 380.373C221.281 381.144 229.274 363.771 224.514 353.948L216.337 338.359Z" fill="#E1D255"/>
<path d="M225.229 367.268C225.896 365.221 227.193 359.645 224.525 353.929C224.502 353.879 224.416 353.905 224.435 353.958C226.01 358.409 225.616 365.228 225.141 367.253C225.13 367.306 225.212 367.32 225.229 367.268Z" fill="#263238"/>
<path d="M207.091 366.506C208.791 363.915 210.351 361.235 211.905 358.55C213.459 355.864 215.019 353.181 216.505 350.456C217.346 348.917 218.195 347.382 218.982 345.813C219.002 345.772 218.939 345.727 218.913 345.768C217.215 348.355 215.641 351.031 214.073 353.701C212.501 356.376 210.956 359.071 209.437 361.777C208.579 363.307 207.748 364.852 206.962 366.42C206.921 366.498 207.041 366.581 207.091 366.506Z" fill="#263238"/>
<path d="M216.585 338.244C217.299 339.22 217.854 340.29 218.431 341.353C219.006 342.413 219.565 343.485 220.112 344.561C221.202 346.701 223.755 351.112 225.087 355.283C225.102 355.329 224.802 355.165 224.79 355.119C224.258 353.1 216.844 339.793 216.385 338.653C216.323 338.724 216.26 338.792 216.188 338.855C216.138 338.898 216.045 338.865 216.066 338.79C216.117 338.611 216.207 338.467 216.271 338.295C216.322 338.152 216.493 338.118 216.585 338.244Z" fill="#263238"/>
<path d="M250.042 351.779C244.709 359.652 227.678 381.852 217.549 380.376C226.717 381.075 243.901 358.801 250.042 351.779Z" fill="#263238"/>
<path d="M249.689 353.395C249.07 354.552 248.029 355.432 246.837 355.947C247.649 354.909 248.593 354.118 249.689 353.395Z" fill="#263238"/>
<path d="M51.694 380.926C51.694 380.926 37.4274 406.156 37.4179 406.174C35.1261 411.262 33.2072 415.764 32.4319 418.186C32.4263 418.198 32.4197 418.21 32.4197 418.225C32.1267 419.139 31.9986 419.748 32.0872 419.966C32.0938 419.984 32.0938 419.999 32.1022 420.011C33.1545 421.719 73.2827 441.22 74.9105 441.43C76.542 441.647 77.2627 437.014 76.3094 435.014C75.3438 433.009 63.3258 418.675 63.3258 418.675L77.3343 393.343L51.694 380.926Z" fill="#AD6359"/>
<path d="M74.9077 441.429C73.2874 441.222 33.1582 421.723 32.1032 420.008C32.0938 419.999 32.0938 419.98 32.0844 419.971C31.9996 419.745 32.122 419.142 32.4235 418.228C32.4235 418.209 32.4235 418.2 32.4329 418.19C33.0452 416.269 34.3734 413.056 36.0313 409.279L36.0408 409.27C45.5361 419.161 71.6295 434.393 72.2701 432.48C72.8353 430.804 69.4158 426.141 68.5963 425.048C71.9592 429.146 75.7837 433.922 76.3113 435.014C77.2627 437.011 76.5468 441.646 74.9077 441.429Z" fill="#263238"/>
<path d="M40.7168 397.874L69.4732 413.228C69.4732 413.228 105.77 361.501 106.497 347.909C107.5 329.138 91.1505 269.493 91.1505 269.493L65.9096 269.377C65.9096 269.377 76.3008 330.659 75.4568 341.114C75.0141 346.585 40.7168 397.874 40.7168 397.874Z" fill="#532D97"/>
<path d="M71.9826 407.286C70.5018 406.22 56.871 398.32 46.4921 393.277C46.4224 393.243 46.3762 393.341 46.4384 393.382C49.5865 395.461 69.9319 406.607 71.9063 407.397C71.9713 407.423 72.0495 407.334 71.9826 407.286Z" fill="#263238"/>
<path d="M79.0054 328.021C77.8175 319.054 76.5119 310.1 75.0217 301.178C73.5248 292.216 71.947 283.258 70.0734 274.367C69.8445 273.281 69.6042 272.197 69.3678 271.113C69.3311 270.946 69.0767 270.994 69.1069 271.164C70.6819 279.986 72.3021 288.801 73.7519 297.645C75.2007 306.488 76.5524 315.348 77.7667 324.227C78.0672 326.425 78.3592 328.625 78.6437 330.826C78.9376 333.098 79.2701 335.379 79.2965 337.674C79.3219 339.878 78.9762 342.024 78.2009 344.09C77.4389 346.118 76.3546 348.001 75.2553 349.861C70.631 357.685 49.9183 391.877 49.3804 392.87C49.3456 392.935 49.4351 393.003 49.4775 392.938C54.4475 385.225 69.8661 360.593 74.5563 352.641C76.6721 349.055 79.0968 345.423 79.7873 341.238C80.5051 336.887 79.5772 332.337 79.0054 328.021Z" fill="#263238"/>
<path d="M71.6398 397.875C71.6398 397.875 71.3516 427.04 71.3516 427.06C71.5061 432.639 71.7406 437.527 72.0986 440.044C72.0986 440.057 72.0986 440.071 72.1052 440.084C72.2389 441.035 72.3896 441.638 72.5649 441.796C72.578 441.809 72.5846 441.823 72.5988 441.83C74.2897 442.908 118.906 442.975 120.462 442.454C122.025 441.939 120.655 437.455 118.925 436.071C117.183 434.687 100.119 427.021 100.119 427.021L100.132 397.878L71.6398 397.875Z" fill="#AD6359"/>
<path d="M120.463 442.456C118.908 442.974 74.2858 442.908 72.5996 441.825C72.5808 441.825 72.5808 441.806 72.562 441.797C72.3924 441.637 72.2417 441.034 72.1004 440.082V440.045C71.8272 438.104 71.62 434.769 71.4692 430.785C84.7703 435.24 113.718 437.181 113.454 435.222C113.181 433.234 106.596 430.069 106.596 430.069L106.738 430.031C111.74 432.349 117.919 435.269 118.927 436.069C120.651 437.454 122.026 441.938 120.463 442.456Z" fill="#263238"/>
<path d="M91.1504 269.494C91.1504 269.494 91.1494 269.5 91.1409 269.52C90.9714 270.048 81.784 295.222 80.9184 295.624C79.9387 296.075 101.214 331.811 102.472 348.413C103.278 359.031 101.699 419.121 101.699 419.121H70.5959C70.5959 419.121 72.0909 365.097 72.8021 347.981C73.0781 341.344 51.4469 308.296 51.1813 287.717C51.0975 281.23 55.7585 269.379 55.7585 269.379L91.1504 269.494Z" fill="#532D97"/>
<path d="M72.9792 347.518C72.9792 347.243 72.7635 347.155 72.7418 347.436C72.0391 356.7 71.8752 365.913 71.4325 375.192C70.9916 384.443 71.2422 386.675 70.8296 395.927C70.596 401.164 70.8173 406.414 70.6958 411.654C70.6939 411.735 70.8164 411.746 70.8249 411.663C71.7932 402.43 72.9736 352.764 72.9792 347.518Z" fill="#263238"/>
<path d="M102.472 348.777C102.403 346.495 102.254 344.205 101.844 341.957C101.443 339.757 100.746 337.628 99.923 335.554C98.2039 331.221 96.172 326.996 94.2315 322.759C92.2655 318.467 90.2581 314.194 88.1838 309.953C87.0176 307.569 85.8458 305.189 84.6636 302.813C83.4682 300.409 82.1804 298.048 80.9295 295.674C80.8795 295.579 80.7354 295.649 80.7806 295.746C82.7739 300.027 84.7417 304.318 86.735 308.599C88.7283 312.878 90.6858 317.177 92.6442 321.472C94.5706 325.698 96.5007 329.927 98.3169 334.201C99.1873 336.25 99.9993 338.328 100.535 340.493C101.085 342.712 101.317 344.99 101.446 347.268C101.747 352.581 101.895 357.91 102.416 363.207C102.423 363.273 102.531 363.267 102.533 363.201C102.692 358.403 102.616 353.574 102.472 348.777Z" fill="#263238"/>
<path d="M99.4458 412.973C97.6362 412.737 83.8566 412.262 72.3275 412.754C72.2502 412.756 72.2559 412.865 72.3303 412.871C76.0879 413.206 97.3178 413.348 99.4307 413.106C99.5014 413.099 99.5277 412.983 99.4458 412.973Z" fill="#263238"/>
<path d="M85.2174 294.225C81.8893 295.002 78.6272 296.254 75.4922 297.597C75.3688 297.65 75.4272 297.838 75.5591 297.797C78.824 296.774 82.1436 295.815 85.3483 294.615C85.5998 294.522 85.4727 294.166 85.2174 294.225Z" fill="#263238"/>
<path d="M88.354 272.904C88.3569 272.796 88.1694 272.752 88.1581 272.868C87.803 276.583 87.2312 279.825 86.5633 283.262C86.2534 284.858 84.0453 293.627 81.3182 292.692C80.8614 292.535 80.6701 292.05 80.6692 291.338C80.6683 290.482 81.0931 289.475 81.3201 288.646C81.8213 286.814 82.2621 284.97 82.6144 283.104C83.2729 279.621 83.6478 276.109 83.58 272.562C83.5771 272.446 83.4104 272.438 83.3991 272.553C82.9046 277.418 82.28 282.26 81.0592 287.003C80.4723 289.282 78.9491 292.648 81.3343 293.253C83.7637 293.869 85.9576 288.194 86.422 286.627C87.7172 282.257 88.2438 277.449 88.354 272.904Z" fill="#263238"/>
<path d="M81.3683 292.939C81.0547 293.511 80.7881 294.112 80.5507 294.719C80.367 295.191 80.1306 295.697 80.1343 296.21C80.1353 296.309 80.2643 296.332 80.3237 296.271C80.6939 295.889 80.8908 295.336 81.1234 294.862C81.3938 294.313 81.6773 293.769 81.9326 293.213C82.1022 292.844 81.5614 292.587 81.3683 292.939Z" fill="#263238"/>
<path d="M76.164 356.657C76.3232 352.236 76.814 347.598 75.3643 343.331C74.6455 341.215 73.5528 339.255 72.527 337.278C71.4484 335.199 70.3915 333.109 69.3524 331.01C65.1973 322.617 61.2814 314.09 57.7828 305.4C56.0985 301.215 54.5922 296.92 53.9903 292.429C53.3601 287.732 53.8085 282.925 54.8588 278.321C55.1207 277.17 55.4005 276.025 55.7151 274.887C55.7377 274.804 55.6143 274.757 55.587 274.841C54.1872 279.204 53.2235 283.737 53.1614 288.334C53.1011 292.763 54.0713 297.062 55.5022 301.23C56.9925 305.571 58.8604 309.792 60.6992 313.994C62.5945 318.327 64.5614 322.627 66.6075 326.89C68.6431 331.132 70.8135 335.303 72.9603 339.488C74.0003 341.513 74.947 343.587 75.3483 345.844C75.7571 348.14 75.6912 350.482 75.6045 352.803C75.2381 362.586 74.394 395.141 74.2706 404.898C74.2546 406.137 74.2395 407.376 74.2264 408.615C74.2254 408.724 74.3903 408.739 74.3969 408.628C75.0176 398.891 75.8127 366.409 76.164 356.657Z" fill="#263238"/>
<path d="M69.1875 275.83C69.1828 275.76 69.0792 275.774 69.0707 275.836C68.7043 278.529 68.4942 281.321 67.1942 283.763C66.0017 286.004 63.9217 287.449 61.6543 288.46C60.344 289.044 58.98 289.506 57.6169 289.949C57.519 289.981 57.5406 290.134 57.648 290.112C60.2206 289.578 62.8356 288.978 65.0719 287.534C67.4665 285.987 68.6967 283.512 69.0905 280.741C69.3213 279.111 69.2958 277.466 69.1875 275.83Z" fill="#263238"/>
<path d="M80.8263 218.69C80.5164 217.913 79.791 217.329 78.9442 217.264C78.1114 217.201 77.3117 217.653 76.884 218.355C76.4978 217.548 75.7414 216.954 74.7777 217.101C73.7792 217.253 73.1801 218.122 73.1819 219.092C73.1819 219.098 73.1942 219.1 73.1951 219.093C73.2893 218.211 73.8724 217.39 74.7946 217.262C75.584 217.152 76.1634 217.549 76.5562 218.129C76.0174 217.743 75.3561 217.52 74.6929 217.652C73.9647 217.798 73.3524 218.377 73.2196 219.104C72.3925 218.932 71.4505 219.035 70.8043 219.622C70.2608 220.115 70.0159 220.903 70.2599 221.595C69.4215 221.587 68.5972 222.084 68.2685 222.872C67.9586 223.612 68.1253 224.474 68.633 225.075C67.3698 225.157 66.6011 226.548 67.2228 227.67C66.7792 227.773 66.4532 228.161 66.3656 228.615C66.262 229.136 66.4853 229.645 66.7745 230.076C66.4579 230.423 66.3006 230.916 66.4278 231.382C66.5983 232.006 67.1927 232.367 67.8059 232.306C67.7805 233.15 67.87 234.069 68.4324 234.735C68.8949 235.282 69.6598 235.605 70.355 235.374C70.5104 236.889 71.9413 237.922 73.4325 237.596C73.668 238.182 74.2257 238.581 74.854 238.669C75.487 238.758 75.9213 238.644 76.1219 238.57C76.3744 239.08 76.9471 239.361 77.5114 239.278C78.0672 239.196 78.4515 238.836 78.735 238.393C78.865 238.332 78.9988 238.297 79.1749 238.296C79.9662 238.289 80.6708 237.93 81.1155 237.276C82.0009 237.569 83.0032 236.946 83.1332 236.024C84.0828 236.037 84.9098 235.195 84.8891 234.249C85.6333 234.177 86.3276 233.797 86.7628 233.18C87.0962 232.707 87.2639 232.037 86.9389 231.539C87.3864 231.457 87.6087 230.936 87.5522 230.497C87.5314 230.331 87.4806 230.169 87.424 230.012C87.3553 229.826 87.2177 229.606 87.2196 229.404C87.2187 229.195 87.3816 229.014 87.4655 228.834C87.5258 228.705 87.5719 228.567 87.6049 228.428C87.8432 227.372 87.262 226.222 86.2729 225.799C86.596 225.101 86.2597 224.33 85.7746 223.783C85.6145 223.603 85.4336 223.457 85.2461 223.307C85.0728 223.17 84.9296 223.04 84.8561 222.821C84.8119 222.688 84.7987 222.547 84.7554 222.414C84.6075 221.962 84.2231 221.716 83.819 221.518C84.6075 219.616 82.6114 218.088 80.8263 218.69ZM77.7309 239.051C77.1383 239.232 76.56 239.023 76.1822 238.546C76.2227 238.529 76.2491 238.516 76.2491 238.516C76.2491 238.516 76.4055 238.632 76.4874 238.68C76.6381 238.766 76.8011 238.828 76.9707 238.866C77.322 238.947 77.6998 238.924 78.0361 238.794C78.1877 238.735 78.3243 238.653 78.4553 238.559C78.4732 238.547 78.4882 238.538 78.5052 238.526C78.2942 238.758 78.054 238.952 77.7309 239.051ZM66.7547 231.035C66.83 231.593 67.2577 232.068 67.8078 232.178C67.8069 232.193 67.8069 232.208 67.8069 232.223C67.2266 232.189 66.7057 231.998 66.5399 231.345C66.424 230.89 66.5908 230.514 66.8696 230.211C66.8715 230.213 66.8724 230.216 66.8743 230.218C66.7641 230.471 66.7151 230.747 66.7547 231.035ZM83.7361 221.476C83.7295 221.473 83.7239 221.47 83.7182 221.467C83.8906 220.103 82.9354 218.936 81.676 218.735C83.0805 218.859 84.2241 219.781 83.7361 221.476Z" fill="#263238"/>
<path d="M55.6353 269.353L91.1505 269.494L91.225 260.319C91.225 260.319 94.5285 257.597 94.2883 253.699C94.0839 250.379 87.9845 235.465 87.3543 234.688C84.8194 231.57 80.1009 230.747 77.5189 232.403C63.7054 241.259 55.6353 269.353 55.6353 269.353Z" fill="#E1D255"/>
<path d="M83.9017 257.633C85.0867 257.835 86.2784 258.109 87.4427 258.622C88.022 258.878 88.591 259.179 89.1609 259.504C89.4444 259.666 89.7299 259.81 90.0162 259.952C90.3101 260.097 90.6257 260.233 90.929 260.246C90.9563 260.247 90.9573 260.321 90.93 260.323C90.6351 260.341 90.3525 260.357 90.0567 260.306C89.776 260.257 89.4944 260.153 89.2183 260.035C88.6296 259.787 88.0474 259.488 87.4596 259.228C86.2746 258.703 85.0905 258.18 83.8904 257.808C83.8358 257.791 83.8452 257.624 83.9017 257.633Z" fill="#263238"/>
<path d="M81.0221 259.559C81.9886 259.368 82.9758 259.256 83.9526 259.264C84.4434 259.268 84.9323 259.322 85.4231 259.401C85.6577 259.438 85.8913 259.483 86.1249 259.533C86.3821 259.587 86.6364 259.704 86.8936 259.753C86.9209 259.758 86.9228 259.833 86.8945 259.829C86.6515 259.797 86.4056 259.837 86.1626 259.829C85.9177 259.823 85.6737 259.811 85.4288 259.805C84.9389 259.79 84.45 259.785 83.9602 259.762C82.9795 259.716 82.0036 259.689 81.024 259.704C80.9721 259.704 80.9722 259.568 81.0221 259.559Z" fill="#263238"/>
<path d="M72.334 238.586C70.0722 244.689 65.6194 270.481 68.2137 273.732C74.7135 281.876 87.4418 291.41 91.6327 294.779C92.683 295.623 102.825 278.639 100.093 276.89C95.8519 274.173 82.2372 266.78 81.5382 265.956C80.3249 264.524 79.7061 249.307 78.4466 240.297C77.3134 232.179 73.6669 234.989 72.334 238.586Z" fill="#AD6359"/>
<path d="M107.313 285.987C106.663 284.967 107.195 284.619 109.223 285.331C111.276 286.046 118.676 290.578 120.04 287.854C121.413 285.123 110.835 278.881 107.368 277.956C103.901 277.022 97.9648 276.748 97.9648 276.748C99.7763 278.377 103.798 282.747 107.313 285.987Z" fill="#AD6359"/>
<path d="M87.5078 291.333C92.7821 295.733 99.0803 301.532 106.726 302.793C108.226 303.039 109.213 302.43 109.213 302.43C112.631 303.055 113.952 301.63 113.952 301.63C117.313 301.238 118.464 299.594 118.464 299.594C118.464 299.594 122.484 300.285 123.305 297.925C124.234 295.281 118.406 294.828 115.354 292.62C108.361 287.559 99.8358 278.41 97.964 276.75L87.5078 291.333Z" fill="#AD6359"/>
<path d="M104.298 292.465C106.385 293.913 108.398 295.39 110.671 296.549C113.165 297.82 115.778 298.623 118.418 299.509C118.5 299.536 118.47 299.654 118.385 299.639C113.352 298.793 107.98 296.003 104.23 292.559C104.14 292.476 104.193 292.393 104.298 292.465Z" fill="#263238"/>
<path d="M100.63 296.243C102.74 297.539 106.462 299.794 113.971 301.549C113.995 301.555 113.993 301.598 113.965 301.596C108.938 301.105 104.601 299.313 100.568 296.343C100.444 296.252 100.49 296.156 100.63 296.243Z" fill="#263238"/>
<path d="M98.697 298.31C102.368 300.378 104.944 301.217 109.2 302.408C109.225 302.415 109.219 302.459 109.192 302.454C104.212 301.608 102.502 300.737 98.6075 298.426C98.4747 298.347 98.5538 298.229 98.697 298.31Z" fill="#263238"/>
<path d="M97.6963 274.572L86.8643 292.772C86.8643 292.772 70.725 280.321 67.0041 273.372C65.3283 270.242 68.1693 250.881 70.9492 241.631C73.7281 232.383 78.9062 230.089 79.6928 242.521C80.6518 257.676 81.5448 264.504 82.0101 265.215C82.4755 265.927 97.6963 274.572 97.6963 274.572Z" fill="#E1D255"/>
<path d="M83.8997 288.963C84.8228 287.755 85.5821 286.412 86.38 285.122C87.1665 283.85 87.9446 282.573 88.7142 281.292C90.2676 278.705 91.8944 276.136 93.2754 273.455C93.3074 273.392 93.2255 273.338 93.1821 273.396C91.3669 275.842 89.7975 278.484 88.2169 281.08C87.4237 282.383 86.6494 283.697 85.8911 285.019C85.161 286.293 84.3792 287.566 83.7961 288.914C83.7669 288.979 83.8611 289.012 83.8997 288.963Z" fill="#263238"/>
<path d="M87.519 291.672L86.8963 292.791L86.8756 292.827C83.0774 289.961 79.3952 286.945 75.8269 283.788C74.0512 282.211 72.3283 280.573 70.6741 278.858C69.0558 277.037 67.2302 275.409 66.4747 272.963C65.9151 268.16 66.5755 263.434 67.1849 258.695C67.8764 253.998 68.7487 249.318 70.0957 244.768C69.0275 249.383 68.289 254.066 67.7153 258.765C67.2415 263.399 66.567 268.217 67.1642 272.833C67.8208 274.944 69.6681 276.752 71.1451 278.411C72.7606 280.129 74.4798 281.753 76.2084 283.369C79.5911 286.579 83.4787 289.76 86.8313 292.752L87.519 291.672Z" fill="#263238"/>
<path d="M69.342 245.719C69.2422 246.871 69.1734 247.977 69.1131 249.132C68.8531 248.01 68.9313 246.795 69.342 245.719Z" fill="#263238"/>
<path d="M87.7046 268.799C85.7876 267.748 83.8264 266.756 82.0441 265.481C81.9857 265.423 81.915 265.379 81.867 265.308L81.7568 265.059C80.4521 258.186 79.9001 251.182 79.7993 244.193C79.8794 246.187 80.2515 249.114 80.4323 251.136C80.9231 255.178 81.3348 260.995 82.0912 264.924C82.176 265.336 82.9541 265.676 83.3054 265.972C84.7184 266.895 86.2756 267.918 87.7046 268.799Z" fill="#263238"/>
<path d="M79.9189 247.823C80.0847 246.771 80.1375 245.737 80.3353 244.68C80.4549 245.734 80.3975 246.86 79.9189 247.823Z" fill="#263238"/>
<path d="M76.0078 233.465C76.0078 233.465 83.2188 243.065 86.9143 242.493C89.193 242.141 87.78 235.499 87.78 235.499C87.78 235.499 82.1657 227.882 76.0078 233.465Z" fill="#AD6359"/>
<path d="M80.1009 233.188C80.1442 233.921 82.7159 239.077 85.962 239.483C87.0199 239.613 87.9892 233.872 87.9892 233.872L88.1578 233.465L90.5119 227.761L84.3144 222.081L83.4092 221.314C83.4092 221.314 82.8685 222.918 82.2138 224.921C82.1827 225.014 82.1526 225.107 82.1205 225.207C82.081 225.319 82.0414 225.424 82.0094 225.531C81.9076 225.829 81.8059 226.134 81.7098 226.439C81.6363 226.672 81.5629 226.897 81.495 227.144C81.4197 227.389 81.3519 227.63 81.2774 227.875C80.5898 230.314 80.0867 232.877 80.1009 233.188Z" fill="#AD6359"/>
<path d="M82.2148 224.921C83.0975 229.938 86.5377 232.517 88.1579 233.465L90.512 227.761L84.3146 222.081L83.4093 221.314C83.4093 221.314 82.8686 222.918 82.2148 224.921Z" fill="#263238"/>
<path d="M100.803 221.083C99.281 231.806 92.6861 232.105 90.3735 231.774C88.2747 231.474 81.1664 230.184 81.5724 219.361C81.9784 208.537 87.4457 205.855 92.2829 206.288C97.1201 206.721 102.326 210.359 100.803 221.083Z" fill="#AD6359"/>
<path d="M99.1404 218.416C98.8927 218.342 98.6769 218.232 98.4396 218.132C98.172 218.02 97.9469 217.959 97.7802 217.706C97.6907 217.57 97.7415 217.338 97.8649 217.238C98.1522 217.006 98.514 217.062 98.8418 217.183C99.1979 217.315 99.4381 217.508 99.6302 217.834C99.8158 218.151 99.4663 218.515 99.1404 218.416Z" fill="#263238"/>
<path d="M91.562 218.822C91.8023 218.916 92.0406 218.964 92.2883 219.033C92.5681 219.111 92.7819 219.201 93.0702 219.106C93.2247 219.055 93.3292 218.841 93.2934 218.686C93.2115 218.326 92.8931 218.146 92.5596 218.039C92.1988 217.922 91.8908 217.925 91.5376 218.062C91.1956 218.195 91.2446 218.696 91.562 218.822Z" fill="#263238"/>
<path d="M92.7039 220.072C92.702 220.043 92.6417 220.101 92.6389 220.131C92.571 220.873 92.3685 221.713 91.6695 221.875C91.6479 221.88 91.6451 221.918 91.6705 221.918C92.5004 221.904 92.7585 220.787 92.7039 220.072Z" fill="#263238"/>
<path d="M92.1388 219.22C90.9604 218.982 90.5732 221.358 91.665 221.578C92.7389 221.793 93.126 219.419 92.1388 219.22Z" fill="#263238"/>
<path d="M91.6516 219.269C91.4227 219.37 91.1806 219.574 90.9263 219.558C90.6324 219.539 90.4543 219.254 90.3045 218.985C90.2885 218.957 90.265 218.974 90.2593 219.006C90.1783 219.46 90.2772 219.955 90.7539 220.102C91.1891 220.237 91.5734 219.885 91.7618 219.446C91.7967 219.366 91.7439 219.229 91.6516 219.269Z" fill="#263238"/>
<path d="M97.1697 220.765C97.181 220.739 97.2197 220.812 97.2131 220.842C97.0416 221.567 96.9663 222.427 97.5786 222.805C97.5974 222.816 97.588 222.853 97.5644 222.844C96.7797 222.567 96.8909 221.426 97.1697 220.765Z" fill="#263238"/>
<path d="M97.9768 220.136C99.1703 220.285 98.7822 222.66 97.6772 222.522C96.5892 222.385 96.9773 220.01 97.9768 220.136Z" fill="#263238"/>
<path d="M98.4472 220.373C98.6139 220.53 98.7627 220.789 98.9841 220.841C99.2413 220.9 99.4749 220.675 99.6812 220.455C99.7028 220.433 99.7179 220.455 99.7141 220.487C99.6529 220.943 99.425 221.392 98.9747 221.408C98.564 221.423 98.3351 220.985 98.3011 220.516C98.2945 220.428 98.3793 220.31 98.4472 220.373Z" fill="#263238"/>
<path d="M91.4276 225.611C91.5472 225.831 91.6461 226.113 91.8977 226.214C92.1397 226.311 92.4647 226.29 92.7191 226.271C92.7445 226.269 92.7596 226.3 92.7389 226.317C92.4694 226.534 92.0276 226.584 91.7158 226.425C91.4106 226.27 91.3372 225.942 91.3494 225.623C91.3513 225.577 91.4106 225.579 91.4276 225.611Z" fill="#263238"/>
<path d="M95.0983 224.205C95.0983 224.205 94.9815 225.323 94.8552 225.833C94.843 225.881 94.7139 225.872 94.5387 225.84C94.5302 225.841 94.5246 225.843 94.5189 225.835C93.5835 225.754 92.7536 225.219 92.3881 224.35C92.3646 224.291 92.4428 224.255 92.4814 224.298C93.0315 224.957 93.7437 225.267 94.5387 225.478C94.6094 225.345 94.6753 223.558 94.7582 223.571C95.0427 223.616 95.5448 223.941 95.8509 224.118C96.1627 221.797 96.0996 219.445 96.4444 217.138C96.4585 217.056 96.58 217.061 96.5857 217.138C96.8268 219.599 96.5263 222.278 96.2663 224.683C96.2362 224.984 95.281 224.342 95.0983 224.205Z" fill="#263238"/>
<path d="M95.5213 209.707C95.5213 209.707 95.575 211.41 94.7555 212.441C93.0693 214.563 90.3403 213.276 89.1431 213.993C88.0193 214.665 87.9213 216.569 86.8841 217.261C85.4495 218.22 84.8683 217.162 84.4886 217.943C84.109 218.723 82.9598 221.221 81.8331 221.314C81.1342 221.371 79.8559 213.717 82.7506 209.096C84.5263 206.263 88.3037 204.837 93.4744 206.243C93.4744 206.243 95.7955 206.057 98.3021 208.29C101.871 211.467 101.164 217.098 101.164 217.098C101.164 217.098 100.375 216.729 100.001 216.207C99.473 215.472 99.246 214.959 98.8475 214.469C98.2211 213.7 97.655 214.012 96.9946 213.251C95.9876 212.093 95.5213 209.707 95.5213 209.707Z" fill="#263238"/>
<path d="M95.5297 209.098C95.5853 209.831 95.5627 210.57 95.4487 211.289C95.3423 212.001 95.1369 212.727 94.6876 213.262C94.2382 213.78 93.5251 214.039 92.8309 214.126C92.1225 214.216 91.3868 214.119 90.62 214.239C90.2413 214.313 89.8542 214.44 89.5414 214.72C89.2353 214.995 89.0554 215.349 88.8952 215.681C88.5881 216.352 88.2801 217.011 87.6979 217.406C87.1233 217.803 86.3744 217.949 85.6802 217.757C84.9887 217.599 84.2681 217.23 83.5239 217.379C84.2785 217.29 84.9275 217.7 85.6368 217.92C86.3593 218.159 87.1911 218.043 87.8449 217.629C88.5316 217.217 88.8688 216.461 89.1797 215.82C89.3398 215.495 89.5132 215.182 89.7619 214.967C90.0021 214.755 90.3412 214.64 90.6803 214.581C91.3698 214.46 92.1187 214.542 92.8714 214.44C93.2472 214.39 93.6241 214.291 93.9726 214.129C94.3145 213.972 94.665 213.752 94.8957 213.433C95.3715 212.808 95.542 212.044 95.6192 211.31C95.6776 210.567 95.6418 209.825 95.5297 209.098Z" fill="#263238"/>
<path d="M95.6496 209.781C95.6307 210.467 95.7146 211.152 95.8804 211.826C96.0414 212.499 96.3768 213.167 96.91 213.655C97.1756 213.903 97.5044 214.074 97.7747 214.242C98.0328 214.406 98.29 214.65 98.4021 214.909C98.5217 215.202 98.6178 215.56 98.8128 215.855C99.0088 216.15 99.2716 216.392 99.5674 216.564C99.3196 216.329 99.0954 216.073 98.9617 215.771C98.8072 215.478 98.7554 215.16 98.6527 214.814C98.5246 214.43 98.2467 214.191 97.9556 213.971C97.6551 213.77 97.3734 213.625 97.1436 213.401C96.6698 212.962 96.3561 212.38 96.1488 211.746C95.9303 211.114 95.7833 210.451 95.6496 209.781Z" fill="#263238"/>
<path d="M83.9555 219.869C83.9555 219.869 82.4154 216.042 80.7311 216.517C79.0458 216.992 79.6723 222.168 81.2756 223.227C82.8788 224.287 83.8887 222.822 83.8887 222.822L83.9555 219.869Z" fill="#AD6359"/>
<path d="M80.948 217.996C80.9197 217.986 80.9056 218.025 80.9282 218.041C82.0426 218.825 82.426 220.115 82.6059 221.403C82.3459 220.863 81.9051 220.498 81.1938 220.792C81.1571 220.807 81.1759 220.865 81.2117 220.866C81.7411 220.874 82.084 221.047 82.3308 221.529C82.5061 221.871 82.5871 222.27 82.6831 222.641C82.7152 222.764 82.9271 222.751 82.9149 222.615C82.9139 222.605 82.9121 222.594 82.9111 222.584C83.3058 221.02 82.5955 218.543 80.948 217.996Z" fill="#263238"/>
</svg>
