<svg width="473" height="464" viewBox="0 0 473 464" fill="none" xmlns="http://www.w3.org/2000/svg">
<path d="M340.893 279.686L338.648 292.892L323.44 373.46H320.988L332.047 292.892L333.682 279.686H340.893Z" fill="#DBDBDB"/>
<path d="M333.682 279.686H340.893L338.648 292.892H332.047L333.682 279.686Z" fill="#A6A6A6"/>
<path d="M388.652 373.46H386.2L370.992 292.892L368.747 279.686H375.958L377.593 292.892L388.652 373.46Z" fill="#DBDBDB"/>
<path d="M375.958 279.686L377.593 292.892H370.992L368.747 279.686H375.958Z" fill="#A6A6A6"/>
<path d="M434.268 373.46H431.817L416.609 292.892L414.364 279.686H421.576L423.209 292.892L434.268 373.46Z" fill="#DBDBDB"/>
<path d="M423.209 292.892H416.609L414.364 279.686H421.576L423.209 292.892Z" fill="#A6A6A6"/>
<path d="M430.38 285.89H318.94V274.371H360.658L374.679 194.35H426.132L430.38 285.89Z" fill="#DBDBDB"/>
<path d="M430.38 285.89H424.306L420.347 194.35H426.131L430.38 285.89Z" fill="#A6A6A6"/>
<path d="M396.654 119.56C413.038 115.821 423.23 99.7604 419.418 83.6878C415.607 67.6153 399.234 57.6171 382.85 61.3564C366.466 65.0957 356.274 81.1563 360.085 97.2289C363.897 113.301 380.269 123.3 396.654 119.56Z" fill="#EBEBEB"/>
<path d="M396.808 119.063C412.551 115.993 422.776 100.984 419.646 85.541C416.516 70.0977 401.217 60.0674 385.474 63.1378C369.731 66.2082 359.506 81.2166 362.636 96.6599C365.766 112.103 381.065 122.133 396.808 119.063Z" fill="#DBDBDB"/>
<path d="M401.387 115.844C415.32 110.296 422.031 94.7174 416.376 81.0488C410.72 67.3802 394.84 60.7971 380.906 66.3451C366.972 71.8931 360.262 87.4712 365.917 101.14C371.573 114.808 387.453 121.392 401.387 115.844Z" fill="white"/>
<path opacity="0.5" d="M417.753 85.4441C405.354 92.8134 384.976 104.903 373.586 111.53C370.39 108.884 367.827 105.532 366.146 101.717L403.815 67.4688C410.831 71.0907 416.033 77.6331 417.753 85.4441Z" fill="#EBEBEB"/>
<path opacity="0.5" d="M418.351 92.0449C418.247 95.0962 417.618 98.0175 416.551 100.725L382.592 116.479C381.102 115.996 379.668 115.39 378.304 114.671C388.561 108.856 407.306 98.2755 418.351 92.0449Z" fill="#EBEBEB"/>
<path d="M391.405 66.3418H390.879V70.3907H391.405V66.3418Z" fill="#C7C7C7"/>
<path d="M378.766 69.5169L378.31 69.7754L380.373 73.2821L380.83 73.0237L378.766 69.5169Z" fill="#C7C7C7"/>
<path d="M369.423 78.5063L369.16 78.9531L372.734 80.978L372.998 80.5311L369.423 78.5063Z" fill="#C7C7C7"/>
<path d="M370.017 90.8555H365.891V91.3714H370.017V90.8555Z" fill="#C7C7C7"/>
<path d="M372.725 101.239L369.15 103.264L369.413 103.711L372.988 101.686L372.725 101.239Z" fill="#C7C7C7"/>
<path d="M380.358 108.944L378.297 112.451L378.753 112.709L380.815 109.203L380.358 108.944Z" fill="#C7C7C7"/>
<path d="M391.405 111.836H390.879V115.885H391.405V111.836Z" fill="#C7C7C7"/>
<path d="M401.922 108.925L401.466 109.184L403.529 112.689L403.985 112.431L401.922 108.925Z" fill="#C7C7C7"/>
<path d="M409.582 101.248L409.319 101.695L412.894 103.72L413.157 103.273L409.582 101.248Z" fill="#C7C7C7"/>
<path d="M416.394 90.8555H412.268V91.3714H416.394V90.8555Z" fill="#C7C7C7"/>
<path d="M412.858 78.5181L409.284 80.543L409.547 80.9897L413.121 78.9649L412.858 78.5181Z" fill="#C7C7C7"/>
<path d="M403.531 69.5296L401.47 73.0371L401.926 73.2953L403.988 69.7878L403.531 69.5296Z" fill="#C7C7C7"/>
<path d="M391.537 68.1744L392.432 92.9139L389.85 92.8833L390.835 68.166L391.537 68.1744Z" fill="#C7C7C7"/>
<path d="M407.247 82.484L390.279 93.1077L389.045 90.8814L406.912 81.8789L407.247 82.484Z" fill="#A6A6A6"/>
<path d="M391.141 91.9759C391.628 91.9759 392.023 91.5887 392.023 91.111C392.023 90.6333 391.628 90.2461 391.141 90.2461C390.655 90.2461 390.26 90.6333 390.26 91.111C390.26 91.5887 390.655 91.9759 391.141 91.9759Z" fill="#C7C7C7"/>
<path d="M33.526 351.592H199.771L203.229 284.676H30.0684L33.526 351.592Z" fill="#EBEBEB"/>
<path d="M191.892 315.308H122.39L121.086 292.076H193.412L191.892 315.308ZM123.184 314.485H191.105L192.517 292.9H121.973L123.184 314.485Z" fill="#DBDBDB"/>
<path d="M190.609 342.033H125.112L124.049 321.062H191.946L190.609 342.033ZM125.91 341.209H189.82L191.051 321.886H124.93L125.91 341.209Z" fill="#DBDBDB"/>
<path d="M163.833 306.21H152.155L151.418 300.607H164.57L163.833 306.21ZM152.893 305.387H163.096L163.617 301.431H152.372L152.893 305.387Z" fill="#DBDBDB"/>
<path d="M163.833 334.349H152.155L151.418 328.746H164.57L163.833 334.349ZM152.893 333.526H163.096L163.617 329.569H152.372L152.893 333.526Z" fill="#DBDBDB"/>
<path d="M110.139 315.308H40.6366L39.333 292.076H111.66L110.139 315.308ZM41.4312 314.485H109.352L110.765 292.9H40.2194L41.4312 314.485Z" fill="#DBDBDB"/>
<path d="M108.856 342.033H43.3592L42.2959 321.062H110.193L108.856 342.033ZM44.1576 341.209H108.068L109.299 321.886H43.1766L44.1576 341.209Z" fill="#DBDBDB"/>
<path d="M82.0803 306.21H70.402L69.665 300.607H82.8173L82.0803 306.21ZM71.1399 305.387H81.3434L81.8637 301.431H70.6196L71.1399 305.387Z" fill="#DBDBDB"/>
<path d="M82.0803 334.349H70.402L69.665 328.746H82.8173L82.0803 334.349ZM71.1399 333.526H81.3434L81.8637 329.569H70.6196L71.1399 333.526Z" fill="#DBDBDB"/>
<path d="M48.4347 351.592L47.3913 358.881L45.2912 373.529H41.1855V351.592H48.4347Z" fill="#EBEBEB"/>
<path d="M48.4347 351.592L47.3913 358.881H41.1855V351.592H48.4347Z" fill="#DBDBDB"/>
<path d="M184.862 351.592L185.906 358.881L188.006 373.529H192.112V351.592H184.862Z" fill="#EBEBEB"/>
<path d="M184.862 351.592L185.906 358.881H192.112V351.592H184.862Z" fill="#DBDBDB"/>
<path d="M236.5 430.878C347.078 430.878 436.718 421.291 436.718 409.464C436.718 397.638 347.078 388.051 236.5 388.051C125.923 388.051 36.2822 397.638 36.2822 409.464C36.2822 421.291 125.923 430.878 236.5 430.878Z" fill="#EBEBEB"/>
<path d="M28.1025 373.5L80.2016 373.275L132.302 373.193L236.5 373.037L340.698 373.192L392.798 373.274L444.897 373.5L392.798 373.728L340.698 373.809L236.5 373.963L132.302 373.808L80.2016 373.726L28.1025 373.5Z" fill="#263238"/>
<path d="M110.023 400.716H103.68L148.142 225.967H163.945L110.023 400.716Z" fill="#455A64"/>
<path d="M148.139 225.967H163.947L151.63 265.88H137.988L148.139 225.967Z" fill="#263238"/>
<path d="M171.564 391.436H165.221L169.951 225.967H185.754L171.564 391.436Z" fill="#455A64"/>
<path d="M169.953 225.967H185.751L182.327 265.88H168.809L169.953 225.967Z" fill="#263238"/>
<path d="M233.384 400.716H239.728L204.726 225.967H188.922L233.384 400.716Z" fill="#455A64"/>
<path d="M212.722 265.88H199.071L188.921 225.967H204.729L212.722 265.88Z" fill="#263238"/>
<path d="M220.378 325.852H128.124V329.264H220.378V325.852Z" fill="#455A64"/>
<path d="M303.507 71.7871H52.1982V253.69H303.507V71.7871Z" fill="#EBEBEB"/>
<path d="M312.709 64.5449H42.9961V78.0241H312.709V64.5449Z" fill="#37474F"/>
<path d="M229.546 92.3496H126.16V94.5963H229.546V92.3496Z" fill="#C7C7C7"/>
<path d="M211.868 97.043H143.838V99.2897H211.868V97.043Z" fill="#C7C7C7"/>
<path d="M76.6055 111.17V169.998H168.952V111.17H76.6055Z" fill="#C7C7C7"/>
<path d="M80.9805 114.293V166.873H85.7265V114.293H80.9805Z" fill="white"/>
<path d="M80.9805 139.992V166.873H85.7265V139.992H80.9805Z" fill="#E1D255"/>
<path d="M89.7412 114.293V166.873H94.4873V114.293H89.7412Z" fill="white"/>
<path d="M89.7412 125.359V166.873H94.4873V125.359H89.7412Z" fill="#AAE0A2"/>
<path d="M98.5029 114.293V166.873H103.249V114.293H98.5029Z" fill="white"/>
<path d="M98.5029 133.45V166.873H103.249V133.45H98.5029Z" fill="#E1D255"/>
<path d="M107.264 114.293V166.873H112.01V114.293H107.264Z" fill="white"/>
<path d="M107.264 150.162V166.873H112.01V150.162H107.264Z" fill="#AAE0A2"/>
<path d="M116.024 114.293V166.873H120.77V114.293H116.024Z" fill="white"/>
<path d="M116.024 121.612V166.873H120.77V121.612H116.024Z" fill="#E1D255"/>
<path d="M124.786 114.293V166.873H129.532V114.293H124.786Z" fill="white"/>
<path d="M124.786 125.359V166.873H129.532V125.359H124.786Z" fill="#AAE0A2"/>
<path d="M133.547 114.293V166.873H138.293V114.293H133.547Z" fill="white"/>
<path d="M133.547 133.45V166.873H138.293V133.45H133.547Z" fill="#E1D255"/>
<path d="M142.308 114.293V166.873H147.054V114.293H142.308Z" fill="white"/>
<path d="M142.308 125.359V166.873H147.054V125.359H142.308Z" fill="#AAE0A2"/>
<path d="M151.069 114.293V166.873H155.815V114.293H151.069Z" fill="white"/>
<path d="M151.069 150.162V166.873H155.815V150.162H151.069Z" fill="#E1D255"/>
<path d="M159.83 114.293V166.873H164.576V114.293H159.83Z" fill="white"/>
<path d="M159.83 133.45V166.873H164.576V133.45H159.83Z" fill="#AAE0A2"/>
<path d="M82.4533 176.768H76.6562V182.454H82.4533V176.768Z" fill="#E1D255"/>
<path d="M149.951 176.768H86.4805V178.448H149.951V176.768Z" fill="#C7C7C7"/>
<path d="M127.493 180.773H86.4805V182.454H127.493V180.773Z" fill="#C7C7C7"/>
<path d="M82.4533 220.689H76.6562V226.376H82.4533V220.689Z" fill="#E1D255"/>
<path d="M117.698 220.689H86.4805V222.37H117.698V220.689Z" fill="#C7C7C7"/>
<path d="M127.493 224.695H86.4805V226.376H127.493V224.695Z" fill="#C7C7C7"/>
<path d="M82.4533 231.459H76.6562V237.146H82.4533V231.459Z" fill="#AAE0A2"/>
<path d="M110.2 231.459H86.4805V233.14H110.2V231.459Z" fill="#C7C7C7"/>
<path d="M127.493 235.465H86.4805V237.145H127.493V235.465Z" fill="#C7C7C7"/>
<path d="M206.704 197.098H198.562V237.685H206.704V197.098Z" fill="#E1D255"/>
<path d="M220.698 203.844H212.557V237.685H220.698V203.844Z" fill="#E1D255"/>
<path d="M234.693 216.146H226.551V237.685H234.693V216.146Z" fill="#E1D255"/>
<path d="M248.686 203.252H240.545V237.685H248.686V203.252Z" fill="#E1D255"/>
<path d="M262.68 208.906H254.539V237.684H262.68V208.906Z" fill="#E1D255"/>
<path d="M276.674 191.441H268.533V237.686H276.674V191.441Z" fill="#E1D255"/>
<path d="M193.842 188.623L193.937 200.888L193.983 213.154L194.048 237.685L193.842 237.482C213.618 237.425 233.395 237.507 253.171 237.522L269.668 237.567L284.298 237.685L269.668 237.804L253.171 237.849C233.395 237.863 213.618 237.945 193.842 237.888L193.635 237.887L193.636 237.685L193.701 213.155L193.747 200.889L193.842 188.623Z" fill="#A6A6A6"/>
<path d="M192.047 191.441C192.646 191.265 193.245 191.224 193.842 191.215C194.441 191.223 195.04 191.264 195.639 191.441C195.04 191.619 194.441 191.66 193.842 191.668C193.244 191.658 192.645 191.618 192.047 191.441Z" fill="#A6A6A6"/>
<path d="M192.047 196.31C192.646 196.134 193.245 196.092 193.842 196.084C194.441 196.092 195.04 196.133 195.639 196.31C195.04 196.488 194.441 196.528 193.842 196.537C193.244 196.528 192.645 196.487 192.047 196.31Z" fill="#A6A6A6"/>
<path d="M192.047 201.178C192.646 201.001 193.245 200.96 193.842 200.951C194.441 200.96 195.04 201 195.639 201.178C195.04 201.356 194.441 201.397 193.842 201.404C193.244 201.395 192.645 201.354 192.047 201.178Z" fill="#A6A6A6"/>
<path d="M192.047 206.047C192.646 205.87 193.245 205.83 193.842 205.82C194.441 205.829 195.04 205.869 195.639 206.047C195.04 206.225 194.441 206.266 193.842 206.273C193.244 206.265 192.645 206.224 192.047 206.047Z" fill="#A6A6A6"/>
<path d="M192.047 210.916C192.646 210.74 193.245 210.699 193.842 210.689C194.441 210.698 195.04 210.739 195.639 210.916C195.04 211.094 194.441 211.135 193.842 211.142C193.244 211.133 192.645 211.092 192.047 210.916Z" fill="#A6A6A6"/>
<path d="M192.047 215.783C192.646 215.607 193.245 215.565 193.842 215.557C194.441 215.565 195.04 215.606 195.639 215.783C195.04 215.96 194.441 216.002 193.842 216.009C193.244 216 192.645 215.959 192.047 215.783Z" fill="#A6A6A6"/>
<path d="M192.047 220.652C192.646 220.476 193.245 220.435 193.842 220.426C194.441 220.434 195.04 220.475 195.639 220.652C195.04 220.83 194.441 220.871 193.842 220.879C193.244 220.87 192.645 220.829 192.047 220.652Z" fill="#A6A6A6"/>
<path d="M192.047 225.521C192.646 225.345 193.245 225.304 193.842 225.295C194.441 225.303 195.04 225.344 195.639 225.521C195.04 225.699 194.441 225.74 193.842 225.748C193.244 225.738 192.645 225.698 192.047 225.521Z" fill="#A6A6A6"/>
<path d="M192.047 230.39C192.646 230.214 193.245 230.173 193.842 230.164C194.441 230.172 195.04 230.213 195.639 230.39C195.04 230.569 194.441 230.609 193.842 230.617C193.244 230.609 192.645 230.568 192.047 230.39Z" fill="#A6A6A6"/>
<path d="M233.802 136.855C233.802 146.786 227.648 155.334 218.864 158.997L209.281 136.855H233.802Z" fill="#E1D255"/>
<path d="M206.146 135.202L215.729 157.344C215.705 157.344 215.705 157.367 215.682 157.367C214.931 157.667 214.179 157.943 213.427 158.173C211.055 158.888 208.612 159.256 206.146 159.256C203.61 159.256 201.167 158.865 198.865 158.173C191.185 155.824 185.125 149.879 182.753 142.345C182.049 140.087 181.649 137.691 181.649 135.203C181.649 132.715 182.049 130.319 182.753 128.061C185.125 120.526 191.185 114.582 198.865 112.255C201.166 111.563 203.609 111.172 206.146 111.172C208.682 111.172 211.125 111.563 213.427 112.255C221.131 114.582 227.167 120.526 229.562 128.061C230.267 130.318 230.666 132.714 230.666 135.203H206.146V135.202Z" fill="#E1D255"/>
<path d="M206.146 135.202L215.729 157.344C215.705 157.344 215.705 157.367 215.682 157.367C214.931 157.667 214.179 157.943 213.427 158.173C211.055 158.888 208.612 159.256 206.146 159.256C203.61 159.256 201.167 158.865 198.865 158.173C191.231 155.8 185.172 149.833 182.753 142.345C182.049 140.087 181.649 137.691 181.649 135.203C181.649 132.715 182.049 130.319 182.753 128.061C185.172 120.573 191.231 114.629 198.865 112.255C201.166 111.563 203.609 111.172 206.146 111.172C208.682 111.172 211.125 111.563 213.427 112.255C221.061 114.628 227.144 120.573 229.562 128.061C230.267 130.318 230.666 132.714 230.666 135.203L206.146 135.202Z" fill="#532D97"/>
<path d="M206.154 135.208L190.179 153.437C184.767 148.873 181.648 142.209 181.648 135.208C181.648 122.021 192.71 111.17 206.153 111.17C219.595 111.17 230.658 122.021 230.658 135.208H206.154Z" fill="#AAE0A2"/>
<path d="M246.479 167.066H227.963L205.033 144.573L205.368 144.244L228.159 166.602H246.479V167.066Z" fill="#263238"/>
<path d="M206.489 143.145H203.911V145.673H206.489V143.145Z" fill="#263238"/>
<path d="M246.48 149.665H225.613L215.709 139.949L216.043 139.621L225.808 149.201H246.48V149.665Z" fill="#263238"/>
<path d="M217.165 138.52H214.587V141.048H217.165V138.52Z" fill="#263238"/>
<path d="M246.48 132.443H214.928V132.907H246.48V132.443Z" fill="#263238"/>
<path d="M215.876 131.412H213.298V133.941H215.876V131.412Z" fill="#263238"/>
<path d="M276.578 130.137H253.656V132.228H276.578V130.137Z" fill="#C7C7C7"/>
<path d="M283.398 134.506H253.656V136.598H283.398V134.506Z" fill="#C7C7C7"/>
<path d="M269.555 138.873H253.656V140.965H269.555V138.873Z" fill="#C7C7C7"/>
<path d="M249.067 130.137H243.893V135.213H249.067V130.137Z" fill="#AAE0A2"/>
<path d="M279.365 147.037H253.656V149.129H279.365V147.037Z" fill="#C7C7C7"/>
<path d="M275.096 151.404H253.656V153.496H275.096V151.404Z" fill="#C7C7C7"/>
<path d="M283.398 155.773H253.656V157.865H283.398V155.773Z" fill="#C7C7C7"/>
<path d="M249.067 147.037H243.893V152.113H249.067V147.037Z" fill="#E1D255"/>
<path d="M279.365 163.938H253.656V166.029H279.365V163.938Z" fill="#C7C7C7"/>
<path d="M275.096 168.305H253.656V170.396H275.096V168.305Z" fill="#C7C7C7"/>
<path d="M283.398 172.674H253.656V174.766H283.398V172.674Z" fill="#C7C7C7"/>
<path d="M249.067 163.938H243.893V169.014H249.067V163.938Z" fill="#A6A6A6"/>
<path d="M95.2649 203.574C95.2649 209.05 90.7392 213.49 85.1568 213.49C79.5745 213.49 75.0488 209.05 75.0488 203.574C75.0488 198.098 79.5745 193.658 85.1568 193.658C88.9096 193.658 92.1847 195.665 93.93 198.644C94.7786 200.097 95.2649 201.779 95.2649 203.574Z" fill="#AAE0A2"/>
<path d="M93.9295 198.643L85.1562 203.574V193.658C88.91 193.657 92.1841 195.664 93.9295 198.643Z" fill="#E1D255"/>
<path d="M92.0456 204.672C92.6626 200.934 90.0732 197.412 86.262 196.807C82.4508 196.202 78.8611 198.742 78.2441 202.481C77.6271 206.219 80.2165 209.741 84.0277 210.346C87.8389 210.951 91.4286 208.411 92.0456 204.672Z" fill="white"/>
<path d="M88.0659 202.051H82.2461V202.856H88.0659V202.051Z" fill="#263238"/>
<path d="M89.5079 204.291H80.8047V205.097H89.5079V204.291Z" fill="#A6A6A6"/>
<path d="M123.551 203.574C123.551 204.067 123.514 204.553 123.439 205.026C122.728 209.814 118.522 213.49 113.442 213.49C107.86 213.49 103.334 209.049 103.334 203.574C103.334 198.098 107.861 193.658 113.442 193.658C117.193 193.658 120.468 195.663 122.214 198.644C123.065 200.097 123.551 201.781 123.551 203.574Z" fill="#AAE0A2"/>
<path d="M123.551 203.574C123.551 204.067 123.514 204.553 123.44 205.026L113.442 203.574V193.658C117.193 193.658 120.468 195.663 122.215 198.644C123.065 200.097 123.551 201.781 123.551 203.574Z" fill="#E1D255"/>
<path d="M120.239 205.141C121.123 201.454 118.793 197.763 115.035 196.895C111.277 196.028 107.513 198.314 106.629 202C105.745 205.687 108.075 209.379 111.833 210.246C115.592 211.114 119.355 208.828 120.239 205.141Z" fill="white"/>
<path d="M116.351 202.051H110.531V202.856H116.351V202.051Z" fill="#263238"/>
<path d="M117.793 204.291H109.09V205.097H117.793V204.291Z" fill="#A6A6A6"/>
<path d="M152.03 203.573C152.03 207.794 149.339 211.404 145.545 212.831C144.418 213.258 143.198 213.49 141.922 213.49C136.34 213.49 131.814 209.049 131.814 203.574C131.814 198.098 136.341 193.658 141.922 193.658C145.676 193.658 148.951 195.664 150.695 198.644C151.545 200.096 152.03 201.78 152.03 203.573Z" fill="#AAE0A2"/>
<path d="M152.031 203.574C152.031 207.795 149.34 211.405 145.545 212.832L141.923 203.574V193.658C145.677 193.658 148.952 195.664 150.695 198.644C151.546 200.097 152.031 201.781 152.031 203.574Z" fill="#E1D255"/>
<path d="M148.914 203.575C148.914 207.362 145.783 210.433 141.923 210.433C138.062 210.433 134.932 207.362 134.932 203.575C134.932 199.788 138.062 196.717 141.923 196.717C145.783 196.717 148.914 199.788 148.914 203.575Z" fill="white"/>
<path d="M144.832 202.051H139.013V202.856H144.832V202.051Z" fill="#263238"/>
<path d="M146.274 204.291H137.571V205.097H146.274V204.291Z" fill="#A6A6A6"/>
<path d="M180.357 203.574C180.357 205.681 179.685 207.637 178.542 209.241C176.717 211.809 173.682 213.49 170.249 213.49C167.745 213.49 165.452 212.596 163.688 211.114C161.516 209.298 160.14 206.595 160.14 203.574C160.14 198.098 164.666 193.658 170.248 193.658C173.999 193.658 177.274 195.664 179.02 198.644C179.871 200.097 180.357 201.781 180.357 203.574Z" fill="#AAE0A2"/>
<path d="M180.357 203.574C180.357 205.681 179.685 207.637 178.543 209.241C176.718 211.809 173.682 213.49 170.249 213.49C167.746 213.49 165.453 212.596 163.688 211.114L170.249 203.574V193.658C174 193.658 177.275 195.664 179.021 198.644C179.872 200.097 180.357 201.781 180.357 203.574Z" fill="#E1D255"/>
<path d="M177.125 204.721C177.772 200.988 175.212 197.446 171.405 196.811C167.599 196.175 163.989 198.687 163.341 202.421C162.694 206.155 165.254 209.697 169.061 210.332C172.867 210.967 176.477 208.455 177.125 204.721Z" fill="white"/>
<path d="M173.158 202.051H167.338V202.856H173.158V202.051Z" fill="#263238"/>
<path d="M174.6 204.291H165.896V205.097H174.6V204.291Z" fill="#A6A6A6"/>
<path d="M355.982 99.5429C347.009 107.089 349.508 118.094 345.76 124.062C343.469 127.713 336.005 131.568 334.52 135.774C332.082 142.685 338.056 145.166 336.72 148.923C334.828 154.244 327.563 153.831 326.255 162.536C324.947 171.243 334.711 180.502 357.887 183.012C381.062 185.52 393.794 177.197 394.625 169.811C395.456 162.425 387.746 159.967 387.221 154.45C386.885 150.925 391.646 148.471 391.887 141.984C392.127 135.496 385.684 133.387 384.76 127.878C383.833 122.344 386.81 108.982 378.558 102.146C370.307 95.3112 360.41 95.8197 355.982 99.5429Z" fill="#263238"/>
<path d="M357.023 99.7414C354.468 101.506 352.518 103.775 351.066 106.483C349.557 109.298 348.558 112.348 347.753 115.419C347.277 117.233 346.841 119.098 345.954 120.77C345.185 122.219 344.071 123.446 342.842 124.537C340.335 126.761 337.343 128.451 335.092 130.95C332.96 133.317 331.3 136.484 332.152 139.71C332.615 141.465 333.794 142.896 334.527 144.534C335.22 146.086 335.501 148.013 334.144 149.302C332.984 150.403 331.305 150.908 329.989 151.811C328.698 152.696 327.544 153.784 326.607 155.027C324.697 157.564 323.872 160.653 324.474 163.771C325.837 170.843 332.602 174.865 338.846 177.397C339.718 177.751 340.592 178.094 341.468 178.436C341.603 178.489 341.718 178.298 341.579 178.237C335.312 175.486 328.039 172.256 325.633 165.384C324.549 162.288 324.902 159.017 326.713 156.258C327.582 154.933 328.733 153.774 330.023 152.84C331.284 151.927 332.739 151.367 334.021 150.499C335.32 149.621 336.066 148.332 335.991 146.764C335.912 145.104 335.085 143.653 334.267 142.245C333.4 140.753 332.665 139.245 332.788 137.482C332.903 135.83 333.684 134.272 334.642 132.939C336.592 130.228 339.481 128.451 342.07 126.399C344.676 124.335 346.76 121.953 347.711 118.747C348.191 117.126 348.489 115.457 348.904 113.819C349.289 112.3 349.736 110.795 350.286 109.326C351.375 106.417 352.926 103.601 355.186 101.403C355.778 100.828 356.405 100.313 357.101 99.8621C357.176 99.812 357.099 99.6885 357.023 99.7414Z" fill="#263238"/>
<path d="M395.656 164.393C395.368 163.197 394.829 162.049 394.052 161.083C393.246 160.082 392.272 159.235 391.379 158.311C390.533 157.437 389.731 156.453 389.484 155.242C389.188 153.788 389.809 152.395 390.505 151.145C391.234 149.834 392.045 148.591 392.579 147.184C393.095 145.826 393.381 144.391 393.462 142.946C393.632 139.922 392.725 137.054 391.13 134.492C390.339 133.222 389.45 132.016 388.651 130.752C387.77 129.361 387.075 127.906 386.596 126.335C385.552 122.912 385.327 119.301 384.474 115.832C383.6 112.276 382.294 108.831 380.71 105.522C380.67 105.44 380.547 105.515 380.587 105.596C382.025 108.578 383.102 111.703 383.878 114.911C384.614 117.953 384.898 121.053 385.446 124.127C385.714 125.632 386.057 127.13 386.621 128.557C387.15 129.892 387.871 131.14 388.634 132.358C390.199 134.863 391.818 137.335 392.249 140.305C392.677 143.243 392.169 146.192 390.754 148.814C389.536 151.075 387.829 153.566 388.895 156.212C389.796 158.452 391.975 159.795 393.42 161.652C395.014 163.699 395.479 166.334 394.988 168.838C393.74 175.203 387.237 178.361 381.149 178.676C380.959 178.687 380.965 178.97 381.156 178.967C386.45 178.905 392.209 176.623 394.691 171.762C395.84 169.508 396.248 166.859 395.656 164.393Z" fill="#263238"/>
<path d="M293.18 416.027C295.24 416.698 354.031 416.53 356.27 415.136C357.116 414.616 357.592 406.207 357.871 396.042C357.935 393.845 358.015 358.453 358.015 358.453H319.742L319.967 396.042C319.967 396.042 297.489 405.986 295.205 407.777C292.928 409.559 291.129 415.365 293.18 416.027Z" fill="#AD6359"/>
<path d="M357.734 400.497C357.441 408.561 356.987 414.695 356.268 415.141C354.035 416.533 295.241 416.7 293.179 416.032C291.126 415.364 292.933 409.564 295.203 407.782C296.461 406.798 303.821 403.346 310.188 400.441C307.965 401.796 305.127 403.717 305.382 404.859C305.874 407.095 335.153 408.552 357.734 400.497Z" fill="#263238"/>
<path d="M372.07 198.453C372.07 198.453 361.725 298.814 361.483 300.085C361.447 300.253 361.375 302.185 361.276 305.336C360.718 322.612 360.086 381.546 360.086 381.546H317.882C317.882 381.546 319.89 312.677 321.474 297.792C323.489 278.803 336.27 198.454 336.27 198.454H372.07V198.453Z" fill="#B68CFB"/>
<path d="M356.45 303.623C357.753 281.878 359.693 260.171 362.321 238.541C363.802 226.347 365.586 214.196 367.358 202.04C367.374 201.935 367.544 201.938 367.528 202.044C364.262 223.678 361.947 245.481 359.955 267.261C359.251 274.957 357.916 288.21 357.207 303.657C355.911 331.87 355.362 365.621 355.099 373.614C355.09 373.908 354.625 373.898 354.633 373.603C355.229 351.56 355.131 325.637 356.45 303.623Z" fill="#263238"/>
<path d="M320.78 374.68C340.013 374.086 356.657 374.507 358.095 374.616C359.288 374.707 358.624 374.83 358.03 374.864C341.702 375.824 321.415 374.924 320.775 374.845C320.664 374.832 320.672 374.683 320.78 374.68Z" fill="#263238"/>
<path d="M372.07 198.453C372.07 198.453 361.726 298.814 361.483 300.085C361.447 300.253 361.375 302.185 361.276 305.336L341.38 198.453H372.07Z" fill="#263238"/>
<path d="M359.867 421.03C362.004 421.397 421.261 412.443 423.267 410.738C424.031 410.1 413.495 355.061 413.495 355.061L374.826 360.657L381.938 398.329C381.938 398.329 362.63 410.473 360.637 412.567C358.654 414.66 357.738 420.663 359.867 421.03Z" fill="#AD6359"/>
<path d="M423.264 410.734C421.259 412.441 362.001 421.397 359.863 421.035C357.735 420.663 358.652 414.659 360.639 412.571C361.793 411.356 368.737 406.79 374.384 403.143C372.379 404.85 369.56 407.449 370.023 408.599C370.884 410.734 400.115 407.347 421.003 395.645C422.488 404.08 423.52 410.52 423.264 410.734Z" fill="#263238"/>
<path d="M336.271 198.454C336.271 198.454 337.517 208.672 343.496 216.041C344.926 217.803 349.317 219.445 351.588 221.07C351.588 221.07 360.078 297.589 362.665 306.26C365.536 315.884 376.746 381.715 376.746 381.715L420.245 375.831C420.245 375.831 407.595 314.069 404.45 298.062C403.748 294.488 394.307 227.143 394.52 225.585C397.055 207.043 387.861 198.453 387.861 198.453L336.271 198.454Z" fill="#B68CFB"/>
<path d="M369.499 199.185C370.327 202.84 372.3 206.054 374.753 208.352C377.51 210.935 380.93 212.718 384.302 213.086C384.873 213.148 384.798 213.522 384.201 213.52C377.316 213.491 370.309 208.011 369.217 199.237C369.193 199.037 369.456 198.995 369.499 199.185Z" fill="#263238"/>
<path d="M342.678 215.734C345.209 216.619 347.513 218.054 349.788 219.434C352.15 220.868 354.332 222.548 356.613 224.097C356.701 224.157 356.627 224.298 356.531 224.243C354.14 222.892 351.648 221.722 349.282 220.327C346.984 218.972 344.599 217.661 342.576 215.917C342.496 215.848 342.573 215.698 342.678 215.734Z" fill="#263238"/>
<path d="M341.709 201.66C342.077 203.206 342.535 204.733 342.949 206.267C343.339 207.707 343.645 209.18 344.104 210.6C344.548 211.977 345.213 213.228 346.351 214.175C346.958 214.679 347.62 215.12 348.263 215.578C348.609 215.825 348.982 216.061 349.342 216.31C349.288 216.107 349.241 215.899 349.194 215.688C349.061 215.101 348.931 214.514 348.802 213.926C348.517 212.623 348.241 211.317 347.975 210.009C347.451 207.44 346.958 204.841 346.289 202.304C346.261 202.2 346.419 202.154 346.452 202.257C347.227 204.766 348.069 207.245 348.761 209.779C349.099 211.023 350.39 217.176 350.454 217.613C350.521 218.064 350.581 218.517 350.618 218.971C350.655 219.419 350.769 219.917 350.684 220.363C350.662 220.477 350.522 220.465 350.47 220.391C350.468 220.393 350.465 220.394 350.463 220.395C350.215 220.011 350.133 219.498 349.999 219.066C349.863 218.629 349.74 218.185 349.638 217.738C349.601 217.578 349.57 217.413 349.539 217.248C348.9 216.904 348.297 216.439 347.696 216.052C347.048 215.635 346.389 215.229 345.773 214.766C344.594 213.878 343.83 212.761 343.342 211.389C342.836 209.966 342.63 208.449 342.39 206.967C342.107 205.215 341.879 203.45 341.546 201.706C341.528 201.604 341.685 201.555 341.709 201.66Z" fill="#263238"/>
<path d="M378.768 373.297C397.73 370.081 414.272 368.224 415.711 368.136C416.904 368.063 416.265 368.275 415.681 368.39C399.648 371.571 379.431 373.452 378.786 373.462C378.675 373.464 378.662 373.316 378.768 373.297Z" fill="#263238"/>
<path d="M407.122 331.037C404.632 320.334 402.376 309.603 400.529 298.774C398.691 287.994 397.201 277.165 395.779 266.326C394.345 255.397 392.933 244.464 391.5 233.535C391.152 230.881 390.583 228.151 390.715 225.466C390.843 222.845 391.754 220.322 392.012 217.712C392.512 212.661 391.539 207.532 389.827 202.774C389.391 201.562 388.909 200.376 388.381 199.2C388.312 199.047 388.063 199.112 388.12 199.28C389.787 204.226 391.33 209.306 391.407 214.557C391.447 217.275 390.933 219.836 390.368 222.48C389.813 225.082 389.894 227.542 390.227 230.167C391.61 241.053 393.046 251.932 394.471 262.813C395.891 273.651 397.34 284.488 399.086 295.28C400.826 306.044 402.898 316.729 405.377 327.355C407.874 338.061 410.425 348.759 413.157 359.411C413.496 360.733 413.833 362.054 414.188 363.373C414.229 363.529 414.458 363.452 414.427 363.3C412.226 352.497 409.62 341.774 407.122 331.037Z" fill="#263238"/>
<path d="M357.791 149.344C349.017 165.82 334.652 179.322 326.837 179.907C320.754 180.363 296.88 173.336 288.257 162.604C286.353 160.235 305.974 148.075 307.643 149.428C312.558 153.411 326.295 157.851 327.18 157.271C328.345 156.51 343.233 146.432 353.145 138.551C365.107 129.04 362.593 140.327 357.791 149.344Z" fill="#AD6359"/>
<path d="M293.512 167.525C292.245 166.719 282.062 161.308 278.206 156.027C276.163 153.231 271.433 144.922 273.012 143.491C274.453 142.184 276.32 144.148 276.32 144.148C276.32 144.148 274.267 140.414 276.292 138.62C278.317 136.826 281.293 140.301 281.293 140.301C281.293 140.301 279.469 136.315 281.619 134.667C283.769 133.019 286.164 137.004 286.164 137.004C286.164 137.004 284.323 133.436 286.677 132.811C289.509 132.057 292.145 139.012 294.926 141.668C295.558 142.272 308.62 152.999 308.62 152.999L293.512 167.525Z" fill="#AD6359"/>
<path d="M286.32 137C288.272 142.11 290.026 144.015 294.387 147.263C294.472 147.326 294.395 147.465 294.3 147.407C289.735 144.608 287.182 142.53 286.063 137.081C286.009 136.814 286.228 136.757 286.32 137Z" fill="#263238"/>
<path d="M281.451 140.275C283.949 145.409 285.835 147.49 290.148 151.222C290.209 151.275 290.124 151.381 290.058 151.333C285.515 148.02 283.017 145.89 281.207 140.439C281.125 140.192 281.337 140.04 281.451 140.275Z" fill="#263238"/>
<path d="M276.534 144.322C279.319 149.12 281.285 151.49 285.946 154.586C286.056 154.659 285.958 154.824 285.84 154.761C280.774 152.058 278.299 149.117 276.394 144.42C276.265 144.1 276.359 144.02 276.534 144.322Z" fill="#263238"/>
<path d="M313.3 152.726C313.3 152.726 310.044 145.185 308.14 142.742C306.235 140.298 295.723 133.753 294.153 135.901C292.126 138.673 297.437 143.623 300.36 145.715C300.36 145.715 295.665 152.123 298.692 156.486C301.719 160.848 313.3 152.726 313.3 152.726Z" fill="#AD6359"/>
<path d="M293.851 136.841C293.861 140.676 297.88 143.179 300.561 145.416C300.766 145.586 300.698 145.807 300.534 145.934C298.749 148.749 297.067 153.23 298.476 156.445C298.517 156.539 298.387 156.609 298.332 156.52C296.343 153.274 297.63 148.74 299.787 145.779C297 143.528 293.082 140.844 293.813 136.84C293.817 136.816 293.851 136.817 293.851 136.841Z" fill="#263238"/>
<path d="M314.746 151.378L297.481 172.674C297.481 172.674 321.735 184.46 331.65 180.033C341.565 175.607 358.999 154.453 362.339 143.309C365.232 133.657 361.081 131.883 353.843 136.882C347.762 141.082 327.338 156.644 326.635 156.635C325.931 156.625 314.746 151.378 314.746 151.378Z" fill="#E1D255"/>
<path d="M357.556 135.861C357.637 136.607 357.576 137.334 357.484 138.056C357.373 138.776 357.228 139.492 356.942 140.188C356.861 139.442 356.922 138.715 357.015 137.993C357.127 137.273 357.272 136.557 357.556 135.861ZM338.267 151.479C338.173 152.201 338.112 152.928 338.194 153.674C338.479 152.978 338.624 152.263 338.735 151.543C338.828 150.821 338.888 150.093 338.808 149.347C338.523 150.043 338.378 150.759 338.267 151.479ZM343.787 159.42C343.694 160.142 343.633 160.868 343.715 161.614C344 160.918 344.145 160.203 344.256 159.483C344.348 158.761 344.409 158.033 344.328 157.288C344.044 157.984 343.899 158.699 343.787 159.42ZM309.683 161.392C309.589 162.114 309.529 162.841 309.61 163.587C309.896 162.891 310.041 162.176 310.151 161.456C310.244 160.734 310.305 160.006 310.224 159.261C309.939 159.958 309.795 160.672 309.683 161.392ZM355.488 154.216C355.857 154.365 356.236 154.467 356.614 154.56C356.69 154.439 356.775 154.318 356.841 154.198C356.397 154.17 355.943 154.17 355.488 154.216ZM341.412 171.041C340.674 170.948 339.936 170.892 339.17 170.976C339.879 171.254 340.617 171.394 341.346 171.505C341.79 171.561 342.226 171.598 342.689 171.607C342.765 171.523 342.85 171.44 342.935 171.356C342.434 171.208 341.923 171.115 341.412 171.041ZM320.055 178.337C320.791 178.429 321.533 178.488 322.293 178.408C321.584 178.128 320.854 177.986 320.12 177.877C319.384 177.787 318.643 177.727 317.883 177.806C318.592 178.085 319.321 178.227 320.055 178.337ZM322.716 159.68C323.452 159.772 324.193 159.832 324.954 159.752C324.245 159.472 323.516 159.33 322.781 159.221C322.045 159.13 321.304 159.071 320.543 159.149C321.253 159.429 321.982 159.571 322.716 159.68ZM361.477 143.869C360.89 144.314 360.323 144.788 359.84 145.372C360.54 145.075 361.164 144.676 361.76 144.24C361.883 144.147 362.006 144.055 362.129 143.953V143.943C362.205 143.73 362.271 143.516 362.337 143.312C362.337 143.303 362.347 143.294 362.347 143.284C362.044 143.47 361.76 143.665 361.477 143.869ZM333.511 162.556C332.924 163.002 332.358 163.474 331.877 164.058C332.581 163.764 333.199 163.358 333.796 162.926C334.382 162.48 334.949 162.008 335.429 161.425C334.727 161.719 334.109 162.125 333.511 162.556ZM318.799 168.989C318.211 169.435 317.646 169.907 317.165 170.491C317.869 170.196 318.487 169.791 319.084 169.359C319.671 168.913 320.238 168.441 320.718 167.858C320.014 168.152 319.397 168.558 318.799 168.989ZM330.564 172.534C330.11 171.959 329.629 171.403 329.034 170.931C329.333 171.622 329.747 172.228 330.187 172.813C330.642 173.389 331.123 173.945 331.717 174.416C331.417 173.727 331.004 173.121 330.564 172.534ZM349.687 146.366C349.233 145.79 348.751 145.235 348.156 144.764C348.456 145.454 348.869 146.06 349.309 146.647C349.764 147.222 350.246 147.778 350.84 148.249C350.539 147.56 350.127 146.953 349.687 146.366ZM305.033 172.093C304.579 171.517 304.097 170.962 303.502 170.491C303.802 171.181 304.215 171.787 304.656 172.373C305.111 172.948 305.593 173.504 306.187 173.975C305.886 173.286 305.472 172.68 305.033 172.093Z" fill="white"/>
<path d="M303.51 174.178C303.944 173.323 304.6 172.54 305.145 171.749C305.739 170.886 306.332 170.022 306.932 169.162C308.084 167.514 309.33 165.925 310.561 164.334C313.067 161.099 315.544 157.805 318.299 154.769C318.352 154.711 318.469 154.774 318.422 154.846C316.26 158.244 313.78 161.461 311.36 164.685C310.153 166.292 308.95 167.91 307.674 169.467C307.036 170.244 306.381 171.008 305.733 171.777C305.047 172.591 304.403 173.525 303.615 174.244C303.566 174.288 303.475 174.247 303.51 174.178Z" fill="#263238"/>
<path d="M340.203 175.466L334.651 203.735C334.651 203.735 339.248 204.008 345.931 204.377L349.452 198.774L353.645 204.793C368.183 205.558 386.861 206.431 393.671 206.268C393.671 206.268 386.591 152.635 374.602 138.625C368.605 131.618 361.171 131.786 356.228 136.274C354.976 137.41 339.851 155.254 338.017 162.249C336.415 168.421 340.203 175.466 340.203 175.466Z" fill="#E1D255"/>
<path d="M393.668 206.266C386.857 206.433 368.183 205.561 353.643 204.791L349.452 198.777L345.933 204.383C339.245 204.011 334.647 203.733 334.647 203.733L340.2 175.466C340.2 175.466 336.416 168.422 338.015 162.251C339.018 158.419 344.022 151.319 348.535 145.501C348.61 145.427 348.667 145.343 348.724 145.269C352.376 140.582 355.668 136.778 356.226 136.277C360.984 131.961 368.032 131.637 373.888 137.836C373.897 137.836 373.897 137.845 373.897 137.845C373.954 137.891 374.001 137.947 374.048 138.003C374.238 138.198 374.427 138.411 374.606 138.624C376.224 140.518 377.757 143.144 379.195 146.262C379.261 146.401 379.327 146.54 379.393 146.679C382.165 152.832 384.587 160.804 386.602 168.914C386.63 169.016 386.649 169.109 386.677 169.202C391.19 187.456 393.668 206.266 393.668 206.266Z" fill="#E1D255"/>
<path d="M370.039 151.508C370.12 152.254 370.059 152.981 369.966 153.703C369.856 154.423 369.711 155.139 369.425 155.835C369.344 155.088 369.404 154.362 369.498 153.64C369.61 152.92 369.754 152.204 370.039 151.508ZM357.015 137.991C356.921 138.713 356.86 139.44 356.942 140.186C357.227 139.49 357.372 138.774 357.483 138.054C357.576 137.332 357.636 136.605 357.556 135.859C357.271 136.555 357.126 137.271 357.015 137.991ZM359.976 177.295C359.882 178.017 359.821 178.744 359.903 179.49C360.188 178.794 360.333 178.079 360.444 177.359C360.537 176.636 360.597 175.909 360.517 175.163C360.232 175.859 360.087 176.574 359.976 177.295ZM368.981 197.649C368.887 198.371 368.826 199.099 368.908 199.845C369.193 199.149 369.338 198.433 369.449 197.713C369.542 196.991 369.602 196.264 369.522 195.518C369.237 196.214 369.092 196.929 368.981 197.649ZM343.787 159.418C343.693 160.14 343.633 160.866 343.714 161.612C344 160.916 344.144 160.201 344.255 159.481C344.348 158.759 344.408 158.031 344.328 157.286C344.043 157.982 343.898 158.697 343.787 159.418ZM385.112 180.994C385.018 181.716 384.958 182.443 385.039 183.189C385.325 182.493 385.469 181.778 385.58 181.058C385.673 180.336 385.733 179.608 385.653 178.862C385.368 179.558 385.224 180.273 385.112 180.994ZM357.664 154.749C358.4 154.841 359.141 154.9 359.902 154.82C359.192 154.54 358.463 154.398 357.729 154.289C356.993 154.199 356.251 154.139 355.491 154.218C356.2 154.497 356.929 154.639 357.664 154.749ZM381.316 204.814C382.052 204.906 382.793 204.966 383.554 204.886C382.844 204.606 382.115 204.464 381.381 204.355C380.645 204.264 379.903 204.205 379.143 204.284C379.854 204.563 380.582 204.705 381.316 204.814ZM375.593 174.919C376.329 175.011 377.071 175.07 377.831 174.99C377.122 174.71 376.393 174.568 375.658 174.46C374.922 174.369 374.181 174.309 373.42 174.388C374.13 174.667 374.859 174.809 375.593 174.919ZM341.346 171.501C342.082 171.593 342.823 171.652 343.583 171.573C342.874 171.292 342.144 171.15 341.41 171.042C340.674 170.951 339.933 170.891 339.173 170.97C339.884 171.25 340.613 171.392 341.346 171.501ZM360.905 190.336C361.641 190.428 362.381 190.487 363.142 190.407C362.432 190.127 361.703 189.985 360.969 189.876C360.233 189.785 359.491 189.726 358.731 189.805C359.442 190.083 360.171 190.225 360.905 190.336ZM340.672 188.211C341.408 188.303 342.149 188.362 342.91 188.282C342.2 188.002 341.471 187.86 340.737 187.751C340.001 187.66 339.259 187.601 338.499 187.68C339.209 187.959 339.938 188.1 340.672 188.211ZM373.897 137.844C373.897 137.844 373.897 137.835 373.888 137.835C373.32 137.649 372.733 137.547 372.137 137.455C371.4 137.362 370.662 137.306 369.905 137.38C370.614 137.659 371.343 137.807 372.071 137.909C372.724 137.993 373.377 138.049 374.048 138.002C374.001 137.946 373.954 137.891 373.897 137.844ZM361.473 143.87C360.887 144.315 360.32 144.788 359.839 145.371C360.543 145.077 361.161 144.672 361.759 144.24C362.345 143.794 362.912 143.321 363.393 142.739C362.689 143.033 362.071 143.438 361.473 143.87ZM366.811 166.353C366.224 166.799 365.658 167.271 365.178 167.855C365.882 167.561 366.499 167.155 367.096 166.724C367.683 166.277 368.249 165.805 368.73 165.222C368.027 165.516 367.409 165.922 366.811 166.353ZM357.91 202.366C357.323 202.812 356.756 203.284 356.276 203.868C356.98 203.574 357.597 203.168 358.194 202.737C358.781 202.29 359.347 201.818 359.828 201.235C359.125 201.529 358.507 201.935 357.91 202.366ZM339.031 199.294C338.444 199.739 337.878 200.212 337.397 200.795C338.101 200.501 338.719 200.096 339.316 199.664C339.902 199.218 340.469 198.745 340.95 198.163C340.247 198.457 339.629 198.862 339.031 199.294ZM348.103 180.098C347.516 180.544 346.95 181.016 346.47 181.6C347.173 181.305 347.791 180.9 348.388 180.468C348.975 180.022 349.541 179.55 350.022 178.967C349.319 179.262 348.701 179.667 348.103 180.098ZM386.602 168.914C386.403 169.099 386.214 169.294 386.044 169.508C386.261 169.415 386.479 169.313 386.677 169.201C386.649 169.109 386.63 169.016 386.602 168.914ZM382.983 193.582C382.396 194.027 381.83 194.5 381.35 195.083C382.053 194.789 382.671 194.384 383.268 193.952C383.855 193.506 384.421 193.033 384.902 192.451C384.199 192.745 383.581 193.15 382.983 193.582ZM379.195 146.261C379.1 146.336 378.996 146.401 378.901 146.475C378.315 146.92 377.757 147.384 377.274 147.969C377.974 147.681 378.589 147.273 379.195 146.837C379.261 146.79 379.327 146.735 379.393 146.679C379.327 146.54 379.261 146.401 379.195 146.261ZM379.178 160.321C378.723 159.745 378.242 159.19 377.647 158.719C377.947 159.409 378.36 160.015 378.8 160.601C379.255 161.176 379.737 161.732 380.331 162.203C380.031 161.514 379.617 160.908 379.178 160.321ZM372.797 185.761C372.343 185.184 371.861 184.629 371.266 184.158C371.566 184.848 371.979 185.454 372.419 186.041C372.874 186.616 373.356 187.172 373.95 187.644C373.65 186.953 373.237 186.347 372.797 185.761ZM349.689 146.363C349.386 145.983 349.074 145.612 348.724 145.268C348.667 145.343 348.61 145.426 348.535 145.5C348.771 145.899 349.036 146.271 349.31 146.642C349.765 147.217 350.247 147.774 350.843 148.247C350.54 147.561 350.124 146.948 349.689 146.363ZM350.094 193.627C349.64 193.052 349.158 192.496 348.563 192.025C348.863 192.715 349.276 193.321 349.716 193.908C350.171 194.483 350.653 195.038 351.247 195.51C350.947 194.82 350.534 194.214 350.094 193.627ZM354.023 165.747C353.569 165.171 353.088 164.615 352.493 164.144C352.793 164.834 353.206 165.44 353.646 166.027C354.101 166.602 354.582 167.158 355.177 167.629C354.876 166.94 354.463 166.334 354.023 165.747Z" fill="white"/>
<path d="M337.276 190.526C337.924 187.949 338.415 185.928 338.981 183.335C339.558 180.744 340.146 178.156 340.678 175.556L340.712 175.388L340.611 175.213C339.434 173.167 338.6 170.838 338.244 168.491C338.054 167.315 337.99 166.119 338.094 164.937C338.197 163.749 338.381 162.595 338.832 161.478C339.688 159.236 340.838 157.053 342.102 154.953C343.37 152.849 344.413 151.084 345.81 149.045C346.04 148.734 345.91 148.647 345.702 148.898C344.326 150.552 342.788 152.851 341.587 154.638C340.222 156.704 338.886 158.814 337.952 161.159C337.455 162.319 337.183 163.608 337.08 164.858C336.959 166.121 337.017 167.396 337.206 168.643C337.611 171.141 338.448 173.533 339.796 175.722L339.729 175.377C339.238 177.984 338.804 180.602 338.358 183.218C337.948 185.567 337.496 188.1 337.156 190.462C337.118 190.728 337.058 191.478 337.276 190.526Z" fill="#263238"/>
<path d="M343.387 150.896C342.792 151.633 342.352 152.447 341.958 153.282C341.773 153.705 341.592 154.132 341.458 154.576C341.32 155.018 341.194 155.472 341.174 155.946C341.631 155.129 342.057 154.329 342.439 153.493C342.81 152.656 343.162 151.809 343.387 150.896Z" fill="#263238"/>
<path d="M358.746 144.055C358.165 148.555 357.482 153.04 356.784 157.521C356.088 162.002 355.307 166.471 354.573 170.945C353.764 175.408 352.994 179.877 352.147 184.335L350.857 191.016C350.393 193.238 349.962 195.465 349.469 197.681C349.75 195.429 350.091 193.187 350.4 190.94L351.43 184.215C352.129 179.734 352.906 175.265 353.643 170.79C354.454 166.328 355.22 161.857 356.071 157.402C356.918 152.946 357.781 148.491 358.746 144.055Z" fill="#263238"/>
<path d="M353.004 157.208C352.915 157.669 353.223 158.114 353.694 158.202C354.164 158.289 354.618 157.986 354.707 157.524C354.796 157.063 354.488 156.618 354.017 156.53C353.547 156.444 353.092 156.747 353.004 157.208Z" fill="#263238"/>
<path d="M351.686 165.87C351.597 166.331 351.906 166.777 352.376 166.864C352.846 166.951 353.3 166.649 353.389 166.187C353.478 165.725 353.17 165.28 352.698 165.193C352.228 165.105 351.775 165.409 351.686 165.87Z" fill="#263238"/>
<path d="M350.369 174.532C350.28 174.993 350.589 175.439 351.059 175.526C351.529 175.613 351.984 175.311 352.072 174.849C352.161 174.387 351.853 173.942 351.382 173.855C350.912 173.768 350.458 174.07 350.369 174.532Z" fill="#263238"/>
<path d="M349.051 183.192C348.962 183.654 349.271 184.099 349.741 184.186C350.211 184.274 350.665 183.971 350.754 183.509C350.843 183.048 350.535 182.602 350.064 182.515C349.593 182.428 349.14 182.731 349.051 183.192Z" fill="#263238"/>
<path d="M347.734 191.855C347.645 192.316 347.953 192.761 348.424 192.848C348.894 192.936 349.348 192.633 349.437 192.171C349.526 191.71 349.217 191.264 348.747 191.177C348.277 191.09 347.824 191.392 347.734 191.855Z" fill="#263238"/>
<path d="M370.263 140.391C371.871 146.851 389.329 181.827 389.195 184.015C389.164 184.53 380.59 187.503 380.332 188.319C379.281 191.644 389.047 209.69 392.835 210.527C403.984 212.993 419.323 212.481 419.124 203.51C418.813 189.43 393.587 154.565 380.661 142.243C372.152 134.131 368.676 134.017 370.263 140.391Z" fill="#AD6359"/>
<path d="M395.612 212.095L382.182 186.974C382.182 186.974 388.303 184.806 388.438 183.403C388.573 181.999 373.75 152.08 370.541 143.285C367.332 134.491 369.822 132.662 379.429 140.211C389.038 147.76 424.706 196.646 419.421 207.532C415.777 215.034 395.612 212.095 395.612 212.095Z" fill="#E1D255"/>
<path d="M387.78 152.017C387.86 152.763 387.8 153.49 387.707 154.213C387.596 154.933 387.452 155.647 387.166 156.343C387.085 155.597 387.145 154.871 387.239 154.149C387.35 153.429 387.495 152.714 387.78 152.017ZM406.032 195.898C405.938 196.619 405.878 197.346 405.959 198.092C406.245 197.396 406.39 196.681 406.5 195.961C406.593 195.239 406.653 194.511 406.573 193.765C406.288 194.462 406.144 195.177 406.032 195.898ZM395.006 161.651C395.742 161.742 396.483 161.802 397.244 161.722C396.534 161.442 395.805 161.3 395.072 161.191C394.335 161.1 393.594 161.041 392.833 161.12C393.544 161.399 394.273 161.541 395.006 161.651ZM394.655 188.21C395.391 188.302 396.132 188.361 396.893 188.281C396.183 188.001 395.454 187.859 394.721 187.751C393.984 187.66 393.243 187.6 392.482 187.679C393.193 187.958 393.921 188.1 394.655 188.21ZM416.428 202.591C417.164 202.683 417.904 202.742 418.665 202.663C417.955 202.382 417.226 202.24 416.493 202.132C415.757 202.041 415.015 201.981 414.255 202.06C414.965 202.339 415.693 202.481 416.428 202.591ZM372.073 137.913C372.809 138.005 373.551 138.065 374.312 137.985C373.602 137.704 372.873 137.562 372.139 137.454C371.402 137.363 370.661 137.304 369.901 137.382C370.611 137.662 371.34 137.804 372.073 137.913ZM387.675 168.009C387.088 168.455 386.522 168.927 386.041 169.511C386.745 169.217 387.363 168.811 387.96 168.38C388.546 167.933 389.113 167.461 389.593 166.878C388.89 167.173 388.273 167.578 387.675 168.009ZM406.812 181.414C406.225 181.86 405.659 182.332 405.179 182.916C405.882 182.622 406.5 182.216 407.097 181.784C407.684 181.337 408.25 180.865 408.731 180.282C408.028 180.577 407.41 180.983 406.812 181.414ZM406.468 208.829C405.881 209.275 405.315 209.747 404.834 210.331C405.538 210.037 406.156 209.631 406.753 209.199C407.339 208.753 407.906 208.281 408.387 207.698C407.684 207.992 407.066 208.398 406.468 208.829ZM378.906 146.469C378.319 146.915 377.753 147.387 377.273 147.971C377.976 147.677 378.594 147.271 379.191 146.84C379.778 146.393 380.344 145.921 380.825 145.338C380.122 145.633 379.504 146.038 378.906 146.469ZM379.178 160.321C378.724 159.744 378.242 159.19 377.647 158.718C377.947 159.409 378.361 160.015 378.8 160.6C379.255 161.175 379.737 161.731 380.331 162.203C380.031 161.513 379.618 160.907 379.178 160.321ZM397.424 175.4C396.97 174.824 396.489 174.269 395.894 173.797C396.194 174.488 396.607 175.094 397.048 175.68C397.503 176.255 397.984 176.811 398.578 177.283C398.278 176.592 397.864 175.986 397.424 175.4ZM396.082 200.932C395.628 200.356 395.146 199.801 394.551 199.329C394.851 200.02 395.265 200.626 395.705 201.212C396.16 201.788 396.642 202.343 397.236 202.815C396.935 202.125 396.522 201.518 396.082 200.932Z" fill="white"/>
<path d="M388.446 183.565C389.362 183.756 390.225 184.161 391.081 184.525C391.941 184.891 392.793 185.274 393.643 185.663C395.313 186.427 396.982 187.215 398.597 188.087C400.205 188.955 401.786 189.888 403.342 190.843C403.706 191.067 404.073 191.29 404.439 191.517C404.586 191.564 404.733 191.613 404.878 191.663C405.493 191.875 406.104 192.105 406.697 192.373C407.846 192.892 408.946 193.505 410.016 194.168C410.094 194.216 410.019 194.33 409.941 194.285C408.833 193.664 407.671 193.144 406.481 192.693C406.326 192.634 406.168 192.583 406.012 192.525C406.633 192.936 407.244 193.36 407.827 193.814C409.386 195.033 410.869 196.275 412.266 197.674C412.33 197.738 412.227 197.83 412.163 197.769C409.624 195.351 406.42 193.612 403.36 191.917C400.189 190.161 397.103 188.26 393.926 186.519C393.016 186.019 392.094 185.542 391.16 185.089C390.231 184.639 389.246 184.273 388.371 183.729C388.277 183.669 388.349 183.544 388.446 183.565Z" fill="#263238"/>
<path d="M387.419 180.503C386.966 179.453 386.485 178.415 386.018 177.371C385.115 175.353 384.153 173.358 383.207 171.36C381.261 167.251 379.343 163.13 377.412 159.013C376.313 156.67 375.28 154.278 374.092 151.977C374.065 151.926 373.978 151.965 373.998 152.019C374.78 154.161 375.73 156.261 376.625 158.36C376.728 158.602 376.837 158.842 376.94 159.084C376.763 158.781 376.588 158.476 376.408 158.176C375.878 157.295 375.357 156.407 374.847 155.516C374.797 155.43 374.669 155.51 374.714 155.596C375.196 156.506 375.7 157.4 376.232 158.283C376.587 158.874 376.972 159.446 377.35 160.024C378.001 161.537 378.649 163.052 379.323 164.555C381.168 168.664 383 172.779 384.954 176.84C385.516 178.008 386.107 179.167 386.7 180.321C387.293 181.474 387.98 182.576 388.58 183.723C388.618 183.795 388.747 183.74 388.713 183.664C388.252 182.625 387.87 181.549 387.419 180.503Z" fill="#263238"/>
<path d="M386.575 199.135H342.81V201.641H386.575V199.135Z" fill="#455A64"/>
<path d="M386.575 199.135H359.976V201.641H386.575V199.135Z" fill="#263238"/>
<path d="M364.566 201.684L419.959 201.687L427.881 164.6L372.488 164.598L364.566 201.684Z" fill="#455A64"/>
<path d="M392.853 183.142C392.656 184.978 394.007 186.467 395.869 186.467C397.732 186.467 399.4 184.978 399.597 183.142C399.794 181.307 398.443 179.818 396.581 179.818C394.719 179.819 393.049 181.307 392.853 183.142Z" fill="#263238"/>
<path d="M408.845 203.893C405.426 205.708 401.291 210.045 398.442 210.531C395.871 210.97 394.848 208.909 394.848 208.909C394.848 208.909 393.573 211.786 390.915 211.81C389.547 211.822 388.327 209.688 388.327 209.688C388.327 209.688 387.202 211.951 384.837 211.828C382.952 211.73 382.011 209.607 382.011 209.607C382.011 209.607 379.902 211.284 378.014 210.581C374.188 209.155 373.334 193.288 379.161 190.528C381.877 189.242 381.87 193.128 381.87 193.128C381.87 193.128 383.255 187.541 386.585 187.284C389.915 187.028 389.596 192.078 389.596 192.078C389.596 192.078 390.987 186.675 394.466 186.751C398.088 186.83 396.888 191.827 396.888 191.827C396.888 191.827 399.137 188.172 401.787 188.83C406.163 189.913 401.198 198.198 402.228 201.641H408.015L408.845 203.893Z" fill="#AD6359"/>
<path d="M403.921 206.994C407.312 205.553 408.933 207.926 412.474 207.475C416.406 206.974 415.129 202.444 408.221 201.641L402.23 201.642L403.921 206.994Z" fill="#AD6359"/>
<path d="M381.814 209.294C381.821 209.347 381.748 209.366 381.732 209.314C380.155 204.162 380.032 198.028 381.847 192.917C381.906 192.749 382.21 192.772 382.18 192.968C381.336 198.586 381.044 203.638 381.814 209.294Z" fill="#263238"/>
<path d="M388.297 209.767C388.306 209.829 388.202 209.843 388.183 209.779C386.588 204.462 386.642 197.548 389.441 191.901C389.536 191.707 389.821 191.627 389.727 191.859C388.158 195.753 387.578 204.68 388.297 209.767Z" fill="#263238"/>
<path d="M397.226 191.481C394.756 196.999 394.337 202.739 394.772 208.694C394.777 208.771 394.665 208.771 394.642 208.708C393.62 205.852 393.747 202.027 394.102 199.06C394.442 196.217 395.331 193.719 397.029 191.397C397.095 191.306 397.279 191.362 397.226 191.481Z" fill="#263238"/>
<path d="M368.063 136.373C367.61 137.199 361.755 141.788 357.7 140.516C356.38 140.099 358.376 132.931 358.376 132.931L358.4 132.369L358.743 124.499L369.165 121.249L370.652 120.848C370.652 120.848 370.413 122.994 370.089 125.665C370.075 125.789 370.061 125.913 370.043 126.045C370.028 126.197 370.017 126.34 369.996 126.481C369.954 126.881 369.907 127.288 369.852 127.694C369.813 128.002 369.775 128.302 369.721 128.624C369.676 128.949 369.623 129.264 369.578 129.588C369.058 132.784 368.249 136.021 368.063 136.373Z" fill="#AD6359"/>
<path d="M370.091 125.665C366.303 131.001 360.833 132.14 358.401 132.369L358.744 124.499L369.166 121.249L370.653 120.848C370.653 120.848 370.415 122.995 370.091 125.665Z" fill="#263238"/>
<path d="M350.234 111.72C347.255 125.231 355.169 128.508 358.139 129.134C360.836 129.703 370.092 131.305 374.478 118.168C378.864 105.031 373.403 99.4013 367.305 97.7801C361.207 96.1589 353.213 98.2097 350.234 111.72Z" fill="#AD6359"/>
<path d="M354.131 108.695C354.462 108.726 354.773 108.702 355.104 108.7C355.478 108.698 355.776 108.735 356.099 108.52C356.272 108.405 356.326 108.109 356.227 107.934C355.999 107.525 355.542 107.416 355.091 107.4C354.603 107.383 354.223 107.492 353.834 107.781C353.457 108.06 353.695 108.652 354.131 108.695Z" fill="#263238"/>
<path d="M363.384 111.026C363.069 110.921 362.796 110.771 362.496 110.636C362.157 110.482 361.87 110.394 361.667 110.068C361.558 109.893 361.635 109.601 361.797 109.481C362.178 109.202 362.64 109.289 363.057 109.458C363.508 109.641 363.808 109.895 364.04 110.316C364.265 110.723 363.799 111.165 363.384 111.026Z" fill="#263238"/>
<path d="M360.328 113.878C360.344 113.845 360.39 113.938 360.38 113.977C360.124 114.884 359.989 115.966 360.757 116.47C360.781 116.486 360.767 116.531 360.736 116.519C359.742 116.132 359.938 114.699 360.328 113.878Z" fill="#263238"/>
<path d="M361.396 113.119C362.924 113.363 362.315 116.342 360.899 116.117C359.506 115.894 360.116 112.915 361.396 113.119Z" fill="#263238"/>
<path d="M361.959 113.393C362.19 113.614 362.389 113.963 362.703 114.057C363.065 114.165 363.408 113.908 363.712 113.657C363.743 113.631 363.764 113.662 363.757 113.701C363.649 114.274 363.304 114.816 362.664 114.778C362.079 114.744 361.774 114.158 361.746 113.556C361.741 113.443 361.866 113.305 361.959 113.393Z" fill="#263238"/>
<path d="M355.203 112.448C355.203 112.412 355.12 112.478 355.114 112.516C354.962 113.446 354.628 114.485 353.717 114.632C353.688 114.636 353.681 114.683 353.715 114.684C354.783 114.737 355.211 113.353 355.203 112.448Z" fill="#263238"/>
<path d="M354.551 111.324C353.057 110.925 352.353 113.883 353.736 114.254C355.098 114.617 355.802 111.658 354.551 111.324Z" fill="#263238"/>
<path d="M353.876 111.374C353.6 111.476 353.297 111.707 353.007 111.661C352.673 111.606 352.505 111.23 352.367 110.875C352.353 110.839 352.323 110.857 352.313 110.896C352.163 111.458 352.213 112.091 352.742 112.326C353.223 112.541 353.709 112.141 353.981 111.609C354.03 111.511 353.987 111.332 353.876 111.374Z" fill="#263238"/>
<path d="M358.967 121.379C358.706 121.563 358.433 121.828 358.084 121.805C357.75 121.783 357.385 121.578 357.101 121.417C357.072 121.401 357.037 121.428 357.052 121.458C357.243 121.852 357.726 122.154 358.177 122.145C358.618 122.135 358.888 121.804 359.052 121.435C359.075 121.384 359.006 121.352 358.967 121.379Z" fill="#263238"/>
<path d="M355.766 117.233C355.766 117.233 355.274 118.568 355.133 119.216C355.121 119.277 355.274 119.34 355.495 119.399C355.506 119.405 355.51 119.41 355.521 119.406C356.649 119.828 357.91 119.678 358.823 118.891C358.883 118.838 358.814 118.753 358.745 118.781C357.737 119.226 356.738 119.187 355.7 118.988C355.692 118.799 356.62 116.73 356.517 116.7C356.162 116.595 355.398 116.687 354.943 116.721C355.886 113.912 357.28 111.274 358.176 108.463C358.206 108.362 358.063 108.301 358.012 108.386C356.351 111.049 355.194 114.258 354.144 117.134C354.011 117.491 355.477 117.288 355.766 117.233Z" fill="#263238"/>
<path d="M355.961 119.325C355.961 119.325 356.396 120.229 357.154 120.673C357.433 120.837 357.748 120.942 358.105 120.92C358.838 120.876 358.982 120.253 358.964 119.691C358.949 119.23 358.818 118.809 358.818 118.809C358.818 118.809 357.612 119.544 355.961 119.325Z" fill="#263238"/>
<path d="M357.154 120.672C357.433 120.837 357.748 120.941 358.105 120.919C358.838 120.876 358.983 120.252 358.964 119.691C358.202 119.62 357.362 119.973 357.154 120.672Z" fill="#FF9CBD"/>
<path d="M373.588 118.26C372.103 117.849 369.09 112.945 370.562 105.788C370.562 105.788 369.694 112.304 369.975 113.348C370.256 114.391 368.294 110.592 369.398 104.804C369.398 104.804 365.639 106.405 362.701 106.571C359.763 106.738 358.075 106.349 357.921 106.11C357.766 105.872 362.121 105.488 363.5 104.478C363.5 104.478 355.387 106.255 351.936 105.78C351.537 105.725 352.836 97.7044 358.834 95.4698C364.83 93.2352 372.333 98.65 374.095 101.248C374.095 101.248 376.638 102.178 378.641 106.599C380.645 111.017 375.188 118.701 373.588 118.26Z" fill="#263238"/>
<path d="M360.635 119.095C358.411 118.082 357.442 115.482 358.473 113.301C359.506 111.119 362.155 110.168 364.38 111.181C366.604 112.194 367.574 114.793 366.541 116.975C365.667 118.82 363.637 119.785 361.687 119.426C361.332 119.36 360.979 119.251 360.635 119.095ZM359.013 113.546C358.119 115.436 358.959 117.687 360.886 118.565C362.811 119.444 365.108 118.618 366.003 116.729C366.897 114.838 366.057 112.586 364.13 111.709C363.833 111.574 363.527 111.479 363.218 111.422C361.528 111.111 359.77 111.948 359.013 113.546Z" fill="#E1D255"/>
<path d="M351.677 116.327C349.936 115.794 349.112 113.492 349.841 111.195C350.189 110.1 350.836 109.163 351.663 108.558C352.518 107.933 353.461 107.731 354.325 107.998C355.187 108.261 355.85 108.952 356.19 109.944C356.522 110.901 356.511 112.033 356.162 113.13C355.472 115.304 353.632 116.705 351.96 116.397C351.865 116.378 351.772 116.355 351.677 116.327ZM352.019 109.026C351.292 109.558 350.72 110.39 350.409 111.37C349.777 113.36 350.426 115.333 351.855 115.771C353.289 116.211 354.963 114.946 355.595 112.956C355.907 111.976 355.918 110.973 355.629 110.13C355.35 109.321 354.824 108.761 354.148 108.555C354.076 108.533 354.002 108.515 353.929 108.501C353.312 108.387 352.642 108.569 352.019 109.026Z" fill="#E1D255"/>
<path d="M358.463 113.826L358.964 113.511C358.489 112.783 357.226 111.615 355.844 112.386L356.138 112.893C357.375 112.2 358.42 113.76 358.463 113.826Z" fill="#E1D255"/>
<path d="M377.04 120.685L377.626 120.584C377.577 120.316 377.12 117.95 375.917 117.361C374.791 116.814 366.96 115.186 366.627 115.117L366.504 115.688C368.75 116.153 374.781 117.458 375.65 117.884C376.444 118.271 376.922 120.037 377.04 120.685Z" fill="#E1D255"/>
<path d="M372.06 118.741C372.06 118.741 375.665 114.841 377.507 116.155C379.348 117.469 376.25 123.388 373.816 123.947C371.382 124.505 370.81 122.305 370.81 122.305L372.06 118.741Z" fill="#AD6359"/>
<path d="M376.576 117.83C376.614 117.831 376.614 117.883 376.581 117.892C374.867 118.336 373.817 119.712 373.017 121.174C373.579 120.643 374.28 120.401 375.015 121.067C375.053 121.103 375.004 121.163 374.96 121.147C374.311 120.924 373.814 120.977 373.295 121.445C372.928 121.776 372.648 122.219 372.364 122.619C372.269 122.753 372.016 122.643 372.092 122.485C372.098 122.474 372.105 122.462 372.11 122.45C372.334 120.408 374.318 117.756 376.576 117.83Z" fill="#263238"/>
<path d="M358.379 132.84L360.022 139.402L369.022 132.643L370.886 135.473C370.886 135.473 361.388 146.88 361.421 146.31L359.588 140.596L355.284 143.794L356.943 134.491L358.379 132.84Z" fill="#E1D255"/>
<path d="M355.838 139.151C356.165 137.623 356.449 136.077 356.848 134.566C356.862 134.513 356.953 134.501 356.956 134.566C357.056 136.099 355.777 141.932 355.579 143.345C355.585 143.341 355.592 143.336 355.598 143.331C355.779 143.192 359.562 140.542 359.587 140.596C360.03 141.524 361.38 145.687 361.459 146.06C362.963 144.247 369.256 137.152 370.968 135.478C371.017 135.43 371.095 135.486 371.054 135.545C369.676 137.488 361.513 146.871 361.423 146.831C361.351 146.871 359.667 141.74 359.514 140.794C358.852 141.395 354.98 144.44 355.002 144.209C355.149 142.653 355.512 140.679 355.838 139.151Z" fill="#263238"/>
<path d="M84.4107 303.683C84.7115 299.368 85.2498 295.047 86.2724 290.835C87.1957 287.031 88.506 283.142 90.9523 279.998C93.1858 277.127 96.3946 274.839 100.124 274.392C103.716 273.96 107.09 275.531 109.777 277.751C113.106 280.502 115.656 284.144 118.049 287.673C120.725 291.621 123.003 295.725 125.195 299.943C125.267 300.081 125.05 300.199 124.979 300.059C123.171 296.495 120.947 293.031 118.589 289.794C116.36 286.734 113.979 283.686 111.23 281.054C108.765 278.693 105.631 276.485 102.057 276.372C98.5033 276.261 95.2216 278.219 93.0808 280.907C90.6874 283.912 89.4709 287.666 88.5589 291.322C87.5581 295.337 87.0576 299.442 86.7161 303.555C86.0142 312.019 85.824 320.532 85.6292 329.019C85.5185 333.821 85.4523 338.625 85.4078 343.429C85.3851 345.863 85.3652 348.296 85.3473 350.73C85.3293 353.075 85.4542 355.453 85.0606 357.77C84.9802 358.242 84.1913 358.197 84.1108 357.747C83.7164 355.554 83.8129 353.3 83.7816 351.076C83.7495 348.769 83.7192 346.462 83.6974 344.155C83.6558 339.67 83.6331 335.185 83.6464 330.7C83.6728 321.701 83.7835 312.664 84.4107 303.683Z" fill="#263238"/>
<path d="M96.7378 297.301C97.1957 294.909 98.0196 291.789 99.4103 289.935C101.908 286.603 104.605 288.052 102.111 291.742C99.3885 295.77 98.9959 298.953 98.6043 300.84C98.6043 300.84 102.803 306.724 107.87 309.621C107.654 307.358 107.003 303.879 107.452 300.523C108.426 293.254 112.908 293.663 111.8 299.436C110.909 304.067 110.544 308.982 110.785 311.114C112.307 312.245 114.902 313.218 116.201 313.716C115.909 312.875 115.602 311.862 115.26 310.637C113.462 304.12 117.891 302.086 118.032 305.753C118.14 308.766 119.331 313.438 119.756 314.998C122.187 315.797 124.201 316.345 125.434 316.77C130.554 318.534 133.742 322.34 133.742 322.34C136.065 320.314 137.938 317.857 139.403 315.153C137.855 313.847 135.407 311.903 132.01 309.551C125.642 305.141 127.856 299.571 132.909 303.034C136.555 305.533 139.378 310.164 140.66 312.54C142.416 308.424 143.341 303.908 143.549 299.531C138.545 294.925 126.174 288.505 129.904 288.505C133.259 288.505 140.767 293.332 143.523 295.194C143.448 293.896 143.307 292.63 143.098 291.412C138.386 288.382 123.076 283.67 125.516 282.315C128.197 280.829 138.877 285.68 142.108 287.215C141.4 284.961 140.443 283.001 139.278 281.466C132.767 272.916 121.027 269.97 115.906 271.6C112.282 272.752 113.34 281.773 112.562 281.466C98.0054 275.719 91.3835 279.781 96.7378 297.301ZM132.429 296.314C133.461 295.089 138.24 298.691 136.858 300.659C135.475 302.626 131.096 297.881 132.429 296.314ZM107.461 288.621C108.718 289.405 106.861 293.962 104.922 292.582C103.274 291.405 106.195 287.828 107.461 288.621Z" fill="#B68CFB"/>
<path d="M109.367 290.016C110.026 288.742 110.71 287.474 111.46 286.249C112.173 285.083 112.934 283.841 113.865 282.828C113.657 282.577 113.457 282.322 113.243 282.076C113.156 281.976 113.305 281.835 113.394 281.934C113.638 282.207 113.871 282.486 114.108 282.764C114.154 282.79 114.191 282.829 114.209 282.881C115.108 283.939 115.956 285.027 116.765 286.14C118.195 286.437 119.609 286.887 120.993 287.342C122.422 287.811 123.836 288.298 125.225 288.873C125.371 288.933 125.298 289.167 125.154 289.105C123.778 288.508 122.384 287.93 120.958 287.458C119.61 287.01 118.239 286.667 116.873 286.287C117.317 286.903 117.753 287.524 118.172 288.154C120.737 288.878 123.245 290.025 125.65 291.146C128.176 292.323 130.609 293.691 133.028 295.065C133.166 295.142 133.035 295.35 132.899 295.271C130.529 293.879 128.06 292.692 125.56 291.545C123.218 290.469 120.794 289.586 118.434 288.562C124.378 297.664 127.946 308.167 132.712 317.891C132.781 318.032 132.556 318.148 132.496 318.007C131.041 314.597 129.365 311.274 127.779 307.92C126.356 304.909 124.968 301.881 123.543 298.869C123.126 297.988 122.697 297.108 122.261 296.231C122.521 301.093 122.416 306.038 123.228 310.842C123.257 311.014 122.997 311.046 122.985 310.868C122.641 305.673 121.708 300.559 121.746 295.335C121.746 295.305 121.766 295.292 121.775 295.269C120.765 293.283 119.691 291.323 118.53 289.417C116.56 293.966 114.489 298.584 113.57 303.47C113.542 303.62 113.292 303.553 113.335 303.401C114.674 298.504 115.915 293.6 118.32 289.074C117.05 287.015 115.663 285.03 114.132 283.154C113.473 284.363 112.624 285.506 111.873 286.661C111.139 287.791 110.419 288.927 109.74 290.089C108.291 292.575 107.016 295.108 106.021 297.799C105.966 297.947 105.723 297.871 105.786 297.73C106.918 295.136 108.068 292.532 109.367 290.016Z" fill="#263238"/>
<path d="M62.5005 301.084C66.3157 297.331 70.7506 292.404 76.647 292.414C82.3381 292.423 86.5261 296.919 88.9327 301.556C91.4491 306.405 92.3525 311.898 93.0639 317.238C93.9153 323.631 94.3864 330.075 94.5728 336.519C94.6759 340.098 94.6617 343.682 94.5718 347.263C94.481 350.874 94.3911 354.539 93.7365 358.103C93.6305 358.681 92.6855 358.702 92.6495 358.077C92.4774 355.064 92.6013 352.035 92.6183 349.018C92.6344 346.047 92.5871 343.075 92.4764 340.107C92.2522 334.1 91.8057 328.102 91.0867 322.133C90.4586 316.92 89.9601 311.558 88.3698 306.521C86.9347 301.978 84.2453 296.782 79.5503 294.787C73.144 292.064 66.8852 297.038 62.6925 301.239C62.5809 301.348 62.3889 301.195 62.5005 301.084Z" fill="#263238"/>
<path d="M43.0356 309.472V309.48C43.0649 310.247 43.1094 311.006 43.1623 311.747C44.9039 310.545 47.093 309.454 49.4145 309.206C54.8294 308.642 54.4841 312.681 50.8666 312.85C47.4156 313.011 45.1016 313.585 43.4367 314.309C44.3202 321.324 46.287 326.963 46.5821 327.039C46.8773 327.106 53.4974 326.642 60.8894 325.264C59.5442 322.45 56.4782 318.71 58.0391 318.407C59.6407 318.096 61.3123 321.435 62.1779 325.007C65.7443 324.301 69.4167 323.377 72.5848 322.198C70.2028 320.176 66.521 317.659 67.9277 316.587C69.3334 315.507 72.2566 319.057 74.0076 321.633C75.7473 320.906 77.2912 320.089 78.5058 319.174C75.297 314.55 67.4745 313.608 68.4953 310.265C69.5378 306.856 76.8343 311.559 80.1197 317.749C83.9794 313.824 85.1089 308.269 84.7031 303.521C81.3429 303.139 74.8751 303.834 75.3434 301.466C75.7842 299.213 80.4839 299.549 84.3105 300.931C83.8384 298.778 83.041 296.944 82.0647 295.714C78.5219 291.252 67.7129 296.926 67.7129 296.926C67.7129 296.926 68.8699 286.268 64.7453 284.425C62.368 283.367 58.1763 283.375 53.9694 285.805C56.3297 285.997 59.1819 286.73 60.3266 288.336C61.7929 290.385 59.4799 291.499 58.0089 290.554C56.9758 289.883 55.0403 287.775 51.5505 287.497C50.1958 288.599 48.8714 290.001 47.6483 291.735C47.25 292.285 46.8782 292.866 46.5083 293.497C49.9083 292.112 54.4074 291.402 59.163 293.722C63.8495 296.005 61.2319 300.779 57.1991 298.924C53.2089 297.091 49.3274 295.245 45.0524 296.296C43.483 299.845 42.9627 304.047 42.9977 308.182C44.6012 307.044 46.9681 305.682 49.9395 304.913C54.5985 303.714 56.0071 306.445 50.8893 306.954C47.6369 307.278 44.902 308.444 43.0356 309.472ZM48.704 302.134C48.3814 300.653 51.6867 300.228 52.2373 301.429C52.6952 302.454 49.0181 303.616 48.704 302.134ZM76.9743 310.335C77.2846 309.527 79.4972 310.445 79.2958 311.452C79.0195 312.798 76.6715 311.142 76.9743 310.335ZM61.3662 315.53C62.9773 314.899 65.4936 318.828 63.7378 319.728C61.9811 320.628 60.0494 316.049 61.3662 315.53Z" fill="#B68CFB"/>
<path d="M47.2139 326.23C49.6423 322.247 52.0423 318.243 54.5918 314.334C55.779 312.512 57.023 310.728 58.3143 308.977C58.1194 308.938 57.9245 308.883 57.7363 308.844C57.4156 308.777 57.093 308.717 56.7695 308.661C56.024 308.534 55.272 308.428 54.5189 308.353C53.8104 308.282 53.099 308.245 52.3867 308.236C51.6459 308.227 50.8362 308.203 50.1087 308.353C50.0169 308.372 50.0037 308.231 50.0898 308.234C50.8485 308.264 51.6251 308.166 52.3857 308.155C53.1236 308.145 53.8624 308.164 54.5984 308.207C55.2899 308.247 55.9786 308.315 56.6645 308.418C57.0429 308.474 57.4203 308.539 57.7968 308.613C58.021 308.656 58.2575 308.688 58.4789 308.754C59.7938 306.979 61.1589 305.24 62.5703 303.537C58.3133 301.619 53.9334 300.038 49.2781 299.376C49.1996 299.365 49.2299 299.246 49.3084 299.259C53.9457 299.987 58.5971 301.162 62.7936 303.271C63.5703 302.337 64.3507 301.407 65.1359 300.48C66.0147 299.444 66.9541 298.432 67.7488 297.331C67.8008 297.26 67.9077 297.338 67.8471 297.402C66.745 298.556 65.748 299.83 64.766 301.103C64.7736 301.106 64.7812 301.102 64.7887 301.107C66.5426 302.258 68.1546 303.63 69.7306 305.001C71.3454 306.405 72.9234 307.857 74.454 309.35C74.5108 309.404 74.4256 309.492 74.3689 309.437C72.8543 307.96 71.2849 306.552 69.6426 305.213C68.0023 303.876 66.2758 302.648 64.6251 301.324C64.6166 301.318 64.6184 301.307 64.6128 301.3C64.2353 301.789 63.8598 302.278 63.4814 302.759C63.2903 303.002 63.1011 303.247 62.9109 303.49C62.9014 303.511 62.8873 303.526 62.8702 303.543C62.2383 304.349 61.6092 305.158 60.9849 305.97C61.7492 306.975 62.3149 308.162 62.8617 309.291C63.4057 310.415 63.8796 311.577 64.3157 312.744C65.2192 315.163 65.8255 317.685 66.3411 320.206C66.3562 320.282 66.238 320.317 66.2229 320.241C65.7357 317.73 64.9344 315.31 64.0111 312.924C63.54 311.706 63.0027 310.519 62.4483 309.335C61.9441 308.257 61.333 307.223 60.8609 306.133C60.316 306.844 59.774 307.557 59.2404 308.275C59.0853 308.484 58.9377 308.697 58.7845 308.907C58.8072 308.953 58.793 309.014 58.7315 309.016C58.723 309.016 58.7145 309.015 58.7069 309.015C57.0381 311.3 55.4508 313.639 53.9069 316.005C54.0119 316.157 54.0573 316.345 54.1188 316.523C54.2181 316.81 54.3108 317.099 54.3969 317.391C54.57 317.974 54.71 318.566 54.8207 319.164C54.9248 319.726 55.0061 320.292 55.0629 320.86C55.1263 321.485 55.0648 322.177 55.2076 322.788C55.2303 322.883 55.0724 322.89 55.0884 322.791C55.184 322.222 55.0345 321.559 54.9541 320.992C54.8661 320.377 54.7488 319.765 54.6041 319.161C54.4735 318.614 54.3231 318.069 54.1576 317.531C54.0743 317.261 53.9854 316.993 53.8917 316.727C53.8416 316.586 53.7716 316.438 53.7234 316.287C53.0006 317.399 52.2845 318.515 51.5788 319.638C50.1815 321.865 48.7956 324.099 47.4012 326.328C47.3265 326.442 47.1439 326.345 47.2139 326.23Z" fill="#263238"/>
<path d="M84.6633 356.814C84.7257 354.557 85.0909 352.283 85.3387 350.039C85.5875 347.784 85.8486 345.531 86.0946 343.275C86.5676 338.929 86.8315 334.485 87.874 330.224C88.7708 326.558 90.4159 323.048 93.2861 320.463C94.7382 319.157 96.5848 318.085 98.5941 317.978C100.65 317.869 102.546 318.567 104.23 319.683C106.15 320.953 107.629 322.754 108.97 324.582C110.352 326.465 111.574 328.412 112.666 330.469C112.707 330.547 112.583 330.594 112.54 330.522C110.523 327.092 107.743 324.133 104.544 321.733C103.072 320.627 101.381 319.798 99.5041 319.673C97.6434 319.547 95.985 320.42 94.6171 321.585C91.9333 323.873 90.3809 327.239 89.4557 330.544C88.3593 334.462 88.0046 338.584 87.4578 342.601C87.1324 344.988 86.8221 347.378 86.5004 349.767C86.1807 352.142 85.9792 354.578 85.4646 356.922C85.3529 357.425 84.6491 357.321 84.6633 356.814Z" fill="#263238"/>
<path d="M95.9811 339.287C96.6442 340.196 97.4918 341.022 98.4842 341.794C98.1058 339.591 97.6479 335.678 98.7812 333.594C100.541 330.358 102.625 331.972 101.576 334.785C100.063 338.801 99.8654 341.514 99.8805 342.761C102.112 344.201 104.803 345.365 107.524 346.299C107.283 345.216 107.132 343.872 107.273 342.439C107.623 338.98 110.324 339.044 109.622 342.643C109.315 344.2 109.249 345.695 109.253 346.869C115.411 348.763 121.164 349.505 121.164 349.505C123.457 346.508 125.065 343.63 126.094 340.896C123.224 340.191 117.412 340.03 117.537 338.018C117.702 335.31 123.332 337.395 126.625 339.359C127.435 336.766 127.719 334.32 127.619 332.074C126.333 331.66 123.955 331.148 119.703 330.788C113.792 330.287 114.083 327 118.366 327.076C121.527 327.133 125.523 329.03 127.418 330.017C126.185 322.132 120.052 317.077 115.136 316.885C106.87 316.557 109.844 326.649 109.844 326.649C109.844 326.649 104.243 322.782 98.9572 322.885C93.6832 322.994 90.3287 331.572 95.9811 339.287ZM118.059 324.699C117.875 323.564 121.564 323.291 121.756 324.748C121.976 326.382 118.246 325.854 118.059 324.699ZM123.994 336.537C123.918 335.795 125.51 335.666 125.871 336.6C126.112 337.209 124.058 337.27 123.994 336.537ZM104.146 337.228C105.392 337.4 106.099 341.771 103.956 341.685C102.32 341.616 103.089 337.08 104.146 337.228Z" fill="#B68CFB"/>
<path d="M105.869 342.08C106.075 341.536 106.259 340.984 106.433 340.428C106.272 340.989 106.13 341.553 106.023 342.12C106.002 342.232 105.829 342.187 105.869 342.08Z" fill="#263238"/>
<path d="M108.052 335.056C108.44 333.936 108.874 332.83 109.318 331.729C109.555 331.142 109.8 330.559 110.062 329.983C110.284 329.497 110.467 328.944 110.799 328.519C110.546 328.055 110.308 327.584 110.131 327.104C110.113 327.058 110.173 327.024 110.206 327.061C110.837 327.783 111.325 328.691 111.816 329.511C112.046 329.893 112.264 330.282 112.49 330.667C112.953 330.695 113.425 330.797 113.88 330.878C114.376 330.968 114.87 331.066 115.362 331.175C115.854 331.284 116.345 331.395 116.835 331.51C117.321 331.625 117.806 331.783 118.3 331.857C118.415 331.874 118.368 332.051 118.259 332.008C117.769 331.815 117.226 331.723 116.712 331.613C116.237 331.513 115.762 331.431 115.281 331.363C114.801 331.295 114.319 331.237 113.837 331.189C113.476 331.154 113.108 331.136 112.743 331.102C112.94 331.443 113.144 331.779 113.337 332.122C113.368 332.176 113.395 332.231 113.424 332.286C113.822 332.254 114.221 332.355 114.612 332.424C115.039 332.499 115.465 332.579 115.889 332.67C116.752 332.858 117.61 333.057 118.461 333.29C120.25 333.78 122.016 334.34 123.781 334.906C123.88 334.938 123.817 335.084 123.72 335.052C121.97 334.464 120.181 333.996 118.376 333.597C117.53 333.411 116.685 333.22 115.836 333.047C115.41 332.961 114.986 332.869 114.562 332.781C114.234 332.713 113.891 332.675 113.574 332.567C114.484 334.216 115.341 335.891 116.127 337.599C117.841 341.32 119.285 345.153 120.755 348.971C120.792 349.066 120.642 349.128 120.607 349.033C119.234 345.217 117.498 341.546 115.684 337.915C115.353 337.256 115.013 336.6 114.68 335.942C114.652 336.075 114.618 336.21 114.593 336.344C114.508 336.795 114.426 337.246 114.349 337.699C114.194 338.604 114.037 339.508 113.898 340.415C113.62 342.25 113.168 344.19 113.232 346.05C113.236 346.167 113.055 346.161 113.074 346.05C113.222 345.152 113.221 344.214 113.279 343.306C113.339 342.358 113.41 341.408 113.523 340.464C113.631 339.553 113.75 338.643 113.903 337.738C113.98 337.286 114.061 336.834 114.145 336.383C114.207 336.055 114.222 335.684 114.405 335.402C113.921 334.45 113.442 333.494 112.951 332.544C112.492 331.653 112.027 330.764 111.555 329.879C111.356 329.506 111.139 329.127 110.926 328.746C110.805 329.215 110.561 329.666 110.377 330.111C110.166 330.623 109.953 331.134 109.739 331.645C109.265 332.776 108.824 333.919 108.383 335.064C107.759 336.685 107.068 338.347 106.553 340.035C107.058 338.379 107.485 336.692 108.052 335.056Z" fill="#263238"/>
<path d="M106.434 340.428C106.471 340.297 106.514 340.166 106.554 340.035C106.514 340.166 106.474 340.297 106.434 340.428Z" fill="#263238"/>
<path d="M70.8428 352.426L71.4246 364.496L72.9202 395.607H105.64L107.136 364.496L107.718 352.426H70.8428Z" fill="#37474F"/>
<path d="M70.8428 352.426L71.4246 364.496H107.136L107.718 352.426H70.8428Z" fill="#263238"/>
<path d="M68.5155 357.305H110.044V347.545H68.5155V357.305Z" fill="#37474F"/>
<path d="M102.991 395.607H97.2471V400.717H102.991V395.607Z" fill="#37474F"/>
<path d="M102.991 395.607H97.2471V398.162H102.991V395.607Z" fill="#263238"/>
<path d="M81.3077 395.607H75.5684V400.717H81.3077V395.607Z" fill="#37474F"/>
<path d="M81.3077 395.607H75.5684V398.162H81.3077V395.607Z" fill="#263238"/>
</svg>
