<svg width="466" height="440" viewBox="0 0 466 440" fill="none" xmlns="http://www.w3.org/2000/svg">
<path d="M70.4026 291.109C71.3169 290.529 72.5313 290.511 73.4875 291.01C73.9629 291.262 74.4139 291.555 74.9014 291.782C75.3767 292.023 75.8865 292.236 76.2742 292.622C76.6685 292.991 76.9686 293.463 77.1279 293.98C77.2994 294.501 77.2593 295.052 77.2892 295.584L77.3991 298.805L77.36 298.768L90.5198 298.311L90.4369 298.399L90.2803 294.162C90.2896 293.427 90.5758 292.701 91.0585 292.147C91.5404 291.568 92.2319 291.269 92.7958 290.883C93.3867 290.544 93.9589 290.053 94.6952 289.864C95.41 289.667 96.1976 289.717 96.8826 290.023L100.643 291.994L100.352 292.081L106.488 280.426L106.617 280.854L102.854 278.863C102.182 278.45 101.667 277.794 101.412 277.052C101.28 276.682 101.216 276.291 101.209 275.899L101.167 274.85L101.121 273.801C101.096 273.409 101.131 273.01 101.237 272.628C101.439 271.863 101.915 271.16 102.573 270.701L106.179 268.44L106.046 269.01L99.0719 257.841L99.6954 257.987L96.0727 260.238C95.356 260.627 94.5032 260.75 93.7082 260.589C93.3102 260.51 92.9281 260.359 92.5796 260.154L91.6783 259.635L90.75 259.165C90.3875 258.987 90.0529 258.751 89.7696 258.463C89.2001 257.889 88.8376 257.114 88.7667 256.308L88.6428 252.044L89.0836 252.458L75.9201 252.82L76.2891 252.428L76.3842 256.687C76.3525 257.472 76.0468 258.241 75.5277 258.828C75.2667 259.12 74.9554 259.366 74.6125 259.555L73.7215 260.097L72.8314 260.639C72.5099 260.858 72.1501 261.02 71.7745 261.119C71.0215 261.311 70.2106 261.23 69.5107 260.907L65.7715 258.873L66.1108 258.771L59.7955 270.331L59.7349 270.129L63.4536 272.169C64.0734 272.563 64.5413 273.178 64.7677 273.869C65.0138 274.569 64.9215 275.307 64.9644 275.996C64.9551 276.688 65.0818 277.418 64.8777 278.123C64.6904 278.819 64.2579 279.449 63.6652 279.862L60.0593 282.089L60.0761 282.018L66.9831 293.229L66.9663 293.225L70.4026 291.109ZM70.4026 291.109L66.9784 293.247L66.9682 293.254L66.9617 293.244L59.9866 282.075L59.9596 282.031L60.0034 282.003L63.5888 279.759C64.1536 279.362 64.5636 278.756 64.7389 278.088C64.9336 277.42 64.7966 276.716 64.7948 276.004C64.7417 275.292 64.8171 274.581 64.5758 273.936C64.353 273.29 63.9075 272.725 63.3287 272.37L59.5923 270.395L59.4609 270.326L59.5308 270.193L65.6671 258.536L65.7827 258.316L66.0064 258.433L69.7428 260.393C70.3309 260.653 71.0047 260.708 71.6198 260.541C71.9264 260.455 72.2172 260.318 72.4763 260.135L73.3869 259.561L74.2974 258.988C74.5715 258.832 74.8184 258.63 75.0244 258.392C75.4345 257.913 75.6693 257.293 75.6852 256.665L75.5258 252.453L75.5109 252.073L75.894 252.06L89.0538 251.604L89.4807 251.589L89.4956 252.019L89.641 256.226C89.6978 256.829 89.9728 257.405 90.4015 257.833C90.6149 258.048 90.8665 258.222 91.1387 258.354L92.1042 258.836L93.0428 259.368C93.3037 259.519 93.588 259.63 93.8834 259.687C94.4743 259.803 95.1006 259.707 95.6263 259.419L99.2154 257.216L99.6022 256.979L99.8389 257.363L106.747 268.574L106.964 268.926L106.614 269.143L103.031 271.358C102.528 271.705 102.159 272.238 101.996 272.836C101.913 273.133 101.881 273.446 101.896 273.758L101.926 274.825L101.952 275.893C101.953 276.207 101.999 276.522 102.1 276.818C102.294 277.415 102.694 277.937 103.22 278.273L106.913 280.297L107.192 280.45L107.042 280.725L100.728 292.286L100.625 292.476L100.437 292.373L96.7288 290.355C96.1268 290.076 95.4259 290.018 94.7781 290.187C94.1248 290.337 93.5815 290.786 92.9514 291.139C92.3484 291.533 91.697 291.806 91.2589 292.324C90.8078 292.827 90.5338 293.489 90.5142 294.167L90.6065 298.394L90.6084 298.48L90.5236 298.482L77.3609 298.844L77.3218 298.845L77.3209 298.807L77.2304 295.585C77.2044 295.049 77.2463 294.504 77.0813 293.993C76.9285 293.482 76.6349 293.016 76.2472 292.649C75.8669 292.265 75.3646 292.052 74.8883 291.807C74.4028 291.576 73.9507 291.28 73.4791 291.025C72.5304 290.526 71.3206 290.534 70.4026 291.109Z" fill="#EBEBEB"/>
<path d="M73.114 271.606C74.1271 268.978 76.1364 266.698 78.747 265.537C81.3165 264.346 84.3828 264.121 87.1033 265.122C89.8024 266.098 92.1939 268.132 93.3952 270.821C94.6329 273.476 94.7634 276.629 93.7345 279.398C92.6431 282.121 90.5153 284.454 87.8079 285.607C85.1209 286.763 81.9894 286.82 79.3155 285.718C76.65 284.63 74.4113 282.521 73.3246 279.881C72.1605 277.286 72.0878 274.241 73.114 271.606ZM73.114 271.606C72.1307 274.257 72.2575 277.281 73.4486 279.826C74.6033 282.405 76.8942 284.341 79.4823 285.281C82.0873 286.238 85.0212 286.022 87.4808 284.88C89.9813 283.768 91.8928 281.583 92.8668 279.065C93.8463 276.55 93.7829 273.634 92.6701 271.147C91.6337 268.616 89.4957 266.601 86.9393 265.556C84.3791 264.499 81.3808 264.557 78.8029 265.66C76.2064 266.765 74.1699 268.994 73.114 271.606Z" fill="#EBEBEB"/>
<path d="M384.099 202.042L379.488 194.052L377.043 195.464C376.323 195.88 375.439 195.84 374.743 195.386C374.359 195.135 373.961 194.905 373.549 194.696C372.811 194.32 372.336 193.574 372.336 192.746V189.922H363.108V192.746C363.108 193.574 362.633 194.32 361.895 194.696C361.483 194.904 361.085 195.135 360.7 195.386C360.005 195.84 359.12 195.88 358.401 195.464L355.955 194.052L351.345 202.042L353.801 203.456C354.522 203.871 354.918 204.661 354.875 205.492C354.864 205.717 354.858 205.944 354.858 206.171C354.858 206.399 354.864 206.625 354.875 206.85C354.917 207.676 354.524 208.462 353.807 208.877L351.344 210.3L355.954 218.29L358.406 216.876C359.126 216.461 360.011 216.503 360.707 216.957C361.09 217.207 361.487 217.437 361.896 217.646C362.633 218.022 363.107 218.767 363.107 219.595V222.42H372.335V219.595C372.335 218.767 372.809 218.023 373.546 217.646C373.955 217.437 374.352 217.207 374.735 216.957C375.43 216.503 376.316 216.461 377.035 216.876L379.487 218.29L384.098 210.3L381.645 208.884C380.927 208.471 380.533 207.682 380.575 206.855C380.586 206.629 380.592 206.401 380.592 206.171C380.592 205.944 380.586 205.717 380.575 205.492C380.532 204.661 380.928 203.871 381.649 203.455L384.099 202.042ZM375.279 206.169C375.279 210.343 371.899 213.722 367.726 213.722C363.553 213.722 360.166 210.342 360.166 206.169C360.166 201.997 363.554 198.609 367.726 198.609C371.899 198.609 375.279 201.997 375.279 206.169Z" fill="#EBEBEB"/>
<path d="M69.2737 317.864L64.663 309.874L62.2175 311.287C61.498 311.702 60.6135 311.662 59.9182 311.208C59.5343 310.958 59.1354 310.728 58.7234 310.518C57.9853 310.142 57.5099 309.397 57.5099 308.568V305.744H48.2822V308.568C48.2822 309.397 47.8069 310.142 47.0687 310.518C46.6568 310.727 46.2588 310.958 45.8739 311.208C45.1787 311.661 44.2942 311.702 43.5747 311.287L41.1291 309.874L36.5185 317.864L38.9753 319.279C39.6957 319.693 40.0918 320.484 40.0489 321.314C40.0377 321.54 40.0322 321.766 40.0322 321.994C40.0322 322.221 40.0377 322.447 40.0489 322.672C40.0909 323.499 39.6976 324.284 38.9809 324.699L36.5176 326.122L41.1282 334.112L43.5803 332.699C44.2998 332.284 45.1852 332.325 45.8805 332.78C46.2635 333.029 46.6605 333.26 47.0697 333.468C47.8069 333.844 48.2813 334.59 48.2813 335.417V338.242H57.509V335.417C57.509 334.59 57.9834 333.845 58.7206 333.468C59.1298 333.26 59.5268 333.029 59.9098 332.78C60.6051 332.325 61.4905 332.284 62.21 332.699L64.6621 334.112L69.2727 326.122L66.8197 324.708C66.1021 324.294 65.7078 323.505 65.7498 322.679C65.7609 322.452 65.7675 322.225 65.7675 321.994C65.7675 321.767 65.7619 321.541 65.7498 321.315C65.7078 320.485 66.103 319.694 66.8234 319.279L69.2737 317.864ZM60.4532 321.993C60.4532 326.166 57.0728 329.546 52.9003 329.546C48.7277 329.546 45.3399 326.166 45.3399 321.993C45.3399 317.819 48.7277 314.432 52.9003 314.432C57.0728 314.432 60.4532 317.819 60.4532 321.993Z" fill="#EBEBEB"/>
<path d="M121.97 118.394L40.3184 118.269C40.3184 118.269 44.3847 112.989 48.8629 112.335C48.8629 112.335 57.607 86.4337 72.1806 86.2716C85.7301 86.1206 91.1366 102.238 91.1366 102.238C91.1366 102.238 97.4239 95.0221 103.416 98.3354C109.408 101.649 112.789 111.112 112.789 111.112C112.789 111.112 119.528 114.755 121.97 118.394Z" fill="#EBEBEB"/>
<path d="M322.428 87.9373L425.683 88.0957C425.683 88.0957 425.693 81.4972 411.469 80.184C411.469 80.184 398.526 51.3293 378.694 55.1728C366.342 57.5662 360.003 74.5109 360.003 74.5109C360.003 74.5109 350.693 61.1553 343.225 63.7258C335.757 66.2962 331.303 80.4915 331.303 80.4915C331.303 80.4915 323.6 84.2093 322.428 87.9373Z" fill="#EBEBEB"/>
<path d="M147.145 57.3958L217.355 57.5039C217.355 57.5039 210.739 51.3266 207.794 51.322C204.849 51.3173 196.286 30.6008 185.302 31.4648C174.319 32.3287 168.469 47.7375 168.469 47.7375C168.469 47.7375 155.125 43.5323 147.145 57.3958Z" fill="#EBEBEB"/>
<path d="M310.037 142.233L370.078 142.325C370.078 142.325 367.1 138.434 363.809 137.943C363.809 137.943 357.438 118.877 346.722 118.725C336.758 118.583 332.746 130.422 332.746 130.422C332.746 130.422 328.139 125.103 323.725 127.525C319.311 129.947 316.804 136.899 316.804 136.899C316.804 136.899 311.841 139.563 310.037 142.233Z" fill="#EBEBEB"/>
<path d="M88.9572 307.347L109.291 303.917L126.881 286.001L158.35 318.717L180.117 305.192L195.468 317.676L225.549 284.629L249.216 282.44L274.591 244.895L302.164 272.519L318.447 247.315L328.609 245.863L342.123 220.819L368.514 264.502L405.424 408.044H41.4531L88.9572 307.347Z" fill="#DBDBDB"/>
<path d="M92.581 355.386L92.0078 354.649L122.625 330.771L167.287 326.944L167.366 326.964L206.765 337.407L241.239 307.481L241.374 307.461L289.674 300.523L325.663 276.31L342.345 238.25L343.199 238.625L326.408 276.933L326.296 277.008L290.018 301.414L289.912 301.43L241.642 308.363L207.004 338.434L206.765 338.372L167.205 327.887L122.98 331.676L92.581 355.386Z" fill="white"/>
<path d="M93.9391 354.831C93.9391 357.156 92.0537 359.042 89.7284 359.042C87.403 359.042 85.5176 357.156 85.5176 354.831C85.5176 352.506 87.403 350.62 89.7284 350.62C92.0546 350.621 93.9391 352.506 93.9391 354.831Z" fill="#DBDBDB"/>
<path d="M89.7295 359.507C87.1507 359.507 85.0527 357.409 85.0527 354.83C85.0527 352.251 87.1507 350.153 89.7295 350.153C92.3084 350.153 94.4063 352.251 94.4063 354.83C94.4063 357.409 92.3074 359.507 89.7295 359.507ZM89.7295 351.086C87.6651 351.086 85.9847 352.767 85.9847 354.831C85.9847 356.895 87.6651 358.576 89.7295 358.576C91.7939 358.576 93.4743 356.895 93.4743 354.831C93.4734 352.767 91.7939 351.086 89.7295 351.086Z" fill="white"/>
<path d="M126.816 331.223C126.816 333.549 124.931 335.434 122.605 335.434C120.28 335.434 118.395 333.549 118.395 331.223C118.395 328.898 120.28 327.013 122.605 327.013C124.931 327.013 126.816 328.898 126.816 331.223Z" fill="#DBDBDB"/>
<path d="M122.606 335.899C120.028 335.899 117.93 333.802 117.93 331.223C117.93 328.644 120.028 326.547 122.606 326.547C125.185 326.547 127.283 328.645 127.283 331.223C127.282 333.802 125.184 335.899 122.606 335.899ZM122.606 327.479C120.542 327.479 118.862 329.159 118.862 331.223C118.862 333.287 120.542 334.967 122.606 334.967C124.671 334.967 126.351 333.287 126.351 331.223C126.35 329.159 124.671 327.479 122.606 327.479Z" fill="white"/>
<path d="M171.457 326.778C171.457 329.104 169.571 330.989 167.246 330.989C164.921 330.989 163.035 329.104 163.035 326.778C163.035 324.453 164.921 322.567 167.246 322.567C169.572 322.568 171.457 324.453 171.457 326.778Z" fill="#DBDBDB"/>
<path d="M167.247 331.455C164.668 331.455 162.57 329.357 162.57 326.778C162.57 324.199 164.668 322.102 167.247 322.102C169.826 322.102 171.924 324.199 171.924 326.778C171.924 329.357 169.825 331.455 167.247 331.455ZM167.247 323.034C165.183 323.034 163.502 324.714 163.502 326.778C163.502 328.843 165.182 330.523 167.247 330.523C169.311 330.523 170.992 328.843 170.992 326.778C170.991 324.714 169.311 323.034 167.247 323.034Z" fill="white"/>
<path d="M206.687 342.228C209.013 342.228 210.898 340.343 210.898 338.017C210.898 335.692 209.013 333.807 206.687 333.807C204.362 333.807 202.477 335.692 202.477 338.017C202.477 340.343 204.362 342.228 206.687 342.228Z" fill="#DBDBDB"/>
<path d="M206.687 342.693C204.108 342.693 202.01 340.595 202.01 338.017C202.01 335.438 204.108 333.34 206.687 333.34C209.265 333.34 211.363 335.438 211.363 338.017C211.363 340.595 209.265 342.693 206.687 342.693ZM206.687 334.273C204.622 334.273 202.942 335.953 202.942 338.018C202.942 340.082 204.621 341.762 206.687 341.762C208.751 341.762 210.431 340.082 210.431 338.018C210.431 335.953 208.751 334.273 206.687 334.273Z" fill="white"/>
<path d="M245.65 308.399C245.65 310.725 243.765 312.61 241.439 312.61C239.114 312.61 237.229 310.725 237.229 308.399C237.229 306.074 239.114 304.188 241.439 304.188C243.766 304.188 245.65 306.074 245.65 308.399Z" fill="#DBDBDB"/>
<path d="M241.44 313.075C238.862 313.075 236.764 310.977 236.764 308.398C236.764 305.82 238.862 303.722 241.44 303.722C244.019 303.722 246.117 305.82 246.117 308.398C246.117 310.977 244.018 313.075 241.44 313.075ZM241.44 304.655C239.376 304.655 237.696 306.335 237.696 308.399C237.696 310.464 239.376 312.144 241.44 312.144C243.505 312.144 245.185 310.464 245.185 308.399C245.184 306.334 243.505 304.655 241.44 304.655Z" fill="white"/>
<path d="M294.058 300.609C294.058 302.935 292.173 304.82 289.847 304.82C287.522 304.82 285.637 302.935 285.637 300.609C285.637 298.284 287.522 296.398 289.847 296.398C292.173 296.398 294.058 298.284 294.058 300.609Z" fill="#DBDBDB"/>
<path d="M289.847 305.285C287.268 305.285 285.17 303.187 285.17 300.609C285.17 298.031 287.268 295.933 289.847 295.933C292.426 295.933 294.523 298.031 294.523 300.609C294.523 303.188 292.426 305.285 289.847 305.285ZM289.847 296.865C287.782 296.865 286.102 298.545 286.102 300.609C286.102 302.674 287.782 304.353 289.847 304.353C291.911 304.353 293.591 302.673 293.591 300.609C293.591 298.545 291.911 296.865 289.847 296.865Z" fill="white"/>
<path d="M330.281 276.73C330.281 279.056 328.395 280.941 326.07 280.941C323.745 280.941 321.859 279.056 321.859 276.73C321.859 274.405 323.745 272.52 326.07 272.52C328.395 272.52 330.281 274.405 330.281 276.73Z" fill="#DBDBDB"/>
<path d="M326.069 281.407C323.491 281.407 321.393 279.309 321.393 276.73C321.393 274.152 323.491 272.054 326.069 272.054C328.648 272.054 330.746 274.152 330.746 276.73C330.746 279.309 328.648 281.407 326.069 281.407ZM326.069 272.986C324.005 272.986 322.325 274.666 322.325 276.73C322.325 278.795 324.005 280.475 326.069 280.475C328.134 280.475 329.814 278.795 329.814 276.73C329.814 274.666 328.134 272.986 326.069 272.986Z" fill="white"/>
<path d="M347.181 238.447C347.181 240.772 345.296 242.658 342.971 242.658C340.645 242.658 338.76 240.772 338.76 238.447C338.76 236.122 340.645 234.236 342.971 234.236C345.296 234.236 347.181 236.122 347.181 238.447Z" fill="#DBDBDB"/>
<path d="M342.97 243.123C340.391 243.123 338.293 241.025 338.293 238.446C338.293 235.867 340.391 233.77 342.97 233.77C345.549 233.77 347.647 235.867 347.647 238.446C347.647 241.025 345.549 243.123 342.97 243.123ZM342.97 234.702C340.905 234.702 339.225 236.383 339.225 238.447C339.225 240.512 340.905 242.192 342.97 242.192C345.034 242.192 346.715 240.512 346.715 238.447C346.715 236.383 345.034 234.702 342.97 234.702Z" fill="white"/>
<path d="M170.384 437.929C242.619 437.929 301.176 432.666 301.176 426.173C301.176 419.68 242.619 414.417 170.384 414.417C98.1495 414.417 39.5918 419.68 39.5918 426.173C39.5918 432.666 98.1495 437.929 170.384 437.929Z" fill="#EBEBEB"/>
<path d="M298.073 288.197H255.344V408.073H298.073V288.197Z" fill="#AAE0A2"/>
<g opacity="0.1">
<path d="M298.071 288.197H288.287V408.073H298.071V288.197Z" fill="#303030"/>
</g>
<path d="M354.367 242.893H311.639V408.073H354.367V242.893Z" fill="#AAE0A2"/>
<g opacity="0.1">
<path d="M354.366 242.893H344.582V408.073H354.366V242.893Z" fill="#303030"/>
</g>
<path d="M241.894 315.195H199.166V408.073H241.894V315.195Z" fill="#AAE0A2"/>
<g opacity="0.1">
<path d="M241.895 315.195H232.111V408.073H241.895V315.195Z" fill="#303030"/>
</g>
<path d="M410.661 182.563H367.932V408.074H410.661V182.563Z" fill="#AAE0A2"/>
<g opacity="0.1">
<path d="M410.659 182.563H400.875V408.074H410.659V182.563Z" fill="#303030"/>
</g>
<path d="M184.029 372.067V348.952C184.029 348.952 339.661 335.703 402.548 163.289L408.8 164.897C408.8 164.897 367.042 341.623 184.029 372.067Z" fill="#37474F"/>
<path d="M414.636 170.698L394.973 164.187L411.265 147.945L414.636 170.698Z" fill="#37474F"/>
<path d="M36.3516 408.073L85.5136 407.847L134.676 407.765L233 407.608L331.324 407.764L380.486 407.846L429.648 408.073L380.486 408.302L331.324 408.384L233 408.539L134.676 408.383L85.5136 408.3L36.3516 408.073Z" fill="#263238"/>
<path d="M276.25 89.5025C279.016 105.368 269.705 122.565 249.372 128.95C230.878 134.759 209.941 125.133 205.341 112.935C200.46 99.9921 208.808 87.6441 219.183 86.5368C229.203 85.4669 237.181 90.9927 244.601 87.9861C248.15 86.5471 252.137 81.436 257.291 79.0827C263.041 76.4573 274.474 79.3092 276.25 89.5025Z" fill="#263238"/>
<path d="M212.918 123.761C218.043 127.886 224.357 130.454 230.862 131.553C237.397 132.633 244.165 131.994 250.48 130.057C256.791 128.11 262.734 124.665 267.181 119.731C271.641 114.83 274.63 108.684 275.914 102.249C274.319 108.607 271.212 114.588 266.74 119.322C264.496 121.676 261.945 123.733 259.155 125.397C256.367 127.061 253.363 128.368 250.247 129.298C247.134 130.226 243.935 130.93 240.693 131.199C237.455 131.501 234.182 131.381 230.961 130.923C227.738 130.463 224.564 129.622 221.53 128.415C218.491 127.225 215.56 125.708 212.918 123.761Z" fill="#263238"/>
<path d="M216.395 86.2585C218.328 85.6173 220.365 85.388 222.38 85.3824C224.398 85.388 226.41 85.6256 228.367 86.101C230.345 86.5875 232.336 87.018 234.353 87.3797C236.368 87.7282 238.441 87.9612 240.513 87.8308C241.545 87.7525 242.568 87.663 243.606 87.3927C244.633 87.1262 245.589 86.6695 246.491 86.155C248.29 85.1075 249.865 83.7961 251.48 82.5771C253.092 81.358 254.786 80.2471 256.647 79.4716C258.496 78.6683 260.507 78.2675 262.541 78.1743C260.505 78.0932 258.444 78.4176 256.509 79.1193C254.572 79.8286 252.801 80.9209 251.128 82.0915C249.445 83.2509 247.868 84.5455 246.134 85.5268C245.266 86.0096 244.362 86.4253 243.414 86.6592C242.479 86.895 241.463 86.9752 240.468 87.0358C236.467 87.2893 232.481 86.2762 228.499 85.5008C226.484 85.0897 224.42 84.9145 222.371 84.9919C220.328 85.1298 218.272 85.4467 216.395 86.2585Z" fill="#263238"/>
<path d="M72.4111 118.877C74.3823 114.315 135.381 112.081 187.241 111.422C187.261 111.423 187.281 111.423 187.291 111.414C210.693 111.117 233.174 108.969 247.338 109.709C256.341 110.179 261.165 113.456 262.217 114.719C265.689 118.893 272.062 132.285 248.088 149.206C229.955 162.003 209.137 173.444 193.676 193.05C178.225 212.646 169.536 237.297 170.642 254.106C171.749 270.904 183.947 286.972 182.735 285.229C182.361 284.693 177.828 284.963 171.485 281.287C163.708 276.78 154.667 267.232 148.553 264.431C136.05 258.701 119.151 259.669 105.958 246.288C92.0595 232.194 88.6577 207.358 82.0219 187.692C73.962 163.807 55.4096 158.231 72.4111 118.877Z" fill="#532D97"/>
<g opacity="0.2">
<path d="M72.4111 118.877C74.3823 114.315 135.381 112.081 187.241 111.422C187.261 111.423 187.281 111.423 187.291 111.414C210.693 111.117 233.174 108.969 247.338 109.709C256.341 110.179 261.165 113.456 262.217 114.719C265.689 118.893 272.062 132.285 248.088 149.206C229.955 162.003 209.137 173.444 193.676 193.05C178.225 212.646 169.536 237.297 170.642 254.106C171.749 270.904 183.947 286.972 182.735 285.229C182.361 284.693 177.828 284.963 171.485 281.287C163.708 276.78 154.667 267.232 148.553 264.431C136.05 258.701 119.151 259.669 105.958 246.288C92.0595 232.194 88.6577 207.358 82.0219 187.692C73.962 163.807 55.4096 158.231 72.4111 118.877Z" fill="black"/>
</g>
<path opacity="0.1" d="M84.7726 196.596C83.8919 193.553 82.9944 190.568 82.0204 187.691C79.9169 181.471 77.1097 176.497 74.4004 171.838C74.4004 171.838 129.084 158.238 145.03 164.865C153.751 168.489 128.161 170.769 84.7726 196.596Z" fill="black"/>
<path opacity="0.1" d="M158.239 271.27C154.674 268.336 151.311 265.696 148.555 264.433C145.469 263.027 142.118 262.017 138.627 261.101C142.136 238.386 146.107 222.699 155.914 212.295C162.204 205.623 146.377 243.923 158.239 271.27Z" fill="black"/>
<path opacity="0.1" d="M89.5512 213.56C88.7329 210.817 87.9594 208.048 87.1914 205.285C104.828 198.162 119.757 187.878 119.928 190.278C120.114 192.897 101.108 205.936 89.5512 213.56Z" fill="black"/>
<path d="M56.1916 168.65C56.1916 168.65 51.1448 146.248 66.5125 119.26C68.0084 116.633 94.028 105.521 111.418 104.062C128.808 102.602 142.038 107.754 162.705 110.774C183.372 113.794 238.305 107.121 251.591 109.957C260.725 111.907 262.199 114.735 262.199 114.735C262.199 114.735 251.53 111.36 245.112 111.465C219.733 111.88 174.685 125.325 162.865 125.148C148.435 124.931 132.377 123.634 120.669 126.44C107.556 129.583 63.8535 160.444 56.1916 168.65Z" fill="#532D97"/>
<path d="M199.002 337.062C197.609 335.525 175.151 283.923 175.546 281.416C175.679 280.46 223.823 265.679 223.823 265.679L237.014 299.169L206.564 305.754C206.564 305.754 206.325 329.35 205.602 332.063C204.877 334.755 200.386 338.605 199.002 337.062Z" fill="#EB9481"/>
<path d="M199.003 337.065C198.39 336.387 193.714 326.049 188.689 314.453C188.362 313.69 188.03 312.919 187.698 312.148C186.837 310.171 185.984 308.167 185.141 306.181C184.818 305.406 184.495 304.629 184.168 303.867L184.149 303.832C183.831 303.065 183.512 302.298 183.194 301.553C182.701 300.393 182.229 299.256 181.773 298.144C181.477 297.419 181.186 296.704 180.895 296.01L180.881 295.984C180.598 295.286 180.322 294.596 180.049 293.936L180.035 293.91C179.624 292.907 179.235 291.945 178.878 291.022C178.628 290.406 178.383 289.797 178.16 289.211C177.711 288.073 177.312 287.029 176.972 286.097C176.791 285.631 176.633 285.187 176.492 284.777C176.129 283.758 175.856 282.933 175.704 282.355C175.575 281.883 175.524 281.558 175.546 281.414C175.591 281.082 181.229 278.777 188.602 275.881C189.645 281.362 191.862 291.253 196.039 306.03C202.906 330.326 206.022 320.79 206.381 315.986C206.389 315.937 206.388 315.894 206.395 315.846C206.393 316.133 206.388 316.434 206.377 316.726C206.378 316.77 206.383 316.822 206.376 316.869C206.363 317.405 206.349 317.94 206.336 318.476C206.324 319.055 206.307 319.648 206.286 320.231C206.261 321.202 206.237 322.173 206.194 323.11C206.173 324.047 206.133 324.948 206.092 325.806C206.065 326.316 206.042 326.813 206.027 327.283C206.02 327.518 205.999 327.749 205.987 327.976C205.972 328.281 205.958 328.585 205.935 328.873C205.898 329.51 205.855 330.072 205.805 330.56C205.799 330.674 205.793 330.787 205.775 330.896C205.721 331.42 205.657 331.817 205.598 332.058C204.88 334.753 200.389 338.599 199.003 337.065Z" fill="#B68CFB"/>
<path d="M217.026 308.622L203.91 269.75C203.91 269.75 253.644 250.484 254.495 247.216C254.828 245.938 222.256 198.279 216.199 179.886C212.165 167.637 222.12 154.102 222.12 154.102L257.977 163.726C257.977 163.726 256.081 173.964 257.317 176.016C268.652 194.829 300.428 246.781 297.448 264.837C294.597 282.115 217.026 308.622 217.026 308.622Z" fill="#B68CFB"/>
<path d="M224.792 303.598C223.375 299.091 217.334 280.852 215.629 276.333C215.14 275.034 214.663 273.731 214.152 272.441C213.648 271.171 213.215 269.814 212.571 268.609C212.532 268.536 212.42 268.575 212.435 268.657C212.646 269.854 213.082 271.04 213.424 272.207C213.771 273.389 214.147 274.565 214.515 275.741C215.24 278.063 215.997 280.374 216.759 282.684C218.249 287.199 223.165 301.366 224.404 303.734C224.508 303.934 224.865 303.83 224.792 303.598Z" fill="#532D97"/>
<path d="M259.979 248.212C255.693 243.035 225.187 189.492 223.598 186.362C222.116 183.444 220.62 180.514 219.941 177.286C218.473 170.305 220.671 163.03 223.701 156.772C223.794 156.579 223.513 156.42 223.407 156.61C220.409 162.051 218.309 168.244 218.717 174.528C218.929 177.775 219.919 180.79 221.297 183.718C222.775 186.858 224.404 189.932 225.968 193.029C229.198 199.422 256.876 245.454 259.159 248.363C253.819 251.241 248.473 254.097 243.037 256.789C237.427 259.565 231.743 262.19 226.031 264.748C222.801 266.194 219.559 267.607 216.297 268.979C216.157 269.038 216.22 269.264 216.367 269.209C228.081 264.824 239.503 259.686 250.581 253.879C253.718 252.234 256.849 250.566 259.917 248.796C260.145 248.665 260.124 248.389 259.979 248.212Z" fill="#532D97"/>
<path d="M249.673 239.02C240.446 224.322 220.771 193.771 216.195 179.885C212.169 167.638 222.123 154.105 222.123 154.105L235.926 157.806L249.673 239.02Z" fill="#532D97"/>
<path d="M161.189 371.667C159.245 370.943 115.54 335.487 114.736 333.081C114.414 332.171 119.21 325.502 125.234 317.61C125.297 317.528 125.362 317.447 125.425 317.365C126.663 315.736 150.601 290.129 150.601 290.129L178.723 313.955L153.876 339.925L153.477 340.394C153.477 340.394 164.136 361.448 164.742 364.188C165.342 366.913 163.128 372.398 161.189 371.667Z" fill="#EB9481"/>
<path d="M122.257 321.543C117.712 327.627 114.467 332.324 114.738 333.082C115.544 335.491 159.244 370.945 161.192 371.668C163.134 372.398 165.343 366.915 164.744 364.185C164.374 362.519 160.274 354.05 157.124 347.679C159.122 352.168 160.655 361.253 143.108 343.808C132.28 333.044 125.799 325.763 122.257 321.543Z" fill="#B68CFB"/>
<path d="M257.978 163.727C257.978 163.727 249.65 183.069 242.852 187.45C242.852 187.45 218.138 248.21 210.291 264.176C199.933 285.253 164.07 333.79 164.07 333.79L129.865 307.792C129.865 307.792 174.875 252.06 175.451 250.659C178.717 242.712 204.6 184.168 204.505 182.621C203.538 166.8 214.776 152.13 214.776 152.13L257.978 163.727Z" fill="#B68CFB"/>
<path d="M242.662 187.49C242.274 187.863 242.118 188.458 241.903 188.943C241.689 189.429 241.481 189.917 241.276 190.407C240.866 191.388 240.449 192.366 240.046 193.35C239.212 195.391 238.366 197.428 237.517 199.463C236.667 201.502 235.828 203.545 235.015 205.6C234.227 207.594 233.405 209.599 232.765 211.646C232.74 211.727 232.859 211.768 232.899 211.699C234.001 209.805 234.927 207.787 235.845 205.799C236.768 203.797 237.637 201.772 238.478 199.735C239.321 197.695 240.146 195.647 240.959 193.596C241.338 192.641 241.697 191.677 242.058 190.715C242.245 190.218 242.426 189.72 242.602 189.218C242.777 188.717 243.066 188.173 243.033 187.634C243.021 187.444 242.797 187.361 242.662 187.49Z" fill="#532D97"/>
<path d="M257.621 166.611C254.874 171.127 252.244 175.699 249.242 180.054C248.61 180.971 247.949 182.292 246.937 182.842C246.541 183.057 245.971 183.152 245.575 182.877C244.997 182.477 245.282 181.678 245.528 181.169C246.109 179.965 246.832 178.819 247.471 177.646C248.15 176.401 248.829 175.156 249.508 173.912C251.013 171.152 252.361 168.308 253.882 165.558C253.928 165.476 253.801 165.406 253.755 165.487C252.185 168.212 250.447 170.838 248.861 173.554C248.049 174.944 247.23 176.33 246.425 177.724C246.042 178.388 245.664 179.055 245.284 179.721C244.953 180.299 244.588 180.876 244.405 181.523C244.116 182.55 244.537 183.617 245.626 183.897C246.699 184.172 247.689 183.58 248.364 182.786C249.25 181.745 249.971 180.53 250.72 179.389C251.534 178.15 252.332 176.901 253.083 175.625C254.786 172.728 256.41 169.761 257.692 166.649C257.71 166.604 257.648 166.566 257.621 166.611Z" fill="#532D97"/>
<path d="M245.411 183.267C244.733 183.833 242.142 187.239 241.982 187.427C241.912 187.509 242.353 187.849 242.431 187.771C242.599 187.605 245.459 184.084 245.737 183.364C245.761 183.301 245.474 183.215 245.411 183.267Z" fill="#532D97"/>
<path d="M248.208 186.265C245.905 186.326 243.557 186.902 241.309 187.372C240.183 187.608 239.065 187.859 237.952 188.153C236.778 188.462 235.54 188.664 234.416 189.136C234.344 189.167 234.352 189.279 234.44 189.279C235.649 189.282 236.866 188.991 238.059 188.818C239.159 188.66 240.25 188.475 241.34 188.265C243.64 187.819 246.07 187.443 248.26 186.593C248.43 186.527 248.406 186.259 248.208 186.265Z" fill="#532D97"/>
<path d="M166.846 325.189C163.123 322.281 147.802 310.684 143.836 307.928C142.697 307.137 141.565 306.333 140.412 305.561C139.277 304.8 138.151 303.929 136.937 303.302C136.864 303.264 136.794 303.359 136.851 303.418C137.704 304.286 138.736 305.015 139.679 305.781C140.636 306.558 141.612 307.312 142.582 308.073C144.497 309.574 146.431 311.049 148.368 312.519C152.156 315.393 164.239 324.274 166.602 325.522C166.802 325.627 167.038 325.339 166.846 325.189Z" fill="#532D97"/>
<path d="M219.139 155.398C216.249 159.253 214.096 163.556 212.758 168.179C212.102 170.448 211.664 172.778 211.415 175.125C211.136 177.763 211.31 180.472 210.49 183.026C209.645 185.653 208.362 188.173 207.257 190.699C206.117 193.309 204.97 195.916 203.837 198.529C201.59 203.711 199.346 208.894 197.093 214.074C192.569 224.478 188.043 234.881 183.53 245.288C182.445 247.791 181.382 250.307 180.13 252.732C178.909 255.095 177.457 257.316 175.876 259.454C172.553 263.953 168.992 268.286 165.555 272.699C158.637 281.583 151.671 290.433 144.909 299.435C144.056 300.572 143.203 301.71 142.35 302.848C142.294 302.922 142.397 303.026 142.458 302.95C149.604 294.203 156.586 285.332 163.568 276.453C167.063 272.01 170.551 267.559 174.023 263.099C175.59 261.086 177.144 259.056 178.534 256.916C180.006 254.652 181.231 252.256 182.347 249.801C187.014 239.529 191.369 229.103 195.862 218.754C200.38 208.348 204.912 197.947 209.41 187.532C210.422 185.188 211.493 182.865 211.765 180.298C212.038 177.712 212.041 175.133 212.491 172.562C213.338 167.711 215.04 163.006 217.44 158.705C218.039 157.633 218.687 156.59 219.375 155.573C219.471 155.434 219.24 155.263 219.139 155.398Z" fill="#532D97"/>
<path d="M140.806 187.459L126.045 228.822L194.32 253.187L209.081 211.824L140.806 187.459Z" fill="#AAE0A2"/>
<path d="M140.807 187.459L133.855 206.938L202.13 231.304L209.082 211.824L140.807 187.459Z" fill="#37474F"/>
<path d="M134.489 200.104L205.992 225.621L212.882 206.316L141.379 180.798L134.489 200.104Z" fill="#AAE0A2"/>
<path d="M165.996 177.169L162.066 188.181L167.246 190.029L169.48 183.765L189.23 190.812L186.995 197.076L192.174 198.925L196.103 187.912L165.996 177.169Z" fill="#51CA40"/>
<path d="M189.876 225.064L194.537 226.728L197.828 217.507L193.167 215.843L189.876 225.064Z" fill="#51CA40"/>
<path d="M142.652 208.219L147.312 209.882L150.603 200.661L145.943 198.998L142.652 208.219Z" fill="#51CA40"/>
<path d="M256.378 125.171C268.147 144.305 283.053 161.832 289.927 161.962C299.172 162.137 318.835 152.608 328.584 146.717C331.448 144.987 317.53 122.965 314.465 124.812C310.762 127.045 291.787 138.897 291.366 138.999C290.462 139.219 269.11 124.659 264.093 121.057C255.714 115.042 251.155 116.679 256.378 125.171Z" fill="#EB9481"/>
<path d="M342.763 137.132C339.226 141.429 328.553 147.389 325.426 147.837C322.299 148.284 311.564 130.478 312.735 127.456C313.907 124.433 326.937 110.886 332.496 109.719C338.054 108.552 346.427 132.679 342.763 137.132Z" fill="#EB9481"/>
<path d="M324.305 113.23C323.88 116.148 327.562 114.98 327.562 114.98C327.562 114.98 322.667 117.94 323.391 121.119C324.099 124.18 328.497 122.611 328.814 122.503C328.557 122.662 324.129 125.499 325.186 128.619C326.288 131.859 330.434 129.525 330.701 129.374C330.505 129.6 327.962 132.636 329.304 134.824C331.613 138.58 338.328 130.994 341.897 130.927C341.897 130.927 342.702 136.963 342.761 137.133C342.761 137.133 349.298 130.046 348.939 125.237C348.75 122.702 346.349 122.378 346.349 122.378C346.349 122.378 348.71 120.326 347.955 117.845C347.564 116.572 345.181 116.065 345.181 116.065C345.181 116.065 347.002 114.342 346.193 112.177C345.553 110.447 343.261 110.208 343.261 110.208C343.261 110.208 344.242 107.743 343.014 106.188C340.543 103.044 325.221 106.982 324.305 113.23Z" fill="#EB9481"/>
<path d="M342.905 110.113C342.957 110.104 342.954 110.029 342.9 110.03C337.545 110.096 331.681 111.809 327.358 115.022C327.216 115.127 327.325 115.403 327.504 115.318C332.594 112.858 337.307 111.081 342.905 110.113Z" fill="#263238"/>
<path d="M345.249 116.013C345.31 116.003 345.294 115.902 345.228 115.903C339.71 116.001 333.159 118.112 328.611 122.403C328.455 122.55 328.463 122.838 328.655 122.683C331.895 120.058 340.206 116.858 345.249 116.013Z" fill="#263238"/>
<path d="M330.487 129.782C335.007 125.837 340.337 123.737 346.121 122.367C346.197 122.349 346.163 122.245 346.096 122.242C343.084 122.141 339.487 123.399 336.772 124.614C334.172 125.778 332.058 127.35 330.348 129.624C330.283 129.712 330.391 129.866 330.487 129.782Z" fill="#263238"/>
<path d="M327.563 114.979C326.677 115.641 325.842 116.369 325.1 117.172C324.376 117.973 323.707 118.896 323.512 119.896C323.42 120.39 323.483 120.888 323.735 121.302C323.995 121.721 324.353 122.1 324.778 122.329C325.624 122.808 326.747 122.726 327.648 122.391L329.915 121.548L328.079 123.128C327.277 123.818 326.528 124.658 325.999 125.565C325.468 126.469 325.179 127.512 325.484 128.412C325.785 129.359 326.551 129.972 327.529 129.926C328.497 129.921 329.559 129.495 330.441 128.972L332.903 127.508L331.062 129.687C330.564 130.277 330.105 130.973 329.772 131.678C329.444 132.386 329.23 133.156 329.347 133.847C329.459 134.524 329.945 135.149 330.581 135.318C331.247 135.505 332.064 135.317 332.819 135.063C334.355 134.526 335.797 133.652 337.269 132.856C338.003 132.452 338.74 132.044 339.498 131.673C340.253 131.318 341.047 130.936 341.899 130.925C341.059 131.024 340.332 131.479 339.608 131.878C338.889 132.302 338.189 132.76 337.488 133.22C336.085 134.139 334.662 135.047 333.061 135.711C332.257 136.011 331.375 136.308 330.386 136.101C329.367 135.881 328.648 134.962 328.483 134.002C328.31 133.023 328.585 132.103 328.938 131.296C329.311 130.481 329.772 129.756 330.342 129.057L330.964 129.773C329.928 130.4 328.834 130.888 327.537 130.935C326.898 130.955 326.19 130.769 325.646 130.335C325.099 129.903 324.758 129.324 324.562 128.704C324.159 127.415 324.603 126.098 325.211 125.099C325.84 124.072 326.626 123.218 327.541 122.453L327.972 123.19C326.811 123.577 325.511 123.586 324.426 122.926C323.895 122.596 323.496 122.122 323.204 121.589C322.903 121.039 322.854 120.366 322.997 119.784C323.301 118.605 324.102 117.737 324.895 116.966C325.706 116.199 326.607 115.54 327.563 114.979Z" fill="#263238"/>
<path d="M314.549 124.758C314.549 124.758 321.168 102.09 328.76 109.018C331.016 111.077 337.824 122.224 335.612 123.635C332.755 125.456 329.045 121.333 327.127 118.375C327.127 118.375 325.961 126.403 320.131 127.257C316.472 127.793 314.549 124.758 314.549 124.758Z" fill="#EB9481"/>
<path d="M328.092 108.481C329.1 109.142 329.911 110.061 330.681 110.982C331.451 111.91 332.131 112.909 332.768 113.932C334.021 115.996 335.197 118.075 336.092 120.366C336.308 120.944 336.503 121.542 336.559 122.229C336.585 122.569 336.563 122.954 336.425 123.318C336.36 123.502 336.284 123.653 336.133 123.848C335.993 124.01 335.844 124.146 335.682 124.243C335.04 124.665 334.291 124.736 333.615 124.653C332.939 124.545 332.326 124.29 331.763 123.98C330.642 123.343 329.738 122.471 328.938 121.545C328.124 120.624 327.436 119.62 326.776 118.605L327.54 118.428C327.374 119.365 327.114 120.231 326.787 121.094C326.46 121.952 326.051 122.779 325.556 123.553C325.056 124.323 324.445 125.024 323.745 125.611C323.048 126.203 322.24 126.656 321.387 126.939C322.194 126.543 322.926 126.023 323.547 125.395C324.172 124.771 324.673 124.04 325.104 123.278C325.533 122.514 325.877 121.702 326.143 120.866C326.406 120.035 326.612 119.16 326.71 118.322L326.836 117.256L327.475 118.145C328.162 119.103 328.846 120.065 329.645 120.911C330.431 121.761 331.275 122.576 332.251 123.107C333.191 123.632 334.363 123.911 335.136 123.406C335.853 123.022 335.57 121.739 335.198 120.683C334.821 119.587 334.319 118.509 333.819 117.433C333.314 116.357 332.796 115.287 332.225 114.247C331.052 112.201 329.864 110.098 328.092 108.481Z" fill="#263238"/>
<path d="M300.77 132.741L311.851 157.585C311.851 157.585 293.895 163.911 288.044 161.845C282.194 159.779 265.659 142.323 257.802 128.804C249.944 115.286 254.571 113.51 267.565 122.655C280.559 131.799 290.846 138.217 291.246 138.046C291.645 137.875 300.77 132.741 300.77 132.741Z" fill="#E1D255"/>
<path d="M297.135 136.407C297.101 136.329 296.97 136.382 296.995 136.463C299.29 143.83 302.12 151.055 305.203 158.124C305.237 158.202 305.368 158.149 305.342 158.068C302.968 150.73 300.297 143.445 297.135 136.407Z" fill="#263238"/>
<path d="M278.125 154.19C271.135 147.386 262.747 137.311 257.798 128.802C251.433 117.86 253.26 114.608 261.088 118.625L278.125 154.19Z" fill="#C7C7C7"/>
<path d="M259.74 157.145L257.909 171.695C257.909 171.695 227.457 168.65 211.754 155.245C211.754 155.245 228.515 121.626 245.544 114.409C254.061 110.8 260.553 114.301 262.859 120.57C263.444 122.156 269.986 139.925 268.393 147.051C266.975 153.333 259.74 157.145 259.74 157.145Z" fill="#E1D255"/>
<path d="M259.105 123.593L259.051 123.332L259.042 123.265V123.228C259.03 123.206 259.095 123.183 259.101 123.211C259.133 123.254 259.148 123.293 259.167 123.335C259.238 123.5 259.296 123.668 259.353 123.837C259.467 124.174 259.56 124.516 259.656 124.859C259.844 125.545 260.011 126.236 260.167 126.929C260.482 128.316 260.698 129.723 260.892 131.132C261.287 133.953 261.4 136.815 261.272 139.67C261.156 142.527 260.679 145.387 259.751 148.116C258.844 150.844 257.316 153.419 255.172 155.358L255.237 155.254C254.382 157.814 253.482 160.357 252.582 162.901L251.202 166.706C250.721 167.966 250.262 169.238 249.672 170.453C250.214 169.218 250.616 167.928 251.053 166.654L252.317 162.812L254.762 155.102L254.779 155.046L254.827 154.998C256.804 153.021 258.085 150.483 258.956 147.853C259.815 145.203 260.187 142.413 260.39 139.623C260.573 136.825 260.459 134.009 260.254 131.201C260.146 129.796 259.963 128.399 259.778 126.999C259.682 126.3 259.573 125.602 259.445 124.908L259.236 123.869C259.199 123.697 259.16 123.524 259.11 123.357C259.097 123.317 259.083 123.271 259.065 123.24C259.101 123.21 259.067 123.3 259.08 123.33L259.105 123.593Z" fill="#263238"/>
<path d="M267.862 136.251C267.829 136.098 267.789 135.946 267.755 135.792C267.767 135.198 267.756 134.602 267.68 134.016C267.586 133.292 267.406 132.593 267.177 131.902C267.162 131.857 267.097 131.878 267.107 131.923C267.328 132.905 267.482 133.919 267.555 134.933C267.06 132.873 266.449 130.837 265.645 128.877C265.623 128.821 265.54 128.844 265.555 128.904C266.172 131.362 266.816 133.813 267.341 136.294C267.865 138.764 268.257 141.26 268.7 143.745C268.717 143.839 268.867 143.811 268.864 143.719C268.781 141.2 268.392 138.71 267.862 136.251Z" fill="#263238"/>
<path d="M258.87 130.688C258.87 131.181 258.47 131.581 257.977 131.581C257.484 131.581 257.084 131.181 257.084 130.688C257.084 130.195 257.484 129.795 257.977 129.795C258.47 129.795 258.87 130.195 258.87 130.688Z" fill="#263238"/>
<path d="M258.19 140.093C258.683 140.093 259.083 139.694 259.083 139.2C259.083 138.707 258.683 138.308 258.19 138.308C257.697 138.308 257.297 138.707 257.297 139.2C257.297 139.694 257.697 140.093 258.19 140.093Z" fill="#263238"/>
<path d="M253.211 154.997C253.704 154.997 254.104 154.597 254.104 154.104C254.104 153.611 253.704 153.211 253.211 153.211C252.718 153.211 252.318 153.611 252.318 154.104C252.318 154.597 252.718 154.997 253.211 154.997Z" fill="#263238"/>
<path d="M250.565 162.858C251.058 162.858 251.458 162.458 251.458 161.965C251.458 161.472 251.058 161.072 250.565 161.072C250.072 161.072 249.672 161.472 249.672 161.965C249.672 162.458 250.072 162.858 250.565 162.858Z" fill="#263238"/>
<path d="M257.084 147.727C257.577 147.727 257.977 147.327 257.977 146.834C257.977 146.341 257.577 145.941 257.084 145.941C256.591 145.941 256.191 146.341 256.191 146.834C256.191 147.327 256.591 147.727 257.084 147.727Z" fill="#263238"/>
<path d="M241.182 112.741C219.027 112.833 201.66 117.538 197.639 122.573C194.314 126.736 184.006 144.936 179.653 156.036C178.431 159.151 203.278 170.284 204.166 166.818C205.538 161.452 216.859 135.46 216.976 135.041C217.226 134.145 239.472 124.981 245.158 122.881C255.584 119.027 252.926 112.693 241.182 112.741Z" fill="#EB9481"/>
<path d="M187.987 195.922C185.229 195.642 184.649 192.83 184.649 192.83C184.649 192.83 182.692 193.863 180.652 193.263C178.315 192.576 178.368 188.611 178.368 188.611C178.368 188.611 176.17 189.246 174.079 188.396C171.908 187.514 171.391 183.505 171.391 183.505C171.391 183.505 169.018 182.973 167.739 180.941C165.55 177.468 168.277 171.821 169.975 168.214C171.672 164.607 179.865 155.965 181.259 154.16L204.504 164.854C204.504 164.854 201.495 183.195 198.897 187.152C196.708 190.486 191.083 196.237 187.987 195.922Z" fill="#EB9481"/>
<path d="M185.096 192.841C188.274 189.854 190.395 186.091 192.726 182.454C192.777 182.373 192.65 182.293 192.599 182.375C190.323 186.018 187.354 189.163 184.937 192.708C184.871 192.806 185.012 192.921 185.096 192.841Z" fill="#263238"/>
<path d="M178.706 188.677C179.404 187.98 179.871 187.054 180.358 186.205C180.882 185.291 181.389 184.368 181.882 183.437C182.869 181.573 183.815 179.687 184.703 177.775C184.743 177.69 184.623 177.609 184.576 177.695C183.589 179.551 182.573 181.392 181.509 183.204C180.976 184.111 180.435 185.014 179.889 185.913C179.381 186.749 178.775 187.589 178.462 188.523C178.417 188.661 178.601 188.782 178.706 188.677Z" fill="#263238"/>
<path d="M171.434 183.428C172.066 182.846 172.421 181.88 172.802 181.123C173.234 180.264 173.67 179.408 174.112 178.554C174.996 176.847 175.879 175.14 176.821 173.466C176.868 173.382 176.742 173.302 176.695 173.386C175.728 175.083 174.74 176.768 173.789 178.473C173.322 179.311 172.859 180.151 172.402 180.993C172.012 181.71 171.445 182.561 171.346 183.387C171.342 183.433 171.404 183.457 171.434 183.428Z" fill="#263238"/>
<path d="M209.963 154.608L184.924 142.261C184.924 142.261 193.232 123.539 198.27 119.918C203.308 116.296 224.774 112.46 240.41 112.613C256.301 112.768 256.947 119.041 242.019 124.482C227.091 129.923 217.493 134.857 217.405 135.282C217.317 135.707 209.963 154.608 209.963 154.608Z" fill="#E1D255"/>
<path d="M211.348 151.722C212.438 149.109 217.532 135.4 217.706 135.29C218.058 135.068 223.772 132.284 225.464 131.461C226.904 130.76 228.358 130.086 229.813 129.415C231.043 129.155 232.276 128.899 233.479 128.531C233.569 128.504 233.539 128.379 233.447 128.391C232.586 128.499 231.742 128.687 230.905 128.905C232.499 128.175 234.096 127.451 235.689 126.719C235.72 126.706 235.701 126.651 235.668 126.663C232.065 127.922 217.283 134.48 217.257 134.7C217.219 135.01 211.193 151.156 211.162 151.52C211.154 151.609 211.316 151.799 211.348 151.722Z" fill="#263238"/>
<path d="M209.96 147.822C210.039 147.854 210.096 147.725 210.022 147.684C203.254 143.98 196.199 140.748 189.071 137.805C188.992 137.772 188.934 137.902 189.01 137.943C195.815 141.57 202.798 144.955 209.96 147.822Z" fill="#263238"/>
<path d="M252.918 114.216C252.899 115.164 255.694 122.053 259.83 122.9C261.177 123.174 263 115.885 263 115.885L263.257 115.378L266.855 108.274L259.45 100.348L258.362 99.2715C258.362 99.2715 257.505 101.28 256.464 103.792C256.415 103.908 256.366 104.025 256.316 104.15C256.254 104.29 256.192 104.423 256.14 104.556C255.98 104.929 255.818 105.311 255.664 105.695C255.545 105.987 255.43 106.269 255.317 106.58C255.196 106.889 255.085 107.191 254.963 107.5C253.834 110.568 252.931 113.815 252.918 114.216Z" fill="#EB9481"/>
<path d="M256.465 103.792C257.1 110.335 261.267 113.996 263.257 115.378L266.856 108.274L259.45 100.348L258.362 99.2715C258.362 99.2715 257.506 101.28 256.465 103.792Z" fill="#263238"/>
<path d="M279.546 94.3172C282.345 108.011 274.46 111.234 271.506 111.834C268.825 112.379 259.627 113.895 255.426 100.563C251.227 87.2321 256.709 81.6019 262.774 80.0306C268.841 78.4602 276.746 80.6233 279.546 94.3172Z" fill="#EB9481"/>
<path d="M274.949 101.947C274.949 101.947 274.531 103.015 273.716 103.58C273.416 103.79 273.07 103.933 272.669 103.935C271.843 103.942 271.632 103.239 271.61 102.596C271.589 102.066 271.704 101.575 271.704 101.575C271.704 101.575 273.114 102.325 274.949 101.947Z" fill="#263238"/>
<path d="M273.716 103.581C273.416 103.791 273.07 103.935 272.668 103.936C271.842 103.943 271.632 103.24 271.609 102.597C272.457 102.457 273.428 102.797 273.716 103.581Z" fill="#FF9BBC"/>
<path d="M276.249 90.968C275.92 90.9969 275.612 90.968 275.284 90.9624C274.914 90.9559 274.617 90.9895 274.3 90.7695C274.13 90.6512 274.081 90.351 274.179 90.1749C274.41 89.7648 274.866 89.6595 275.312 89.6483C275.795 89.6362 276.172 89.7508 276.554 90.0472C276.924 90.3343 276.683 90.9308 276.249 90.968Z" fill="#263238"/>
<path d="M267.469 94.0808C267.799 94.0724 268.102 94.009 268.428 93.9662C268.795 93.9186 269.092 93.9177 269.383 93.6633C269.539 93.5263 269.554 93.2224 269.436 93.0584C269.16 92.6763 268.696 92.6241 268.251 92.6632C267.769 92.7061 267.408 92.8627 267.062 93.2001C266.727 93.5272 267.034 94.092 267.469 94.0808Z" fill="#263238"/>
<path d="M270.103 96.7337C270.088 96.7001 270.04 96.7943 270.051 96.8315C270.293 97.7523 270.416 98.8474 269.647 99.3479C269.623 99.3638 269.637 99.4094 269.667 99.3973C270.657 99.0189 270.479 97.5669 270.103 96.7337Z" fill="#263238"/>
<path d="M269.053 95.9541C267.535 96.1834 268.105 99.2021 269.511 98.9896C270.895 98.7808 270.325 95.7621 269.053 95.9541Z" fill="#263238"/>
<path d="M268.49 96.2265C268.259 96.4464 268.058 96.7978 267.746 96.8891C267.385 96.9954 267.048 96.7316 266.749 96.4725C266.719 96.4455 266.697 96.4772 266.705 96.5173C266.805 97.0979 267.14 97.6487 267.776 97.618C268.357 97.59 268.666 97.001 268.701 96.3924C268.707 96.2787 268.583 96.137 268.49 96.2265Z" fill="#263238"/>
<path d="M275.18 95.4356C275.181 95.3983 275.261 95.4664 275.267 95.5055C275.407 96.4478 275.726 97.5028 276.629 97.6603C276.657 97.665 276.662 97.7125 276.631 97.7134C275.57 97.7554 275.161 96.3508 275.18 95.4356Z" fill="#263238"/>
<path d="M275.839 94.3068C277.325 93.92 277.989 96.9192 276.613 97.278C275.259 97.6303 274.594 94.6312 275.839 94.3068Z" fill="#263238"/>
<path d="M276.508 94.3655C276.78 94.4717 277.079 94.7094 277.366 94.6646C277.699 94.6134 277.87 94.235 278.011 93.878C278.025 93.8407 278.054 93.8613 278.065 93.9004C278.207 94.4699 278.15 95.1092 277.624 95.3413C277.144 95.5528 276.666 95.1428 276.403 94.6022C276.353 94.5015 276.398 94.3226 276.508 94.3655Z" fill="#263238"/>
<path d="M271.276 104.335C271.534 104.523 271.802 104.796 272.148 104.776C272.48 104.757 272.843 104.554 273.126 104.395C273.154 104.379 273.189 104.406 273.174 104.437C272.981 104.834 272.498 105.133 272.051 105.119C271.614 105.105 271.35 104.767 271.192 104.391C271.17 104.339 271.239 104.308 271.276 104.335Z" fill="#263238"/>
<path d="M274.763 99.9576C274.763 99.9576 275.235 101.312 275.368 101.97C275.38 102.031 275.227 102.093 275.006 102.151C274.996 102.156 274.991 102.162 274.981 102.156C273.857 102.571 272.607 102.405 271.711 101.6C271.653 101.545 271.723 101.46 271.791 101.489C272.785 101.951 273.776 101.922 274.809 101.733C274.818 101.542 273.921 99.4394 274.024 99.4115C274.377 99.308 275.134 99.4105 275.584 99.4497C274.681 96.5987 273.328 93.9164 272.472 91.0645C272.443 90.962 272.587 90.9014 272.635 90.9871C274.252 93.6983 275.363 96.9557 276.371 99.8756C276.5 100.238 275.048 100.016 274.763 99.9576Z" fill="#263238"/>
<path d="M256.647 102.249C258.952 101.824 258.213 96.951 258.213 96.951C258.213 96.951 262.806 95.746 262.567 88.7448C262.567 88.7448 263.284 91.8428 261.986 94.7413C261.986 94.7413 269.849 91.7346 271.458 84.0587C271.458 84.0587 271.015 87.8687 270.066 89.4335C270.066 89.4335 273.209 87.5854 274.132 84.3905C274.132 84.3905 276.586 87.9228 277.964 88.7122C277.964 88.7122 277.51 81.3661 273.604 78.6186C265.371 72.829 257.39 82.2851 257.39 82.2851C257.39 82.2851 252.099 84.7381 251.337 89.4587C250.157 96.7507 256.647 102.249 256.647 102.249Z" fill="#263238"/>
<path d="M258.247 100.933C258.247 100.933 254.911 96.7851 253.008 98.0032C251.106 99.2214 253.819 105.377 256.195 106.085C258.572 106.792 259.27 104.605 259.27 104.605L258.247 100.933Z" fill="#EB9481"/>
<path d="M253.829 99.7481C253.792 99.7471 253.788 99.8003 253.821 99.8114C255.491 100.36 256.448 101.811 257.153 103.333C256.629 102.764 255.949 102.479 255.181 103.108C255.141 103.141 255.185 103.205 255.231 103.192C255.887 103.004 256.376 103.087 256.861 103.591C257.205 103.947 257.455 104.41 257.712 104.831C257.798 104.971 258.055 104.876 257.989 104.712C257.984 104.7 257.978 104.688 257.973 104.676C257.875 102.6 256.069 99.8077 253.829 99.7481Z" fill="#263238"/>
<path d="M262.981 116.021L259.099 121.444L253.486 112.015L250.773 113.938C250.773 113.938 255.131 127.806 255.31 127.271L259.052 122.694L261.749 127.173L263.668 118.051L262.981 116.021Z" fill="#EBEBEB"/>
<path d="M262.952 122.717C263.219 121.2 263.529 119.68 263.725 118.153C263.731 118.099 263.655 118.055 263.627 118.114C262.977 119.482 261.989 125.287 261.648 126.654C261.645 126.647 261.64 126.64 261.636 126.634C261.525 126.442 259.096 122.652 259.053 122.693C258.315 123.385 255.576 126.715 255.368 127.027C254.681 124.826 251.955 116.767 251.03 114.618C251.003 114.556 250.912 114.579 250.928 114.648C251.453 116.923 255.021 127.751 255.118 127.747C255.167 127.809 258.562 123.713 259.046 122.9C259.422 123.688 261.786 127.872 261.851 127.653C262.289 126.174 262.686 124.236 262.952 122.717Z" fill="#263238"/>
<path d="M253.902 112.042C253.233 110.458 251.426 113.793 252.858 115.732C254.981 118.603 259.005 122.011 259.887 122.031C260.77 122.052 263.641 118.497 263.98 117.723C264.319 116.95 263.537 115.211 263.258 115.378C262.978 115.546 260.525 119.325 260.174 119.501C259.825 119.676 255.34 115.443 253.902 112.042Z" fill="#FFC727"/>
<path d="M119.829 411.905H77.668V421.222H119.829V411.905Z" fill="#FFC727"/>
<g opacity="0.1">
<path d="M79.4035 412.759C79.7707 414.001 79.8537 415.243 79.8695 416.486C79.8555 417.728 79.7735 418.971 79.4035 420.213C79.0344 418.971 78.9515 417.728 78.9375 416.486C78.9533 415.243 79.0363 414.001 79.4035 412.759Z" fill="black"/>
<path d="M82.5441 412.759C82.9113 414.001 82.9943 415.243 83.0101 416.486C82.9961 417.728 82.9141 418.971 82.5441 420.213C82.1751 418.971 82.0921 417.728 82.0781 416.486C82.094 415.243 82.1769 414.001 82.5441 412.759Z" fill="black"/>
<path d="M84.0773 412.759C84.4445 414.001 84.5275 415.243 84.5433 416.486C84.5293 417.728 84.4473 418.971 84.0773 420.213C83.7083 418.971 83.6253 417.728 83.6113 416.486C83.6272 415.243 83.7101 414.001 84.0773 412.759Z" fill="black"/>
<path d="M92.4972 412.759C92.8645 414.001 92.9474 415.243 92.9632 416.486C92.9493 417.728 92.8673 418.971 92.4972 420.213C92.1282 418.971 92.0452 417.728 92.0312 416.486C92.0471 415.243 92.1291 414.001 92.4972 412.759Z" fill="black"/>
<path d="M94.7765 412.759C95.1438 414.001 95.2267 415.243 95.2425 416.486C95.2286 417.728 95.1466 418.971 94.7765 420.213C94.4075 418.971 94.3245 417.728 94.3105 416.486C94.3264 415.243 94.4093 414.001 94.7765 412.759Z" fill="black"/>
<path d="M104.196 412.759C104.564 414.001 104.647 415.243 104.662 416.486C104.648 417.728 104.566 418.971 104.196 420.213C103.827 418.971 103.744 417.728 103.73 416.486C103.746 415.243 103.828 414.001 104.196 412.759Z" fill="black"/>
<path d="M106.372 412.759C106.739 414.001 106.822 415.243 106.838 416.486C106.824 417.728 106.742 418.971 106.372 420.213C106.003 418.971 105.92 417.728 105.906 416.486C105.922 415.243 106.004 414.001 106.372 412.759Z" fill="black"/>
<path d="M110.366 412.759C110.734 414.001 110.817 415.243 110.832 416.486C110.818 417.728 110.736 418.971 110.366 420.213C109.997 418.971 109.914 417.728 109.9 416.486C109.917 415.243 109.999 414.001 110.366 412.759Z" fill="black"/>
<path d="M102.376 412.759C102.743 414.001 102.826 415.243 102.842 416.486C102.828 417.728 102.746 418.971 102.376 420.213C102.007 418.971 101.924 417.728 101.91 416.486C101.926 415.243 102.009 414.001 102.376 412.759Z" fill="black"/>
<path d="M86.8605 412.759C87.2277 414.001 87.3107 415.243 87.3265 416.486C87.3126 417.728 87.2305 418.971 86.8605 420.213C86.4915 418.971 86.4085 417.728 86.3945 416.486C86.4104 415.243 86.4933 414.001 86.8605 412.759Z" fill="black"/>
<path d="M97.7726 412.759C98.1398 414.001 98.2228 415.243 98.2386 416.486C98.2247 417.728 98.1426 418.971 97.7726 420.213C97.4036 418.971 97.3206 417.728 97.3066 416.486C97.3225 415.243 97.4045 414.001 97.7726 412.759Z" fill="black"/>
<path d="M99.343 412.759C99.7102 414.001 99.7931 415.243 99.809 416.486C99.795 417.728 99.713 418.971 99.343 420.213C98.9739 418.971 98.8909 417.728 98.877 416.486C98.8928 415.243 98.9757 414.001 99.343 412.759Z" fill="black"/>
<path d="M115.575 412.759C115.943 414.001 116.026 415.243 116.041 416.486C116.027 417.728 115.945 418.971 115.575 420.213C115.206 418.971 115.123 417.728 115.109 416.486C115.126 415.243 115.208 414.001 115.575 412.759Z" fill="black"/>
<path d="M117.931 412.759C118.298 414.001 118.381 415.243 118.397 416.486C118.383 417.728 118.301 418.971 117.931 420.213C117.562 418.971 117.479 417.728 117.465 416.486C117.481 415.243 117.564 414.001 117.931 412.759Z" fill="black"/>
<path d="M112.224 412.759C112.591 414.001 112.674 415.243 112.69 416.486C112.676 417.728 112.594 418.971 112.224 420.213C111.855 418.971 111.772 417.728 111.758 416.486C111.774 415.243 111.857 414.001 112.224 412.759Z" fill="black"/>
<path d="M90.6769 412.759C91.0441 414.001 91.1271 415.243 91.1429 416.486C91.129 417.728 91.0469 418.971 90.6769 420.213C90.3079 418.971 90.2249 417.728 90.2109 416.486C90.2277 415.243 90.3097 414.001 90.6769 412.759Z" fill="black"/>
</g>
<path opacity="0.1" d="M119.825 411.906V413.885L77.666 415.215V411.906H119.825Z" fill="black"/>
<path d="M116.946 402.59H74.7852V411.906H116.946V402.59Z" fill="#FFC727"/>
<g opacity="0.1">
<path d="M76.5207 403.442C76.8879 404.685 76.9708 405.927 76.9867 407.169C76.9727 408.412 76.8907 409.654 76.5207 410.897C76.1516 409.654 76.0687 408.412 76.0547 407.169C76.0705 405.927 76.1535 404.685 76.5207 403.442Z" fill="black"/>
<path d="M79.6613 403.442C80.0285 404.685 80.1115 405.927 80.1273 407.169C80.1133 408.412 80.0313 409.654 79.6613 410.897C79.2922 409.654 79.2093 408.412 79.1953 407.169C79.2112 405.927 79.2941 404.685 79.6613 403.442Z" fill="black"/>
<path d="M81.1945 403.442C81.5617 404.685 81.6447 405.927 81.6605 407.169C81.6465 408.412 81.5645 409.654 81.1945 410.897C80.8254 409.654 80.7425 408.412 80.7285 407.169C80.7444 405.927 80.8273 404.685 81.1945 403.442Z" fill="black"/>
<path d="M89.6144 403.442C89.9816 404.685 90.0646 405.927 90.0804 407.169C90.0665 408.412 89.9844 409.654 89.6144 410.897C89.2454 409.654 89.1624 408.412 89.1484 407.169C89.1643 405.927 89.2463 404.685 89.6144 403.442Z" fill="black"/>
<path d="M91.8937 403.442C92.2609 404.685 92.3439 405.927 92.3597 407.169C92.3458 408.412 92.2637 409.654 91.8937 410.897C91.5247 409.654 91.4417 408.412 91.4277 407.169C91.4436 405.927 91.5265 404.685 91.8937 403.442Z" fill="black"/>
<path d="M101.314 403.442C101.681 404.685 101.764 405.927 101.78 407.169C101.766 408.412 101.684 409.654 101.314 410.897C100.945 409.654 100.862 408.412 100.848 407.169C100.864 405.927 100.946 404.685 101.314 403.442Z" fill="black"/>
<path d="M103.489 403.442C103.857 404.685 103.94 405.927 103.955 407.169C103.941 408.412 103.859 409.654 103.489 410.897C103.12 409.654 103.037 408.412 103.023 407.169C103.039 405.927 103.122 404.685 103.489 403.442Z" fill="black"/>
<path d="M107.484 403.442C107.851 404.685 107.934 405.927 107.95 407.169C107.936 408.412 107.854 409.654 107.484 410.897C107.115 409.654 107.032 408.412 107.018 407.169C107.034 405.927 107.116 404.685 107.484 403.442Z" fill="black"/>
<path d="M99.4933 403.442C99.8606 404.685 99.9435 405.927 99.9593 407.169C99.9454 408.412 99.8633 409.654 99.4933 410.897C99.1243 409.654 99.0413 408.412 99.0273 407.169C99.0432 405.927 99.1261 404.685 99.4933 403.442Z" fill="black"/>
<path d="M83.9777 403.442C84.3449 404.685 84.4279 405.927 84.4437 407.169C84.4297 408.412 84.3477 409.654 83.9777 410.897C83.6086 409.654 83.5257 408.412 83.5117 407.169C83.5276 405.927 83.6105 404.685 83.9777 403.442Z" fill="black"/>
<path d="M94.8898 403.442C95.257 404.685 95.34 405.927 95.3558 407.169C95.3418 408.412 95.2598 409.654 94.8898 410.897C94.5208 409.654 94.4378 408.412 94.4238 407.169C94.4397 405.927 94.5226 404.685 94.8898 403.442Z" fill="black"/>
<path d="M96.4601 403.442C96.8273 404.685 96.9103 405.927 96.9261 407.169C96.9122 408.412 96.8301 409.654 96.4601 410.897C96.0911 409.654 96.0081 408.412 95.9941 407.169C96.01 405.927 96.0929 404.685 96.4601 403.442Z" fill="black"/>
<path d="M112.695 403.442C113.062 404.685 113.145 405.927 113.161 407.169C113.147 408.412 113.065 409.654 112.695 410.897C112.325 409.654 112.242 408.412 112.229 407.169C112.244 405.927 112.326 404.685 112.695 403.442Z" fill="black"/>
<path d="M115.048 403.442C115.415 404.685 115.498 405.927 115.514 407.169C115.5 408.412 115.418 409.654 115.048 410.897C114.679 409.654 114.596 408.412 114.582 407.169C114.598 405.927 114.681 404.685 115.048 403.442Z" fill="black"/>
<path d="M109.341 403.442C109.708 404.685 109.791 405.927 109.807 407.169C109.793 408.412 109.711 409.654 109.341 410.897C108.972 409.654 108.889 408.412 108.875 407.169C108.891 405.927 108.974 404.685 109.341 403.442Z" fill="black"/>
<path d="M87.7941 403.442C88.1613 404.685 88.2443 405.927 88.2601 407.169C88.2461 408.412 88.1641 409.654 87.7941 410.897C87.4251 409.654 87.3421 408.412 87.3281 407.169C87.3449 405.927 87.4269 404.685 87.7941 403.442Z" fill="black"/>
</g>
<path opacity="0.1" d="M116.942 402.59V404.569L74.7832 405.899V402.59H116.942Z" fill="black"/>
<path d="M123.46 384.034H81.2988V393.35H123.46V384.034Z" fill="#FFC727"/>
<g opacity="0.1">
<path d="M83.0344 384.888C83.4016 386.13 83.4845 387.372 83.5004 388.615C83.4864 389.857 83.4044 391.099 83.0344 392.342C82.6653 391.099 82.5823 389.857 82.5684 388.615C82.5842 387.372 82.6672 386.13 83.0344 384.888Z" fill="black"/>
<path d="M86.175 384.888C86.5422 386.13 86.6251 387.372 86.641 388.615C86.627 389.857 86.545 391.099 86.175 392.342C85.8059 391.099 85.723 389.857 85.709 388.615C85.7248 387.372 85.8068 386.13 86.175 384.888Z" fill="black"/>
<path d="M87.7082 384.888C88.0754 386.13 88.1583 387.372 88.1742 388.615C88.1602 389.857 88.0782 391.099 87.7082 392.342C87.3391 391.099 87.2562 389.857 87.2422 388.615C87.258 387.372 87.341 386.13 87.7082 384.888Z" fill="black"/>
<path d="M96.1281 384.888C96.4953 386.13 96.5783 387.372 96.5941 388.615C96.5801 389.857 96.4981 391.099 96.1281 392.342C95.759 391.099 95.6761 389.857 95.6621 388.615C95.6789 387.372 95.7609 386.13 96.1281 384.888Z" fill="black"/>
<path d="M98.4074 384.888C98.7746 386.13 98.8576 387.372 98.8734 388.615C98.8594 389.857 98.7774 391.099 98.4074 392.342C98.0383 391.099 97.9554 389.857 97.9414 388.615C97.9573 387.372 98.0393 386.13 98.4074 384.888Z" fill="black"/>
<path d="M107.825 384.888C108.193 386.13 108.276 387.372 108.291 388.615C108.277 389.857 108.195 391.099 107.825 392.342C107.456 391.099 107.373 389.857 107.359 388.615C107.375 387.372 107.458 386.13 107.825 384.888Z" fill="black"/>
<path d="M110.001 384.888C110.368 386.13 110.451 387.372 110.467 388.615C110.453 389.857 110.371 391.099 110.001 392.342C109.632 391.099 109.549 389.857 109.535 388.615C109.552 387.372 109.634 386.13 110.001 384.888Z" fill="black"/>
<path d="M113.997 384.888C114.364 386.13 114.447 387.372 114.463 388.615C114.449 389.857 114.367 391.099 113.997 392.342C113.628 391.099 113.545 389.857 113.531 388.615C113.547 387.372 113.63 386.13 113.997 384.888Z" fill="black"/>
<path d="M106.007 384.888C106.374 386.13 106.457 387.372 106.473 388.615C106.459 389.857 106.377 391.099 106.007 392.342C105.638 391.099 105.555 389.857 105.541 388.615C105.557 387.372 105.639 386.13 106.007 384.888Z" fill="black"/>
<path d="M90.4914 384.888C90.8586 386.13 90.9415 387.372 90.9574 388.615C90.9434 389.857 90.8614 391.099 90.4914 392.342C90.1223 391.099 90.0394 389.857 90.0254 388.615C90.0412 387.372 90.1242 386.13 90.4914 384.888Z" fill="black"/>
<path d="M101.403 384.888C101.771 386.13 101.854 387.372 101.869 388.615C101.856 389.857 101.774 391.099 101.403 392.342C101.034 391.099 100.951 389.857 100.938 388.615C100.954 387.372 101.036 386.13 101.403 384.888Z" fill="black"/>
<path d="M102.974 384.888C103.341 386.13 103.424 387.372 103.44 388.615C103.426 389.857 103.344 391.099 102.974 392.342C102.605 391.099 102.522 389.857 102.508 388.615C102.524 387.372 102.606 386.13 102.974 384.888Z" fill="black"/>
<path d="M119.206 384.888C119.573 386.13 119.656 387.372 119.672 388.615C119.658 389.857 119.576 391.099 119.206 392.342C118.837 391.099 118.754 389.857 118.74 388.615C118.756 387.372 118.839 386.13 119.206 384.888Z" fill="black"/>
<path d="M121.562 384.888C121.929 386.13 122.012 387.372 122.028 388.615C122.014 389.857 121.932 391.099 121.562 392.342C121.193 391.099 121.11 389.857 121.096 388.615C121.112 387.372 121.194 386.13 121.562 384.888Z" fill="black"/>
<path d="M115.855 384.888C116.222 386.13 116.305 387.372 116.321 388.615C116.307 389.857 116.225 391.099 115.855 392.342C115.486 391.099 115.403 389.857 115.389 388.615C115.405 387.372 115.487 386.13 115.855 384.888Z" fill="black"/>
<path d="M94.3078 384.888C94.675 386.13 94.758 387.372 94.7738 388.615C94.7598 389.857 94.6778 391.099 94.3078 392.342C93.9387 391.099 93.8558 389.857 93.8418 388.615C93.8576 387.372 93.9406 386.13 94.3078 384.888Z" fill="black"/>
</g>
<path opacity="0.1" d="M123.456 384.035V386.015L81.2969 387.344V384.035H123.456Z" fill="black"/>
<path d="M122.395 374.718H80.2344V384.034H122.395V374.718Z" fill="#FFC727"/>
<g opacity="0.1">
<path d="M120.497 383.025C120.13 381.783 120.047 380.541 120.031 379.298C120.045 378.056 120.127 376.814 120.497 375.571C120.866 376.814 120.949 378.056 120.963 379.298C120.947 380.541 120.864 381.783 120.497 383.025Z" fill="black"/>
<path d="M117.359 383.025C116.991 381.783 116.908 380.541 116.893 379.298C116.907 378.056 116.989 376.814 117.359 375.571C117.728 376.814 117.811 378.056 117.825 379.298C117.809 380.541 117.726 381.783 117.359 383.025Z" fill="black"/>
<path d="M115.823 383.025C115.456 381.783 115.373 380.541 115.357 379.298C115.371 378.056 115.453 376.814 115.823 375.571C116.192 376.814 116.275 378.056 116.289 379.298C116.274 380.541 116.191 381.783 115.823 383.025Z" fill="black"/>
<path d="M107.403 383.025C107.036 381.783 106.953 380.541 106.938 379.298C106.951 378.056 107.033 376.814 107.403 375.571C107.773 376.814 107.856 378.056 107.869 379.298C107.854 380.541 107.772 381.783 107.403 383.025Z" fill="black"/>
<path d="M105.126 383.025C104.759 381.783 104.676 380.541 104.66 379.298C104.674 378.056 104.756 376.814 105.126 375.571C105.495 376.814 105.578 378.056 105.592 379.298C105.576 380.541 105.493 381.783 105.126 383.025Z" fill="black"/>
<path d="M95.7062 383.025C95.339 381.783 95.2561 380.541 95.2402 379.298C95.2542 378.056 95.3362 376.814 95.7062 375.571C96.0762 376.814 96.1583 378.056 96.1722 379.298C96.1564 380.541 96.0744 381.783 95.7062 383.025Z" fill="black"/>
<path d="M93.5305 383.025C93.1632 381.783 93.0803 380.541 93.0645 379.298C93.0784 378.056 93.1604 376.814 93.5305 375.571C93.8995 376.814 93.9825 378.056 93.9965 379.298C93.9806 380.541 93.8986 381.783 93.5305 383.025Z" fill="black"/>
<path d="M89.5344 383.025C89.1672 381.783 89.0842 380.541 89.0684 379.298C89.0823 378.056 89.1644 376.814 89.5344 375.571C89.9034 376.814 89.9864 378.056 90.0004 379.298C89.9845 380.541 89.9016 381.783 89.5344 383.025Z" fill="black"/>
<path d="M97.5265 383.025C97.1593 381.783 97.0764 380.541 97.0605 379.298C97.0745 378.056 97.1565 376.814 97.5265 375.571C97.8956 376.814 97.9786 378.056 97.9925 379.298C97.9767 380.541 97.8938 381.783 97.5265 383.025Z" fill="black"/>
<path d="M113.04 383.025C112.673 381.783 112.59 380.541 112.574 379.298C112.588 378.056 112.67 376.814 113.04 375.571C113.409 376.814 113.492 378.056 113.506 379.298C113.49 380.541 113.407 381.783 113.04 383.025Z" fill="black"/>
<path d="M102.128 383.025C101.761 381.783 101.678 380.541 101.662 379.298C101.676 378.056 101.758 376.814 102.128 375.571C102.497 376.814 102.58 378.056 102.594 379.298C102.578 380.541 102.496 381.783 102.128 383.025Z" fill="black"/>
<path d="M100.558 383.025C100.191 381.783 100.108 380.541 100.092 379.298C100.106 378.056 100.188 376.814 100.558 375.571C100.927 376.814 101.01 378.056 101.024 379.298C101.008 380.541 100.925 381.783 100.558 383.025Z" fill="black"/>
<path d="M84.3234 383.025C83.9562 381.783 83.8733 380.541 83.8574 379.298C83.8714 378.056 83.9534 376.814 84.3234 375.571C84.6934 376.814 84.7754 378.056 84.7894 379.298C84.7736 380.541 84.6916 381.783 84.3234 383.025Z" fill="black"/>
<path d="M81.9699 383.025C81.6027 381.783 81.5198 380.541 81.5039 379.298C81.5179 378.056 81.5999 376.814 81.9699 375.571C82.339 376.814 82.4219 378.056 82.4359 379.298C82.4201 380.541 82.3371 381.783 81.9699 383.025Z" fill="black"/>
<path d="M87.6789 383.025C87.3117 381.783 87.2287 380.541 87.2129 379.298C87.2269 378.056 87.3089 376.814 87.6789 375.571C88.048 376.814 88.1309 378.056 88.1449 379.298C88.129 380.541 88.0461 381.783 87.6789 383.025Z" fill="black"/>
<path d="M109.224 383.025C108.857 381.783 108.774 380.541 108.758 379.298C108.772 378.056 108.854 376.814 109.224 375.571C109.593 376.814 109.676 378.056 109.69 379.298C109.674 380.541 109.591 381.783 109.224 383.025Z" fill="black"/>
</g>
<path opacity="0.1" d="M122.391 374.719V376.698L80.2324 378.028V374.719H122.391Z" fill="black"/>
<path d="M119.831 365.401H77.6699V374.718H119.831V365.401Z" fill="#FFC727"/>
<g opacity="0.1">
<path d="M79.4055 366.255C79.7727 367.497 79.8556 368.74 79.8715 369.982C79.8575 371.224 79.7755 372.467 79.4055 373.709C79.0364 372.467 78.9534 371.224 78.9395 369.982C78.9553 368.74 79.0382 367.497 79.4055 366.255Z" fill="black"/>
<path d="M82.5461 366.255C82.9133 367.497 82.9962 368.74 83.0121 369.982C82.9981 371.224 82.9161 372.467 82.5461 373.709C82.177 372.467 82.0941 371.224 82.0801 369.982C82.0959 368.74 82.1789 367.497 82.5461 366.255Z" fill="black"/>
<path d="M84.0793 366.255C84.4465 367.497 84.5294 368.74 84.5453 369.982C84.5313 371.224 84.4493 372.467 84.0793 373.709C83.7102 372.467 83.6273 371.224 83.6133 369.982C83.6291 368.74 83.7121 367.497 84.0793 366.255Z" fill="black"/>
<path d="M92.4992 366.255C92.8664 367.497 92.9494 368.74 92.9652 369.982C92.9512 371.224 92.8692 372.467 92.4992 373.709C92.1301 372.467 92.0472 371.224 92.0332 369.982C92.05 368.74 92.132 367.497 92.4992 366.255Z" fill="black"/>
<path d="M94.7785 366.255C95.1457 367.497 95.2287 368.74 95.2445 369.982C95.2305 371.224 95.1485 372.467 94.7785 373.709C94.4094 372.467 94.3265 371.224 94.3125 369.982C94.3283 368.74 94.4113 367.497 94.7785 366.255Z" fill="black"/>
<path d="M104.196 366.255C104.564 367.497 104.647 368.74 104.662 369.982C104.648 371.224 104.566 372.467 104.196 373.709C103.827 372.467 103.744 371.224 103.73 369.982C103.747 368.74 103.829 367.497 104.196 366.255Z" fill="black"/>
<path d="M106.374 366.255C106.741 367.497 106.824 368.74 106.84 369.982C106.826 371.224 106.744 372.467 106.374 373.709C106.005 372.467 105.922 371.224 105.908 369.982C105.924 368.74 106.006 367.497 106.374 366.255Z" fill="black"/>
<path d="M110.368 366.255C110.736 367.497 110.818 368.74 110.834 369.982C110.82 371.224 110.738 372.467 110.368 373.709C109.999 372.467 109.916 371.224 109.902 369.982C109.918 368.74 110.001 367.497 110.368 366.255Z" fill="black"/>
<path d="M102.378 366.255C102.745 367.497 102.828 368.74 102.844 369.982C102.83 371.224 102.748 372.467 102.378 373.709C102.009 372.467 101.926 371.224 101.912 369.982C101.928 368.74 102.011 367.497 102.378 366.255Z" fill="black"/>
<path d="M86.8625 366.255C87.2297 367.497 87.3126 368.74 87.3285 369.982C87.3145 371.224 87.2325 372.467 86.8625 373.709C86.4934 372.467 86.4105 371.224 86.3965 369.982C86.4123 368.74 86.4953 367.497 86.8625 366.255Z" fill="black"/>
<path d="M97.7746 366.255C98.1418 367.497 98.2247 368.74 98.2406 369.982C98.2266 371.224 98.1446 372.467 97.7746 373.709C97.4055 372.467 97.3226 371.224 97.3086 369.982C97.3244 368.74 97.4065 367.497 97.7746 366.255Z" fill="black"/>
<path d="M99.3449 366.255C99.7121 367.497 99.7951 368.74 99.8109 369.982C99.7969 371.224 99.7149 372.467 99.3449 373.709C98.9758 372.467 98.8929 371.224 98.8789 369.982C98.8948 368.74 98.9777 367.497 99.3449 366.255Z" fill="black"/>
<path d="M115.577 366.255C115.945 367.497 116.027 368.74 116.043 369.982C116.029 371.224 115.947 372.467 115.577 373.709C115.208 372.467 115.125 371.224 115.111 369.982C115.128 368.74 115.21 367.497 115.577 366.255Z" fill="black"/>
<path d="M117.933 366.255C118.3 367.497 118.383 368.74 118.399 369.982C118.385 371.224 118.303 372.467 117.933 373.709C117.564 372.467 117.481 371.224 117.467 369.982C117.483 368.74 117.566 367.497 117.933 366.255Z" fill="black"/>
<path d="M112.226 366.255C112.593 367.497 112.676 368.74 112.692 369.982C112.678 371.224 112.596 372.467 112.226 373.709C111.857 372.467 111.774 371.224 111.76 369.982C111.776 368.74 111.859 367.497 112.226 366.255Z" fill="black"/>
<path d="M90.6789 366.255C91.0461 367.497 91.129 368.74 91.1449 369.982C91.1309 371.224 91.0489 372.467 90.6789 373.709C90.3098 372.467 90.2269 371.224 90.2129 369.982C90.2287 368.74 90.3117 367.497 90.6789 366.255Z" fill="black"/>
</g>
<path opacity="0.1" d="M119.827 365.402V367.382L77.668 368.712V365.402H119.827Z" fill="black"/>
<path d="M119.829 393.351H77.668V402.667H119.829V393.351Z" fill="#FFC727"/>
<g opacity="0.1">
<path d="M117.933 401.657C117.566 400.415 117.483 399.173 117.467 397.93C117.481 396.688 117.563 395.445 117.933 394.203C118.303 395.445 118.385 396.688 118.399 397.93C118.382 399.173 118.3 400.415 117.933 401.657Z" fill="black"/>
<path d="M114.794 401.657C114.427 400.415 114.344 399.173 114.328 397.93C114.342 396.688 114.424 395.445 114.794 394.203C115.163 395.445 115.246 396.688 115.26 397.93C115.244 399.173 115.161 400.415 114.794 401.657Z" fill="black"/>
<path d="M113.259 401.657C112.892 400.415 112.809 399.173 112.793 397.93C112.807 396.688 112.889 395.445 113.259 394.203C113.628 395.445 113.711 396.688 113.725 397.93C113.708 399.173 113.626 400.415 113.259 401.657Z" fill="black"/>
<path d="M104.839 401.657C104.472 400.415 104.389 399.173 104.373 397.93C104.387 396.688 104.469 395.445 104.839 394.203C105.209 395.445 105.291 396.688 105.305 397.93C105.289 399.173 105.206 400.415 104.839 401.657Z" fill="black"/>
<path d="M102.562 401.657C102.194 400.415 102.112 399.173 102.096 397.93C102.11 396.688 102.192 395.445 102.562 394.203C102.931 395.445 103.014 396.688 103.028 397.93C103.011 399.173 102.929 400.415 102.562 401.657Z" fill="black"/>
<path d="M93.1418 401.657C92.7746 400.415 92.6916 399.173 92.6758 397.93C92.6898 396.688 92.7718 395.445 93.1418 394.203C93.5109 395.445 93.5938 396.688 93.6078 397.93C93.5919 399.173 93.5099 400.415 93.1418 401.657Z" fill="black"/>
<path d="M90.966 401.657C90.5988 400.415 90.5158 399.173 90.5 397.93C90.514 396.688 90.596 395.445 90.966 394.203C91.336 395.445 91.418 396.688 91.432 397.93C91.4162 399.173 91.3332 400.415 90.966 401.657Z" fill="black"/>
<path d="M86.968 401.657C86.6007 400.415 86.5178 399.173 86.502 397.93C86.5159 396.688 86.5979 395.445 86.968 394.203C87.337 395.445 87.42 396.688 87.434 397.93C87.4181 399.173 87.3361 400.415 86.968 401.657Z" fill="black"/>
<path d="M94.9621 401.657C94.5949 400.415 94.5119 399.173 94.4961 397.93C94.5101 396.688 94.5921 395.445 94.9621 394.203C95.3312 395.445 95.4141 396.688 95.4281 397.93C95.4113 399.173 95.3293 400.415 94.9621 401.657Z" fill="black"/>
<path d="M110.476 401.657C110.109 400.415 110.026 399.173 110.01 397.93C110.024 396.688 110.106 395.445 110.476 394.203C110.845 395.445 110.928 396.688 110.942 397.93C110.926 399.173 110.843 400.415 110.476 401.657Z" fill="black"/>
<path d="M99.5637 401.657C99.1964 400.415 99.1135 399.173 99.0977 397.93C99.1116 396.688 99.1937 395.445 99.5637 394.203C99.9327 395.445 100.016 396.688 100.03 397.93C100.014 399.173 99.9309 400.415 99.5637 401.657Z" fill="black"/>
<path d="M97.9933 401.657C97.6261 400.415 97.5432 399.173 97.5273 397.93C97.5413 396.688 97.6233 395.445 97.9933 394.203C98.3624 395.445 98.4454 396.688 98.4593 397.93C98.4426 399.173 98.3606 400.415 97.9933 401.657Z" fill="black"/>
<path d="M81.759 401.657C81.3918 400.415 81.3088 399.173 81.293 397.93C81.3069 396.688 81.389 395.445 81.759 394.203C82.128 395.445 82.211 396.688 82.225 397.93C82.2091 399.173 82.1271 400.415 81.759 401.657Z" fill="black"/>
<path d="M79.4055 401.657C79.0382 400.415 78.9553 399.173 78.9395 397.93C78.9534 396.688 79.0354 395.445 79.4055 394.203C79.7745 395.445 79.8575 396.688 79.8715 397.93C79.8547 399.173 79.7727 400.415 79.4055 401.657Z" fill="black"/>
<path d="M85.1144 401.657C84.7472 400.415 84.6643 399.173 84.6484 397.93C84.6624 396.688 84.7444 395.445 85.1144 394.203C85.4835 395.445 85.5665 396.688 85.5804 397.93C85.5646 399.173 85.4816 400.415 85.1144 401.657Z" fill="black"/>
<path d="M106.657 401.657C106.29 400.415 106.207 399.173 106.191 397.93C106.205 396.688 106.287 395.445 106.657 394.203C107.026 395.445 107.109 396.688 107.123 397.93C107.108 399.173 107.026 400.415 106.657 401.657Z" fill="black"/>
</g>
<path opacity="0.1" d="M119.825 393.352V395.33L77.666 396.66V393.352H119.825Z" fill="black"/>
<path d="M161.991 422.038H119.83V431.354H161.991V422.038Z" fill="#FFC727"/>
<g opacity="0.1">
<path d="M121.566 422.892C121.933 424.134 122.016 425.376 122.032 426.619C122.018 427.861 121.936 429.103 121.566 430.346C121.197 429.103 121.114 427.861 121.1 426.619C121.115 425.376 121.198 424.134 121.566 422.892Z" fill="black"/>
<path d="M124.706 422.892C125.073 424.134 125.156 425.376 125.172 426.619C125.158 427.861 125.076 429.103 124.706 430.346C124.337 429.103 124.254 427.861 124.24 426.619C124.256 425.376 124.339 424.134 124.706 422.892Z" fill="black"/>
<path d="M126.239 422.892C126.607 424.134 126.69 425.376 126.705 426.619C126.691 427.861 126.609 429.103 126.239 430.346C125.87 429.103 125.787 427.861 125.773 426.619C125.789 425.376 125.872 424.134 126.239 422.892Z" fill="black"/>
<path d="M134.659 422.892C135.027 424.134 135.11 425.376 135.125 426.619C135.111 427.861 135.029 429.103 134.659 430.346C134.29 429.103 134.207 427.861 134.193 426.619C134.21 425.376 134.292 424.134 134.659 422.892Z" fill="black"/>
<path d="M136.939 422.892C137.306 424.134 137.389 425.376 137.405 426.619C137.391 427.861 137.309 429.103 136.939 430.346C136.57 429.103 136.487 427.861 136.473 426.619C136.489 425.376 136.571 424.134 136.939 422.892Z" fill="black"/>
<path d="M146.357 422.892C146.724 424.134 146.807 425.376 146.823 426.619C146.809 427.861 146.727 429.103 146.357 430.346C145.988 429.103 145.905 427.861 145.891 426.619C145.907 425.376 145.989 424.134 146.357 422.892Z" fill="black"/>
<path d="M148.534 422.892C148.902 424.134 148.985 425.376 149 426.619C148.986 427.861 148.904 429.103 148.534 430.346C148.165 429.103 148.082 427.861 148.068 426.619C148.084 425.376 148.166 424.134 148.534 422.892Z" fill="black"/>
<path d="M152.528 422.892C152.896 424.134 152.979 425.376 152.994 426.619C152.981 427.861 152.899 429.103 152.528 430.346C152.159 429.103 152.076 427.861 152.062 426.619C152.078 425.376 152.161 424.134 152.528 422.892Z" fill="black"/>
<path d="M144.538 422.892C144.905 424.134 144.988 425.376 145.004 426.619C144.99 427.861 144.908 429.103 144.538 430.346C144.169 429.103 144.086 427.861 144.072 426.619C144.088 425.376 144.171 424.134 144.538 422.892Z" fill="black"/>
<path d="M129.023 422.892C129.39 424.134 129.473 425.376 129.489 426.619C129.475 427.861 129.393 429.103 129.023 430.346C128.654 429.103 128.571 427.861 128.557 426.619C128.572 425.376 128.655 424.134 129.023 422.892Z" fill="black"/>
<path d="M139.935 422.892C140.302 424.134 140.385 425.376 140.401 426.619C140.387 427.861 140.305 429.103 139.935 430.346C139.566 429.103 139.483 427.861 139.469 426.619C139.485 425.376 139.567 424.134 139.935 422.892Z" fill="black"/>
<path d="M141.505 422.892C141.872 424.134 141.955 425.376 141.971 426.619C141.957 427.861 141.875 429.103 141.505 430.346C141.136 429.103 141.053 427.861 141.039 426.619C141.055 425.376 141.138 424.134 141.505 422.892Z" fill="black"/>
<path d="M157.737 422.892C158.105 424.134 158.188 425.376 158.203 426.619C158.19 427.861 158.107 429.103 157.737 430.346C157.368 429.103 157.285 427.861 157.271 426.619C157.287 425.376 157.37 424.134 157.737 422.892Z" fill="black"/>
<path d="M160.093 422.892C160.46 424.134 160.543 425.376 160.559 426.619C160.545 427.861 160.463 429.103 160.093 430.346C159.724 429.103 159.641 427.861 159.627 426.619C159.643 425.376 159.726 424.134 160.093 422.892Z" fill="black"/>
<path d="M154.386 422.892C154.753 424.134 154.836 425.376 154.852 426.619C154.838 427.861 154.756 429.103 154.386 430.346C154.017 429.103 153.934 427.861 153.92 426.619C153.936 425.376 154.019 424.134 154.386 422.892Z" fill="black"/>
<path d="M132.839 422.892C133.206 424.134 133.289 425.376 133.305 426.619C133.291 427.861 133.209 429.103 132.839 430.346C132.47 429.103 132.387 427.861 132.373 426.619C132.389 425.376 132.472 424.134 132.839 422.892Z" fill="black"/>
</g>
<path opacity="0.1" d="M161.987 422.039V424.019L119.828 425.348V422.039H161.987Z" fill="black"/>
<path d="M169.052 412.723H126.891V422.039H169.052V412.723Z" fill="#FFC727"/>
<g opacity="0.1">
<path d="M128.628 413.576C128.995 414.819 129.078 416.061 129.094 417.303C129.08 418.546 128.998 419.788 128.628 421.03C128.259 419.788 128.176 418.546 128.162 417.303C128.178 416.061 128.26 414.819 128.628 413.576Z" fill="black"/>
<path d="M131.767 413.576C132.134 414.819 132.217 416.061 132.233 417.303C132.219 418.546 132.137 419.788 131.767 421.03C131.398 419.788 131.315 418.546 131.301 417.303C131.318 416.061 131.4 414.819 131.767 413.576Z" fill="black"/>
<path d="M133.302 413.576C133.669 414.819 133.752 416.061 133.768 417.303C133.754 418.546 133.672 419.788 133.302 421.03C132.933 419.788 132.85 418.546 132.836 417.303C132.853 416.061 132.935 414.819 133.302 413.576Z" fill="black"/>
<path d="M141.722 413.576C142.089 414.819 142.172 416.061 142.188 417.303C142.174 418.546 142.092 419.788 141.722 421.03C141.353 419.788 141.27 418.546 141.256 417.303C141.272 416.061 141.355 414.819 141.722 413.576Z" fill="black"/>
<path d="M144.001 413.576C144.368 414.819 144.451 416.061 144.467 417.303C144.453 418.546 144.371 419.788 144.001 421.03C143.632 419.788 143.549 418.546 143.535 417.303C143.551 416.061 143.633 414.819 144.001 413.576Z" fill="black"/>
<path d="M153.419 413.576C153.786 414.819 153.869 416.061 153.885 417.303C153.871 418.546 153.789 419.788 153.419 421.03C153.05 419.788 152.967 418.546 152.953 417.303C152.969 416.061 153.052 414.819 153.419 413.576Z" fill="black"/>
<path d="M155.595 413.576C155.962 414.819 156.045 416.061 156.061 417.303C156.047 418.546 155.965 419.788 155.595 421.03C155.226 419.788 155.143 418.546 155.129 417.303C155.145 416.061 155.228 414.819 155.595 413.576Z" fill="black"/>
<path d="M159.591 413.576C159.958 414.819 160.041 416.061 160.057 417.303C160.043 418.546 159.961 419.788 159.591 421.03C159.222 419.788 159.139 418.546 159.125 417.303C159.141 416.061 159.223 414.819 159.591 413.576Z" fill="black"/>
<path d="M151.601 413.576C151.968 414.819 152.051 416.061 152.067 417.303C152.053 418.546 151.971 419.788 151.601 421.03C151.232 419.788 151.149 418.546 151.135 417.303C151.151 416.061 151.233 414.819 151.601 413.576Z" fill="black"/>
<path d="M136.085 413.576C136.452 414.819 136.535 416.061 136.551 417.303C136.537 418.546 136.455 419.788 136.085 421.03C135.716 419.788 135.633 418.546 135.619 417.303C135.635 416.061 135.717 414.819 136.085 413.576Z" fill="black"/>
<path d="M146.997 413.576C147.364 414.819 147.447 416.061 147.463 417.303C147.449 418.546 147.367 419.788 146.997 421.03C146.628 419.788 146.545 418.546 146.531 417.303C146.547 416.061 146.63 414.819 146.997 413.576Z" fill="black"/>
<path d="M148.568 413.576C148.935 414.819 149.018 416.061 149.034 417.303C149.02 418.546 148.938 419.788 148.568 421.03C148.198 419.788 148.116 418.546 148.102 417.303C148.117 416.061 148.199 414.819 148.568 413.576Z" fill="black"/>
<path d="M164.8 413.576C165.167 414.819 165.25 416.061 165.266 417.303C165.252 418.546 165.17 419.788 164.8 421.03C164.431 419.788 164.348 418.546 164.334 417.303C164.35 416.061 164.433 414.819 164.8 413.576Z" fill="black"/>
<path d="M167.155 413.576C167.523 414.819 167.606 416.061 167.621 417.303C167.607 418.546 167.525 419.788 167.155 421.03C166.786 419.788 166.703 418.546 166.689 417.303C166.706 416.061 166.788 414.819 167.155 413.576Z" fill="black"/>
<path d="M161.446 413.576C161.814 414.819 161.897 416.061 161.912 417.303C161.898 418.546 161.816 419.788 161.446 421.03C161.077 419.788 160.994 418.546 160.98 417.303C160.997 416.061 161.079 414.819 161.446 413.576Z" fill="black"/>
<path d="M139.902 413.576C140.269 414.819 140.352 416.061 140.368 417.303C140.354 418.546 140.272 419.788 139.902 421.03C139.532 419.788 139.45 418.546 139.436 417.303C139.451 416.061 139.533 414.819 139.902 413.576Z" fill="black"/>
</g>
<path opacity="0.1" d="M169.048 412.723V414.702L126.889 416.032V412.723H169.048Z" fill="black"/>
<path d="M165.524 403.482H123.363V412.799H165.524V403.482Z" fill="#FFC727"/>
<g opacity="0.1">
<path d="M163.626 411.789C163.259 410.547 163.176 409.304 163.16 408.062C163.174 406.82 163.256 405.577 163.626 404.335C163.995 405.577 164.078 406.82 164.092 408.062C164.076 409.304 163.993 410.547 163.626 411.789Z" fill="black"/>
<path d="M160.487 411.789C160.12 410.547 160.037 409.304 160.021 408.062C160.035 406.82 160.117 405.577 160.487 404.335C160.857 405.577 160.94 406.82 160.953 408.062C160.938 409.304 160.855 410.547 160.487 411.789Z" fill="black"/>
<path d="M158.952 411.789C158.585 410.547 158.502 409.304 158.486 408.062C158.5 406.82 158.582 405.577 158.952 404.335C159.321 405.577 159.404 406.82 159.418 408.062C159.402 409.304 159.32 410.547 158.952 411.789Z" fill="black"/>
<path d="M150.532 411.789C150.165 410.547 150.082 409.304 150.066 408.062C150.08 406.82 150.162 405.577 150.532 404.335C150.901 405.577 150.984 406.82 150.998 408.062C150.983 409.304 150.901 410.547 150.532 411.789Z" fill="black"/>
<path d="M148.255 411.789C147.888 410.547 147.805 409.304 147.789 408.062C147.803 406.82 147.885 405.577 148.255 404.335C148.624 405.577 148.707 406.82 148.721 408.062C148.705 409.304 148.622 410.547 148.255 411.789Z" fill="black"/>
<path d="M138.835 411.789C138.468 410.547 138.385 409.304 138.369 408.062C138.383 406.82 138.465 405.577 138.835 404.335C139.205 405.577 139.287 406.82 139.301 408.062C139.285 409.304 139.203 410.547 138.835 411.789Z" fill="black"/>
<path d="M136.659 411.789C136.292 410.547 136.209 409.304 136.193 408.062C136.207 406.82 136.289 405.577 136.659 404.335C137.028 405.577 137.111 406.82 137.125 408.062C137.11 409.304 137.027 410.547 136.659 411.789Z" fill="black"/>
<path d="M132.663 411.789C132.296 410.547 132.213 409.304 132.197 408.062C132.211 406.82 132.293 405.577 132.663 404.335C133.032 405.577 133.115 406.82 133.129 408.062C133.113 409.304 133.03 410.547 132.663 411.789Z" fill="black"/>
<path d="M140.655 411.789C140.288 410.547 140.205 409.304 140.189 408.062C140.203 406.82 140.285 405.577 140.655 404.335C141.025 405.577 141.107 406.82 141.121 408.062C141.106 409.304 141.023 410.547 140.655 411.789Z" fill="black"/>
<path d="M156.169 411.789C155.802 410.547 155.719 409.304 155.703 408.062C155.717 406.82 155.799 405.577 156.169 404.335C156.538 405.577 156.621 406.82 156.635 408.062C156.619 409.304 156.536 410.547 156.169 411.789Z" fill="black"/>
<path d="M145.257 411.789C144.89 410.547 144.807 409.304 144.791 408.062C144.805 406.82 144.887 405.577 145.257 404.335C145.626 405.577 145.709 406.82 145.723 408.062C145.707 409.304 145.625 410.547 145.257 411.789Z" fill="black"/>
<path d="M143.687 411.789C143.319 410.547 143.237 409.304 143.221 408.062C143.235 406.82 143.317 405.577 143.687 404.335C144.056 405.577 144.139 406.82 144.153 408.062C144.137 409.304 144.054 410.547 143.687 411.789Z" fill="black"/>
<path d="M127.454 411.789C127.087 410.547 127.004 409.304 126.988 408.062C127.002 406.82 127.084 405.577 127.454 404.335C127.823 405.577 127.906 406.82 127.92 408.062C127.904 409.304 127.821 410.547 127.454 411.789Z" fill="black"/>
<path d="M125.099 411.789C124.732 410.547 124.649 409.304 124.633 408.062C124.647 406.82 124.729 405.577 125.099 404.335C125.468 405.577 125.551 406.82 125.565 408.062C125.549 409.304 125.466 410.547 125.099 411.789Z" fill="black"/>
<path d="M130.808 411.789C130.441 410.547 130.358 409.304 130.342 408.062C130.356 406.82 130.438 405.577 130.808 404.335C131.177 405.577 131.26 406.82 131.274 408.062C131.258 409.304 131.175 410.547 130.808 411.789Z" fill="black"/>
<path d="M152.353 411.789C151.986 410.547 151.903 409.304 151.887 408.062C151.901 406.82 151.983 405.577 152.353 404.335C152.722 405.577 152.805 406.82 152.819 408.062C152.803 409.304 152.72 410.547 152.353 411.789Z" fill="black"/>
</g>
<path opacity="0.1" d="M165.52 403.483V405.463L123.361 406.792V403.483H165.52Z" fill="black"/>
<path d="M74.1485 388.715C101.902 393.694 94.5714 434.808 66.7726 429.82C39.0223 424.84 46.3516 383.727 74.1485 388.715Z" fill="#FFC727"/>
<path opacity="0.1" d="M74.1485 388.715C101.902 393.694 94.5714 434.808 66.7726 429.82C39.0223 424.84 46.3516 383.727 74.1485 388.715Z" fill="black"/>
<path d="M71.5439 388.248C97.9931 392.994 90.6611 434.106 64.168 429.353C37.7197 424.606 45.0518 383.494 71.5439 388.248Z" fill="#FFC727"/>
<path opacity="0.1" d="M51.0801 409.767C51.2227 417.091 55.4866 424.188 64.7973 425.859C86.7813 429.803 92.8691 395.68 70.9186 391.742C70.7751 391.716 70.6316 391.691 70.4862 391.673C91.0694 395.793 85.1708 428.084 64.2092 424.323C55.659 422.79 51.5349 416.468 51.0801 409.767Z" fill="black"/>
<g opacity="0.1">
<path d="M70.1426 396.006C70.5089 396.098 70.7419 396.486 70.6505 396.852L70.3691 397.98C72.358 398.656 73.6553 399.7 74.8977 401.207C75.1018 401.468 75.2006 401.673 75.1307 401.955C75.0319 402.349 74.6162 402.574 74.221 402.476C74.0524 402.435 73.9172 402.371 73.7625 402.152C72.6553 400.707 71.4418 399.806 69.9888 399.264L68.0186 407.162C72.0812 409.134 73.4848 411.192 72.7951 413.957C72.0495 416.947 69.0112 418.436 65.4574 417.669L64.9085 419.869C64.8172 420.237 64.4294 420.469 64.0622 420.377C63.695 420.286 63.463 419.898 63.5543 419.531L64.1098 417.303C61.7052 416.493 59.9279 415.091 58.446 412.983C58.2904 412.765 58.2195 412.567 58.2829 412.314C58.3742 411.946 58.7974 411.693 59.1646 411.784C59.4181 411.848 59.5597 412.003 59.6231 412.109C60.8366 413.97 62.339 415.274 64.4835 416.048L66.4892 408.009C62.49 406.023 61.1283 404.035 61.832 401.215C62.5431 398.366 65.5665 396.813 69.0289 397.587L69.2963 396.514C69.3886 396.148 69.7754 395.914 70.1426 396.006ZM66.848 406.57L68.7688 398.87C66.0185 398.243 63.805 399.429 63.2989 401.46C62.8208 403.378 63.4275 404.788 66.848 406.57ZM67.6598 408.601L65.7175 416.386C68.5526 417.032 70.7941 415.854 71.329 413.711C71.8146 411.764 71.1231 410.333 67.6598 408.601Z" fill="black"/>
</g>
</svg>
